<svg width="25" height="24" viewBox="0 0 25 24" fill="none" xmlns="http://www.w3.org/2000/svg">
<path fill-rule="evenodd" clip-rule="evenodd" d="M10.8104 4.23059C11.4515 3.12569 13.1416 3.58052 13.1416 4.85795V16.5386C13.1416 17.5594 12.5761 18.4963 11.6728 18.9719L8.39714 20.6967C7.10013 21.3796 5.5885 20.2608 5.8627 18.8208L6.56268 15.1449C6.64788 14.6974 6.48296 14.2391 6.13222 13.9485L3.63332 11.8782C2.46904 10.9136 2.99344 9.026 4.48844 8.8002L7.91808 8.28219C8.29314 8.22554 8.62219 8.00165 8.81257 7.67357L10.8104 4.23059ZM11.6416 5.78691L10.11 8.4264C9.69115 9.14818 8.96724 9.64074 8.1421 9.76537L4.71245 10.2834C4.49888 10.3156 4.42397 10.5853 4.59029 10.7231L7.08919 12.7934C7.86083 13.4327 8.22365 14.4411 8.03621 15.4255L7.33622 19.1014C7.29705 19.3071 7.513 19.467 7.69829 19.3694L10.9739 17.6446C11.3845 17.4285 11.6416 17.0026 11.6416 16.5386V5.78691Z" fill="black"/>
</svg>
