<svg width="25" height="24" viewBox="0 0 25 24" fill="none" xmlns="http://www.w3.org/2000/svg">
<path fill-rule="evenodd" clip-rule="evenodd" d="M4.86811 10.481C6.81016 14.7108 10.2655 18.0738 14.5615 19.8974L15.3193 20.235C16.9403 20.9572 18.8457 20.4443 19.8851 19.0058L21.1594 17.242C21.7043 16.4879 21.5639 15.4393 20.8398 14.8551L18.615 13.0603C17.8408 12.4358 16.7024 12.5812 16.1102 13.3804L15.614 14.0499C13.4197 12.919 11.6273 11.1266 10.4964 8.93221L11.1659 8.43605C11.965 7.84381 12.1105 6.70542 11.4859 5.93125L9.69089 3.7062C9.10689 2.98231 8.05867 2.8417 7.30454 3.38611L5.53125 4.66627C4.08327 5.71158 3.57334 7.63299 4.31244 9.25874L4.86694 10.4785L4.86811 10.481ZM15.1535 18.5191C11.1997 16.8425 8.01921 13.7483 6.23189 9.85641L6.23129 9.85511L5.67795 8.63795C5.23449 7.6625 5.54045 6.50966 6.40924 5.88247L8.18253 4.60231C8.29026 4.52454 8.44001 4.54462 8.52344 4.64804L10.3185 6.87308C10.4077 6.98368 10.3869 7.14631 10.2728 7.23091L9.10438 8.09677C8.82063 8.30705 8.72203 8.68681 8.86764 9.00857C10.2056 11.965 12.5813 14.3407 15.5377 15.6786C15.8594 15.8242 16.2392 15.7256 16.4495 15.4419L17.3153 14.2735C17.4 14.1593 17.5626 14.1385 17.6732 14.2278L19.8979 16.0226C20.0014 16.106 20.0214 16.2558 19.9436 16.3636L18.6692 18.1273C18.0456 18.9904 16.9024 19.2982 15.9298 18.8648L15.1659 18.5244L15.1535 18.5191Z" fill="black"/>
<path d="M14.1416 9.00003C14.1416 9.19894 14.2206 9.38971 14.3613 9.53036C14.5019 9.67101 14.6927 9.75003 14.8916 9.75003H18.72C19.1343 9.75003 19.47 9.41424 19.47 9.00003C19.47 8.58582 19.1343 8.25003 18.72 8.25003H16.7023L19.8613 5.09102C20.1542 4.79813 20.1542 4.32325 19.8613 4.03036C19.5684 3.73747 19.0935 3.73747 18.8006 4.03036L15.6416 7.18937V5.1716C15.6416 4.75739 15.3058 4.4216 14.8916 4.4216C14.4774 4.4216 14.1416 4.75739 14.1416 5.1716V9.00003Z" fill="black"/>
</svg>
