<svg width="25" height="24" viewBox="0 0 25 24" fill="none" xmlns="http://www.w3.org/2000/svg">
<path fill-rule="evenodd" clip-rule="evenodd" d="M10.8779 4.11419C11.5523 2.95192 13.2308 2.95193 13.9052 4.11419L15.9705 7.67355C16.1609 8.00164 16.49 8.22553 16.865 8.28218L20.2947 8.80018C21.7897 9.02598 22.3141 10.9136 21.1498 11.8781L18.6509 13.9485C18.3001 14.239 18.1352 14.6974 18.2204 15.1449L18.9204 18.8208C19.1946 20.2608 17.683 21.3796 16.386 20.6966L12.9739 18.9001C12.6094 18.7081 12.1737 18.7081 11.8092 18.9001L8.39714 20.6966C7.10013 21.3796 5.5885 20.2608 5.8627 18.8208L6.56268 15.1449C6.64788 14.6974 6.48296 14.239 6.13222 13.9485L3.63332 11.8781C2.46904 10.9136 2.99344 9.02598 4.48844 8.80018L7.91808 8.28218C8.29314 8.22553 8.62219 8.00164 8.81257 7.67355L10.8779 4.11419ZM12.6078 4.86702C12.5114 4.70098 12.2717 4.70098 12.1753 4.86702L10.11 8.42638C9.69115 9.14817 8.96724 9.64073 8.1421 9.76535L4.71245 10.2834C4.49888 10.3156 4.42397 10.5853 4.59029 10.7231L7.08919 12.7934C7.86083 13.4327 8.22365 14.4411 8.03621 15.4254L7.33622 19.1014C7.29705 19.3071 7.513 19.467 7.69829 19.3694L11.1103 17.5728C11.9123 17.1505 12.8708 17.1505 13.6728 17.5728L17.0848 19.3694C17.2701 19.467 17.4861 19.3071 17.4469 19.1014L16.7469 15.4254C16.5595 14.4411 16.9223 13.4327 17.6939 12.7934L20.1928 10.7231C20.3591 10.5853 20.2842 10.3156 20.0707 10.2834L16.641 9.76535C15.8159 9.64073 15.092 9.14817 14.6731 8.42638L12.6078 4.86702Z" fill="black"/>
</svg>
