<svg width="25" height="24" viewBox="0 0 25 24" fill="none" xmlns="http://www.w3.org/2000/svg">
<path d="M10.0935 11.2019C10.3864 10.909 10.8613 10.909 11.1542 11.2019L12.3916 12.4393L13.6291 11.2019C13.922 10.909 14.3968 10.909 14.6897 11.2019C14.9826 11.4948 14.9826 11.9697 14.6897 12.2626L13.4523 13.5L14.6897 14.7374C14.9826 15.0303 14.9826 15.5052 14.6897 15.7981C14.3968 16.091 13.922 16.091 13.6291 15.7981L12.3916 14.5607L11.1542 15.7981C10.8613 16.091 10.3864 16.091 10.0935 15.7981C9.80064 15.5052 9.80064 15.0303 10.0935 14.7374L11.331 13.5L10.0935 12.2626C9.80065 11.9697 9.80065 11.4948 10.0935 11.2019Z" fill="black"/>
<path fill-rule="evenodd" clip-rule="evenodd" d="M21.5529 9.74679C21.9497 12.233 21.9213 14.7686 21.4688 17.2453C21.2664 18.353 20.34 19.1833 19.2169 19.2636L17.579 19.3808C14.1252 19.6279 10.6581 19.6279 7.20424 19.3808L5.69024 19.2725C4.49421 19.1869 3.5077 18.3027 3.29218 17.1232C2.85552 14.7333 2.78076 12.2913 3.07042 9.87915L3.34291 7.61004C3.50461 6.26343 4.64702 5.25 6.0033 5.25H8.29487C9.41262 5.25 10.3439 6.04846 10.5494 7.10612L18.8638 7.10612C20.1702 7.10612 21.2829 8.05533 21.4888 9.34535L21.5529 9.74679ZM19.9932 16.9757C20.4152 14.6662 20.4417 12.3017 20.0717 9.98322L20.0076 9.58178C19.9179 9.0197 19.433 8.60612 18.8638 8.60612H10.151C9.56592 8.60612 9.09163 8.13183 9.09163 7.54677C9.09163 7.10672 8.73491 6.75 8.29487 6.75H6.0033C5.40627 6.75 4.90339 7.19611 4.83221 7.78888L4.55972 10.058C4.28799 12.3208 4.35812 14.6116 4.76775 16.8536C4.86028 17.36 5.2838 17.7396 5.79728 17.7763L7.31129 17.8846C10.6939 18.1266 14.0894 18.1266 17.472 17.8846L19.1099 17.7674C19.5504 17.7359 19.9138 17.4102 19.9932 16.9757Z" fill="black"/>
</svg>
