<svg width="25" height="24" viewBox="0 0 25 24" fill="none" xmlns="http://www.w3.org/2000/svg">
<path d="M7.3916 10C6.28703 10 5.3916 10.8954 5.3916 12C5.3916 13.1046 6.28703 14 7.3916 14C8.49617 14 9.3916 13.1046 9.3916 12C9.3916 10.8954 8.49617 10 7.3916 10Z" fill="black"/>
<path fill-rule="evenodd" clip-rule="evenodd" d="M7.3916 6.25C4.21596 6.25 1.6416 8.82436 1.6416 12C1.6416 15.1756 4.21596 17.75 7.3916 17.75C9.57218 17.75 11.4678 16.5363 12.4424 14.75H15.6416V17C15.6416 17.4142 15.9774 17.75 16.3916 17.75H19.8916C20.3058 17.75 20.6416 17.4142 20.6416 17V14.75H22.3916C22.8058 14.75 23.1416 14.4142 23.1416 14V11C23.1416 10.0335 22.3581 9.25 21.3916 9.25H12.4424C11.4678 7.46371 9.57218 6.25 7.3916 6.25ZM3.1416 12C3.1416 9.65279 5.04439 7.75 7.3916 7.75C9.13321 7.75 10.6318 8.79769 11.2883 10.3003C11.4076 10.5734 11.6775 10.75 11.9756 10.75H21.3916C21.5297 10.75 21.6416 10.8619 21.6416 11V13.25H19.8916C19.4774 13.25 19.1416 13.5858 19.1416 14V16.25H17.1416V14C17.1416 13.5858 16.8058 13.25 16.3916 13.25H11.9756C11.6775 13.25 11.4076 13.4266 11.2883 13.6997C10.6318 15.2023 9.13321 16.25 7.3916 16.25C5.04439 16.25 3.1416 14.3472 3.1416 12Z" fill="black"/>
</svg>
