<svg width="25" height="24" viewBox="0 0 25 24" fill="none" xmlns="http://www.w3.org/2000/svg">
<path fill-rule="evenodd" clip-rule="evenodd" d="M7.3916 3.25C7.80582 3.25 8.1416 3.58579 8.1416 4V5.66763C10.9693 5.4158 13.8139 5.4158 16.6416 5.66763V4C16.6416 3.58579 16.9774 3.25 17.3916 3.25C17.8058 3.25 18.1416 3.58579 18.1416 4V5.81644C19.6346 6.02754 20.8142 7.20847 21.0138 8.71484L21.1004 9.36779C21.4644 12.1141 21.433 14.8984 21.007 17.6359C20.796 18.9919 19.6944 20.0335 18.3286 20.1681L17.1356 20.2858C13.9806 20.5969 10.8026 20.5969 7.64753 20.2858L6.45452 20.1681C5.08878 20.0335 3.98712 18.9919 3.77611 17.6359C3.35015 14.8984 3.31871 12.1141 3.68275 9.36779L3.7693 8.71484C3.96898 7.20845 5.14853 6.02751 6.6416 5.81643V4C6.6416 3.58579 6.97739 3.25 7.3916 3.25ZM7.83677 7.2028C10.866 6.90408 13.9172 6.90408 16.9464 7.2028L17.8518 7.2921C18.7186 7.37757 19.4124 8.04854 19.5268 8.91194L19.6134 9.56489C19.6436 9.793 19.671 10.0214 19.6955 10.25H5.08766C5.11215 10.0214 5.13951 9.79301 5.16974 9.5649L5.25629 8.91194C5.37074 8.04854 6.06457 7.37757 6.93131 7.2921L7.83677 7.2028ZM4.96843 11.75C4.87025 13.6381 4.96698 15.5332 5.25828 17.4052C5.36412 18.0854 5.91669 18.6078 6.60173 18.6754L7.79474 18.793C10.8519 19.0945 13.9313 19.0945 16.9884 18.793L18.1814 18.6754C18.8664 18.6078 19.419 18.0854 19.5249 17.4052C19.8162 15.5332 19.9129 13.6381 19.8147 11.75H4.96843Z" fill="black"/>
</svg>
