<svg width="25" height="24" viewBox="0 0 25 24" fill="none" xmlns="http://www.w3.org/2000/svg">
<path fill-rule="evenodd" clip-rule="evenodd" d="M20.198 5.37072C20.8654 5.85234 21.3366 6.59094 21.4657 7.44945C21.511 7.7503 21.5517 8.05166 21.5879 8.35342C21.8681 10.9563 21.8555 13.9581 21.4657 16.5505C21.25 17.9849 20.0794 19.0845 18.6343 19.2101L17.1241 19.3414C13.975 19.6151 10.8081 19.6151 7.6591 19.3414L6.14887 19.2101C4.7038 19.0845 3.53313 17.9849 3.31743 16.5505C2.92761 13.9581 2.91512 10.9562 3.19527 8.35326C3.23148 8.05155 3.2722 7.75025 3.31743 7.44945C3.44635 6.59213 3.91643 5.85438 4.58234 5.37272L4.58157 5.36599L4.62883 5.33973C4.80134 5.21966 4.98642 5.11653 5.18165 5.03261L9.5976 2.57931C11.3342 1.61451 13.4459 1.61451 15.1825 2.57931L19.5882 5.02695C19.7928 5.11377 19.9864 5.22167 20.1662 5.34802L20.1986 5.36602L20.198 5.37072ZM19.3571 6.61448L14.454 3.89054C13.1704 3.17744 11.6097 3.17744 10.3261 3.89054L5.43439 6.60814C5.10091 6.85975 4.86632 7.23651 4.80076 7.67251C4.78906 7.75028 4.77768 7.82808 4.76662 7.90592L10.3276 10.9953C11.6112 11.7084 13.1719 11.7084 14.4555 10.9953L20.0165 7.90589C20.0055 7.82806 19.9941 7.75027 19.9824 7.67251C19.9174 7.24016 19.6862 6.86606 19.3571 6.61448ZM20.0971 15.4805C20.3355 13.5015 20.3698 11.5042 20.2001 9.51987L15.184 12.3066C13.4474 13.2714 11.3357 13.2714 9.59909 12.3066L4.58307 9.5199C4.41335 11.5042 4.44769 13.5015 4.68609 15.4805C4.72015 15.7632 4.75837 16.0456 4.80075 16.3274C4.82475 16.487 4.87139 16.6386 4.93723 16.7791C5.18033 17.2977 5.68521 17.6642 6.27877 17.7158L7.789 17.847C10.8516 18.1133 13.9315 18.1133 16.9942 17.8471L18.5044 17.7158C18.9758 17.6748 19.3913 17.4352 19.6642 17.0785C19.8279 16.8644 19.9402 16.6082 19.9824 16.3274C20.0248 16.0456 20.063 15.7632 20.0971 15.4805Z" fill="black"/>
</svg>
