<svg width="25" height="24" viewBox="0 0 25 24" fill="none" xmlns="http://www.w3.org/2000/svg">
<path fill-rule="evenodd" clip-rule="evenodd" d="M11.8779 4.76792C8.11354 5.03144 5.1416 8.16865 5.1416 12C5.1416 16.0041 8.38754 19.25 12.3916 19.25C15.5995 19.25 18.3213 17.1662 19.2764 14.2787C18.5413 14.5824 17.7357 14.75 16.8916 14.75C13.4398 14.75 10.6416 11.9518 10.6416 8.5C10.6416 7.10086 11.1017 5.80909 11.8779 4.76792ZM3.6416 12C3.6416 7.16751 7.55911 3.25 12.3916 3.25C12.8412 3.25 13.2834 3.28398 13.7156 3.34962C14.0145 3.39503 14.257 3.61553 14.3304 3.90886C14.4039 4.20219 14.2941 4.51095 14.0518 4.69194C12.8908 5.55935 12.1416 6.94208 12.1416 8.5C12.1416 11.1234 14.2682 13.25 16.8916 13.25C18.0258 13.25 19.0654 12.8534 19.8822 12.1906C20.1168 12.0002 20.4429 11.9692 20.7093 12.1121C20.9756 12.255 21.1302 12.5437 21.1013 12.8446C20.6759 17.2812 16.9393 20.75 12.3916 20.75C7.55911 20.75 3.6416 16.8325 3.6416 12Z" fill="black"/>
</svg>
