<svg width="25" height="24" viewBox="0 0 25 24" fill="none" xmlns="http://www.w3.org/2000/svg">
<path fill-rule="evenodd" clip-rule="evenodd" d="M13.1416 15.3725C13.4355 15.6078 13.7617 15.8009 14.1109 15.9455C14.5962 16.1465 15.1163 16.25 15.6416 16.25C16.1669 16.25 16.687 16.1465 17.1723 15.9455C17.6576 15.7445 18.0986 15.4499 18.47 15.0784C18.8415 14.707 19.1361 14.266 19.3371 13.7807C19.5381 13.2954 19.6416 12.7753 19.6416 12.25C19.6416 11.7247 19.5381 11.2046 19.3371 10.7193C19.1361 10.234 18.8415 9.79301 18.47 9.42157C18.3159 9.26742 18.1497 9.1265 17.9734 9C18.1497 8.87351 18.3159 8.73258 18.47 8.57843C18.8415 8.20699 19.1361 7.76604 19.3371 7.28073C19.5381 6.79543 19.6416 6.27529 19.6416 5.75C19.6416 5.22471 19.5381 4.70457 19.3371 4.21927C19.1361 3.73396 18.8415 3.29301 18.47 2.92157C18.0986 2.55014 17.6576 2.2555 17.1723 2.05448C16.687 1.85346 16.1669 1.75 15.6416 1.75H9.1416C8.08074 1.75 7.06332 2.17143 6.31317 2.92157C5.56303 3.67172 5.1416 4.68913 5.1416 5.75C5.1416 6.81087 5.56303 7.82828 6.31317 8.57843C6.46797 8.73322 6.63414 8.87402 6.80973 9C6.63414 9.12599 6.46797 9.26678 6.31317 9.42157C5.56303 10.1717 5.1416 11.1891 5.1416 12.25C5.1416 13.3109 5.56303 14.3283 6.31317 15.0784C6.46797 15.2332 6.63414 15.374 6.80973 15.5C6.63414 15.626 6.46797 15.7668 6.31317 15.9216C5.56303 16.6717 5.1416 17.6891 5.1416 18.75C5.1416 19.8109 5.56303 20.8283 6.31317 21.5784C7.06332 22.3286 8.08074 22.75 9.1416 22.75C10.2025 22.75 11.2199 22.3286 11.97 21.5784C12.7202 20.8283 13.1416 19.8109 13.1416 18.75V15.3725ZM9.1416 3.25C8.47856 3.25 7.84268 3.51339 7.37383 3.98223C6.90499 4.45107 6.6416 5.08696 6.6416 5.75C6.6416 6.41304 6.90499 7.04893 7.37383 7.51777C7.84268 7.98661 8.47856 8.25 9.1416 8.25H11.6416V3.25H9.1416ZM11.6416 16.25H9.1416C8.47856 16.25 7.84268 16.5134 7.37383 16.9822C6.90499 17.4511 6.6416 18.087 6.6416 18.75C6.6416 19.413 6.90499 20.0489 7.37383 20.5178C7.84268 20.9866 8.47856 21.25 9.1416 21.25C9.80464 21.25 10.4405 20.9866 10.9094 20.5178C11.3782 20.0489 11.6416 19.413 11.6416 18.75V16.25ZM9.1416 9.75C8.47856 9.75 7.84268 10.0134 7.37383 10.4822C6.90499 10.9511 6.6416 11.587 6.6416 12.25C6.6416 12.913 6.90499 13.5489 7.37383 14.0178C7.84268 14.4866 8.47856 14.75 9.1416 14.75H11.6416V9.75H9.1416ZM13.1416 12.25C13.1416 12.5783 13.2063 12.9034 13.3319 13.2067C13.4575 13.51 13.6417 13.7856 13.8738 14.0178C14.106 14.2499 14.3816 14.4341 14.6849 14.5597C14.9882 14.6853 15.3133 14.75 15.6416 14.75C15.9699 14.75 16.295 14.6853 16.5983 14.5597C16.9016 14.4341 17.1772 14.2499 17.4094 14.0178C17.6415 13.7856 17.8257 13.51 17.9513 13.2067C18.0769 12.9034 18.1416 12.5783 18.1416 12.25C18.1416 11.9217 18.0769 11.5966 17.9513 11.2933C17.8257 10.99 17.6415 10.7144 17.4094 10.4822C17.1772 10.2501 16.9016 10.0659 16.5983 9.9403C16.295 9.81466 15.9699 9.75 15.6416 9.75C15.3133 9.75 14.9882 9.81466 14.6849 9.9403C14.3816 10.0659 14.106 10.2501 13.8738 10.4822C13.6417 10.7144 13.4575 10.99 13.3319 11.2933C13.2063 11.5966 13.1416 11.9217 13.1416 12.25ZM15.6416 8.25C15.9699 8.25 16.295 8.18534 16.5983 8.0597C16.9016 7.93406 17.1772 7.74991 17.4094 7.51777C17.6415 7.28562 17.8257 7.01002 17.9513 6.70671C18.0769 6.40339 18.1416 6.0783 18.1416 5.75C18.1416 5.4217 18.0769 5.09661 17.9513 4.79329C17.8257 4.48998 17.6415 4.21438 17.4094 3.98223C17.1772 3.75009 16.9016 3.56594 16.5983 3.4403C16.295 3.31466 15.9699 3.25 15.6416 3.25H13.1416V8.25H15.6416Z" fill="black"/>
</svg>
