<svg width="25" height="24" viewBox="0 0 25 24" fill="none" xmlns="http://www.w3.org/2000/svg">
<path d="M11.8612 8.53033C12.0019 8.67098 12.1926 8.75 12.3915 8.75C12.5905 8.75 12.7812 8.67098 12.9219 8.53033L13.9219 7.53033C14.1364 7.31583 14.2005 6.99324 14.0844 6.71299C13.9684 6.43273 13.6949 6.25 13.3915 6.25H11.3915C11.0882 6.25 10.8147 6.43273 10.6986 6.71299C10.5825 6.99324 10.6467 7.31583 10.8612 7.53033L11.8612 8.53033Z" fill="black"/>
<path d="M11.8612 15.4697C12.0019 15.329 12.1926 15.25 12.3915 15.25C12.5905 15.25 12.7812 15.329 12.9219 15.4697L13.9219 16.4697C14.1364 16.6842 14.2005 17.0068 14.0844 17.287C13.9684 17.5673 13.6949 17.75 13.3915 17.75H11.3915C11.0882 17.75 10.8147 17.5673 10.6986 17.287C10.5825 17.0068 10.6467 16.6842 10.8612 16.4697L11.8612 15.4697Z" fill="black"/>
<path fill-rule="evenodd" clip-rule="evenodd" d="M13.5406 12L13.7279 11.8386C15.7033 10.1366 17.3457 8.08279 18.5717 5.78147C19.0529 4.8784 18.4555 3.77732 17.4362 3.6882L16.2627 3.58559C13.6868 3.36038 11.0963 3.36039 8.52044 3.58559L7.3469 3.6882C6.32755 3.77732 5.73025 4.8784 6.21136 5.78148C7.43738 8.08279 9.0798 10.1366 11.0552 11.8386L11.2425 12L11.0552 12.1614C9.0798 13.8634 7.43738 15.9172 6.21136 18.2185C5.73025 19.1216 6.32755 20.2227 7.3469 20.3118L8.52044 20.4144C11.0963 20.6396 13.6868 20.6396 16.2627 20.4144L17.4362 20.3118C18.4555 20.2227 19.0529 19.1216 18.5717 18.2185C17.3457 15.9172 15.7033 13.8634 13.7279 12.1614L13.5406 12ZM12.3952 11.0063C12.3956 11.0061 12.3965 11.0058 12.398 11.0044L12.7488 10.7022C14.5559 9.14525 16.063 7.27129 17.196 5.17292L16.132 5.07989C13.6431 4.86229 11.14 4.86229 8.65109 5.07989L7.58709 5.17292C8.72013 7.27129 10.2272 9.14525 12.0343 10.7022L12.3851 11.0044C12.3861 11.0053 12.3868 11.0057 12.3873 11.006C12.3875 11.0061 12.3871 11.0059 12.3873 11.006C12.388 11.0063 12.3899 11.0068 12.3916 11.0068C12.3932 11.0068 12.3944 11.0065 12.3952 11.0063ZM12.398 12.9956C12.3965 12.9942 12.3956 12.9939 12.3952 12.9937C12.3948 12.9936 12.3944 12.9935 12.3938 12.9934C12.3932 12.9932 12.3924 12.9932 12.3916 12.9932C12.3899 12.9932 12.3887 12.9935 12.3879 12.9937C12.3875 12.9939 12.3866 12.9942 12.3851 12.9956L12.0343 13.2978C10.2272 14.8547 8.72013 16.7287 7.58709 18.8271L8.65109 18.9201C11.14 19.1377 13.6431 19.1377 16.132 18.9201L17.196 18.8271C16.063 16.7287 14.5559 14.8547 12.7488 13.2978L12.398 12.9956Z" fill="black"/>
</svg>
