<svg width="25" height="24" viewBox="0 0 25 24" fill="none" xmlns="http://www.w3.org/2000/svg">
<path d="M12.3916 2C12.9439 2 13.3916 2.44772 13.3916 3V3.75H13.949C15.131 3.75 16.2049 4.23822 16.9727 5.02888C17.0641 5.12308 17.0584 5.27254 16.9656 5.36539L16.2628 6.06817C16.1576 6.17338 15.9849 6.16314 15.8803 6.05727C15.387 5.5577 14.7021 5.25 13.949 5.25H10.8342C9.40118 5.25 8.21515 6.36417 8.12569 7.79438L7.90469 11.3278C7.8033 12.949 7.25904 14.5112 6.33119 15.8444V15.8444C6.28081 15.9168 6.28254 16.0392 6.22046 16.1019L5.45706 16.8722C5.3591 16.9711 5.19743 16.9718 5.11626 16.8587C4.73857 16.3326 4.68018 15.5908 5.10001 14.9876C5.87107 13.8797 6.32335 12.5814 6.40762 11.2342L6.62862 7.70074C6.76751 5.48001 8.60911 3.75 10.8342 3.75H11.3916V3C11.3916 2.44772 11.8393 2 12.3916 2Z" fill="black"/>
<path fill-rule="evenodd" clip-rule="evenodd" d="M18.1779 8.07431L21.4219 4.83032C21.7148 4.53742 21.7148 4.06255 21.4219 3.76966C21.129 3.47676 20.6542 3.47676 20.3613 3.76966L4.36127 19.7697C4.06838 20.0626 4.06838 20.5374 4.36127 20.8303C4.65416 21.1232 5.12904 21.1232 5.42193 20.8303L8.46773 17.7845L9.6416 17.9254V19C9.6416 20.5188 10.8728 21.75 12.3916 21.75C13.9104 21.75 15.1416 20.5188 15.1416 19V17.9254L18.5487 17.5165C19.7597 17.3712 20.3799 15.9886 19.6832 14.9876C18.9121 13.8797 18.4598 12.5814 18.3756 11.2342L18.1779 8.07431ZM16.7635 9.48877L9.81663 16.4356L10.1509 16.4757C11.6393 16.6543 13.1439 16.6543 14.6323 16.4757L18.37 16.0272C18.4575 16.0167 18.5024 15.9168 18.452 15.8444C17.5242 14.5112 16.9799 12.949 16.8785 11.3278L16.7635 9.48877ZM12.3916 20.25C11.7012 20.25 11.1416 19.6904 11.1416 19V18.25H13.6416V19C13.6416 19.6904 13.082 20.25 12.3916 20.25Z" fill="black"/>
</svg>
