<svg width="25" height="24" viewBox="0 0 25 24" fill="none" xmlns="http://www.w3.org/2000/svg">
<path fill-rule="evenodd" clip-rule="evenodd" d="M12.1539 3.25012C12.6131 3.25577 13.1436 3.47285 13.4298 3.98432L13.604 4.29566C16.2622 9.04585 18.4291 13.9835 20.0779 19.049C20.2956 19.7181 19.9367 20.2858 19.4886 20.5487C19.0501 20.806 18.447 20.8404 17.9363 20.512L13.2089 17.4719C12.6864 17.1359 11.9773 17.135 11.4879 17.4441L6.85644 20.3691C6.33441 20.6988 5.72867 20.6351 5.30341 20.3799C4.87628 20.1236 4.49495 19.5712 4.69432 18.8969C6.18137 13.8676 8.19132 8.97844 10.6993 4.28868L10.8636 3.9815C11.1479 3.44999 11.6958 3.24449 12.1539 3.25012ZM12.1467 4.76305L12.0221 4.99606C9.61681 9.49368 7.6795 14.1762 6.232 18.9894L10.687 16.1759C11.6857 15.5451 13.0237 15.5694 14.0202 16.2103L18.5163 19.1016C16.9158 14.2751 14.8344 9.56597 12.295 5.02816L12.1467 4.76305Z" fill="black"/>
</svg>
