<svg width="25" height="24" viewBox="0 0 25 24" fill="none" xmlns="http://www.w3.org/2000/svg">
<path fill-rule="evenodd" clip-rule="evenodd" d="M20.7529 18.5795C20.3473 18.97 19.8095 19.2212 19.2169 19.2636L17.579 19.3808C14.1252 19.6279 10.6581 19.6279 7.20424 19.3808L5.69024 19.2725C4.49421 19.1869 3.5077 18.3027 3.29218 17.1232C2.85552 14.7333 2.78076 12.2913 3.07042 9.87915L3.34291 7.61004C3.50461 6.26343 4.64702 5.25 6.0033 5.25H8.29487C9.41262 5.25 10.3439 6.04846 10.5494 7.10612L18.8638 7.10612C20.1702 7.10612 21.2829 8.05533 21.4888 9.34535L21.5529 9.74679C21.5664 9.83114 21.5793 9.91554 21.5918 10H21.9278C23.4002 10 24.4125 11.4798 23.8789 12.8521L22.6294 16.065C22.2414 17.0626 21.5905 17.9301 20.7529 18.5795ZM20.0076 9.58178L20.0717 9.98322C20.0725 9.98881 20.0734 9.99441 20.0743 10H10.7621C9.62636 10 8.60748 10.6981 8.19749 11.7573L5.86565 17.7812L5.79728 17.7763C5.2838 17.7396 4.86028 17.36 4.76775 16.8536C4.35812 14.6116 4.28799 12.3208 4.55972 10.058L4.83221 7.78888C4.90339 7.19611 5.40627 6.75 6.0033 6.75H8.29487C8.73491 6.75 9.09163 7.10672 9.09163 7.54677C9.09163 8.13183 9.56592 8.60612 10.151 8.60612H18.8638C19.433 8.60612 19.9179 9.0197 20.0076 9.58178ZM7.43081 17.8931C10.7738 18.1266 14.1292 18.1238 17.472 17.8846L19.1099 17.7674L19.3044 17.7492L19.3031 17.7468C20.1836 17.25 20.865 16.4636 21.2314 15.5213L22.4809 12.3084C22.6321 11.9195 22.3452 11.5 21.9278 11.5H10.7621C10.2458 11.5 9.7827 11.8173 9.59635 12.2988L7.43081 17.8931Z" fill="black"/>
</svg>
