<svg width="25" height="24" viewBox="0 0 25 24" fill="none" xmlns="http://www.w3.org/2000/svg">
<path d="M12.3916 18.25C11.9774 18.25 11.6416 18.5858 11.6416 19C11.6416 19.4142 11.9774 19.75 12.3916 19.75H18.3916C19.3581 19.75 20.1416 18.9665 20.1416 18V6C20.1416 5.0335 19.3581 4.25 18.3916 4.25H12.3916C11.9774 4.25 11.6416 4.58579 11.6416 5C11.6416 5.41421 11.9774 5.75 12.3916 5.75L18.3916 5.75C18.5297 5.75 18.6416 5.86193 18.6416 6L18.6416 18C18.6416 18.1381 18.5297 18.25 18.3916 18.25H12.3916Z" fill="black"/>
<path fill-rule="evenodd" clip-rule="evenodd" d="M3.6416 13.1152C3.6416 13.8056 4.20124 14.3652 4.8916 14.3652H9.5042C9.51072 14.4386 9.51755 14.512 9.52468 14.5854L9.57871 15.1413C9.66114 15.9894 10.5617 16.4973 11.3302 16.1291C12.9644 15.3459 14.543 14.1706 15.7965 12.8618C16.2607 12.3771 16.2607 11.6128 15.7965 11.1281L15.6973 11.0245C14.4438 9.71578 12.9644 8.64403 11.3302 7.86084C10.5617 7.49258 9.66114 8.00049 9.57871 8.8486L9.52468 9.40448C9.51755 9.47787 9.51072 9.55128 9.5042 9.6247L4.8916 9.6247C4.20125 9.6247 3.6416 10.1843 3.6416 10.8747V13.1152ZM10.9448 13.5307C10.9023 13.1537 10.5829 12.8652 10.1996 12.8652H5.1416L5.1416 11.1247H10.1996C10.5957 11.1247 10.9235 10.8167 10.9481 10.4214C10.9663 10.1305 10.9894 9.83987 11.0176 9.54959L11.0333 9.38824C12.3382 10.0607 13.5258 10.9409 14.5493 11.995C14.1219 12.4351 13.666 12.8448 13.1848 13.2219C12.5136 13.7478 11.7934 14.21 11.0333 14.6017L11.0176 14.4403C10.9894 14.15 10.9663 13.8594 10.9481 13.5685C10.9473 13.5558 10.9462 13.5432 10.9448 13.5307Z" fill="black"/>
</svg>
