<svg width="25" height="24" viewBox="0 0 25 24" fill="none" xmlns="http://www.w3.org/2000/svg">
<path fill-rule="evenodd" clip-rule="evenodd" d="M11.5903 2.5872C12.0887 2.31035 12.6946 2.31035 13.1929 2.5872L20.3929 6.5872C20.9168 6.87821 21.2416 7.43034 21.2416 8.02956V15.9704C21.2416 16.5697 20.9168 17.1218 20.3929 17.4128L13.1929 21.4128C12.6946 21.6896 12.0887 21.6897 11.5903 21.4128L4.39031 17.4128C3.8665 17.1218 3.54163 16.5697 3.54163 15.9704V8.02956C3.54163 7.43034 3.8665 6.87821 4.39032 6.5872L11.5903 2.5872ZM12.4645 3.89844C12.4192 3.87327 12.3641 3.87327 12.3188 3.89844L5.11878 7.89844C5.07116 7.92489 5.04163 7.97509 5.04163 8.02956V15.9704C5.04163 16.0249 5.07116 16.0751 5.11878 16.1016L12.3188 20.1016C12.3641 20.1267 12.4192 20.1267 12.4645 20.1016L19.6645 16.1016C19.7121 16.0751 19.7416 16.0249 19.7416 15.9704V8.02956C19.7416 7.97509 19.7121 7.92489 19.6645 7.89844L12.4645 3.89844Z" fill="black"/>
<path fill-rule="evenodd" clip-rule="evenodd" d="M7.64163 12C7.64163 9.37665 9.76827 7.25 12.3916 7.25C15.015 7.25 17.1416 9.37665 17.1416 12C17.1416 14.6234 15.015 16.75 12.3916 16.75C9.76827 16.75 7.64163 14.6234 7.64163 12ZM12.3916 8.75C10.5967 8.75 9.14163 10.2051 9.14163 12C9.14163 13.7949 10.5967 15.25 12.3916 15.25C14.1866 15.25 15.6416 13.7949 15.6416 12C15.6416 10.2051 14.1866 8.75 12.3916 8.75Z" fill="black"/>
</svg>
