<svg width="25" height="24" viewBox="0 0 25 24" fill="none" xmlns="http://www.w3.org/2000/svg">
<path d="M12.3916 10.75C12.8058 10.75 13.1416 11.0858 13.1416 11.5V16.5C13.1416 16.9142 12.8058 17.25 12.3916 17.25C11.9774 17.25 11.6416 16.9142 11.6416 16.5V11.5C11.6416 11.0858 11.9774 10.75 12.3916 10.75Z" fill="black"/>
<path d="M12.3916 9C12.9439 9 13.3916 8.55228 13.3916 8C13.3916 7.44772 12.9439 7 12.3916 7C11.8393 7 11.3916 7.44772 11.3916 8C11.3916 8.55228 11.8393 9 12.3916 9Z" fill="black"/>
<path fill-rule="evenodd" clip-rule="evenodd" d="M3.6416 12C3.6416 7.16751 7.55911 3.25 12.3916 3.25C17.2241 3.25 21.1416 7.16751 21.1416 12C21.1416 16.8325 17.2241 20.75 12.3916 20.75C7.55911 20.75 3.6416 16.8325 3.6416 12ZM12.3916 4.75C8.38754 4.75 5.1416 7.99594 5.1416 12C5.1416 16.0041 8.38754 19.25 12.3916 19.25C16.3957 19.25 19.6416 16.0041 19.6416 12C19.6416 7.99594 16.3957 4.75 12.3916 4.75Z" fill="black"/>
</svg>
