<svg width="25" height="24" viewBox="0 0 25 24" fill="none" xmlns="http://www.w3.org/2000/svg">
<path fill-rule="evenodd" clip-rule="evenodd" d="M3.19527 8.3533C2.91512 10.9562 2.92761 13.9582 3.31743 16.5505C3.53313 17.9849 4.7038 19.0845 6.14887 19.2102L7.6591 19.3414C10.8081 19.6152 13.975 19.6152 17.1241 19.3414L18.6343 19.2102C20.0794 19.0845 21.25 17.9849 21.4657 16.5505C21.8555 13.9582 21.8681 10.9564 21.5879 8.35345C21.5517 8.05169 21.511 7.75034 21.4657 7.44949C21.25 6.0151 20.0794 4.91545 18.6343 4.78983L17.1241 4.65855C13.975 4.38481 10.8081 4.38481 7.6591 4.65855L6.14887 4.78983C4.7038 4.91545 3.53313 6.0151 3.31743 7.44949C3.2722 7.75028 3.23148 8.05159 3.19527 8.3533ZM7.789 6.15292C10.8516 5.88669 13.9315 5.88669 16.9942 6.15292L18.5044 6.2842C19.2587 6.34977 19.8698 6.92379 19.9824 7.67254C19.9941 7.7503 20.0055 7.82809 20.0165 7.90592L14.4555 10.9954C13.1719 11.7085 11.6112 11.7085 10.3276 10.9954L4.76662 7.90596C4.77768 7.82812 4.78906 7.75031 4.80076 7.67254C4.91335 6.92379 5.52444 6.34977 6.27877 6.2842L7.789 6.15292ZM20.2001 9.51989C20.3941 11.7876 20.3215 14.0725 19.9824 16.3274C19.8698 17.0762 19.2587 17.6502 18.5044 17.7158L16.9942 17.8471C13.9315 18.1133 10.8516 18.1133 7.789 17.8471L6.27877 17.7158C5.52444 17.6502 4.91335 17.0762 4.80076 16.3274C4.46167 14.0725 4.3891 11.7877 4.58307 9.51992L9.5991 12.3066C11.3357 13.2714 13.4474 13.2714 15.184 12.3066L20.2001 9.51989Z" fill="black"/>
</svg>
