<svg width="25" height="24" viewBox="0 0 25 24" fill="none" xmlns="http://www.w3.org/2000/svg">
<path d="M11.6416 9.99999C11.6416 10.4142 11.9774 10.75 12.3916 10.75C12.8058 10.75 13.1416 10.4142 13.1416 9.99999V6.99999C13.1416 6.58578 12.8058 6.24999 12.3916 6.24999C11.9774 6.24999 11.6416 6.58578 11.6416 6.99999V9.99999Z" fill="black"/>
<path fill-rule="evenodd" clip-rule="evenodd" d="M19.1416 9.07432C19.1416 5.75283 16.7252 2.92495 13.4443 2.40693C12.7468 2.29679 12.0364 2.29679 11.3389 2.40693C8.058 2.92495 5.6416 5.75283 5.6416 9.07433V14.9257C5.6416 18.2472 8.058 21.075 11.3389 21.5931C12.0364 21.7032 12.7468 21.7032 13.4443 21.5931C16.7252 21.075 19.1416 18.2472 19.1416 14.9257L19.1416 9.07432ZM13.2104 3.88857C15.7622 4.29148 17.6416 6.49094 17.6416 9.07432L17.6416 14.9257C17.6416 17.509 15.7622 19.7085 13.2104 20.1114C12.6679 20.1971 12.1153 20.1971 11.5728 20.1114C9.02102 19.7085 7.1416 17.509 7.1416 14.9257L7.1416 9.07433C7.1416 6.49094 9.02103 4.29148 11.5728 3.88857C12.1153 3.80291 12.6679 3.80291 13.2104 3.88857Z" fill="black"/>
</svg>
