<svg width="25" height="24" viewBox="0 0 25 24" fill="none" xmlns="http://www.w3.org/2000/svg">
<path fill-rule="evenodd" clip-rule="evenodd" d="M10.3916 3.25C8.04439 3.25 6.1416 5.15279 6.1416 7.5C6.1416 9.84721 8.04439 11.75 10.3916 11.75C12.7388 11.75 14.6416 9.84721 14.6416 7.5C14.6416 5.15279 12.7388 3.25 10.3916 3.25ZM7.6416 7.5C7.6416 5.98122 8.87282 4.75 10.3916 4.75C11.9104 4.75 13.1416 5.98122 13.1416 7.5C13.1416 9.01878 11.9104 10.25 10.3916 10.25C8.87282 10.25 7.6416 9.01878 7.6416 7.5Z" fill="black"/>
<path d="M4.1416 17C4.1416 15.7574 5.14896 14.75 6.3916 14.75H6.73247C6.75883 14.75 6.78502 14.7542 6.81007 14.7623L7.67559 15.045C8.35511 15.2669 9.05504 15.4033 9.75965 15.4543C9.90792 15.4651 10.0381 15.3609 10.0716 15.2161C10.1471 14.8894 10.2456 14.5714 10.3651 14.264C10.4179 14.1283 10.3187 13.9783 10.1732 13.9739C9.48659 13.9532 8.80225 13.8349 8.14119 13.6191L7.27567 13.3364C7.10029 13.2792 6.91696 13.25 6.73247 13.25H6.3916C4.32053 13.25 2.6416 14.9289 2.6416 17V18.1883C2.6416 18.9415 3.18749 19.5837 3.93087 19.7051C6.08902 20.0575 8.26878 20.2321 10.4484 20.229C10.6005 20.2288 10.696 20.0645 10.6279 19.9285C10.4811 19.6351 10.3542 19.3299 10.2492 19.0147C10.193 18.8462 10.0385 18.7278 9.86082 18.7254C7.95806 18.6992 6.05676 18.5323 4.17257 18.2247C4.15471 18.2218 4.1416 18.2064 4.1416 18.1883V17Z" fill="black"/>
<path d="M17.6416 15.3C17.6416 14.8857 17.3058 14.55 16.8916 14.55C16.4774 14.55 16.1416 14.8857 16.1416 15.3V17.0727C16.1416 17.3126 16.2564 17.5381 16.4505 17.6792L17.4505 18.4065C17.7855 18.6501 18.2545 18.5761 18.4982 18.2411C18.7418 17.9061 18.6677 17.437 18.3327 17.1934L17.6416 16.6908V15.3Z" fill="black"/>
<path fill-rule="evenodd" clip-rule="evenodd" d="M16.8916 22.3C19.9292 22.3 22.3916 19.8375 22.3916 16.8C22.3916 13.7624 19.9292 11.3 16.8916 11.3C13.854 11.3 11.3916 13.7624 11.3916 16.8C11.3916 19.8375 13.854 22.3 16.8916 22.3ZM16.8916 20.8C19.1007 20.8 20.8916 19.0091 20.8916 16.8C20.8916 14.5908 19.1007 12.8 16.8916 12.8C14.6825 12.8 12.8916 14.5908 12.8916 16.8C12.8916 19.0091 14.6825 20.8 16.8916 20.8Z" fill="black"/>
</svg>
