<svg width="25" height="24" viewBox="0 0 25 24" fill="none" xmlns="http://www.w3.org/2000/svg">
<path d="M13.3916 11.5C13.3916 10.6716 14.0632 10 14.8916 10C15.72 10 16.3916 10.6716 16.3916 11.5C16.3916 12.3284 15.72 13 14.8916 13C14.0632 13 13.3916 12.3284 13.3916 11.5Z" fill="black"/>
<path d="M11.5276 13.1025C11.3905 12.8832 11.1502 12.75 10.8916 12.75C10.633 12.75 10.3927 12.8832 10.2556 13.1025L7.7556 17.1025C7.6111 17.3337 7.60345 17.6251 7.73562 17.8636C7.86779 18.102 8.11896 18.25 8.3916 18.25H16.3916C16.6757 18.25 16.9354 18.0895 17.0624 17.8354C17.1895 17.5813 17.1621 17.2773 16.9916 17.05L15.4916 15.05C15.35 14.8611 15.1277 14.75 14.8916 14.75C14.6555 14.75 14.4332 14.8611 14.2916 15.05L13.4479 16.175L11.5276 13.1025Z" fill="black"/>
<path fill-rule="evenodd" clip-rule="evenodd" d="M7.3916 2.25C5.87282 2.25 4.6416 3.48122 4.6416 5V19C4.6416 20.5188 5.87282 21.75 7.3916 21.75H17.3916C18.9104 21.75 20.1416 20.5188 20.1416 19V7.96766C20.1416 7.58689 20.0174 7.21651 19.7879 6.9127L16.7901 2.94504C16.4593 2.5073 15.9425 2.25 15.3938 2.25H7.3916ZM6.1416 5C6.1416 4.30964 6.70125 3.75 7.3916 3.75H14.6416V8.14705C14.6416 8.56126 14.9774 8.89705 15.3916 8.89705H18.6416V19C18.6416 19.6904 18.082 20.25 17.3916 20.25H7.3916C6.70125 20.25 6.1416 19.6904 6.1416 19V5Z" fill="black"/>
</svg>
