<svg width="25" height="24" viewBox="0 0 25 24" fill="none" xmlns="http://www.w3.org/2000/svg">
<path d="M13.5958 11.2725C13.9692 11.3839 14.3251 11.5472 14.653 11.7577C14.988 11.9779 15.2672 12.2737 15.4688 12.6202C15.6776 13.004 15.7833 13.4353 15.7757 13.8722C15.7933 14.4356 15.6254 14.9893 15.2978 15.4481C14.9532 15.9191 14.4802 16.2808 13.9354 16.4898C13.3493 16.7237 12.7219 16.8365 12.091 16.8212C11.3486 16.8421 10.6122 16.6829 9.94468 16.3572C9.50598 16.1263 9.12933 15.7932 8.84656 15.386C8.56362 14.9945 8.40509 14.5268 8.3916 14.044C8.3916 13.827 8.47781 13.6188 8.63127 13.4654C8.78472 13.3119 8.99285 13.2257 9.20987 13.2257C9.42689 13.2257 9.63502 13.3119 9.78848 13.4654C9.94193 13.6188 10.0281 13.827 10.0281 14.044C10.045 14.1936 10.1021 14.3359 10.1934 14.4556C10.3236 14.6426 10.4964 14.7961 10.6975 14.9032C11.133 15.1066 11.6107 15.2031 12.091 15.1847C12.5063 15.1982 12.9201 15.1281 13.3078 14.9785C13.5679 14.885 13.7956 14.7189 13.964 14.4998C14.0887 14.3258 14.1505 14.1145 14.1391 13.9008C14.1477 13.7357 14.1145 13.571 14.0426 13.4221C13.9682 13.3001 13.8666 13.197 13.7456 13.121C13.5515 12.9987 13.3414 12.9039 13.1212 12.8395C12.942 12.7847 12.7464 12.7315 12.5435 12.6791L12.5288 12.6775C12.5197 12.6745 12.507 12.6714 12.4958 12.6687C12.4918 12.6678 12.488 12.6669 12.4846 12.666C12.352 12.6325 12.2195 12.5989 12.0779 12.5678C11.7162 12.4901 11.4658 12.4271 11.3087 12.3796C11.3052 12.3787 11.3021 12.3766 11.299 12.3745C11.2964 12.3727 11.2937 12.3709 11.2907 12.3698C10.9274 12.2817 10.5702 12.1702 10.2213 12.036C9.7595 11.8507 9.35396 11.5484 9.04458 11.1588C8.72413 10.7382 8.55671 10.221 8.56998 9.69243C8.57009 9.16152 8.74364 8.64518 9.06422 8.22199C9.39892 7.79639 9.84585 7.47274 10.3546 7.28752C10.9172 7.08534 11.5122 6.98827 12.1098 7.00113C12.58 6.99593 13.0483 7.06102 13.4993 7.19424C13.8899 7.30815 14.2559 7.49379 14.5786 7.74167C14.8578 7.95362 15.0909 8.22037 15.2634 8.52557C15.3152 8.62025 15.3478 8.72423 15.3592 8.83154C15.3706 8.93884 15.3607 9.04735 15.33 9.15081C15.2994 9.25427 15.2485 9.35064 15.1804 9.43437C15.1124 9.51811 15.0284 9.58755 14.9334 9.6387C14.8384 9.68985 14.7342 9.7217 14.6268 9.73242C14.5194 9.74314 14.411 9.73251 14.3077 9.70115C14.2045 9.66979 14.1084 9.61832 14.0252 9.54969C13.9419 9.48107 13.873 9.39665 13.8225 9.30129C13.7527 9.19149 13.6624 9.09619 13.5565 9.02062C13.3928 8.90125 13.2091 8.81202 13.014 8.75714C12.7199 8.67286 12.4149 8.6326 12.109 8.63767C11.7137 8.62602 11.3195 8.68589 10.9454 8.81442C10.723 8.89017 10.5252 9.02444 10.3726 9.2031C10.2637 9.34259 10.2046 9.51459 10.2049 9.69161C10.1915 9.8567 10.238 10.0211 10.3358 10.1547C10.4695 10.3181 10.6431 10.4441 10.8399 10.5205C11.2216 10.6675 11.6146 10.7835 12.0149 10.8675C12.3504 10.9411 12.6221 11.0066 12.8512 11.0704C13.113 11.135 13.3667 11.203 13.5958 11.2725Z" fill="black"/>
<path fill-rule="evenodd" clip-rule="evenodd" d="M8.3916 2.75C5.49211 2.75 3.1416 5.1005 3.1416 8C3.1416 8.84325 3.34094 9.64173 3.69543 10.3492C3.59437 10.8845 3.5416 11.4364 3.5416 12C3.5416 16.8877 7.50388 20.85 12.3916 20.85C12.9552 20.85 13.5071 20.7972 14.0424 20.6962C14.7499 21.0507 15.5484 21.25 16.3916 21.25C19.2911 21.25 21.6416 18.8995 21.6416 16C21.6416 15.1568 21.4423 14.3583 21.0878 13.6508C21.1888 13.1155 21.2416 12.5636 21.2416 12C21.2416 7.11228 17.2793 3.15 12.3916 3.15C11.828 3.15 11.2761 3.20277 10.7408 3.30383C10.0333 2.94934 9.23485 2.75 8.3916 2.75ZM4.6416 8C4.6416 5.92893 6.32053 4.25 8.3916 4.25C9.07051 4.25 9.70517 4.42974 10.253 4.74371C10.4152 4.83666 10.6062 4.86569 10.7887 4.82513C11.304 4.71057 11.8403 4.65 12.3916 4.65C16.4509 4.65 19.7416 7.94071 19.7416 12C19.7416 12.5513 19.681 13.0876 19.5665 13.6029C19.5259 13.7854 19.5549 13.9764 19.6479 14.1386C19.9619 14.6864 20.1416 15.3211 20.1416 16C20.1416 18.0711 18.4627 19.75 16.3916 19.75C15.7127 19.75 15.078 19.5703 14.5302 19.2563C14.368 19.1633 14.177 19.1343 13.9945 19.1749C13.4792 19.2894 12.9429 19.35 12.3916 19.35C8.33231 19.35 5.0416 16.0593 5.0416 12C5.0416 11.4487 5.10217 10.9124 5.21673 10.3971C5.2573 10.2146 5.22826 10.0236 5.13531 9.86141C4.82134 9.31357 4.6416 8.67891 4.6416 8Z" fill="black"/>
</svg>
