<svg width="25" height="24" viewBox="0 0 25 24" fill="none" xmlns="http://www.w3.org/2000/svg">
<path fill-rule="evenodd" clip-rule="evenodd" d="M14.4538 5.62015C12.0884 5.37162 9.7046 5.35314 7.33572 5.56494L5.75394 5.70637C4.44679 5.82325 3.39065 6.82185 3.2008 8.1204C2.82467 10.6931 2.82467 13.3069 3.2008 15.8796C3.39065 17.1782 4.44679 18.1768 5.75394 18.2936L7.33572 18.4351C9.7046 18.6469 12.0884 18.6284 14.4538 18.3799L15.0615 18.316C16.3056 18.1853 17.3122 17.2592 17.5545 16.0436L20.6014 17.6623C20.8236 17.7804 21.0901 17.7791 21.3112 17.6591C21.5323 17.539 21.6784 17.3161 21.7004 17.0655L21.7253 16.7817C22.0042 13.6 22.0042 10.4 21.7253 7.21834L21.7004 6.9345C21.6784 6.68388 21.5323 6.46097 21.3112 6.34091C21.0901 6.22085 20.8236 6.21964 20.6014 6.33767L17.5545 7.95643C17.3122 6.74079 16.3056 5.81472 15.0615 5.684L14.4538 5.62015ZM7.4693 7.05898C9.74157 6.85582 12.0282 6.87355 14.297 7.11193L14.9047 7.17579C15.5163 7.24005 16.0065 7.71079 16.0955 8.31928C16.4523 10.7601 16.4523 13.2399 16.0955 15.6807C16.0065 16.2892 15.5163 16.76 14.9047 16.8242L14.297 16.8881C12.0282 17.1264 9.74157 17.1442 7.4693 16.941L5.88752 16.7996C5.27187 16.7445 4.77444 16.2742 4.68502 15.6626C4.32993 13.2338 4.32993 10.7662 4.68502 8.3374C4.77444 7.72579 5.27187 7.25546 5.88752 7.20041L7.4693 7.05898ZM17.7515 9.55033C17.9003 11.18 17.9003 12.82 17.7515 14.4497L20.2985 15.8029C20.4798 13.2709 20.4798 10.7291 20.2985 8.19714L17.7515 9.55033Z" fill="black"/>
</svg>
