<svg width="25" height="24" viewBox="0 0 25 24" fill="none" xmlns="http://www.w3.org/2000/svg">
<path d="M12.3916 8.25C10.3205 8.25 8.6416 9.92893 8.6416 12C8.6416 14.0711 10.3205 15.75 12.3916 15.75C14.4627 15.75 16.1416 14.0711 16.1416 12C16.1416 9.92893 14.4627 8.25 12.3916 8.25Z" fill="black"/>
<path fill-rule="evenodd" clip-rule="evenodd" d="M12.3916 1.25C12.8058 1.25 13.1416 1.58579 13.1416 2V3.28169C17.3758 3.64113 20.7505 7.01581 21.1099 11.25H22.3916C22.8058 11.25 23.1416 11.5858 23.1416 12C23.1416 12.4142 22.8058 12.75 22.3916 12.75H21.1099C20.7505 16.9842 17.3758 20.3589 13.1416 20.7183V22C13.1416 22.4142 12.8058 22.75 12.3916 22.75C11.9774 22.75 11.6416 22.4142 11.6416 22V20.7183C7.40741 20.3589 4.03273 16.9842 3.67329 12.75H2.3916C1.97739 12.75 1.6416 12.4142 1.6416 12C1.6416 11.5858 1.97739 11.25 2.3916 11.25H3.67329C4.03273 7.01581 7.40741 3.64113 11.6416 3.28169V2C11.6416 1.58579 11.9774 1.25 12.3916 1.25ZM5.1416 12C5.1416 16.0041 8.38754 19.25 12.3916 19.25C16.3957 19.25 19.6416 16.0041 19.6416 12C19.6416 7.99594 16.3957 4.75 12.3916 4.75C8.38754 4.75 5.1416 7.99594 5.1416 12Z" fill="black"/>
</svg>
