<svg width="25" height="24" viewBox="0 0 25 24" fill="none" xmlns="http://www.w3.org/2000/svg">
<path fill-rule="evenodd" clip-rule="evenodd" d="M8.1416 7.5C8.1416 5.15279 10.0444 3.25 12.3916 3.25C14.7388 3.25 16.6416 5.15279 16.6416 7.5C16.6416 9.84721 14.7388 11.75 12.3916 11.75C10.0444 11.75 8.1416 9.84721 8.1416 7.5ZM12.3916 4.75C10.8728 4.75 9.6416 5.98122 9.6416 7.5C9.6416 9.01878 10.8728 10.25 12.3916 10.25C13.9104 10.25 15.1416 9.01878 15.1416 7.5C15.1416 5.98122 13.9104 4.75 12.3916 4.75Z" fill="black"/>
<path fill-rule="evenodd" clip-rule="evenodd" d="M8.3916 14.75C7.14896 14.75 6.1416 15.7574 6.1416 17V18.1883C6.1416 18.2064 6.15471 18.2218 6.17257 18.2247C10.2913 18.8972 14.4919 18.8972 18.6106 18.2247C18.6285 18.2218 18.6416 18.2064 18.6416 18.1883V17C18.6416 15.7574 17.6342 14.75 16.3916 14.75H16.0507C16.0244 14.75 15.9982 14.7542 15.9731 14.7623L15.1076 15.045C13.3428 15.6212 11.4404 15.6212 9.67559 15.045L8.81007 14.7623C8.78502 14.7542 8.75883 14.75 8.73247 14.75H8.3916ZM4.6416 17C4.6416 14.9289 6.32053 13.25 8.3916 13.25H8.73247C8.91696 13.25 9.10029 13.2792 9.27567 13.3364L10.1412 13.6191C11.6035 14.0965 13.1797 14.0965 14.642 13.6191L15.5075 13.3364C15.6829 13.2792 15.8662 13.25 16.0507 13.25H16.3916C18.4627 13.25 20.1416 14.9289 20.1416 17V18.1883C20.1416 18.9415 19.5957 19.5837 18.8523 19.7051C14.5735 20.4037 10.2097 20.4037 5.93087 19.7051C5.18749 19.5837 4.6416 18.9415 4.6416 18.1883V17Z" fill="black"/>
</svg>
