<svg width="25" height="24" viewBox="0 0 25 24" fill="none" xmlns="http://www.w3.org/2000/svg">
<path fill-rule="evenodd" clip-rule="evenodd" d="M18.3775 5.42367C14.3993 4.97906 10.384 4.97906 6.40579 5.42367C6.13662 5.45376 6.007 5.76941 6.17735 5.97998L9.69437 10.3275C10.9543 11.8849 11.6416 13.8275 11.6416 15.8307V18.7199L13.1416 19.8199V15.8307C13.1416 13.8275 13.829 11.8849 15.0889 10.3275L18.6059 5.97998C18.7762 5.76941 18.6466 5.45376 18.3775 5.42367ZM6.23918 3.93296C10.3281 3.47596 14.4552 3.47596 18.5441 3.93296C19.991 4.09467 20.6878 5.79146 19.7721 6.92339L16.2551 11.2709C15.2111 12.5614 14.6416 14.1709 14.6416 15.8307V21.3C14.6416 21.5826 14.4827 21.8413 14.2306 21.969C13.9785 22.0968 13.676 22.0719 13.4481 21.9048L10.4481 19.7048C10.2554 19.5635 10.1416 19.3389 10.1416 19.1V15.8307C10.1416 14.1709 9.57209 12.5614 8.52818 11.2709L5.01116 6.92339C4.09547 5.79146 4.79226 4.09467 6.23918 3.93296Z" fill="black"/>
</svg>
