<svg width="25" height="24" viewBox="0 0 25 24" fill="none" xmlns="http://www.w3.org/2000/svg">
<path fill-rule="evenodd" clip-rule="evenodd" d="M8.6416 12C8.6416 9.92893 10.3205 8.25 12.3916 8.25C14.4627 8.25 16.1416 9.92893 16.1416 12C16.1416 14.0711 14.4627 15.75 12.3916 15.75C10.3205 15.75 8.6416 14.0711 8.6416 12ZM12.3916 9.75C11.149 9.75 10.1416 10.7574 10.1416 12C10.1416 13.2426 11.149 14.25 12.3916 14.25C13.6342 14.25 14.6416 13.2426 14.6416 12C14.6416 10.7574 13.6342 9.75 12.3916 9.75Z" fill="black"/>
<path fill-rule="evenodd" clip-rule="evenodd" d="M4.71503 10.6464C4.29591 11.2503 4.1416 11.7227 4.1416 12C4.1416 12.2773 4.29591 12.7497 4.71503 13.3536C5.12017 13.9374 5.72238 14.5703 6.48427 15.155C8.01138 16.3271 10.1051 17.25 12.3916 17.25C14.6781 17.25 16.7718 16.3271 18.2989 15.155C19.0608 14.5703 19.663 13.9374 20.0682 13.3536C20.4873 12.7497 20.6416 12.2773 20.6416 12C20.6416 11.7227 20.4873 11.2503 20.0682 10.6464C19.663 10.0626 19.0608 9.42972 18.2989 8.84497C16.7718 7.67292 14.6781 6.75 12.3916 6.75C10.1051 6.75 8.01138 7.67292 6.48427 8.84497C5.72238 9.42972 5.12017 10.0626 4.71503 10.6464ZM5.57101 7.65503C7.30126 6.32708 9.70759 5.25 12.3916 5.25C15.0756 5.25 17.4819 6.32708 19.2122 7.65503C20.079 8.32028 20.7948 9.06244 21.3005 9.79115C21.7922 10.4997 22.1416 11.2773 22.1416 12C22.1416 12.7227 21.7922 13.5003 21.3005 14.2089C20.7948 14.9376 20.079 15.6797 19.2122 16.345C17.4819 17.6729 15.0756 18.75 12.3916 18.75C9.70759 18.75 7.30126 17.6729 5.57101 16.345C4.70422 15.6797 3.98841 14.9376 3.4827 14.2089C2.99097 13.5003 2.6416 12.7227 2.6416 12C2.6416 11.2773 2.99097 10.4997 3.4827 9.79115C3.98841 9.06244 4.70422 8.32028 5.57101 7.65503Z" fill="black"/>
</svg>
