<svg width="25" height="24" viewBox="0 0 25 24" fill="none" xmlns="http://www.w3.org/2000/svg">
<path d="M18.1417 11C17.4513 11 16.8917 11.5596 16.8917 12.25C16.8917 12.9404 17.4513 13.5 18.1417 13.5C18.832 13.5 19.3917 12.9404 19.3917 12.25C19.3917 11.5596 18.832 11 18.1417 11Z" fill="black"/>
<path fill-rule="evenodd" clip-rule="evenodd" d="M4.5648 8.11532L6.64166 7.88449V3.91302C6.64166 3.26973 7.13172 2.73236 7.77228 2.67323C10.8453 2.38956 13.938 2.38956 17.011 2.67323C17.6516 2.73236 18.1417 3.26973 18.1417 3.91302V7.88448L20.2186 8.11532C20.9849 8.2005 21.6171 8.75392 21.8029 9.50223C22.3687 11.7811 22.3687 14.1637 21.8029 16.4425L21.6196 17.1807C21.5366 17.5152 21.2363 17.75 20.8917 17.75H18.1417V20.083C18.1417 20.705 17.6703 21.2259 17.0513 21.2878C13.9526 21.5977 10.8307 21.5977 7.73198 21.2878C7.11302 21.2259 6.64166 20.705 6.64166 20.083V17.75H3.89169C3.54709 17.75 3.24683 17.5152 3.16379 17.1807L2.9805 16.4425C2.4147 14.1637 2.4147 11.7811 2.9805 9.50223C3.1663 8.75392 3.79849 8.2005 4.5648 8.11532ZM16.6417 7.73957C13.8131 7.50763 10.9702 7.50763 8.14166 7.73958V4.14607C10.9696 3.89862 13.8137 3.89862 16.6417 4.14607V7.73957ZM16.6417 16.5016C16.6398 16.3437 16.5386 16.2077 16.395 16.157C13.7314 15.9208 11.052 15.9208 8.38841 16.1569C8.24344 16.2082 8.14169 16.3462 8.14169 16.506V17L8.14166 17.0063V19.8205C10.9687 20.0867 13.8146 20.0867 16.6417 19.8205V16.5016ZM20.3051 16.25H18.1417V15.917C18.1417 15.295 17.6703 14.7741 17.0513 14.7122C16.9159 14.6987 16.7805 14.6857 16.645 14.6734C16.5882 14.6619 16.5304 14.6529 16.4718 14.6466C13.7596 14.3544 11.0238 14.3544 8.31158 14.6466C8.25296 14.6529 8.1952 14.6619 8.13844 14.6734C8.00291 14.6857 7.86742 14.6987 7.73198 14.7122C7.11302 14.7741 6.64166 15.295 6.64166 15.917V16.25H4.47825L4.4363 16.0811C3.92944 14.0396 3.92944 11.9052 4.4363 9.86369C4.4708 9.72473 4.5882 9.62196 4.7305 9.60614L6.81283 9.3747C10.5207 8.96258 14.2627 8.96258 17.9705 9.3747L20.0529 9.60614C20.1952 9.62196 20.3126 9.72473 20.3471 9.86369C20.8539 11.9052 20.8539 14.0396 20.3471 16.0811L20.3051 16.25Z" fill="black"/>
</svg>
