<svg width="25" height="24" viewBox="0 0 25 24" fill="none" xmlns="http://www.w3.org/2000/svg">
<path fill-rule="evenodd" clip-rule="evenodd" d="M12.3916 2.25C7.00683 2.25 2.6416 6.61522 2.6416 12C2.6416 17.3848 7.00683 21.75 12.3916 21.75C17.7764 21.75 22.1416 17.3848 22.1416 12C22.1416 6.61522 17.7764 2.25 12.3916 2.25ZM4.1416 12C4.1416 7.44365 7.83525 3.75 12.3916 3.75C16.948 3.75 20.6416 7.44365 20.6416 12C20.6416 16.5563 16.948 20.25 12.3916 20.25C11.5343 20.25 10.7076 20.1192 9.93025 19.8766C10.3528 19.213 10.6889 18.498 10.9303 17.7491L11.4469 15.7719C11.6603 16.0765 11.9464 16.3229 12.2793 16.4888C12.6121 16.6547 12.9811 16.7348 13.3528 16.7219C15.8881 16.7219 17.6694 14.4181 17.6694 11.5563C17.6694 8.80719 15.425 6.75282 12.5453 6.75282C8.95906 6.75282 7.05312 9.16344 7.05312 11.7819C7.05312 13.005 7.70031 14.5191 8.73937 15.0059C8.89375 15.0772 8.99468 15.0059 9.01843 14.8931C9.04217 14.7804 9.18452 14.211 9.24988 13.9495C9.26014 13.9081 9.2602 13.8643 9.24985 13.8229C9.2395 13.7815 9.21916 13.7433 9.19062 13.7116C8.79807 13.1585 8.59027 12.4957 8.59687 11.8175C8.59482 11.3307 8.69156 10.8486 8.88124 10.4003C9.07093 9.95195 9.34961 9.54679 9.70042 9.2093C10.0512 8.87181 10.4669 8.60902 10.9222 8.43682C11.3775 8.26463 11.863 8.18662 12.3494 8.20751C12.8049 8.18086 13.261 8.24946 13.6885 8.40892C14.1161 8.56838 14.5057 8.8152 14.8325 9.13365C15.1593 9.45209 15.4162 9.83516 15.5867 10.2584C15.7572 10.6817 15.8376 11.1358 15.8228 11.5919C15.8228 13.8363 14.6828 15.3978 13.2103 15.3978C13.0201 15.4124 12.8291 15.381 12.6536 15.3062C12.4781 15.2313 12.3233 15.1153 12.2021 14.9679C12.0809 14.8206 11.9971 14.6462 11.9576 14.4595C11.9181 14.2729 11.9242 14.0794 11.9753 13.8956C12.0597 13.5454 12.1711 13.1847 12.2796 12.8332C12.4765 12.1955 12.6641 11.5881 12.6641 11.1288C12.6846 10.9796 12.6727 10.8277 12.6291 10.6835C12.5855 10.5394 12.5112 10.4064 12.4114 10.2936C12.3116 10.1808 12.1886 10.0909 12.0508 10.0301C11.913 9.9693 11.7637 9.93899 11.6131 9.94126C10.7819 9.94126 10.1109 10.8081 10.1109 11.96C10.1047 12.3671 10.1815 12.7711 10.3366 13.1475L9.35687 17.3038C9.23686 18.0891 9.2366 18.8882 9.35609 19.6736C8.70552 19.4161 8.09552 19.0782 7.53831 18.6722C6.56122 17.9584 5.74477 17.0348 5.15452 15.9593C4.92231 15.5362 4.72872 15.0962 4.57459 14.6446C4.29383 13.8144 4.1416 12.925 4.1416 12Z" fill="black"/>
</svg>
