<svg width="25" height="24" viewBox="0 0 25 24" fill="none" xmlns="http://www.w3.org/2000/svg">
<path fill-rule="evenodd" clip-rule="evenodd" d="M14.0054 2.30996C14.282 2.42774 14.4616 2.69935 14.4616 3.00002V9.99821H18.3916C18.6583 9.99821 18.9049 10.1398 19.0394 10.3702C19.1738 10.6005 19.1758 10.885 19.0446 11.1172L18.5525 11.988C16.6864 15.2907 14.3065 18.2753 11.5022 20.8298L10.7067 21.5545C10.4871 21.7545 10.1702 21.8061 9.89853 21.6861C9.62686 21.566 9.4516 21.297 9.4516 21V14.0612H5.3916C4.97739 14.0612 4.6416 13.7254 4.6416 13.3112C4.6416 13.177 4.67683 13.0511 4.73853 12.9421C6.49732 9.69066 8.7491 6.73119 11.4138 4.16896L13.1918 2.45939C13.4085 2.251 13.7287 2.19218 14.0054 2.30996ZM6.67618 12.5612H10.2016C10.6158 12.5612 10.9516 12.8969 10.9516 13.3112V19.2945C13.3702 17.009 15.4433 14.3827 17.105 11.4982H13.7116C13.2974 11.4982 12.9616 11.1624 12.9616 10.7482V4.76164L12.4535 5.25021C10.2027 7.41442 8.25942 9.87444 6.67618 12.5612Z" fill="black"/>
</svg>
