<svg width="25" height="24" viewBox="0 0 25 24" fill="none" xmlns="http://www.w3.org/2000/svg">
<path fill-rule="evenodd" clip-rule="evenodd" d="M13.4443 2.40693C16.7252 2.92495 19.1416 5.75283 19.1416 9.07432L19.1416 14.9257C19.1416 18.2472 16.7252 21.075 13.4443 21.5931C12.7468 21.7032 12.0364 21.7032 11.3389 21.5931C8.058 21.075 5.6416 18.2472 5.6416 14.9257V9.07433C5.6416 5.75283 8.058 2.92495 11.3389 2.40693C12.0364 2.29679 12.7468 2.29679 13.4443 2.40693ZM17.6416 9.07432C17.6416 6.49094 15.7622 4.29148 13.2104 3.88857C13.1875 3.88495 13.1646 3.88149 13.1416 3.87817L13.1416 9.25H17.6416V9.07432ZM11.6416 9.25H7.1416V9.07433C7.1416 6.49094 9.02103 4.29148 11.5728 3.88857C11.5957 3.88495 11.6186 3.88149 11.6416 3.87817L11.6416 9.25ZM7.1416 14.9257L7.1416 10.75H17.6416L17.6416 14.9257C17.6416 17.509 15.7622 19.7085 13.2104 20.1114C12.6679 20.1971 12.1153 20.1971 11.5728 20.1114C9.02102 19.7085 7.1416 17.509 7.1416 14.9257Z" fill="black"/>
</svg>
