<svg width="25" height="24" viewBox="0 0 25 24" fill="none" xmlns="http://www.w3.org/2000/svg">
<path fill-rule="evenodd" clip-rule="evenodd" d="M19.1419 10.5001L19.1354 10.7429L19.1419 11.0001L19.1357 11.2433L19.1419 11.5001L19.136 11.745L19.1418 12.0001L18.9795 19.1031C18.9409 20.7884 17.6592 22.184 15.9832 22.3655C13.5958 22.624 11.1875 22.624 8.80004 22.3655C7.12412 22.184 5.84236 20.7884 5.80383 19.1031L5.64145 12.0001L5.64732 11.7433L5.64146 11.5001L5.64762 11.2443L5.64142 11.0001L5.64792 10.744L5.64136 10.5001L5.80536 4.40214C5.80765 4.31706 5.81363 4.23286 5.82315 4.14971L5.82688 4.11455L5.82984 4.08621C5.91045 3.26211 6.36713 2.54335 7.03266 2.11202C7.08231 2.079 7.13313 2.04755 7.18504 2.01775C7.23582 1.9877 7.28765 1.9592 7.34047 1.93231C7.66707 1.75995 8.03156 1.64823 8.41956 1.61251C11.062 1.36927 13.7212 1.36927 16.3637 1.61252C16.7511 1.64817 17.115 1.75959 17.4412 1.93149C17.494 1.95834 17.5459 1.9868 17.5967 2.01681C17.6502 2.0475 17.7026 2.07995 17.7538 2.11406C18.4158 2.54443 18.8704 3.25946 18.9528 4.07941L18.9606 4.15371C18.9698 4.23557 18.9756 4.31843 18.9779 4.40214L19.1419 10.5001ZM17.4659 4.32076L17.6229 11.1874L17.4956 15.9177C17.467 16.981 16.6479 17.8551 15.5887 17.9526C13.4618 18.1484 11.3214 18.1484 9.19458 17.9526C8.13531 17.8551 7.31621 16.981 7.28761 15.9177L7.1604 11.188L7.3174 4.32076C7.31773 4.30598 7.31835 4.29127 7.31923 4.27663C7.37872 3.87435 7.61185 3.52711 7.94239 3.31624C8.06761 3.25096 8.20656 3.20767 8.35435 3.19167C11.038 2.90104 13.7452 2.90104 16.4289 3.19167C16.5767 3.20767 16.7156 3.25093 16.8407 3.31616C17.1714 3.52708 17.4047 3.87449 17.4641 4.27696C17.4649 4.2915 17.4656 4.3061 17.4659 4.32076ZM12.3917 21.7001C13.2201 21.7001 13.8917 21.0285 13.8917 20.2001C13.8917 19.3716 13.2201 18.7001 12.3917 18.7001C11.5632 18.7001 10.8917 19.3716 10.8917 20.2001C10.8917 21.0285 11.5632 21.7001 12.3917 21.7001Z" fill="black"/>
</svg>
