<svg width="25" height="24" viewBox="0 0 25 24" fill="none" xmlns="http://www.w3.org/2000/svg">
<path fill-rule="evenodd" clip-rule="evenodd" d="M2.85175 16.8191C2.63016 16.5893 2.57831 16.2444 2.72251 15.9596L3.42401 14.5743C5.08428 11.2954 8.44723 9.2288 12.1224 9.2288H12.4673C12.4925 8.68242 12.525 8.1363 12.5647 7.59057L12.6326 6.65993C12.6877 5.90311 13.5316 5.48004 14.1711 5.88863C16.2687 7.22899 18.0923 8.95608 19.5446 10.9778L20.0007 11.6128C20.1886 11.8742 20.1886 12.2264 20.0007 12.4879L19.5446 13.1228C18.0923 15.1446 16.2687 16.8717 14.1711 18.212C13.5316 18.6206 12.6877 18.1976 12.6326 17.4407L12.5647 16.5101C12.5172 15.8584 12.4802 15.2061 12.4535 14.5535C10.3037 14.4914 8.15646 14.9253 6.1831 15.8361L3.70591 16.9794C3.41608 17.1132 3.07333 17.0488 2.85175 16.8191ZM5.06999 14.6978L5.55452 14.4742C7.96566 13.3613 10.6112 12.8915 13.2363 13.0932C13.6186 13.1225 13.9172 13.4355 13.9285 13.8188C13.954 14.6802 13.9981 15.5411 14.0608 16.401L14.0662 16.4755C15.7097 15.3138 17.1499 13.8855 18.3264 12.2477L18.4682 12.0503L18.3264 11.853C17.1499 10.2152 15.7097 8.78683 14.0662 7.62517L14.0608 7.69962C14.0048 8.46723 13.9637 9.23565 13.9374 10.0044C13.9236 10.4084 13.5921 10.7288 13.1878 10.7288L12.1224 10.7288C9.22512 10.7288 6.55716 12.2467 5.06999 14.6978Z" fill="black"/>
</svg>
