<svg width="25" height="24" viewBox="0 0 25 24" fill="none" xmlns="http://www.w3.org/2000/svg">
<path fill-rule="evenodd" clip-rule="evenodd" d="M6.45834 3.87389C5.75566 3.79535 5.02766 3.79535 4.32498 3.87389C4.31192 3.87535 4.29901 3.88125 4.2884 3.89172C4.27804 3.90193 4.27399 3.91226 4.27297 3.92103C4.18912 4.6379 4.18912 5.3621 4.27297 6.07897C4.27399 6.08774 4.27804 6.09807 4.2884 6.10829C4.29901 6.11875 4.31192 6.12466 4.32498 6.12611C5.02766 6.20465 5.75566 6.20465 6.45834 6.12611C6.47139 6.12466 6.4843 6.11875 6.49492 6.10829C6.50528 6.09807 6.50933 6.08774 6.51035 6.07897C6.5942 5.3621 6.5942 4.6379 6.51035 3.92103C6.50933 3.91226 6.50528 3.90193 6.49492 3.89172C6.4843 3.88125 6.47139 3.87535 6.45834 3.87389ZM4.15837 2.38317C4.97178 2.29226 5.81154 2.29226 6.62495 2.38317C7.33728 2.46278 7.91557 3.02322 8.0002 3.74678C8.09758 4.57942 8.09758 5.42058 8.0002 6.25323C7.91557 6.97678 7.33728 7.53722 6.62495 7.61683C5.81154 7.70774 4.97178 7.70774 4.15837 7.61683C3.44604 7.53722 2.86775 6.97679 2.78312 6.25323C2.68574 5.42058 2.68574 4.57942 2.78312 3.74678C2.86775 3.02322 3.44604 2.46278 4.15837 2.38317Z" fill="black"/>
<path fill-rule="evenodd" clip-rule="evenodd" d="M13.4583 3.87389C12.7557 3.79535 12.0277 3.79535 11.325 3.87389C11.3119 3.87535 11.299 3.88125 11.2884 3.89172C11.278 3.90193 11.274 3.91226 11.273 3.92103C11.1891 4.6379 11.1891 5.3621 11.273 6.07897C11.274 6.08774 11.278 6.09807 11.2884 6.10829C11.299 6.11875 11.3119 6.12466 11.325 6.12611C12.0277 6.20465 12.7557 6.20465 13.4583 6.12611C13.4714 6.12466 13.4843 6.11875 13.4949 6.10829C13.5053 6.09807 13.5093 6.08774 13.5104 6.07897C13.5942 5.3621 13.5942 4.6379 13.5104 3.92103C13.5093 3.91226 13.5053 3.90193 13.4949 3.89172C13.4843 3.88125 13.4714 3.87535 13.4583 3.87389ZM11.1584 2.38317C11.9718 2.29226 12.8115 2.29226 13.6249 2.38317C14.3373 2.46278 14.9156 3.02322 15.0002 3.74678C15.0976 4.57942 15.0976 5.42058 15.0002 6.25323C14.9156 6.97678 14.3373 7.53722 13.6249 7.61683C12.8115 7.70774 11.9718 7.70774 11.1584 7.61683C10.446 7.53722 9.86775 6.97679 9.78312 6.25323C9.68574 5.42058 9.68574 4.57942 9.78312 3.74678C9.86775 3.02322 10.446 2.46278 11.1584 2.38317Z" fill="black"/>
<path fill-rule="evenodd" clip-rule="evenodd" d="M20.4583 3.87389C19.7557 3.79535 19.0277 3.79535 18.325 3.87389C18.3119 3.87535 18.299 3.88125 18.2884 3.89172C18.278 3.90193 18.274 3.91226 18.273 3.92103C18.1891 4.6379 18.1891 5.3621 18.273 6.07897C18.274 6.08774 18.278 6.09807 18.2884 6.10829C18.299 6.11875 18.3119 6.12466 18.325 6.12611C19.0277 6.20465 19.7557 6.20465 20.4583 6.12611C20.4714 6.12466 20.4843 6.11875 20.4949 6.10829C20.5053 6.09807 20.5093 6.08774 20.5103 6.07897C20.5942 5.3621 20.5942 4.6379 20.5103 3.92103C20.5093 3.91226 20.5053 3.90193 20.4949 3.89172C20.4843 3.88125 20.4714 3.87535 20.4583 3.87389ZM18.1584 2.38317C18.9718 2.29226 19.8115 2.29226 20.625 2.38317C21.3373 2.46278 21.9156 3.02322 22.0002 3.74678C22.0976 4.57942 22.0976 5.42058 22.0002 6.25323C21.9156 6.97678 21.3373 7.53722 20.625 7.61683C19.8115 7.70774 18.9718 7.70774 18.1584 7.61683C17.446 7.53722 16.8677 6.97679 16.7831 6.25323C16.6857 5.42058 16.6857 4.57942 16.7831 3.74678C16.8677 3.02322 17.446 2.46278 18.1584 2.38317Z" fill="black"/>
<path fill-rule="evenodd" clip-rule="evenodd" d="M6.45834 10.8739C5.75566 10.7954 5.02766 10.7954 4.32498 10.8739C4.31192 10.8753 4.29901 10.8813 4.2884 10.8917C4.27804 10.9019 4.27399 10.9123 4.27297 10.921C4.18912 11.6379 4.18912 12.3621 4.27297 13.079C4.27399 13.0877 4.27804 13.0981 4.2884 13.1083C4.29901 13.1187 4.31192 13.1247 4.32498 13.1261C5.02766 13.2046 5.75566 13.2046 6.45834 13.1261C6.47139 13.1247 6.4843 13.1187 6.49492 13.1083C6.50528 13.0981 6.50933 13.0877 6.51035 13.079C6.5942 12.3621 6.5942 11.6379 6.51035 10.921C6.50933 10.9123 6.50528 10.9019 6.49492 10.8917C6.4843 10.8813 6.47139 10.8753 6.45834 10.8739ZM4.15837 9.38317C4.97178 9.29226 5.81154 9.29226 6.62495 9.38317C7.33728 9.46278 7.91557 10.0232 8.0002 10.7468C8.09758 11.5794 8.09758 12.4206 8.0002 13.2532C7.91557 13.9768 7.33728 14.5372 6.62495 14.6168C5.81154 14.7077 4.97178 14.7077 4.15837 14.6168C3.44604 14.5372 2.86775 13.9768 2.78312 13.2532C2.68574 12.4206 2.68574 11.5794 2.78312 10.7468C2.86775 10.0232 3.44604 9.46278 4.15837 9.38317Z" fill="black"/>
<path fill-rule="evenodd" clip-rule="evenodd" d="M13.4583 10.8739C12.7557 10.7954 12.0277 10.7954 11.325 10.8739C11.3119 10.8753 11.299 10.8813 11.2884 10.8917C11.278 10.9019 11.274 10.9123 11.273 10.921C11.1891 11.6379 11.1891 12.3621 11.273 13.079C11.274 13.0877 11.278 13.0981 11.2884 13.1083C11.299 13.1187 11.3119 13.1247 11.325 13.1261C12.0277 13.2046 12.7557 13.2046 13.4583 13.1261C13.4714 13.1247 13.4843 13.1187 13.4949 13.1083C13.5053 13.0981 13.5093 13.0877 13.5104 13.079C13.5942 12.3621 13.5942 11.6379 13.5104 10.921C13.5093 10.9123 13.5053 10.9019 13.4949 10.8917C13.4843 10.8813 13.4714 10.8753 13.4583 10.8739ZM11.1584 9.38317C11.9718 9.29226 12.8115 9.29226 13.6249 9.38317C14.3373 9.46278 14.9156 10.0232 15.0002 10.7468C15.0976 11.5794 15.0976 12.4206 15.0002 13.2532C14.9156 13.9768 14.3373 14.5372 13.6249 14.6168C12.8115 14.7077 11.9718 14.7077 11.1584 14.6168C10.446 14.5372 9.86775 13.9768 9.78312 13.2532C9.68574 12.4206 9.68574 11.5794 9.78312 10.7468C9.86775 10.0232 10.446 9.46278 11.1584 9.38317Z" fill="black"/>
<path fill-rule="evenodd" clip-rule="evenodd" d="M20.4583 10.8739C19.7557 10.7954 19.0277 10.7954 18.325 10.8739C18.3119 10.8753 18.299 10.8813 18.2884 10.8917C18.278 10.9019 18.274 10.9123 18.273 10.921C18.1891 11.6379 18.1891 12.3621 18.273 13.079C18.274 13.0877 18.278 13.0981 18.2884 13.1083C18.299 13.1187 18.3119 13.1247 18.325 13.1261C19.0277 13.2046 19.7557 13.2046 20.4583 13.1261C20.4714 13.1247 20.4843 13.1187 20.4949 13.1083C20.5053 13.0981 20.5093 13.0877 20.5103 13.079C20.5942 12.3621 20.5942 11.6379 20.5103 10.921C20.5093 10.9123 20.5053 10.9019 20.4949 10.8917C20.4843 10.8813 20.4714 10.8753 20.4583 10.8739ZM18.1584 9.38317C18.9718 9.29226 19.8115 9.29226 20.625 9.38317C21.3373 9.46278 21.9156 10.0232 22.0002 10.7468C22.0976 11.5794 22.0976 12.4206 22.0002 13.2532C21.9156 13.9768 21.3373 14.5372 20.625 14.6168C19.8115 14.7077 18.9718 14.7077 18.1584 14.6168C17.446 14.5372 16.8677 13.9768 16.7831 13.2532C16.6857 12.4206 16.6857 11.5794 16.7831 10.7468C16.8677 10.0232 17.446 9.46278 18.1584 9.38317Z" fill="black"/>
<path fill-rule="evenodd" clip-rule="evenodd" d="M6.45834 17.8739C5.75566 17.7954 5.02766 17.7954 4.32498 17.8739C4.31192 17.8753 4.29901 17.8813 4.2884 17.8917C4.27804 17.9019 4.27399 17.9123 4.27297 17.921C4.18912 18.6379 4.18912 19.3621 4.27297 20.079C4.27399 20.0877 4.27804 20.0981 4.2884 20.1083C4.29901 20.1187 4.31192 20.1247 4.32498 20.1261C5.02766 20.2046 5.75566 20.2046 6.45834 20.1261C6.47139 20.1247 6.4843 20.1187 6.49492 20.1083C6.50528 20.0981 6.50933 20.0877 6.51035 20.079C6.5942 19.3621 6.5942 18.6379 6.51035 17.921C6.50933 17.9123 6.50528 17.9019 6.49492 17.8917C6.4843 17.8813 6.47139 17.8753 6.45834 17.8739ZM4.15837 16.3832C4.97178 16.2923 5.81154 16.2923 6.62495 16.3832C7.33728 16.4628 7.91557 17.0232 8.0002 17.7468C8.09758 18.5794 8.09758 19.4206 8.0002 20.2532C7.91557 20.9768 7.33728 21.5372 6.62495 21.6168C5.81154 21.7077 4.97178 21.7077 4.15837 21.6168C3.44604 21.5372 2.86775 20.9768 2.78312 20.2532C2.68574 19.4206 2.68574 18.5794 2.78312 17.7468C2.86775 17.0232 3.44604 16.4628 4.15837 16.3832Z" fill="black"/>
<path fill-rule="evenodd" clip-rule="evenodd" d="M13.4583 17.8739C12.7557 17.7954 12.0277 17.7954 11.325 17.8739C11.3119 17.8753 11.299 17.8813 11.2884 17.8917C11.278 17.9019 11.274 17.9123 11.273 17.921C11.1891 18.6379 11.1891 19.3621 11.273 20.079C11.274 20.0877 11.278 20.0981 11.2884 20.1083C11.299 20.1187 11.3119 20.1247 11.325 20.1261C12.0277 20.2046 12.7557 20.2046 13.4583 20.1261C13.4714 20.1247 13.4843 20.1187 13.4949 20.1083C13.5053 20.0981 13.5093 20.0877 13.5104 20.079C13.5942 19.3621 13.5942 18.6379 13.5104 17.921C13.5093 17.9123 13.5053 17.9019 13.4949 17.8917C13.4843 17.8813 13.4714 17.8753 13.4583 17.8739ZM11.1584 16.3832C11.9718 16.2923 12.8115 16.2923 13.6249 16.3832C14.3373 16.4628 14.9156 17.0232 15.0002 17.7468C15.0976 18.5794 15.0976 19.4206 15.0002 20.2532C14.9156 20.9768 14.3373 21.5372 13.6249 21.6168C12.8115 21.7077 11.9718 21.7077 11.1584 21.6168C10.446 21.5372 9.86775 20.9768 9.78312 20.2532C9.68574 19.4206 9.68574 18.5794 9.78312 17.7468C9.86775 17.0232 10.446 16.4628 11.1584 16.3832Z" fill="black"/>
<path fill-rule="evenodd" clip-rule="evenodd" d="M20.4583 17.8739C19.7557 17.7954 19.0277 17.7954 18.325 17.8739C18.3119 17.8753 18.299 17.8813 18.2884 17.8917C18.278 17.9019 18.274 17.9123 18.273 17.921C18.1891 18.6379 18.1891 19.3621 18.273 20.079C18.274 20.0877 18.278 20.0981 18.2884 20.1083C18.299 20.1187 18.3119 20.1247 18.325 20.1261C19.0277 20.2046 19.7557 20.2046 20.4583 20.1261C20.4714 20.1247 20.4843 20.1187 20.4949 20.1083C20.5053 20.0981 20.5093 20.0877 20.5103 20.079C20.5942 19.3621 20.5942 18.6379 20.5103 17.921C20.5093 17.9123 20.5053 17.9019 20.4949 17.8917C20.4843 17.8813 20.4714 17.8753 20.4583 17.8739ZM18.1584 16.3832C18.9718 16.2923 19.8115 16.2923 20.625 16.3832C21.3373 16.4628 21.9156 17.0232 22.0002 17.7468C22.0976 18.5794 22.0976 19.4206 22.0002 20.2532C21.9156 20.9768 21.3373 21.5372 20.625 21.6168C19.8115 21.7077 18.9718 21.7077 18.1584 21.6168C17.446 21.5372 16.8677 20.9768 16.7831 20.2532C16.6857 19.4206 16.6857 18.5794 16.7831 17.7468C16.8677 17.0232 17.446 16.4628 18.1584 16.3832Z" fill="black"/>
</svg>
