<svg width="25" height="24" viewBox="0 0 25 24" fill="none" xmlns="http://www.w3.org/2000/svg">
<path fill-rule="evenodd" clip-rule="evenodd" d="M7.29998 4.32375C10.6558 3.94868 14.1274 3.94868 17.4832 4.32375C18.8134 4.47241 19.8788 5.52202 20.033 6.8397C20.434 10.2682 20.434 13.7318 20.033 17.1603C19.8788 18.478 18.8134 19.5276 17.4832 19.6763C14.1274 20.0513 10.6558 20.0513 7.29998 19.6763C5.96987 19.5276 4.90439 18.478 4.75027 17.1603C4.34927 13.7318 4.34927 10.2682 4.75027 6.8397C4.90439 5.52202 5.96987 4.47241 7.29998 4.32375ZM17.6499 2.83303C14.1833 2.44559 10.5999 2.44559 7.13337 2.83303C5.12131 3.05791 3.49698 4.64292 3.26043 6.66545C2.84589 10.2097 2.84589 13.7903 3.26043 17.3346C3.49698 19.3571 5.12132 20.9421 7.13337 21.167C10.5999 21.5544 14.1833 21.5544 17.6499 21.167C19.6619 20.9421 21.2862 19.3571 21.5228 17.3346C21.9373 13.7903 21.9373 10.2097 21.5228 6.66545C21.2862 4.64292 19.6619 3.05791 17.6499 2.83303ZM9.76632 15.5H8.42432V8.18501C8.90832 8.09701 9.57932 8.03101 10.4923 8.03101C11.4823 8.03101 12.2083 8.24001 12.6813 8.63601C13.1213 8.99901 13.4073 9.58201 13.4073 10.275C13.4073 10.979 13.1873 11.562 12.7693 11.958C12.2303 12.497 11.3833 12.75 10.4263 12.75C10.1733 12.75 9.94232 12.739 9.76632 12.706V15.5ZM10.5473 9.06501C10.1733 9.06501 9.90932 9.09801 9.76632 9.13101V11.639C9.93132 11.683 10.1513 11.694 10.4263 11.694C11.4383 11.694 12.0543 11.199 12.0543 10.33C12.0543 9.50501 11.4823 9.06501 10.5473 9.06501ZM15.2979 15.5H13.9449V11.87C13.9449 11.144 13.9339 10.627 13.9009 10.143H15.0779L15.1219 11.166H15.1659C15.4299 10.407 16.0569 10.022 16.6289 10.022C16.7609 10.022 16.8379 10.033 16.9479 10.055V11.331C16.8379 11.309 16.7169 11.287 16.5519 11.287C15.9029 11.287 15.4629 11.705 15.3419 12.31C15.3199 12.431 15.2979 12.574 15.2979 12.728V15.5Z" fill="black"/>
</svg>
