<svg width="25" height="24" viewBox="0 0 25 24" fill="none" xmlns="http://www.w3.org/2000/svg">
<path fill-rule="evenodd" clip-rule="evenodd" d="M8.58721 17.9419C8.57077 17.8282 8.54585 17.7209 8.51419 17.6199L13.4002 17.6199C13.9019 17.6199 15.4761 17.6199 15.4761 17.6199L17.0515 20.1659C17.8361 21.4611 19.5124 21.8625 20.8043 21.1446C22.09 20.4302 22.6012 18.8254 21.8997 17.5078C23.0242 17.1804 23.8916 16.1669 23.8916 14.891C23.8916 13.3301 22.5935 12.1624 21.1148 12.1624H18.6766L16.1579 8.19592C16.1496 8.18281 16.141 8.16982 16.1323 8.15697C15.9825 7.93654 15.7249 7.66018 15.328 7.50554L16.4612 5.61665C17.2646 4.27748 16.7628 2.59261 15.4361 1.85535C14.4572 1.31139 13.2578 1.41021 12.3928 2.05323C11.5274 1.40857 10.3266 1.30953 9.34711 1.85365C8.02013 2.59083 7.51867 4.27603 8.32205 5.61504L9.16853 7.02596L6.08725 12.1623H3.66841C2.18957 12.1623 0.891602 13.3303 0.891602 14.891C0.891602 16.1672 1.75936 17.1808 2.88424 17.508C2.18165 18.8258 2.69278 20.4316 3.97899 21.1464C5.26362 21.8601 6.92844 21.4672 7.71857 20.1889L8.19786 19.4608C8.41583 19.1415 8.51595 18.8252 8.56199 18.587C8.58572 18.4642 8.5963 18.3562 8.60051 18.2698C8.60263 18.2262 8.60319 18.1873 8.60288 18.1535C8.60281 18.145 8.60221 18.1487 8.60156 18.1526C8.60093 18.1565 8.60025 18.1607 8.6 18.1535C8.59931 18.142 8.59849 18.124 8.59754 18.103C8.59502 18.0477 8.59157 17.972 8.58721 17.9419ZM6.45168 19.3854L6.95358 18.623C7.11657 18.3898 7.10266 18.1566 7.10266 18.1566C7.00014 17.4481 5.58352 17.3001 5.58352 17.3001C4.98153 17.2453 4.68059 17.5365 4.55865 17.7052L4.24016 18.1566C3.88758 18.7444 4.09692 19.4959 4.70752 19.8352C5.31822 20.1745 6.09909 19.9731 6.45168 19.3854ZM18.1028 13.6624H21.1148C21.82 13.6624 22.3916 14.2124 22.3916 14.891C22.3916 15.5697 21.82 16.1198 21.1148 16.1198H19.5933C19.3637 16.1203 19.4014 16.2431 19.4232 16.2883L20.5429 18.1549C20.8956 18.7427 20.6863 19.4942 20.0757 19.8335C19.4649 20.1729 18.684 19.9714 18.3315 19.3838L14.3959 13.0236C14.1567 12.5668 13.4706 11.0556 14.0714 9.72642C14.0714 9.72642 14.5747 8.53356 14.8916 9L17.7706 13.5339L17.7728 13.5376C17.8081 13.5786 17.8976 13.6491 18.1028 13.6624ZM13.4002 16.1199C14.0223 16.1199 13.8615 15.3328 13.8615 15.3328C13.6168 13.7185 11.8249 13.6626 11.8249 13.6626L10.1147 13.6623C9.94552 13.6477 9.95248 13.5649 9.97521 13.5121L15.1749 4.84497C15.5275 4.25725 15.3183 3.50587 14.7076 3.16656C14.0969 2.82714 13.316 3.0286 12.9634 3.61622L12.3921 4.56853L11.8198 3.61452C11.4672 3.02679 10.6863 2.82554 10.0756 3.16486C9.46493 3.50407 9.25569 4.25566 9.60828 4.84327L10.8424 6.9003C10.8522 6.91825 10.91 7.03199 10.8419 7.15232L7.10531 13.3811L7.10266 13.3798C7.10266 13.3798 6.99319 13.6366 6.53102 13.6623H3.66841C2.96324 13.6623 2.3916 14.2124 2.3916 14.891C2.3916 15.5697 2.96324 16.1198 3.66841 16.1198L13.4002 16.1199Z" fill="black"/>
</svg>
