<svg width="25" height="24" viewBox="0 0 25 24" fill="none" xmlns="http://www.w3.org/2000/svg">
<path d="M0.641602 10.2145C0.641602 6.24636 4.44685 3.25 8.84321 3.25C12.3418 3.25 15.4437 5.13375 16.5834 7.89933C16.6346 8.02337 16.5456 8.15792 16.4119 8.16898C16.0396 8.19978 15.6698 8.25265 15.3054 8.32662C15.2123 8.34551 15.1185 8.29807 15.0769 8.2127C14.1132 6.23442 11.7462 4.75 8.84321 4.75C5.00875 4.75 2.1416 7.31827 2.1416 10.2145C2.1416 11.7791 2.95552 13.224 4.3241 14.2455C4.51376 14.3871 4.62547 14.6099 4.62547 14.8465V15.7873L6.17311 15.357C6.3079 15.3196 6.45048 15.3205 6.58474 15.3598C7.19546 15.5387 7.84828 15.6474 8.52913 15.673C8.63716 15.6771 8.72418 15.764 8.72886 15.8721C8.74741 16.3 8.80471 16.7133 8.89698 17.1107C8.90504 17.1454 8.87888 17.1788 8.84321 17.1789C7.98418 17.1789 7.15422 17.0669 6.37337 16.8582L4.07635 17.4968C3.85052 17.5596 3.60832 17.5132 3.42169 17.3713C3.23506 17.2295 3.12547 17.0086 3.12547 16.7742V15.211C1.61562 13.9648 0.641602 12.2016 0.641602 10.2145Z" fill="black"/>
<path d="M7.24646 8.25806C7.24646 8.84597 6.76986 9.32257 6.18195 9.32257C5.59403 9.32257 5.11743 8.84597 5.11743 8.25806C5.11743 7.67014 5.59403 7.19354 6.18195 7.19354C6.76986 7.19354 7.24646 7.67014 7.24646 8.25806Z" fill="black"/>
<path d="M11.5045 9.32257C12.0924 9.32257 12.569 8.84597 12.569 8.25806C12.569 7.67014 12.0924 7.19354 11.5045 7.19354C10.9166 7.19354 10.44 7.67014 10.44 8.25806C10.44 8.84597 10.9166 9.32257 11.5045 9.32257Z" fill="black"/>
<path d="M14.9375 15.1774C15.452 15.1774 15.869 14.7604 15.869 14.246C15.869 13.7315 15.452 13.3145 14.9375 13.3145C14.4231 13.3145 14.0061 13.7315 14.0061 14.246C14.0061 14.7604 14.4231 15.1774 14.9375 15.1774Z" fill="black"/>
<path d="M20.3932 14.246C20.3932 14.7604 19.9762 15.1774 19.4618 15.1774C18.9473 15.1774 18.5303 14.7604 18.5303 14.246C18.5303 13.7315 18.9473 13.3145 19.4618 13.3145C19.9762 13.3145 20.3932 13.7315 20.3932 14.246Z" fill="black"/>
<path fill-rule="evenodd" clip-rule="evenodd" d="M17.1772 9.85853C20.8876 9.85853 24.1368 12.3912 24.1368 15.7873C24.1368 17.4662 23.3282 18.7319 22.0717 19.7881V21.0322C22.0717 21.2666 21.9621 21.4876 21.7755 21.6294C21.5889 21.7712 21.3466 21.8176 21.1208 21.7548L19.2393 21.2318C18.5877 21.4029 17.8965 21.4945 17.1819 21.4945C13.4714 21.4945 10.2222 18.9619 10.2222 15.5658C10.2222 12.1697 13.4667 9.85853 17.1772 9.85853ZM22.6416 15.5658C22.6416 13.2416 20.3305 11.1371 17.1819 11.1371C14.0333 11.1371 11.7222 13.2416 11.7222 15.5658C11.7222 17.89 14.0333 19.9945 17.1819 19.9945C17.8321 19.9945 18.4536 19.9021 19.0288 19.7337C19.1631 19.6943 19.3057 19.6934 19.4405 19.7308L20.5717 20.0453V19.4259C20.5717 19.1892 20.6834 18.9664 20.8731 18.8248C21.9876 17.9929 22.6416 16.8237 22.6416 15.5658Z" fill="black"/>
</svg>
