<svg width="25" height="24" viewBox="0 0 25 24" fill="none" xmlns="http://www.w3.org/2000/svg">
<path fill-rule="evenodd" clip-rule="evenodd" d="M13.0364 5.26375C12.6397 5.02488 12.1435 5.02488 11.7468 5.26375L11.2305 5.57464C9.84926 6.40635 8.29863 6.91671 6.69343 7.06794L6.36815 7.09859C6.23973 7.11069 6.1416 7.2185 6.1416 7.34749V8.99137C6.1416 11.4989 7.15963 13.899 8.96248 15.6419L12.2178 18.7889C12.3147 18.8825 12.4685 18.8825 12.5654 18.7889L15.8207 15.6419C17.6236 13.899 18.6416 11.4989 18.6416 8.99137V7.34749C18.6416 7.2185 18.5435 7.11069 18.4151 7.09859L18.0898 7.06794C16.4846 6.91671 14.9339 6.40635 13.5527 5.57464L13.0364 5.26375ZM10.973 3.97873C11.8457 3.45322 12.9375 3.45322 13.8102 3.97873L14.3265 4.28962C15.515 5.00527 16.8492 5.44443 18.2305 5.57456L18.5557 5.6052C19.4547 5.68989 20.1416 6.44458 20.1416 7.34749V8.99137C20.1416 11.9055 18.9585 14.6948 16.8633 16.7203L13.6079 19.8673C12.9296 20.5231 11.8536 20.5231 11.1753 19.8673L7.91992 16.7203C5.82471 14.6948 4.6416 11.9055 4.6416 8.99137V7.34749C4.6416 6.44458 5.32853 5.68989 6.22745 5.6052L6.55274 5.57456C7.93395 5.44443 9.26821 5.00528 10.4567 4.28962L10.973 3.97873Z" fill="black"/>
</svg>
