<svg width="25" height="24" viewBox="0 0 25 24" fill="none" xmlns="http://www.w3.org/2000/svg">
<path d="M12.3916 1.25C12.8058 1.25 13.1416 1.58579 13.1416 2V3C13.1416 3.41421 12.8058 3.75 12.3916 3.75C11.9774 3.75 11.6416 3.41421 11.6416 3V2C11.6416 1.58579 11.9774 1.25 12.3916 1.25Z" fill="black"/>
<path fill-rule="evenodd" clip-rule="evenodd" d="M6.6416 12C6.6416 8.82436 9.21596 6.25 12.3916 6.25C15.5672 6.25 18.1416 8.82436 18.1416 12C18.1416 15.1756 15.5672 17.75 12.3916 17.75C9.21596 17.75 6.6416 15.1756 6.6416 12ZM12.3916 7.75C10.0444 7.75 8.1416 9.65279 8.1416 12C8.1416 14.3472 10.0444 16.25 12.3916 16.25C14.7388 16.25 16.6416 14.3472 16.6416 12C16.6416 9.65279 14.7388 7.75 12.3916 7.75Z" fill="black"/>
<path d="M5.85088 4.39862C5.55798 4.10573 5.08311 4.10573 4.79022 4.39862C4.49732 4.69152 4.49732 5.16639 4.79022 5.45929L5.49732 6.16639C5.79022 6.45929 6.26509 6.45929 6.55798 6.16639C6.85088 5.8735 6.85088 5.39862 6.55798 5.10573L5.85088 4.39862Z" fill="black"/>
<path d="M23.1416 12C23.1416 12.4142 22.8058 12.75 22.3916 12.75H21.3916C20.9774 12.75 20.6416 12.4142 20.6416 12C20.6416 11.5858 20.9774 11.25 21.3916 11.25H22.3916C22.8058 11.25 23.1416 11.5858 23.1416 12Z" fill="black"/>
<path d="M19.993 5.45928C20.2859 5.16638 20.2859 4.69151 19.993 4.39862C19.7001 4.10572 19.2252 4.10572 18.9323 4.39862L18.2252 5.10572C17.9323 5.39862 17.9323 5.87349 18.2252 6.16638C18.5181 6.45928 18.993 6.45928 19.2859 6.16638L19.993 5.45928Z" fill="black"/>
<path d="M12.3916 20.25C12.8058 20.25 13.1416 20.5858 13.1416 21V22C13.1416 22.4142 12.8058 22.75 12.3916 22.75C11.9774 22.75 11.6416 22.4142 11.6416 22V21C11.6416 20.5858 11.9774 20.25 12.3916 20.25Z" fill="black"/>
<path d="M19.2859 17.8336C18.993 17.5407 18.5182 17.5407 18.2253 17.8336C17.9324 18.1265 17.9324 18.6014 18.2253 18.8943L18.9324 19.6014C19.2253 19.8943 19.7001 19.8943 19.993 19.6014C20.2859 19.3085 20.2859 18.8336 19.993 18.5407L19.2859 17.8336Z" fill="black"/>
<path d="M4.1416 12C4.1416 12.4142 3.80581 12.75 3.3916 12.75H2.3916C1.97739 12.75 1.6416 12.4142 1.6416 12C1.6416 11.5858 1.97739 11.25 2.3916 11.25H3.3916C3.80582 11.25 4.1416 11.5858 4.1416 12Z" fill="black"/>
<path d="M6.55792 18.8943C6.85081 18.6014 6.85081 18.1265 6.55792 17.8336C6.26502 17.5407 5.79015 17.5407 5.49726 17.8336L4.79015 18.5407C4.49726 18.8336 4.49726 19.3085 4.79015 19.6014C5.08304 19.8943 5.55792 19.8943 5.85081 19.6014L6.55792 18.8943Z" fill="black"/>
</svg>
