<svg width="25" height="24" viewBox="0 0 25 24" fill="none" xmlns="http://www.w3.org/2000/svg">
<path fill-rule="evenodd" clip-rule="evenodd" d="M18.4197 9.96444C18.4197 9.55023 18.0839 9.21444 17.6697 9.21444L15.1771 9.21444V6.7218C15.1771 6.30759 14.8413 5.9718 14.4271 5.9718C14.0129 5.9718 13.6771 6.30759 13.6771 6.7218V9.96444C13.6771 10.3787 14.0129 10.7144 14.4271 10.7144L17.6697 10.7144C18.0839 10.7144 18.4197 10.3787 18.4197 9.96444Z" fill="black"/>
<path fill-rule="evenodd" clip-rule="evenodd" d="M14.4271 18.0281C14.8413 18.0281 15.1771 17.6923 15.1771 17.2781L15.1771 14.7855L17.6698 14.7855C18.084 14.7855 18.4198 14.4497 18.4198 14.0355C18.4198 13.6213 18.084 13.2855 17.6698 13.2855L14.4271 13.2855C14.0129 13.2855 13.6771 13.6213 13.6771 14.0355L13.6771 17.2781C13.6771 17.6923 14.0129 18.0281 14.4271 18.0281Z" fill="black"/>
<path fill-rule="evenodd" clip-rule="evenodd" d="M10.356 18.0281C9.94183 18.0281 9.60604 17.6923 9.60604 17.2781V14.7855H7.1134C6.69919 14.7855 6.3634 14.4497 6.3634 14.0355C6.3634 13.6213 6.69919 13.2855 7.1134 13.2855L10.356 13.2855C10.7703 13.2855 11.106 13.6213 11.106 14.0355L11.106 17.2781C11.106 17.6923 10.7703 18.0281 10.356 18.0281Z" fill="black"/>
<path fill-rule="evenodd" clip-rule="evenodd" d="M6.36343 9.96444C6.36343 9.55023 6.69922 9.21444 7.11343 9.21444H9.60607L9.60607 6.7218C9.60607 6.30759 9.94186 5.9718 10.3561 5.9718C10.7703 5.9718 11.1061 6.30759 11.1061 6.7218L11.1061 9.96444C11.1061 10.3787 10.7703 10.7144 10.3561 10.7144L7.11343 10.7144C6.69922 10.7144 6.36343 10.3787 6.36343 9.96444Z" fill="black"/>
</svg>
