<svg width="25" height="24" viewBox="0 0 25 24" fill="none" xmlns="http://www.w3.org/2000/svg">
<path fill-rule="evenodd" clip-rule="evenodd" d="M6.23189 9.85635C8.01921 13.7482 11.1997 16.8424 15.1535 18.519L15.1659 18.5243L15.9298 18.8647C16.9024 19.2981 18.0456 18.9903 18.6692 18.1272L19.9436 16.3635C20.0214 16.2558 20.0014 16.106 19.8979 16.0225L17.6732 14.2277C17.5626 14.1385 17.4 14.1593 17.3153 14.2734L16.4495 15.4418C16.2392 15.7256 15.8594 15.8242 15.5377 15.6786C12.5813 14.3406 10.2056 11.9649 8.86764 9.00851C8.72203 8.68674 8.82063 8.30699 9.10438 8.09671L10.2728 7.23085C10.3869 7.14625 10.4077 6.98362 10.3185 6.87302L8.52344 4.64798C8.44001 4.54456 8.29026 4.52448 8.18253 4.60225L6.40924 5.88241C5.54045 6.5096 5.23449 7.66244 5.67795 8.63789L6.23129 9.85505L6.23189 9.85635ZM14.5615 19.8973C10.2655 18.0737 6.81016 14.7107 4.86811 10.4809L4.86694 10.4784L4.31244 9.25868C3.57334 7.63293 4.08327 5.71152 5.53125 4.66621L7.30454 3.38605C8.05867 2.84164 9.10689 2.98225 9.69089 3.70614L11.4859 5.93119C12.1105 6.70536 11.965 7.84375 11.1659 8.43599L10.4964 8.93215C11.6273 11.1265 13.4197 12.9189 15.614 14.0498L16.1102 13.3803C16.7024 12.5812 17.8408 12.4357 18.615 13.0603L20.8398 14.855C21.5639 15.4392 21.7043 16.4879 21.1594 17.242L19.8851 19.0057C18.8457 20.4442 16.9403 20.9572 15.3193 20.2349L14.5615 19.8973Z" fill="black"/>
<path fill-rule="evenodd" clip-rule="evenodd" d="M19.8613 4.03033C20.0019 4.17098 20.081 4.36175 20.081 4.56066V8.38909C20.081 8.8033 19.7452 9.13909 19.331 9.13909C18.9167 9.13909 18.581 8.8033 18.581 8.38909V6.37132L15.4219 9.53033C15.1291 9.82322 14.6542 9.82322 14.3613 9.53033C14.0684 9.23744 14.0684 8.76256 14.3613 8.46967L17.5203 5.31066L15.5025 5.31066C15.0883 5.31066 14.7525 4.97487 14.7525 4.56066C14.7525 4.14645 15.0883 3.81066 15.5025 3.81066L19.331 3.81066C19.5299 3.81066 19.7206 3.88968 19.8613 4.03033Z" fill="black"/>
</svg>
