<svg width="25" height="24" viewBox="0 0 25 24" fill="none" xmlns="http://www.w3.org/2000/svg">
<path d="M15.4772 12.5315C15.2185 12.208 14.7465 12.1556 14.4231 12.4143L13.1416 13.4395V10C13.1416 9.58579 12.8058 9.25 12.3916 9.25C11.9774 9.25 11.6416 9.58579 11.6416 10V13.4396L10.3601 12.4143C10.0366 12.1556 9.56468 12.208 9.30592 12.5315C9.04716 12.8549 9.09961 13.3269 9.42305 13.5857L11.9203 15.5835C12.0491 15.6876 12.2131 15.75 12.3916 15.75C12.5717 15.75 12.7369 15.6866 12.8662 15.5808L15.3601 13.5857C15.6835 13.3269 15.736 12.8549 15.4772 12.5315Z" fill="black"/>
<path fill-rule="evenodd" clip-rule="evenodd" d="M8.85198 7.28387C9.79461 5.82734 11.4343 4.86176 13.3007 4.86176C16.1144 4.86176 18.4156 7.05626 18.586 9.82707C18.6422 9.82494 18.6986 9.82386 18.7552 9.82386C21.1778 9.82386 23.1416 11.7877 23.1416 14.2102C23.1416 16.6327 21.1778 18.5966 18.7552 18.5966L7.3916 18.5966C4.21596 18.5966 1.6416 16.0222 1.6416 12.8466C1.6416 9.67095 4.21596 7.09659 7.3916 7.09659C7.89551 7.09659 8.38508 7.16158 8.85198 7.28387ZM13.3007 6.36176C11.7956 6.36176 10.4937 7.23773 9.87966 8.51102C9.70961 8.86363 9.29697 9.02614 8.93214 8.88418C8.4555 8.69871 7.93637 8.59659 7.3916 8.59659C5.04439 8.59659 3.1416 10.4994 3.1416 12.8466C3.1416 15.1938 5.04439 17.0966 7.3916 17.0966L18.7543 17.0966C20.3484 17.0966 21.6416 15.8043 21.6416 14.2102C21.6416 12.6161 20.3493 11.3239 18.7552 11.3239C18.4958 11.3239 18.2455 11.3579 18.008 11.4213C17.7678 11.4855 17.5114 11.4264 17.3235 11.2637C17.1355 11.1009 17.0405 10.8556 17.0697 10.6086C17.0871 10.4609 17.0961 10.3103 17.0961 10.1572C17.0961 8.06104 15.3969 6.36176 13.3007 6.36176Z" fill="black"/>
</svg>
