<svg width="25" height="24" viewBox="0 0 25 24" fill="none" xmlns="http://www.w3.org/2000/svg">
<path fill-rule="evenodd" clip-rule="evenodd" d="M2.6416 12C2.6416 6.61554 7.00714 2.25 12.3916 2.25C14.9615 2.25 17.292 3.25246 19.031 4.87324C19.1799 5.01197 19.266 5.20524 19.2696 5.4087C19.2732 5.61216 19.1939 5.80834 19.05 5.95223L16.5044 8.49788C16.2235 8.77876 15.7723 8.79193 15.4756 8.52792C14.6524 7.79565 13.5753 7.35 12.3916 7.35C9.82367 7.35 7.7416 9.43206 7.7416 12C7.7416 14.5679 9.82367 16.65 12.3916 16.65C14.0154 16.65 15.4437 15.8153 16.2744 14.55H12.3916C11.9774 14.55 11.6416 14.2142 11.6416 13.8V10.2C11.6416 9.78579 11.9774 9.45 12.3916 9.45H21.2166C21.5746 9.45 21.8827 9.70305 21.9523 10.0543C22.0748 10.6728 22.1416 11.348 22.1416 12C22.1416 17.3845 17.7761 21.75 12.3916 21.75C7.00714 21.75 2.6416 17.3845 2.6416 12ZM12.3916 3.75C7.83557 3.75 4.1416 7.44396 4.1416 12C4.1416 16.556 7.83557 20.25 12.3916 20.25C16.9476 20.25 20.6416 16.556 20.6416 12C20.6416 11.6525 20.6191 11.2961 20.5769 10.95H13.1416V13.05H17.478C17.7215 13.05 17.9499 13.1683 18.0904 13.3671C18.231 13.566 18.2662 13.8208 18.1849 14.0503C17.3407 16.4346 15.0711 18.15 12.3916 18.15C8.99524 18.15 6.2416 15.3964 6.2416 12C6.2416 8.60364 8.99524 5.85 12.3916 5.85C13.7049 5.85 14.9188 6.26519 15.9152 6.96571L17.4145 5.46644C16.0222 4.39163 14.2834 3.75 12.3916 3.75Z" fill="black"/>
</svg>
