<svg width="25" height="24" viewBox="0 0 25 24" fill="none" xmlns="http://www.w3.org/2000/svg">
<path fill-rule="evenodd" clip-rule="evenodd" d="M9.32078 4.47028C8.04956 4.3282 6.73366 4.3282 5.46244 4.47028C5.15355 4.5048 4.90995 4.74939 4.87521 5.04645C4.7234 6.34439 4.7234 7.6556 4.87521 8.95355C4.90995 9.2506 5.15355 9.49519 5.46244 9.52972C6.73366 9.67179 8.04956 9.67179 9.32078 9.52972C9.62967 9.49519 9.87327 9.2506 9.90801 8.95355C10.0598 7.6556 10.0598 6.34439 9.90801 5.04645C9.87327 4.74939 9.62967 4.5048 9.32078 4.47028ZM5.29583 2.97956C6.67778 2.82511 8.10544 2.82511 9.48739 2.97956C10.4782 3.0903 11.2807 3.87029 11.3979 4.8722C11.5632 6.28591 11.5632 7.71408 11.3979 9.1278C11.2807 10.1297 10.4782 10.9097 9.48739 11.0204C8.10544 11.1749 6.67778 11.1749 5.29583 11.0204C4.30499 10.9097 3.50254 10.1297 3.38536 9.1278C3.22002 7.71408 3.22002 6.28591 3.38536 4.8722C3.50254 3.87029 4.30499 3.0903 5.29583 2.97956Z" fill="black"/>
<path fill-rule="evenodd" clip-rule="evenodd" d="M9.32078 14.4703C8.04956 14.3282 6.73366 14.3282 5.46244 14.4703C5.15355 14.5048 4.90995 14.7494 4.87521 15.0465C4.7234 16.3444 4.7234 17.6556 4.87521 18.9535C4.90995 19.2506 5.15355 19.4952 5.46244 19.5297C6.73366 19.6718 8.04956 19.6718 9.32078 19.5297C9.62967 19.4952 9.87327 19.2506 9.90801 18.9535C10.0598 17.6556 10.0598 16.3444 9.90801 15.0465C9.87327 14.7494 9.62967 14.5048 9.32078 14.4703ZM5.29583 12.9796C6.67778 12.8251 8.10544 12.8251 9.48739 12.9796C10.4782 13.0903 11.2807 13.8703 11.3979 14.8722C11.5632 16.2859 11.5632 17.7141 11.3979 19.1278C11.2807 20.1297 10.4782 20.9097 9.48739 21.0204C8.10544 21.1749 6.67778 21.1749 5.29583 21.0204C4.30499 20.9097 3.50254 20.1297 3.38536 19.1278C3.22002 17.7141 3.22002 16.2859 3.38536 14.8722C3.50254 13.8703 4.30499 13.0903 5.29583 12.9796Z" fill="black"/>
<path fill-rule="evenodd" clip-rule="evenodd" d="M19.3208 4.47028C18.0496 4.3282 16.7337 4.3282 15.4624 4.47028C15.1535 4.5048 14.91 4.74939 14.8752 5.04645C14.7234 6.34439 14.7234 7.6556 14.8752 8.95355C14.91 9.2506 15.1535 9.49519 15.4624 9.52972C16.7337 9.67179 18.0496 9.67179 19.3208 9.52972C19.6297 9.49519 19.8733 9.2506 19.908 8.95355C20.0598 7.6556 20.0598 6.34439 19.908 5.04645C19.8733 4.74939 19.6297 4.5048 19.3208 4.47028ZM15.2958 2.97956C16.6778 2.82511 18.1054 2.82511 19.4874 2.97956C20.4782 3.0903 21.2807 3.87029 21.3979 4.8722C21.5632 6.28591 21.5632 7.71408 21.3979 9.1278C21.2807 10.1297 20.4782 10.9097 19.4874 11.0204C18.1054 11.1749 16.6778 11.1749 15.2958 11.0204C14.305 10.9097 13.5025 10.1297 13.3854 9.1278C13.22 7.71408 13.22 6.28591 13.3854 4.8722C13.5025 3.87029 14.305 3.0903 15.2958 2.97956Z" fill="black"/>
<path fill-rule="evenodd" clip-rule="evenodd" d="M19.3208 14.4703C18.0496 14.3282 16.7337 14.3282 15.4624 14.4703C15.1535 14.5048 14.91 14.7494 14.8752 15.0465C14.7234 16.3444 14.7234 17.6556 14.8752 18.9535C14.91 19.2506 15.1535 19.4952 15.4624 19.5297C16.7337 19.6718 18.0496 19.6718 19.3208 19.5297C19.6297 19.4952 19.8733 19.2506 19.908 18.9535C20.0598 17.6556 20.0598 16.3444 19.908 15.0465C19.8733 14.7494 19.6297 14.5048 19.3208 14.4703ZM15.2958 12.9796C16.6778 12.8251 18.1054 12.8251 19.4874 12.9796C20.4782 13.0903 21.2807 13.8703 21.3979 14.8722C21.5632 16.2859 21.5632 17.7141 21.3979 19.1278C21.2807 20.1297 20.4782 20.9097 19.4874 21.0204C18.1054 21.1749 16.6778 21.1749 15.2958 21.0204C14.305 20.9097 13.5025 20.1297 13.3854 19.1278C13.22 17.7141 13.22 16.2859 13.3854 14.8722C13.5025 13.8703 14.305 13.0903 15.2958 12.9796Z" fill="black"/>
</svg>
