<svg width="25" height="24" viewBox="0 0 25 24" fill="none" xmlns="http://www.w3.org/2000/svg">
<path d="M19.3466 2.04505C19.6394 2.33794 19.6394 2.81282 19.3466 3.10571L18.7961 3.65616C22.0851 7.48724 21.9151 13.2651 18.2859 16.8943C16.5729 18.6073 14.3813 19.5496 12.1416 19.7213V21.25H13.8916C14.3058 21.25 14.6416 21.5858 14.6416 22C14.6416 22.4142 14.3058 22.75 13.8916 22.75H8.8916C8.47739 22.75 8.1416 22.4142 8.1416 22C8.1416 21.5858 8.47739 21.25 8.8916 21.25H10.6416V19.7213C8.63534 19.5674 6.66754 18.7951 5.04776 17.4045L4.49731 17.955C4.20442 18.2478 3.72954 18.2478 3.43665 17.955C3.14376 17.6621 3.14376 17.1872 3.43665 16.8943L4.14376 16.1872C4.63919 15.6917 5.40906 15.7171 5.89138 16.1493C7.45334 17.5491 9.42082 18.2493 11.3886 18.25L11.3916 18.25L11.3948 18.25C13.5051 18.2491 15.6152 17.4437 17.2252 15.8336C20.3381 12.7207 20.4434 7.73853 17.5409 4.49977C17.1087 4.01746 17.0834 3.24759 17.5788 2.75216L18.2859 2.04505C18.5788 1.75216 19.0537 1.75216 19.3466 2.04505Z" fill="black"/>
<path fill-rule="evenodd" clip-rule="evenodd" d="M4.6416 10C4.6416 6.27208 7.66368 3.25 11.3916 3.25C15.1195 3.25 18.1416 6.27208 18.1416 10C18.1416 13.7279 15.1195 16.75 11.3916 16.75C7.66368 16.75 4.6416 13.7279 4.6416 10ZM11.3916 4.75C8.49211 4.75 6.1416 7.1005 6.1416 10C6.1416 10.3348 6.17295 10.6623 6.23286 10.9798C6.64418 10.5312 7.23505 10.25 7.8916 10.25C9.13424 10.25 10.1416 11.2574 10.1416 12.5C10.1416 13.4223 9.58661 14.2151 8.79236 14.5624C9.55872 15 10.446 15.25 11.3916 15.25C13.935 15.25 16.0559 13.4414 16.5386 11.0402C15.87 12.0694 14.7103 12.75 13.3916 12.75C11.3205 12.75 9.6416 11.0711 9.6416 9C9.6416 6.92893 11.3205 5.25 13.3916 5.25C13.4781 5.25 13.5639 5.25293 13.6489 5.25869C12.9651 4.93256 12.1997 4.75 11.3916 4.75ZM11.1416 9C11.1416 7.75736 12.149 6.75 13.3916 6.75C14.6342 6.75 15.6416 7.75736 15.6416 9C15.6416 10.2426 14.6342 11.25 13.3916 11.25C12.149 11.25 11.1416 10.2426 11.1416 9ZM7.8916 11.75C7.47739 11.75 7.1416 12.0858 7.1416 12.5C7.1416 12.9142 7.47739 13.25 7.8916 13.25C8.30582 13.25 8.6416 12.9142 8.6416 12.5C8.6416 12.0858 8.30582 11.75 7.8916 11.75Z" fill="black"/>
</svg>
