<svg width="25" height="24" viewBox="0 0 25 24" fill="none" xmlns="http://www.w3.org/2000/svg">
<path fill-rule="evenodd" clip-rule="evenodd" d="M8.20834 3.76876C11.2959 3.42368 14.4873 3.42368 17.5748 3.76876C19.4012 3.97288 20.8761 5.41153 21.091 7.24849C21.4602 10.4054 21.4602 13.5946 21.091 16.7515C20.8761 18.5885 19.4012 20.0271 17.5748 20.2313C14.4873 20.5763 11.2959 20.5763 8.20833 20.2313C6.38195 20.0271 4.90706 18.5885 4.69221 16.7515C4.32298 13.5946 4.32298 10.4054 4.69221 7.24849C4.90706 5.41153 6.38195 3.97288 8.20834 3.76876ZM17.4082 5.25948C14.4314 4.92677 11.3518 4.92677 8.37495 5.25948C7.23051 5.38738 6.31446 6.29063 6.18205 7.42274C5.82636 10.4639 5.82636 13.5361 6.18205 16.5773C6.31446 17.7094 7.23051 18.6126 8.37494 18.7405C11.3518 19.0732 14.4314 19.0732 17.4082 18.7405C18.5527 18.6126 19.4687 17.7094 19.6011 16.5773C19.9568 13.5361 19.9568 10.4639 19.6011 7.42274C19.4687 6.29063 18.5527 5.38738 17.4082 5.25948Z" fill="black"/>
<path fill-rule="evenodd" clip-rule="evenodd" d="M16.4222 10.4696C16.7151 10.7625 16.7151 11.2374 16.4222 11.5303L12.9222 15.0303C12.6293 15.3232 12.1544 15.3232 11.8615 15.0303L9.86152 13.0303C9.56862 12.7374 9.56862 12.2625 9.86152 11.9696C10.1544 11.6767 10.6293 11.6767 10.9222 11.9696L12.3918 13.4393L15.3615 10.4696C15.6544 10.1767 16.1293 10.1767 16.4222 10.4696Z" fill="black"/>
</svg>
