<svg width="25" height="24" viewBox="0 0 25 24" fill="none" xmlns="http://www.w3.org/2000/svg">
<path fill-rule="evenodd" clip-rule="evenodd" d="M17.1772 3.72499C16.3018 2.84954 14.819 3.13511 14.3313 4.27307L12.7387 7.9891C11.2396 7.69513 9.62454 8.12819 8.46164 9.29109L6.75154 11.0012C6.45865 11.2941 6.45865 11.769 6.75154 12.0618L9.24685 14.5572L3.86121 19.9428C3.56832 20.2357 3.56832 20.7106 3.86121 21.0035C4.1541 21.2963 4.62898 21.2963 4.92187 21.0035L10.3075 15.6178L12.8029 18.1132C12.9436 18.2539 13.1343 18.3329 13.3332 18.3329C13.5321 18.3329 13.7229 18.2539 13.8636 18.1132L15.5737 16.4031C16.7366 15.2402 17.1696 13.6251 16.8756 12.126L20.5917 10.5334C21.7296 10.0457 22.0152 8.56295 21.1397 7.68751L17.1772 3.72499ZM15.71 4.86394C15.7797 4.70138 15.9915 4.66058 16.1166 4.78565L20.0791 8.74817C20.2041 8.87323 20.1634 9.08506 20.0008 9.15473L15.6855 11.0042C15.3211 11.1603 15.1412 11.573 15.2748 11.9463C15.6858 13.0946 15.4304 14.425 14.513 15.3425L13.3332 16.5222L8.34253 11.5315L9.5223 10.3518C10.4397 9.43434 11.7702 9.17897 12.9185 9.58997C13.2917 9.72356 13.7044 9.54364 13.8606 9.17928L15.71 4.86394Z" fill="black"/>
</svg>
