<svg width="25" height="24" viewBox="0 0 25 24" fill="none" xmlns="http://www.w3.org/2000/svg">
<path fill-rule="evenodd" clip-rule="evenodd" d="M12.5303 4.5748C13.5828 3.6977 15.1889 4.33147 15.3588 5.69095C15.8825 9.88069 15.8825 14.1193 15.3588 18.3091C15.1889 19.6686 13.5828 20.3023 12.5303 19.4252L8.1896 15.808C8.14467 15.7705 8.08804 15.75 8.02955 15.75H4.3916C3.4251 15.75 2.6416 14.9665 2.6416 14V10C2.6416 9.03351 3.4251 8.25001 4.3916 8.25001H8.02955C8.08804 8.25001 8.14467 8.22951 8.1896 8.19207L12.5303 4.5748ZM13.8704 5.87701C13.8476 5.69446 13.6319 5.60936 13.4906 5.72713L9.14987 9.3444C8.83537 9.60648 8.43894 9.75001 8.02955 9.75001H4.3916C4.25353 9.75001 4.1416 9.86194 4.1416 10V14C4.1416 14.1381 4.25353 14.25 4.3916 14.25H8.02955C8.43894 14.25 8.83537 14.3935 9.14987 14.6556L13.4906 18.2729C13.6319 18.3907 13.8476 18.3056 13.8704 18.123C14.3787 14.0568 14.3787 9.94319 13.8704 5.87701Z" fill="black"/>
<path d="M20.2998 5.94578C20.693 5.81572 21.1173 6.02908 21.2473 6.42234C21.8278 8.17731 22.1416 10.0528 22.1416 12C22.1416 13.9473 21.8278 15.8227 21.2473 17.5777C21.1173 17.971 20.693 18.1843 20.2998 18.0543C19.9065 17.9242 19.6931 17.5 19.8232 17.1067C20.354 15.5018 20.6416 13.7852 20.6416 12C20.6416 10.2148 20.354 8.49828 19.8232 6.89336C19.6931 6.50009 19.9065 6.07585 20.2998 5.94578Z" fill="black"/>
<path d="M18.4239 7.94771C18.281 7.55891 17.85 7.35953 17.4612 7.50238C17.0724 7.64524 16.8731 8.07623 17.0159 8.46503C17.4204 9.56596 17.6416 10.7563 17.6416 12C17.6416 13.0316 17.4894 14.0264 17.2068 14.9637C17.1911 15.0159 17.1749 15.068 17.1584 15.1198C17.1138 15.2595 17.0663 15.398 17.0159 15.535C16.8731 15.9238 17.0724 16.3548 17.4612 16.4977C17.85 16.6405 18.281 16.4411 18.4239 16.0523C18.4817 15.8951 18.5362 15.7362 18.5874 15.5759C18.6064 15.5163 18.6249 15.4566 18.643 15.3967C18.9674 14.3204 19.1416 13.1799 19.1416 12C19.1416 10.5772 18.8884 9.21188 18.4239 7.94771Z" fill="black"/>
</svg>
