<svg width="25" height="24" viewBox="0 0 25 24" fill="none" xmlns="http://www.w3.org/2000/svg">
<path fill-rule="evenodd" clip-rule="evenodd" d="M11.6416 5.78829C7.98993 6.16358 5.1416 9.24914 5.1416 13C5.1416 17.004 8.38754 20.25 12.3916 20.25C16.1424 20.25 19.228 17.4016 19.6033 13.75H12.3916C11.9774 13.75 11.6416 13.4142 11.6416 13V5.78829ZM3.6416 13C3.6416 8.16747 7.55911 4.24996 12.3916 4.24996C12.8058 4.24996 13.1416 4.58575 13.1416 4.99996V12.25H20.3916C20.8058 12.25 21.1416 12.5858 21.1416 13C21.1416 17.8325 17.2241 21.75 12.3916 21.75C7.55911 21.75 3.6416 17.8325 3.6416 13Z" fill="black"/>
<path fill-rule="evenodd" clip-rule="evenodd" d="M15.8916 4.67361V9.49996H20.718C20.1549 7.11556 18.276 5.23664 15.8916 4.67361ZM15.3896 3.06161C19.0099 3.51214 21.8794 6.38163 22.33 10.0019C22.3982 10.55 21.9439 11 21.3916 11H14.8916C14.6155 11 14.3916 10.7761 14.3916 10.5V3.99996C14.3916 3.44768 14.8416 2.99341 15.3896 3.06161Z" fill="black"/>
</svg>
