<svg width="25" height="24" viewBox="0 0 25 24" fill="none" xmlns="http://www.w3.org/2000/svg">
<path d="M12.3916 18.25C11.9774 18.25 11.6416 18.5858 11.6416 19C11.6416 19.4142 11.9774 19.75 12.3916 19.75H18.3916C19.3581 19.75 20.1416 18.9665 20.1416 18V6C20.1416 5.0335 19.3581 4.25 18.3916 4.25H12.3916C11.9774 4.25 11.6416 4.58579 11.6416 5C11.6416 5.41421 11.9774 5.75 12.3916 5.75L18.3916 5.75C18.5297 5.75 18.6416 5.86193 18.6416 6L18.6416 18C18.6416 18.1381 18.5297 18.25 18.3916 18.25H12.3916Z" fill="black"/>
<path fill-rule="evenodd" clip-rule="evenodd" d="M14.8947 14.3652C15.585 14.3652 16.1447 13.8056 16.1447 13.1152V10.8747C16.1447 10.1843 15.585 9.6247 14.8947 9.6247L10.2821 9.6247C10.2756 9.55128 10.2687 9.47787 10.2616 9.40448L10.2076 8.8486C10.1251 8.00049 9.22454 7.49258 8.45612 7.86084C6.82189 8.64403 5.34245 9.71578 4.08896 11.0245L3.98976 11.1281C3.52555 11.6128 3.52555 12.3771 3.98976 12.8618L4.08896 12.9654C5.34245 14.2741 6.82189 15.3459 8.45611 16.1291C9.22454 16.4973 10.1251 15.9894 10.2076 15.1413L10.2616 14.5854C10.2687 14.512 10.2756 14.4386 10.2821 14.3652H14.8947ZM9.58671 12.8652C9.32034 12.8652 9.08486 13.0045 8.95168 13.216C8.88683 13.319 8.84624 13.4391 8.83816 13.5685C8.82002 13.8594 8.79684 14.15 8.76863 14.4403L8.75295 14.6017C7.7169 14.0677 6.75477 13.4028 5.88998 12.6239C5.66562 12.4218 5.44782 12.2121 5.23698 11.995C6.26052 10.9409 7.44811 10.0607 8.75295 9.38824L8.76863 9.54959C8.79684 9.83987 8.82002 10.1305 8.83816 10.4214C8.86282 10.8167 9.19062 11.1247 9.58671 11.1247H14.6447V12.8652H9.58671Z" fill="black"/>
</svg>
