<svg width="25" height="24" viewBox="0 0 25 24" fill="none" xmlns="http://www.w3.org/2000/svg">
<path fill-rule="evenodd" clip-rule="evenodd" d="M12.3916 2.25C7.00714 2.25 2.6416 6.61554 2.6416 12C2.6416 17.3845 7.00714 21.75 12.3916 21.75C17.7761 21.75 22.1416 17.3845 22.1416 12C22.1416 11.348 22.0748 10.6728 21.9523 10.0543C21.8827 9.70305 21.5746 9.45 21.2166 9.45H12.3916C11.9774 9.45 11.6416 9.78579 11.6416 10.2V13.8C11.6416 14.2142 11.9774 14.55 12.3916 14.55H16.2744C15.9934 14.978 15.644 15.3568 15.2418 15.6706C15.2359 15.6743 15.2302 15.678 15.2244 15.6819L15.2231 15.6828L15.2241 15.6843C14.4402 16.2899 13.4581 16.65 12.3916 16.65C9.82367 16.65 7.7416 14.5679 7.7416 12C7.7416 9.43206 9.82367 7.35 12.3916 7.35C13.5753 7.35 14.6524 7.79565 15.4756 8.52792C15.7723 8.79193 16.2235 8.77876 16.5044 8.49788L19.05 5.95223C19.1939 5.80834 19.2732 5.61216 19.2696 5.4087C19.266 5.20524 19.1799 5.01197 19.031 4.87324C17.292 3.25246 14.9615 2.25 12.3916 2.25ZM15.5936 17.2492C14.6621 17.8203 13.5662 18.15 12.3916 18.15C10.0836 18.15 8.07234 16.8784 7.02038 14.9975L5.34329 16.2897C6.79179 18.6644 9.40668 20.25 12.3916 20.25C14.2128 20.25 15.8962 19.6598 17.2611 18.6602L15.5936 17.2492ZM18.397 17.6564C19.7887 16.1795 20.6416 14.1893 20.6416 12C20.6416 11.6525 20.6191 11.2961 20.5769 10.95H13.1416V13.05H17.478C17.7215 13.05 17.9499 13.1683 18.0904 13.3671C18.231 13.566 18.2662 13.8208 18.1849 14.0503C17.8845 14.8989 17.4035 15.6627 16.7877 16.2946L18.397 17.6564ZM5.41119 7.60094C6.87259 5.287 9.45275 3.75 12.3916 3.75C14.2834 3.75 16.0222 4.39163 17.4145 5.46644L15.9152 6.96571C14.9188 6.26519 13.7049 5.85 12.3916 5.85C10.1477 5.85 8.18438 7.05193 7.11032 8.84704L5.41119 7.60094ZM4.72167 8.95541C4.34737 9.89743 4.1416 10.9247 4.1416 12C4.1416 13.0258 4.32887 14.0079 4.67107 14.914L6.43909 13.5518C6.3102 13.0561 6.2416 12.5361 6.2416 12C6.2416 11.3936 6.32937 10.8078 6.4929 10.2544L4.72167 8.95541Z" fill="black"/>
</svg>
