<svg width="25" height="24" viewBox="0 0 25 24" fill="none" xmlns="http://www.w3.org/2000/svg">
<path fill-rule="evenodd" clip-rule="evenodd" d="M2.01451 12.3414L4.28779 5.90526C4.2991 5.87326 4.31256 5.84205 4.32809 5.81187C4.70777 5.07405 5.38953 4.50855 6.11679 4.13225C6.84964 3.75306 7.70054 3.52777 8.50271 3.52777C9.65098 3.52777 10.7925 3.98861 11.6497 4.71956C11.9246 4.95392 12.1763 5.22175 12.3916 5.51778C12.6069 5.22175 12.8587 4.95392 13.1335 4.71956C13.9907 3.98861 15.1322 3.52777 16.2805 3.52777C17.0827 3.52777 17.9336 3.75306 18.6664 4.13225C19.3937 4.50855 20.0754 5.07405 20.4551 5.81187C20.4706 5.84205 20.4841 5.87326 20.4954 5.90526L22.7687 12.3414C23.0092 12.9398 23.1416 13.5933 23.1416 14.2778C23.1416 17.1466 20.816 19.4722 17.9472 19.4722C15.333 19.4722 13.17 17.5412 12.8065 15.0278H11.9767C11.6133 17.5412 9.45016 19.4722 6.83605 19.4722C3.96805 19.4722 1.64292 17.1479 1.64161 14.2802M4.57336 9.6007L5.68343 6.45786C5.88474 6.09472 6.2775 5.73799 6.80612 5.46448C7.34871 5.18373 7.96485 5.02777 8.50271 5.02777C9.26358 5.02777 10.0665 5.34076 10.6764 5.86092C11.2851 6.37996 11.6416 7.04959 11.6416 7.73456V12.3021C10.8642 10.4132 9.00542 9.08331 6.83605 9.08331C6.02497 9.08331 5.25732 9.2692 4.57336 9.6007ZM10.4554 13.5332C10.5046 13.7737 10.5305 14.0227 10.5305 14.2778C10.5305 16.3182 8.87643 17.9722 6.83605 17.9722C4.79566 17.9722 3.1416 16.3181 3.1416 14.2778C3.1416 12.7534 4.06487 11.4446 5.38272 10.8801C5.41011 10.8684 5.43767 10.857 5.46539 10.8459C5.88933 10.6765 6.3519 10.5833 6.83605 10.5833C8.11123 10.5833 9.23551 11.2294 9.89944 12.212C10.1651 12.6052 10.357 13.0522 10.4554 13.5332ZM13.1416 12.3022C13.336 11.8299 13.5979 11.3926 13.9154 11.0023C14.8678 9.83137 16.3201 9.08333 17.9472 9.08333C17.9698 9.08333 17.9923 9.08347 18.0149 9.08376C18.4979 9.08993 18.9649 9.162 19.4073 9.29137C19.6852 9.3726 19.9534 9.47641 20.2098 9.6007L19.0998 6.45786C18.8985 6.09472 18.5057 5.73799 17.9771 5.46448C17.4345 5.18373 16.8184 5.02777 16.2805 5.02777C15.5196 5.02777 14.7167 5.34076 14.1068 5.86092C13.4981 6.37996 13.1416 7.04959 13.1416 7.73456V12.3022ZM14.2527 14.2778C14.2527 14.2778 14.2527 14.2778 14.2527 14.2778C14.2527 16.3181 15.9068 17.9722 17.9472 17.9722C19.9868 17.9722 21.6404 16.3193 21.6416 14.28C21.6416 14.2792 21.6416 14.2785 21.6416 14.2778C21.6416 14.2471 21.6412 14.2165 21.6405 14.1859C21.6396 14.1491 21.6382 14.1124 21.6362 14.0758C21.5578 12.62 20.6365 11.3882 19.3518 10.8597C18.9186 10.6815 18.4443 10.5833 17.9472 10.5833C16.6719 10.5833 15.5476 11.2294 14.8837 12.2122C14.4853 12.8018 14.2527 13.5126 14.2527 14.2778Z" fill="black"/>
<path d="M2.01451 12.3414C1.77397 12.9398 1.6416 13.5933 1.6416 14.2778C1.6416 14.2778 1.6416 14.2778 1.6416 14.2778" fill="black"/>
</svg>
