<svg width="25" height="24" viewBox="0 0 25 24" fill="none" xmlns="http://www.w3.org/2000/svg">
<path d="M8.3916 9.49998C7.70125 9.49998 7.1416 10.0596 7.1416 10.75C7.1416 11.4403 7.70125 12 8.3916 12C9.08196 12 9.6416 11.4403 9.6416 10.75C9.6416 10.0596 9.08196 9.49998 8.3916 9.49998Z" fill="black"/>
<path d="M12.3916 9.49998C11.7012 9.49998 11.1416 10.0596 11.1416 10.75C11.1416 11.4403 11.7012 12 12.3916 12C13.082 12 13.6416 11.4403 13.6416 10.75C13.6416 10.0596 13.082 9.49998 12.3916 9.49998Z" fill="black"/>
<path d="M15.1416 10.75C15.1416 10.0596 15.7012 9.49998 16.3916 9.49998C17.082 9.49998 17.6416 10.0596 17.6416 10.75C17.6416 11.4403 17.082 12 16.3916 12C15.7012 12 15.1416 11.4403 15.1416 10.75Z" fill="black"/>
<path fill-rule="evenodd" clip-rule="evenodd" d="M16.4923 4.59277C13.7981 4.36301 11.0899 4.34967 8.39354 4.5529L8.20031 4.56746C5.62901 4.76126 3.6416 6.90409 3.6416 9.48269V18C3.6416 18.2639 3.78027 18.5083 4.00675 18.6437C4.23323 18.7791 4.51421 18.7855 4.74664 18.6606L8.65743 16.5589C8.83934 16.4611 9.04264 16.41 9.24916 16.41H18.2256C19.3577 16.41 20.3278 15.6006 20.5308 14.4868C20.9421 12.2296 20.9745 9.91963 20.6269 7.65173L20.5245 6.9834C20.338 5.76665 19.3426 4.83584 18.1161 4.73124L16.4923 4.59277ZM8.50628 6.04865C11.1226 5.85146 13.7506 5.8644 16.3649 6.08734L17.9886 6.22581C18.525 6.27155 18.9602 6.67859 19.0418 7.21067L19.1442 7.879C19.4666 9.98228 19.4365 12.1246 19.0551 14.218C18.9821 14.6187 18.6329 14.91 18.2256 14.91H9.24916C8.79482 14.91 8.34756 15.0225 7.94735 15.2376L5.1416 16.7455V9.48269C5.1416 7.68878 6.52422 6.19804 8.31305 6.06322L8.50628 6.04865Z" fill="black"/>
</svg>
