<svg width="25" height="24" viewBox="0 0 25 24" fill="none" xmlns="http://www.w3.org/2000/svg">
<path fill-rule="evenodd" clip-rule="evenodd" d="M12.3916 2.25C11.9774 2.25 11.6416 2.58579 11.6416 3V7C11.6416 7.00013 11.6416 6.99987 11.6416 7L11.6416 14.2595C10.9004 13.6299 9.94035 13.25 8.8916 13.25C6.54439 13.25 4.6416 15.1528 4.6416 17.5C4.6416 19.8472 6.54439 21.75 8.8916 21.75C11.2388 21.75 13.1416 19.8472 13.1416 17.5C13.1416 17.3812 13.1367 17.2635 13.1272 17.1472C13.1366 17.0996 13.1416 17.0504 13.1416 17L13.1416 7.75H18.3916C19.9104 7.75 21.1416 6.51878 21.1416 5C21.1416 3.48122 19.9104 2.25 18.3916 2.25H12.3916ZM13.1416 6.25H18.3916C19.082 6.25 19.6416 5.69036 19.6416 5C19.6416 4.30964 19.082 3.75 18.3916 3.75H13.1416V6.25ZM8.8916 14.75C7.37282 14.75 6.1416 15.9812 6.1416 17.5C6.1416 19.0188 7.37282 20.25 8.8916 20.25C10.4104 20.25 11.6416 19.0188 11.6416 17.5C11.6416 15.9812 10.4104 14.75 8.8916 14.75Z" fill="black"/>
</svg>
