<svg width="25" height="24" viewBox="0 0 25 24" fill="none" xmlns="http://www.w3.org/2000/svg">
<path d="M10.3916 13.25C10.8058 13.25 11.1416 13.5858 11.1416 14V16C11.1416 16.4142 10.8058 16.75 10.3916 16.75C9.97739 16.75 9.6416 16.4142 9.6416 16V14C9.6416 13.5858 9.97739 13.25 10.3916 13.25Z" fill="black"/>
<path d="M15.1416 14C15.1416 13.5858 14.8058 13.25 14.3916 13.25C13.9774 13.25 13.6416 13.5858 13.6416 14V16C13.6416 16.4142 13.9774 16.75 14.3916 16.75C14.8058 16.75 15.1416 16.4142 15.1416 16V14Z" fill="black"/>
<path fill-rule="evenodd" clip-rule="evenodd" d="M10.0411 3.375C10.2482 3.01628 10.1253 2.55759 9.7666 2.35048C9.40788 2.14338 8.94919 2.26628 8.74208 2.625L6.74208 6.0891C6.71212 6.141 6.68906 6.19499 6.67263 6.25H6.3916C4.87282 6.25 3.6416 7.48122 3.6416 9C3.6416 9.85913 4.03557 10.6262 4.6527 11.1305L5.31964 15.7152L5.76638 17.8084C6.03404 19.0625 7.05784 20.0151 8.32796 20.1918C11.0241 20.567 13.7591 20.567 16.4552 20.1918C17.7254 20.0151 18.7492 19.0625 19.0168 17.8084L19.4636 15.7152L20.1305 11.1305C20.7476 10.6262 21.1416 9.85913 21.1416 9C21.1416 7.48122 19.9104 6.25 18.3916 6.25H18.1106C18.0941 6.19499 18.0711 6.141 18.0411 6.0891L16.0411 2.625C15.834 2.26628 15.3753 2.14338 15.0166 2.35048C14.6579 2.55759 14.535 3.01628 14.7421 3.375L16.402 6.25H8.38124L10.0411 3.375ZM18.5251 11.7468C18.4808 11.7489 18.4363 11.75 18.3916 11.75H6.3916C6.34686 11.75 6.30236 11.7489 6.25814 11.7468L6.7969 15.4504L7.23334 17.4953C7.36932 18.1324 7.88943 18.6163 8.53468 18.7061C11.0936 19.0622 13.6896 19.0622 16.2485 18.7061C16.8938 18.6163 17.4139 18.1324 17.5499 17.4953L17.9863 15.4504L18.5251 11.7468ZM5.1416 9C5.1416 8.30965 5.70125 7.75 6.3916 7.75H18.3916C19.082 7.75 19.6416 8.30965 19.6416 9C19.6416 9.69036 19.082 10.25 18.3916 10.25H6.3916C5.70125 10.25 5.1416 9.69036 5.1416 9Z" fill="black"/>
</svg>
