<svg width="25" height="24" viewBox="0 0 25 24" fill="none" xmlns="http://www.w3.org/2000/svg">
<path fill-rule="evenodd" clip-rule="evenodd" d="M3.1416 3.4C3.1416 2.76487 3.65647 2.25 4.2916 2.25H20.4916C21.1267 2.25 21.6416 2.76487 21.6416 3.4V14.8716C21.6416 15.1766 21.5204 15.4691 21.3048 15.6848L18.5826 18.407C18.3669 18.6226 18.0744 18.7438 17.7694 18.7438H13.2302L9.77888 22.1951C9.18041 22.7936 8.15713 22.3697 8.15713 21.5234V18.7438H4.2916C3.65647 18.7438 3.1416 18.2289 3.1416 17.5938V3.4ZM4.6416 3.75V17.2438H8.50713C9.14226 17.2438 9.65713 17.7587 9.65713 18.3938V20.1955L12.2721 17.5806C12.4877 17.3649 12.7802 17.2438 13.0852 17.2438H17.6244L20.1416 14.7266V3.75H4.6416ZM10.8605 6.95C11.2748 6.95 11.6105 7.28579 11.6105 7.7V11.972C11.6105 12.3863 11.2748 12.722 10.8605 12.722C10.4463 12.722 10.1105 12.3863 10.1105 11.972V7.7C10.1105 7.28579 10.4463 6.95 10.8605 6.95ZM15.8761 6.95C16.2903 6.95 16.6261 7.28579 16.6261 7.7V11.972C16.6261 12.3863 16.2903 12.722 15.8761 12.722C15.4619 12.722 15.1261 12.3863 15.1261 11.972V7.7C15.1261 7.28579 15.4619 6.95 15.8761 6.95Z" fill="black"/>
</svg>
