<svg width="25" height="24" viewBox="0 0 25 24" fill="none" xmlns="http://www.w3.org/2000/svg">
<path d="M16.3915 7C16.3915 6.44772 16.8393 6 17.3915 6C17.9438 6 18.3915 6.44772 18.3915 7C18.3915 7.55228 17.9438 8 17.3915 8C16.8393 8 16.3915 7.55228 16.3915 7Z" fill="black"/>
<path fill-rule="evenodd" clip-rule="evenodd" d="M12.3915 7.25C9.76819 7.25 7.64154 9.37665 7.64154 12C7.64154 14.6234 9.76819 16.75 12.3915 16.75C15.0149 16.75 17.1415 14.6234 17.1415 12C17.1415 9.37665 15.0149 7.25 12.3915 7.25ZM9.14154 12C9.14154 10.2051 10.5966 8.75 12.3915 8.75C14.1865 8.75 15.6415 10.2051 15.6415 12C15.6415 13.7949 14.1865 15.25 12.3915 15.25C10.5966 15.25 9.14154 13.7949 9.14154 12Z" fill="black"/>
<path fill-rule="evenodd" clip-rule="evenodd" d="M17.6498 2.83302C14.1832 2.44557 10.5999 2.44557 7.13331 2.83302C5.12125 3.05789 3.49692 4.6429 3.26037 6.66543C2.84583 10.2097 2.84583 13.7903 3.26037 17.3346C3.49692 19.3571 5.12125 20.9421 7.13331 21.167C10.5999 21.5544 14.1832 21.5544 17.6498 21.167C19.6618 20.9421 21.2862 19.3571 21.5227 17.3346C21.9373 13.7903 21.9373 10.2097 21.5227 6.66543C21.2862 4.6429 19.6619 3.05789 17.6498 2.83302ZM7.29992 4.32373C10.6558 3.94867 14.1273 3.94867 17.4832 4.32373C18.8133 4.47239 19.8788 5.52201 20.0329 6.83968C20.4339 10.2682 20.4339 13.7318 20.0329 17.1603C19.8788 18.478 18.8133 19.5276 17.4832 19.6763C14.1273 20.0513 10.6558 20.0513 7.29992 19.6763C5.96981 19.5276 4.90433 18.478 4.75021 17.1603C4.34921 13.7318 4.34921 10.2682 4.75021 6.83968C4.90433 5.52201 5.96981 4.47239 7.29992 4.32373Z" fill="black"/>
</svg>
