<svg width="25" height="24" viewBox="0 0 25 24" fill="none" xmlns="http://www.w3.org/2000/svg">
<path fill-rule="evenodd" clip-rule="evenodd" d="M12.9247 13.3093C10.7845 14.953 8.39921 16.2503 5.85597 17.1535L5.38992 17.319C4.3664 17.6826 3.28959 16.9901 3.15161 15.938C2.81193 13.3479 2.81193 10.6521 3.15161 8.06198C3.28959 7.0099 4.36639 6.31742 5.38992 6.68094L5.85597 6.84646C8.39921 7.74973 10.7845 9.04699 12.9247 10.6906C12.9623 9.80785 13.0379 8.92899 13.1516 8.06198C13.2896 7.0099 14.3664 6.31742 15.3899 6.68094L15.856 6.84646C18.4285 7.76012 20.8394 9.0769 22.9985 10.7475C23.8178 11.3815 23.8178 12.6185 22.9985 13.2525C20.8394 14.9231 18.4285 16.2399 15.856 17.1535L15.3899 17.319C14.3664 17.6826 13.2896 16.9901 13.1516 15.938C13.0379 15.071 12.9623 14.1921 12.9247 13.3093ZM12.0805 11.9338C12.1238 11.9673 12.1238 12.0327 12.0805 12.0661C10.0472 13.6395 7.77665 14.8796 5.35395 15.74L4.8879 15.9055C4.78769 15.9411 4.65596 15.8733 4.63888 15.743C4.31617 13.2824 4.31617 10.7176 4.63888 8.25703C4.65597 8.12673 4.78769 8.05885 4.8879 8.09443L5.35395 8.25996C7.77665 9.12041 10.0472 10.3605 12.0805 11.9338ZM22.0805 11.9338C22.1238 11.9673 22.1238 12.0327 22.0805 12.0661C20.0472 13.6395 17.7767 14.8796 15.354 15.74L14.8879 15.9055C14.7877 15.9411 14.656 15.8733 14.6389 15.743C14.3162 13.2824 14.3162 10.7176 14.6389 8.25703C14.656 8.12673 14.7877 8.05885 14.8879 8.09443L15.3539 8.25996C17.7766 9.12041 20.0472 10.3605 22.0805 11.9338Z" fill="black"/>
</svg>
