<svg width="25" height="24" viewBox="0 0 25 24" fill="none" xmlns="http://www.w3.org/2000/svg">
<path fill-rule="evenodd" clip-rule="evenodd" d="M12.3916 3.75C8.82719 3.75 6.1416 6.2048 6.1416 9V10.2612C6.22394 10.2538 6.30733 10.25 6.3916 10.25H9.3916C9.80582 10.25 10.1416 10.5858 10.1416 11V18C10.1416 18.4142 9.80582 18.75 9.3916 18.75H6.3916C4.87282 18.75 3.6416 17.5188 3.6416 16V13C3.6416 12.146 4.03085 11.383 4.6416 10.8786V9C4.6416 5.16778 8.22403 2.25 12.3916 2.25C16.5592 2.25 20.1416 5.16778 20.1416 9V10.8786C20.7524 11.383 21.1416 12.146 21.1416 13V16C21.1416 17.5188 19.9104 18.75 18.3916 18.75H15.3916C14.9774 18.75 14.6416 18.4142 14.6416 18V11C14.6416 10.5858 14.9774 10.25 15.3916 10.25H18.3916C18.4759 10.25 18.5593 10.2538 18.6416 10.2612V9C18.6416 6.2048 15.956 3.75 12.3916 3.75ZM6.3916 11.75C5.70125 11.75 5.1416 12.3096 5.1416 13V16C5.1416 16.6904 5.70125 17.25 6.3916 17.25H8.6416V11.75H6.3916ZM19.6416 13C19.6416 12.3096 19.082 11.75 18.3916 11.75H16.1416V17.25H18.3916C19.082 17.25 19.6416 16.6904 19.6416 16V13Z" fill="black"/>
</svg>
