<svg width="25" height="24" viewBox="0 0 25 24" fill="none" xmlns="http://www.w3.org/2000/svg">
<path fill-rule="evenodd" clip-rule="evenodd" d="M21.4854 12.7559C21.4653 12.749 21.4437 12.7453 21.4212 12.7453H12.8681C12.8457 12.7453 12.8241 12.749 12.8039 12.7559C12.725 12.7826 12.6681 12.8573 12.6681 12.9453V19.3675C12.6681 19.4655 12.7392 19.5491 12.836 19.5649L21.3891 20.9575C21.5108 20.9774 21.6212 20.8834 21.6212 20.7601V12.9453C21.6212 12.8573 21.5644 12.7826 21.4854 12.7559ZM20.1212 19.2313V14.2453H14.1681V18.262L20.1212 19.2313ZM12.8039 11.2465C12.8241 11.2533 12.8457 11.257 12.8681 11.257H21.4212C21.4437 11.257 21.4653 11.2533 21.4854 11.2465C21.5644 11.2198 21.6212 11.145 21.6212 11.057V3.23821C21.6212 3.1147 21.5104 3.02071 21.3885 3.0409L12.8354 4.45821C12.7389 4.47421 12.6681 4.55769 12.6681 4.65552V11.057C12.6681 11.145 12.725 11.2198 12.8039 11.2465ZM20.1212 4.77136L14.1681 5.75783V9.75704H20.1212V4.77136ZM10.632 11.2463C10.7144 11.2216 10.7744 11.1451 10.7744 11.0547V4.9679C10.7744 4.84439 10.6635 4.7504 10.5417 4.77059L3.37373 5.95822C3.27721 5.97421 3.20642 6.05769 3.20642 6.15553V11.0547C3.20642 11.1451 3.26645 11.2216 3.34883 11.2463C3.36707 11.2518 3.3864 11.2547 3.40642 11.2547H10.5744C10.5944 11.2547 10.6137 11.2518 10.632 11.2463ZM9.27438 6.50101L4.70642 7.25786V9.7547H9.27438V6.50101ZM10.632 12.7537C10.6137 12.7483 10.5944 12.7453 10.5744 12.7453H3.40642C3.3864 12.7453 3.36707 12.7483 3.34883 12.7537C3.26645 12.7785 3.20642 12.8549 3.20642 12.9453V17.8909C3.20642 17.9889 3.2775 18.0725 3.37426 18.0883L10.5422 19.256C10.6639 19.2758 10.7744 19.1819 10.7744 19.0586V12.9453C10.7744 12.8549 10.7144 12.7785 10.632 12.7537ZM9.27438 17.5297V14.2453H4.70642V16.7855L9.27438 17.5297Z" fill="black"/>
</svg>
