<svg width="25" height="24" viewBox="0 0 25 24" fill="none" xmlns="http://www.w3.org/2000/svg">
<path d="M15.8916 12C15.8916 11.1716 16.5632 10.5 17.3916 10.5C18.22 10.5 18.8916 11.1716 18.8916 12C18.8916 12.8284 18.22 13.5 17.3916 13.5C16.5632 13.5 15.8916 12.8284 15.8916 12Z" fill="black"/>
<path fill-rule="evenodd" clip-rule="evenodd" d="M20.8329 6.67402C20.1752 5.12836 18.7218 4.01723 16.9923 3.83523L16.3404 3.76664C13.0481 3.42018 9.72735 3.44303 6.44011 3.83475L6.00817 3.88622C4.33937 4.08508 3.01712 5.38889 2.79484 7.05473C2.35688 10.337 2.35688 13.663 2.79484 16.9453C3.01712 18.6111 4.33937 19.9149 6.00817 20.1138L6.44011 20.1653C9.72735 20.557 13.0481 20.5798 16.3404 20.2334L16.9923 20.1648C18.7218 19.9828 20.1752 18.8717 20.8329 17.326C21.8722 17.0166 22.6654 16.1156 22.7956 15.0024C23.0289 13.0076 23.0289 10.9924 22.7956 8.99764C22.6654 7.88442 21.8722 6.98344 20.8329 6.67402ZM16.1834 5.2584C13.0023 4.92365 9.79378 4.94573 6.6176 5.32421L6.18566 5.37568C5.19685 5.49351 4.41337 6.26606 4.28167 7.25312C3.86127 10.4038 3.86127 13.5963 4.28167 16.7469C4.41337 17.734 5.19685 18.5065 6.18566 18.6243L6.6176 18.6758C9.79379 19.0543 13.0023 19.0764 16.1834 18.7416L16.8353 18.673C17.6858 18.5835 18.4384 18.1643 18.9599 17.542C17.4518 17.6299 15.9236 17.5906 14.4333 17.4241C13.164 17.2822 12.1374 16.2826 11.9877 15.0024C11.7544 13.0076 11.7544 10.9924 11.9877 8.99764C12.1374 7.71738 13.164 6.71784 14.4334 6.57597C15.9236 6.40942 17.4518 6.37012 18.9599 6.45806C18.4384 5.83574 17.6858 5.4165 16.8353 5.327L16.1834 5.2584ZM19.669 8.01471C19.6696 8.01855 19.6702 8.02239 19.6708 8.02623L19.6768 8.06511L19.8755 8.03426C19.9783 8.04444 20.0809 8.05524 20.1833 8.06669C20.7707 8.13234 21.2384 8.59648 21.3057 9.17189C21.5255 11.0509 21.5255 12.9491 21.3057 14.8281C21.2384 15.4035 20.7707 15.8677 20.1833 15.9333C20.0809 15.9448 19.9782 15.9556 19.8755 15.9658L19.6768 15.9349L19.6708 15.9738C19.6702 15.9776 19.6696 15.9815 19.669 15.9853C17.9903 16.1372 16.2688 16.1199 14.6 15.9333C14.0126 15.8677 13.5448 15.4035 13.4775 14.8281C13.2577 12.9491 13.2577 11.0509 13.4775 9.17189C13.5448 8.59648 14.0126 8.13234 14.6 8.06669C16.2688 7.88017 17.9904 7.86285 19.669 8.01471Z" fill="black"/>
</svg>
