<svg width="25" height="24" viewBox="0 0 25 24" fill="none" xmlns="http://www.w3.org/2000/svg">
<path fill-rule="evenodd" clip-rule="evenodd" d="M7.64163 10C7.64163 7.37665 9.76827 5.25 12.3916 5.25C15.015 5.25 17.1416 7.37665 17.1416 10C17.1416 12.6234 15.015 14.75 12.3916 14.75C9.76827 14.75 7.64163 12.6234 7.64163 10ZM12.3916 6.75C10.5967 6.75 9.14163 8.20507 9.14163 10C9.14163 11.7949 10.5967 13.25 12.3916 13.25C14.1866 13.25 15.6416 11.7949 15.6416 10C15.6416 8.20507 14.1866 6.75 12.3916 6.75Z" fill="black"/>
<path fill-rule="evenodd" clip-rule="evenodd" d="M3.91599 8.85685C4.27032 4.55824 7.86247 1.25 12.1757 1.25H12.6076C16.9208 1.25 20.5129 4.55824 20.8673 8.85685C21.0576 11.166 20.3443 13.4589 18.8777 15.2526L14.0846 21.1144C13.2096 22.1845 11.5737 22.1845 10.6987 21.1144L5.90559 15.2526C4.43893 13.4589 3.72565 11.166 3.91599 8.85685ZM12.1757 2.75C8.64312 2.75 5.70112 5.45948 5.41092 8.98008C5.25251 10.9019 5.84615 12.8102 7.06681 14.3031L11.8599 20.1649C12.1347 20.501 12.6485 20.501 12.9234 20.1649L17.7164 14.3031C18.9371 12.8102 19.5307 10.9019 19.3723 8.98008C19.0821 5.45948 16.1401 2.75 12.6076 2.75H12.1757Z" fill="black"/>
</svg>
