<svg width="25" height="24" viewBox="0 0 25 24" fill="none" xmlns="http://www.w3.org/2000/svg">
<path fill-rule="evenodd" clip-rule="evenodd" d="M20.9219 4.53033C21.2148 4.23744 21.2148 3.76256 20.9219 3.46967C20.629 3.17678 20.1542 3.17678 19.8613 3.46967L3.86127 19.4697C3.56838 19.7626 3.56838 20.2374 3.86127 20.5303C4.15416 20.8232 4.62904 20.8232 4.92193 20.5303L7.76883 17.6834C9.13513 18.3266 10.7088 18.75 12.3916 18.75C15.0756 18.75 17.4819 17.6729 19.2122 16.345C20.079 15.6797 20.7948 14.9376 21.3005 14.2089C21.7922 13.5003 22.1416 12.7227 22.1416 12C22.1416 11.2773 21.7922 10.4997 21.3005 9.79115C20.7948 9.06244 20.079 8.32028 19.2122 7.65503C18.9501 7.45385 18.6724 7.25842 18.3806 7.07163L20.9219 4.53033ZM17.2911 8.16113L15.5203 9.93196C15.9129 10.5248 16.1416 11.2357 16.1416 12C16.1416 14.0711 14.4627 15.75 12.3916 15.75C11.6273 15.75 10.9164 15.5213 10.3236 15.1287L8.90684 16.5454C9.97237 16.9795 11.1537 17.25 12.3916 17.25C14.6781 17.25 16.7718 16.3271 18.2989 15.155C19.0608 14.5703 19.663 13.9374 20.0682 13.3536C20.4873 12.7497 20.6416 12.2773 20.6416 12C20.6416 11.7227 20.4873 11.2503 20.0682 10.6464C19.663 10.0626 19.0608 9.42972 18.2989 8.84497C17.9858 8.60461 17.6487 8.37472 17.2911 8.16113ZM11.4215 14.0307C11.7153 14.1713 12.0442 14.25 12.3916 14.25C13.6342 14.25 14.6416 13.2426 14.6416 12C14.6416 11.6526 14.5629 11.3237 14.4223 11.0299L11.4215 14.0307Z" fill="black"/>
<path d="M12.3916 5.25C13.424 5.25 14.4152 5.40934 15.3427 5.68101C15.5212 5.73328 15.5743 5.95662 15.4429 6.0881L14.6183 6.91265C14.5564 6.97451 14.4668 6.99928 14.3816 6.97967C13.7422 6.83257 13.0755 6.75 12.3916 6.75C10.1051 6.75 8.01138 7.67292 6.48427 8.84497C5.72238 9.42972 5.12017 10.0626 4.71503 10.6464C4.29591 11.2503 4.1416 11.7227 4.1416 12C4.1416 12.2773 4.29591 12.7497 4.71503 13.3536C5.06885 13.8635 5.57298 14.4107 6.20251 14.9307C6.31837 15.0264 6.32941 15.2015 6.22316 15.3078L5.51425 16.0167C5.42394 16.107 5.27984 16.1149 5.18198 16.0329C4.48899 15.4517 3.91063 14.8255 3.4827 14.2089C2.99097 13.5003 2.6416 12.7227 2.6416 12C2.6416 11.2773 2.99097 10.4997 3.4827 9.79115C3.98841 9.06244 4.70422 8.32028 5.57101 7.65503C7.30126 6.32708 9.70759 5.25 12.3916 5.25Z" fill="black"/>
<path d="M12.3916 8.25C12.5101 8.25 12.6273 8.25549 12.7429 8.26624C12.9398 8.28453 13.011 8.51991 12.8712 8.6597L11.659 9.87196C11.0057 10.0968 10.4884 10.6141 10.2636 11.2674L9.0513 12.4796C8.91151 12.6194 8.67613 12.5482 8.65784 12.3513C8.6471 12.2357 8.6416 12.1185 8.6416 12C8.6416 9.92893 10.3205 8.25 12.3916 8.25Z" fill="black"/>
</svg>
