<svg width="25" height="24" viewBox="0 0 25 24" fill="none" xmlns="http://www.w3.org/2000/svg">
<path fill-rule="evenodd" clip-rule="evenodd" d="M6.17914 14.0196C6.22291 14.0344 6.26709 14.0448 6.31123 14.0512C6.35937 14.1644 6.42157 14.3107 6.49412 14.4818C6.6712 14.8994 6.90979 15.4643 7.15606 16.0535C7.65831 17.2552 8.16492 18.4939 8.27681 18.8485C8.41532 19.2868 8.56173 19.5848 8.72156 19.7883C8.80421 19.8935 8.89979 19.9853 9.01163 20.0549C9.06793 20.0899 9.12741 20.1186 9.18949 20.14C9.19222 20.141 9.19495 20.1419 9.19768 20.1428C9.5177 20.2636 9.80946 20.2133 9.99213 20.1518C10.0899 20.1188 10.169 20.0791 10.225 20.0469C10.2536 20.0304 10.2777 20.0151 10.297 20.0021L10.3015 19.9991L13.1277 18.2366L16.3923 20.7394C16.4405 20.7763 16.493 20.8073 16.5486 20.8316C16.9408 21.0027 17.3206 21.0624 17.6778 21.0136C18.0345 20.9649 18.3176 20.8151 18.5284 20.6464C18.7348 20.4813 18.8748 20.2963 18.9619 20.1589C19.0064 20.0887 19.0398 20.0266 19.0634 19.9791C19.0752 19.9552 19.0847 19.9346 19.0921 19.9181L19.1015 19.8963L19.1051 19.8877L19.1066 19.8841L19.1072 19.8824L19.1079 19.8808C19.125 19.8379 19.1382 19.7935 19.1472 19.7482L22.1274 4.72274C22.1369 4.67469 22.1417 4.62581 22.1417 4.57682C22.1417 4.13681 21.9759 3.71841 21.5861 3.46452C21.2529 3.24752 20.8817 3.23818 20.6472 3.25598C20.3941 3.27519 20.1604 3.33766 20.0036 3.38757C19.922 3.41355 19.8535 3.43861 19.8042 3.45773C19.7794 3.46734 19.7591 3.47559 19.7439 3.48188L19.7326 3.48666L3.01885 10.0432L3.01669 10.044C3.00604 10.0479 2.99236 10.053 2.97611 10.0593C2.94375 10.0719 2.90039 10.0896 2.84973 10.1126C2.75095 10.1574 2.61237 10.2273 2.47016 10.3247C2.24297 10.4803 1.72048 10.9064 1.80846 11.6097C1.87865 12.1708 2.26303 12.5154 2.49722 12.6811C2.62581 12.7721 2.74798 12.8371 2.83695 12.8795C2.87822 12.8991 2.96392 12.9339 3.0011 12.9491L3.01049 12.9529L6.17914 14.0196ZM20.3175 4.86786L20.3152 4.86888C20.3069 4.8725 20.2985 4.87596 20.29 4.87928L3.556 11.4438C3.54727 11.4472 3.53846 11.4505 3.5296 11.4536L3.52029 11.4571C3.50958 11.4613 3.49156 11.4686 3.46894 11.4788C3.45611 11.4846 3.44272 11.491 3.42908 11.4978C3.44783 11.5084 3.46577 11.5175 3.48172 11.5251C3.49703 11.5324 3.50871 11.5374 3.5151 11.54L6.65773 12.598C6.71525 12.6174 6.76887 12.643 6.81809 12.674L17.1949 6.59948L17.2046 6.59374C17.2122 6.58927 17.2221 6.58353 17.234 6.5768C17.2576 6.56345 17.29 6.54568 17.3286 6.52603C17.4006 6.48938 17.5159 6.43497 17.6457 6.39485C17.736 6.36692 18.0025 6.28823 18.2906 6.38064C18.4684 6.43767 18.6525 6.56028 18.7723 6.76798C18.8317 6.87117 18.8634 6.97483 18.8788 7.06972C18.9196 7.2192 18.9131 7.36681 18.8812 7.49424C18.8124 7.76875 18.6196 7.98287 18.4441 8.14665C18.2938 8.28706 16.3483 10.1629 14.4292 12.0147C13.4722 12.9381 12.5249 13.8525 11.8168 14.5359L11.3518 14.9849L17.2237 19.4867C17.3584 19.5349 17.438 19.5325 17.4748 19.5274C17.5187 19.5214 17.5546 19.5045 17.5913 19.4752C17.6323 19.4424 17.6682 19.398 17.695 19.3557L17.6961 19.354L20.5866 4.78102C20.5437 4.79133 20.5003 4.80361 20.4585 4.81691C20.4112 4.83198 20.3721 4.84634 20.3463 4.85637C20.3334 4.86134 20.3242 4.86511 20.3192 4.86719L20.3175 4.86786ZM11.8562 17.2618L10.6847 16.3636L10.4009 18.1693L11.8562 17.2618ZM9.61006 14.5814L10.775 13.4567C11.4831 12.7732 12.4305 11.8588 13.3877 10.9352L14.3602 9.997L7.84013 13.8138L7.87511 13.8963C8.05282 14.3154 8.29247 14.8827 8.54005 15.4751C8.72518 15.918 8.91877 16.3844 9.0951 16.8162L9.37813 15.0158C9.40542 14.8422 9.49022 14.692 9.61006 14.5814Z" fill="black"/>
</svg>
