<svg width="25" height="24" viewBox="0 0 25 24" fill="none" xmlns="http://www.w3.org/2000/svg">
<path fill-rule="evenodd" clip-rule="evenodd" d="M11.6416 3.78363C7.43673 4.16255 4.1416 7.69647 4.1416 12C4.1416 16.5563 7.83525 20.25 12.3916 20.25C14.713 20.25 16.8101 19.2919 18.3101 17.7476L11.9202 12.5833C11.744 12.4409 11.6416 12.2265 11.6416 12V3.78363ZM13.1416 3.78363V11.25H20.608C20.2513 7.29215 17.0995 4.14029 13.1416 3.78363ZM20.608 12.75H14.5128L19.2537 16.5815C19.9998 15.4664 20.4811 14.1597 20.608 12.75ZM2.6416 12C2.6416 6.61522 7.00682 2.25 12.3916 2.25C17.7764 2.25 22.1416 6.61522 22.1416 12C22.1416 14.3212 21.3295 16.4548 19.9746 18.1291C18.1884 20.3365 15.4548 21.75 12.3916 21.75C7.00682 21.75 2.6416 17.3848 2.6416 12Z" fill="black"/>
</svg>
