<svg width="25" height="24" viewBox="0 0 25 24" fill="none" xmlns="http://www.w3.org/2000/svg">
<path fill-rule="evenodd" clip-rule="evenodd" d="M6.6416 5.5C6.6416 3.70507 8.09668 2.25 9.8916 2.25C10.8968 2.25 11.7955 2.70637 12.3916 3.42322C12.9878 2.70637 13.8864 2.25 14.8916 2.25C16.6865 2.25 18.1416 3.70507 18.1416 5.5C18.1416 6.14432 17.9541 6.74485 17.6307 7.25H18.3916C19.9104 7.25 21.1416 8.48122 21.1416 10V12C21.1416 12.8042 20.5992 13.4816 19.8603 13.6865C20.0044 15.5131 19.9209 17.3517 19.6111 19.1597C19.4261 20.2394 18.5492 21.0665 17.4606 21.1881L16.5461 21.2903C13.785 21.5989 10.9982 21.5989 8.23708 21.2903L7.32261 21.1881C6.23399 21.0665 5.35713 20.2394 5.17212 19.1597C4.86229 17.3517 4.77884 15.5131 4.92291 13.6865C4.184 13.4816 3.6416 12.8042 3.6416 12V10C3.6416 8.48122 4.87282 7.25 6.3916 7.25H7.15251C6.8291 6.74485 6.6416 6.14432 6.6416 5.5ZM11.6416 5.5C11.6416 4.5335 10.8581 3.75 9.8916 3.75C8.9251 3.75 8.1416 4.5335 8.1416 5.5C8.1416 6.4665 8.9251 7.25 9.8916 7.25C10.8581 7.25 11.6416 6.4665 11.6416 5.5ZM14.8916 7.25C15.8581 7.25 16.6416 6.4665 16.6416 5.5C16.6416 4.5335 15.8581 3.75 14.8916 3.75C13.9251 3.75 13.1416 4.5335 13.1416 5.5C13.1416 6.4665 13.9251 7.25 14.8916 7.25ZM5.1416 10C5.1416 9.30964 5.70125 8.75 6.3916 8.75H11.6416V12.25H5.3916C5.25353 12.25 5.1416 12.1381 5.1416 12V10ZM13.1416 13.75H18.3606C18.5009 15.4706 18.4245 17.203 18.1326 18.9064C18.0605 19.3274 17.7185 19.65 17.294 19.6974L16.3795 19.7996C15.3032 19.9199 14.2228 19.9914 13.1416 20.014V13.75ZM13.1416 12.25H19.3916C19.5297 12.25 19.6416 12.1381 19.6416 12V10C19.6416 9.30964 19.082 8.75 18.3916 8.75H13.1416V12.25ZM11.6416 13.75V20.014C10.5604 19.9914 9.48002 19.9199 8.40369 19.7996L7.48922 19.6974C7.06468 19.65 6.72272 19.3274 6.65057 18.9064C6.35868 17.203 6.28234 15.4706 6.42264 13.75H11.6416Z" fill="black"/>
</svg>
