<svg width="25" height="24" viewBox="0 0 25 24" fill="none" xmlns="http://www.w3.org/2000/svg">
<path fill-rule="evenodd" clip-rule="evenodd" d="M12.3916 3.75C9.15022 3.75 6.63559 5.78002 6.20643 8.25H8.3916C8.80582 8.25 9.1416 8.58579 9.1416 9V16C9.1416 16.4142 8.80582 16.75 8.3916 16.75H5.3916C3.87282 16.75 2.6416 15.5188 2.6416 14V11C2.6416 9.72836 3.50472 8.65832 4.67707 8.34374C5.05853 4.83959 8.4654 2.25 12.3916 2.25C16.3178 2.25 19.7247 4.83959 20.1061 8.34375C21.2785 8.65832 22.1416 9.72836 22.1416 11V14C22.1416 15.2752 21.2737 16.3477 20.0963 16.6589C19.7755 18.9704 17.7914 20.75 15.3916 20.75H14.2462C13.9495 21.483 13.2309 22 12.3916 22C11.287 22 10.3916 21.1046 10.3916 20C10.3916 18.8954 11.287 18 12.3916 18C13.2309 18 13.9495 18.517 14.2462 19.25H15.3916C16.9284 19.25 18.2161 18.1834 18.5547 16.75H16.3916C15.9774 16.75 15.6416 16.4142 15.6416 16V9C15.6416 8.58579 15.9774 8.25 16.3916 8.25H18.5768C18.1476 5.78002 15.633 3.75 12.3916 3.75ZM5.3916 9.75C4.70125 9.75 4.1416 10.3096 4.1416 11V14C4.1416 14.6904 4.70125 15.25 5.3916 15.25H7.6416V9.75H5.3916ZM20.6416 11C20.6416 10.3096 20.082 9.75 19.3916 9.75H17.1416V15.25H19.3916C20.082 15.25 20.6416 14.6904 20.6416 14V11Z" fill="black"/>
</svg>
