<svg width="25" height="24" viewBox="0 0 25 24" fill="none" xmlns="http://www.w3.org/2000/svg">
<path d="M16.8021 8.98006L17.6415 8.17713L17.6409 8H14.7391L12.6709 13.1601L10.3181 8.00065H7.27439V8.17713L8.2551 9.35776C8.30251 9.40044 8.33919 9.4537 8.36216 9.51322C8.38513 9.57273 8.39374 9.63682 8.38729 9.70029V14.3414C8.40136 14.4239 8.39585 14.5086 8.37119 14.5885C8.34653 14.6685 8.30342 14.7416 8.24533 14.8018L7.14154 16.14V16.3159H10.2686V16.14L9.16548 14.8018C9.10692 14.7416 9.06282 14.6689 9.03653 14.5891C9.01025 14.5093 9.00245 14.4246 9.01375 14.3414V10.3281L11.7586 16.3165H12.0777L14.435 10.3281V15.1014C14.435 15.2277 14.435 15.2524 14.3517 15.3358L13.5031 16.1589V16.3348H17.6207V16.1589L16.8021 15.3553C16.7668 15.3283 16.7394 15.2921 16.723 15.2507C16.7066 15.2093 16.7018 15.1642 16.709 15.1203V9.21515C16.7018 9.1712 16.7066 9.1261 16.723 9.08469C16.7394 9.04328 16.7668 9.00711 16.8021 8.98006Z" fill="black"/>
<path fill-rule="evenodd" clip-rule="evenodd" d="M17.6498 2.83303C14.1832 2.44559 10.5999 2.44559 7.13331 2.83303C5.12125 3.05791 3.49692 4.64292 3.26037 6.66545C2.84583 10.2097 2.84583 13.7903 3.26037 17.3346C3.49692 19.3571 5.12125 20.9421 7.13331 21.167C10.5999 21.5544 14.1832 21.5544 17.6498 21.167C19.6618 20.9421 21.2862 19.3571 21.5227 17.3346C21.9373 13.7903 21.9373 10.2097 21.5227 6.66545C21.2862 4.64292 19.6619 3.05791 17.6498 2.83303ZM7.29992 4.32375C10.6558 3.94868 14.1273 3.94868 17.4832 4.32375C18.8133 4.47241 19.8788 5.52202 20.0329 6.8397C20.4339 10.2682 20.4339 13.7318 20.0329 17.1603C19.8788 18.478 18.8133 19.5276 17.4832 19.6763C14.1273 20.0513 10.6558 20.0513 7.29992 19.6763C5.96981 19.5276 4.90433 18.478 4.75021 17.1603C4.34921 13.7318 4.34921 10.2682 4.75021 6.8397C4.90433 5.52202 5.96981 4.47241 7.29992 4.32375Z" fill="black"/>
</svg>
