<svg width="25" height="24" viewBox="0 0 25 24" fill="none" xmlns="http://www.w3.org/2000/svg">
<path fill-rule="evenodd" clip-rule="evenodd" d="M12.3897 2.24998L12.3975 2.25003L12.399 2.25003C12.4247 2.25034 12.4502 2.25197 12.4755 2.25488L18.3797 2.87914C18.4064 2.88175 18.4329 2.88581 18.459 2.89124C18.4947 2.89864 18.5297 2.9086 18.5636 2.92098C18.6982 2.97001 18.8188 3.05753 18.9083 3.17758L23.4835 9.31955C23.5115 9.35608 23.5362 9.39547 23.5574 9.4374C23.5615 9.44554 23.5654 9.45376 23.5693 9.46208C23.6228 9.57858 23.6445 9.70404 23.636 9.82694C23.6315 9.89113 23.6188 9.95463 23.5981 10.0158C23.5778 10.0759 23.5497 10.1337 23.5141 10.1878C23.5032 10.2043 23.4915 10.2205 23.4792 10.2363C23.4708 10.2472 23.462 10.2578 23.453 10.2681L12.9666 22.4794C12.9413 22.5098 12.9134 22.5385 12.883 22.565C12.82 22.6201 12.7493 22.6633 12.6742 22.694C12.5818 22.7319 12.4844 22.7503 12.3876 22.75C12.2922 22.7498 12.1962 22.7314 12.1052 22.694C12.0299 22.6632 11.959 22.6199 11.8959 22.5646C11.8657 22.5382 11.8379 22.5097 11.8127 22.4794L1.32725 10.2692C1.30249 10.2409 1.27973 10.2106 1.25924 10.1784C1.18165 10.0568 1.14163 9.91661 1.1416 9.77515C1.14159 9.70345 1.15186 9.63142 1.17272 9.56134C1.19024 9.50239 1.21512 9.44527 1.24722 9.39139C1.26159 9.36724 1.27723 9.34407 1.29401 9.32193L5.8686 3.18098C5.87508 3.17218 5.88177 3.1635 5.88865 3.15496C5.96244 3.06341 6.05594 2.9914 6.1609 2.94344C6.20416 2.92368 6.24936 2.90799 6.29593 2.8967C6.33016 2.8884 6.36503 2.88249 6.40026 2.87907L12.3038 2.25488C12.3292 2.25196 12.3548 2.25033 12.3806 2.25003L12.3817 2.25003L12.3897 2.24998ZM21.3938 9.02516L18.8453 5.60398L18.4718 9.02516H21.3938ZM14.0588 3.93064L17.0914 7.84732L17.4795 4.29232L14.0588 3.93064ZM7.29983 4.29232L10.7205 3.93065L7.68785 7.84735L7.29983 4.29232ZM12.3896 4.22505L16.1061 9.02508H8.67306L12.3896 4.22505ZM3.52427 10.5252H6.64952L9.77098 17.7994L3.52427 10.5252ZM5.93405 5.60402L3.38553 9.02516H6.30741L5.93405 5.60402ZM21.2551 10.5252L15.0083 17.7994L18.1298 10.5252H21.2551ZM8.28177 10.5252H16.4975L12.3897 20.0981L8.28177 10.5252Z" fill="black"/>
</svg>
