<svg width="25" height="24" viewBox="0 0 25 24" fill="none" xmlns="http://www.w3.org/2000/svg">
<path fill-rule="evenodd" clip-rule="evenodd" d="M13.5462 3.36032C12.8751 3.01005 11.9657 3.00465 11.2892 3.35402C8.69626 4.69316 6.34439 6.22859 4.28342 7.9316C3.96471 8.19495 3.73853 8.57764 3.74239 9.02808C3.74623 9.47668 3.97701 9.85425 4.29379 10.1133C6.33764 11.7844 8.69145 13.3213 11.2369 14.6498C11.9081 15.0001 12.8175 15.0055 13.4939 14.6561C16.0869 13.317 18.4388 11.7815 20.4997 10.0785C20.8184 9.81517 21.0446 9.43248 21.0408 8.98203C21.0369 8.53344 20.8061 8.15586 20.4894 7.89685C18.4455 6.22568 16.0917 4.68886 13.5462 3.36032ZM11.9775 4.68677C12.2172 4.563 12.6109 4.56417 12.8522 4.6901C15.2815 5.95802 17.5199 7.41672 19.4591 8.99229C17.5083 10.5932 15.2766 12.0472 12.8056 13.3233C12.566 13.4471 12.1723 13.4459 11.931 13.32C9.50164 12.0521 7.26323 10.5934 5.32401 9.01783C7.27481 7.4169 9.50656 5.96291 11.9775 4.68677Z" fill="black"/>
<path d="M21.5886 12.6981C21.808 13.0494 21.701 13.5121 21.3496 13.7315L15.2424 17.5444C14.4136 18.0618 13.3854 18.301 12.3915 18.301C11.3976 18.3011 10.3693 18.062 9.54044 17.5447L3.50011 13.775C3.14871 13.5557 3.04163 13.093 3.26094 12.7416C3.48024 12.3902 3.94289 12.2831 4.29428 12.5024L10.3346 16.2722C10.8788 16.6118 11.618 16.8011 12.3914 16.801C13.1648 16.801 13.904 16.6116 14.448 16.272L20.5552 12.4591C20.9066 12.2397 21.3692 12.3467 21.5886 12.6981Z" fill="black"/>
<path d="M21.5886 16.4527C21.808 16.8041 21.701 17.2667 21.3497 17.4861L16.0608 20.789C15.0031 21.4495 13.6802 21.7602 12.3914 21.7603C11.1027 21.7604 9.77968 21.4498 8.7219 20.7895L3.50003 17.5296C3.14866 17.3103 3.04164 16.8476 3.26099 16.4963C3.48033 16.1449 3.94299 16.0379 4.29436 16.2572L9.51622 19.517C10.2892 19.9996 11.3232 20.2604 12.3914 20.2603C13.4596 20.2602 14.4934 19.9994 15.2662 19.5167L20.5552 16.2139C20.9065 15.9945 21.3692 16.1014 21.5886 16.4527Z" fill="black"/>
</svg>
