<svg width="25" height="24" viewBox="0 0 25 24" fill="none" xmlns="http://www.w3.org/2000/svg">
<path fill-rule="evenodd" clip-rule="evenodd" d="M21.8465 5.41575C22.0387 5.70687 22.0066 6.10248 21.7504 6.35876L12.558 15.5511C12.4637 15.6454 12.3461 15.7128 12.2172 15.7465L8.38876 16.7465C8.26389 16.7791 8.13518 16.7784 8.01425 16.7476C7.88568 16.7149 7.76591 16.6482 7.6689 16.5511C7.48062 16.3629 7.40628 16.0889 7.47357 15.8313L8.47357 12.0028C8.50304 11.89 8.55833 11.7786 8.63482 11.6912L17.8613 2.46967C17.942 2.38891 18.0393 2.32846 18.1452 2.29163C18.2237 2.26432 18.3069 2.25 18.3916 2.25C18.5905 2.25 18.7813 2.32902 18.9219 2.46967L21.7504 5.2981C21.787 5.33471 21.819 5.37416 21.8465 5.41575ZM20.1594 5.82843L18.3916 4.06066L9.87344 12.5788L9.24845 14.9716L11.6412 14.3466L20.1594 5.82843Z" fill="black"/>
<path d="M20.033 17.1603C20.3064 14.8227 20.3934 12.4688 20.2939 10.1208C20.2892 10.0084 20.3315 9.89898 20.411 9.81942L21.3943 8.83609C21.5152 8.71519 21.7218 8.79194 21.7331 8.96254C21.9181 11.7522 21.848 14.5545 21.5228 17.3346C21.2862 19.3571 19.6619 20.9421 17.6499 21.167C14.1833 21.5544 10.5999 21.5544 7.13337 21.167C5.12131 20.9421 3.49698 19.3571 3.26043 17.3346C2.84589 13.7903 2.84589 10.2097 3.26043 6.66543C3.49698 4.6429 5.12131 3.05789 7.13337 2.83301C9.76312 2.5391 12.4601 2.46815 15.1223 2.62016C15.2938 2.62996 15.372 2.83757 15.2505 2.95909L14.258 3.95165C14.1793 4.03034 14.0714 4.07261 13.9601 4.06885C11.7337 3.99376 9.49216 4.07872 7.29998 4.32373C5.96987 4.47239 4.90439 5.522 4.75027 6.83968C4.34927 10.2682 4.34927 13.7318 4.75027 17.1603C4.90439 18.478 5.96987 19.5276 7.29998 19.6763C10.6558 20.0513 14.1274 20.0513 17.4832 19.6763C18.8134 19.5276 19.8788 18.478 20.033 17.1603Z" fill="black"/>
</svg>
