<svg width="25" height="24" viewBox="0 0 25 24" fill="none" xmlns="http://www.w3.org/2000/svg">
<path fill-rule="evenodd" clip-rule="evenodd" d="M10.3307 2.51227C11.8901 2.33478 13.4645 2.33478 15.0239 2.51227L16.6193 2.69385C16.8478 2.71986 17.0517 2.84927 17.1726 3.04493C17.2934 3.2406 17.3178 3.4809 17.2387 3.69686L15.0362 9.71343H17.3916C17.6376 9.71343 17.868 9.8341 18.0081 10.0364C18.1482 10.2386 18.1802 10.4967 18.0937 10.7271L17.9033 11.2343C16.5821 14.7533 14.7141 18.0419 12.3683 20.9789L11.9776 21.4681C11.7788 21.717 11.4443 21.8132 11.1436 21.7078C10.8429 21.6025 10.6416 21.3186 10.6416 21V13.8476H8.82016C8.43164 13.8476 8.10744 13.5509 8.0731 13.1639L7.95047 11.7821C7.74299 9.44416 7.74299 7.09245 7.95047 4.75452L8.0731 3.37274C8.10459 3.01788 8.38137 2.73414 8.73534 2.69385L10.3307 2.51227ZM14.8543 4.00265C13.4076 3.83799 11.947 3.83799 10.5003 4.00265L9.51312 4.11501L9.4446 4.88711C9.24495 7.13682 9.24495 9.39979 9.4446 11.6495L9.50655 12.3476H11.3916C11.8058 12.3476 12.1416 12.6834 12.1416 13.0976V18.8023C13.8437 16.46 15.2427 13.9102 16.3043 11.2134H13.963C13.7181 11.2134 13.4886 11.0938 13.3483 10.893C13.2079 10.6923 13.1745 10.4356 13.2587 10.2056L15.5024 4.07642L14.8543 4.00265Z" fill="black"/>
</svg>
