<svg width="25" height="24" viewBox="0 0 25 24" fill="none" xmlns="http://www.w3.org/2000/svg">
<path fill-rule="evenodd" clip-rule="evenodd" d="M6.23183 9.85635C8.01914 13.7482 11.1996 16.8424 15.1534 18.519L15.1659 18.5243L15.9297 18.8647C16.9023 19.2981 18.0455 18.9903 18.6692 18.1272L19.9435 16.3635C20.0214 16.2558 20.0013 16.106 19.8979 16.0225L17.6731 14.2277C17.5625 14.1385 17.3999 14.1593 17.3153 14.2734L16.4494 15.4418C16.2391 15.7256 15.8594 15.8242 15.5376 15.6786C12.5812 14.3406 10.2055 11.9649 8.86758 9.00851C8.72197 8.68674 8.82057 8.30699 9.10432 8.09671L10.2727 7.23085C10.3869 7.14624 10.4076 6.98362 10.3184 6.87302L8.52338 4.64798C8.43995 4.54456 8.2902 4.52448 8.18247 4.60225L6.40918 5.88241C5.54039 6.5096 5.23443 7.66244 5.67789 8.63789L6.23123 9.85505C6.23143 9.85549 6.23163 9.85592 6.23183 9.85635ZM14.5615 19.8973C10.2655 18.0737 6.8101 14.7107 4.86805 10.4809L4.86688 10.4784L4.31238 9.25868C3.57328 7.63293 4.08321 5.71152 5.53119 4.66621L7.30448 3.38605C8.0586 2.84164 9.10683 2.98225 9.69083 3.70614L11.4859 5.93119C12.1104 6.70536 11.965 7.84375 11.1658 8.43599L10.4963 8.93215C11.6272 11.1265 13.4196 12.9189 15.614 14.0498L16.1101 13.3803C16.7024 12.5812 17.8408 12.4357 18.615 13.0603L20.8397 14.855C21.5638 15.4392 21.7042 16.4879 21.1594 17.242L19.885 19.0057C18.8456 20.4442 16.9403 20.9572 15.3192 20.2349L14.5615 19.8973Z" fill="black"/>
</svg>
