<svg width="25" height="24" viewBox="0 0 25 24" fill="none" xmlns="http://www.w3.org/2000/svg">
<path d="M6.24718 6.83965C6.01475 6.71449 5.73364 6.72075 5.50701 6.85611C5.28038 6.99148 5.1416 7.23602 5.1416 7.5V17C5.1416 17.4142 5.47739 17.75 5.8916 17.75C6.30582 17.75 6.6416 17.4142 6.6416 17V8.75566L12.036 11.6604C12.258 11.7799 12.5252 11.7799 12.7472 11.6604L18.1416 8.75566V17C18.1416 17.4142 18.4774 17.75 18.8916 17.75C19.3058 17.75 19.6416 17.4142 19.6416 17V7.5C19.6416 7.23602 19.5028 6.99148 19.2762 6.85611C19.0496 6.72075 18.7685 6.71449 18.536 6.83965L12.3916 10.1482L6.24718 6.83965Z" fill="black"/>
<path fill-rule="evenodd" clip-rule="evenodd" d="M17.7022 3.72184C14.1689 3.40591 10.6144 3.40591 7.08103 3.72184L5.56369 3.8575C3.93607 4.00303 2.621 5.24645 2.38461 6.86337C1.88661 10.2697 1.88661 13.7303 2.38461 17.1366C2.621 18.7535 3.93607 19.997 5.56369 20.1425L7.08103 20.2782C10.6144 20.5941 14.1689 20.5941 17.7022 20.2782L19.2195 20.1425C20.8472 19.997 22.1622 18.7535 22.3986 17.1366C22.8966 13.7303 22.8966 10.2697 22.3986 6.86337C22.1622 5.24645 20.8472 4.00303 19.2195 3.8575L17.7022 3.72184ZM7.21461 5.21588C10.6591 4.9079 14.1242 4.9079 17.5686 5.21588L19.086 5.35154C20.0221 5.43524 20.7784 6.15039 20.9144 7.08036C21.3914 10.3428 21.3914 13.6572 20.9144 16.9196C20.7784 17.8496 20.0221 18.5648 19.086 18.6485L17.5686 18.7841C14.1241 19.0921 10.6591 19.0921 7.21461 18.7841L5.69727 18.6485C4.76115 18.5648 4.00479 17.8496 3.86883 16.9196C3.39187 13.6572 3.39187 10.3428 3.86883 7.08036C4.00479 6.1504 4.76115 5.43524 5.69727 5.35154L7.21461 5.21588Z" fill="black"/>
</svg>
