<svg width="25" height="24" viewBox="0 0 25 24" fill="none" xmlns="http://www.w3.org/2000/svg">
<path d="M10.3916 2.25C9.97739 2.25 9.6416 2.58579 9.6416 3V3.75H5.3916C4.97739 3.75 4.6416 4.08579 4.6416 4.5C4.6416 4.91421 4.97739 5.25 5.3916 5.25H19.3916C19.8058 5.25 20.1416 4.91421 20.1416 4.5C20.1416 4.08579 19.8058 3.75 19.3916 3.75H15.1416V3C15.1416 2.58579 14.8058 2.25 14.3916 2.25H10.3916Z" fill="black"/>
<path d="M13.4523 15L14.9219 16.4697C15.2148 16.7626 15.2148 17.2374 14.9219 17.5303C14.629 17.8232 14.1542 17.8232 13.8613 17.5303L12.3916 16.0607L10.9219 17.5303C10.629 17.8232 10.1542 17.8232 9.86128 17.5303C9.56839 17.2374 9.56839 16.7626 9.86128 16.4697L11.3309 15L9.86127 13.5303C9.56838 13.2374 9.56838 12.7626 9.86127 12.4697C10.1542 12.1768 10.629 12.1768 10.9219 12.4697L12.3916 13.9393L13.8613 12.4697C14.1542 12.1768 14.629 12.1768 14.9219 12.4697C15.2148 12.7626 15.2148 13.2374 14.9219 13.5303L13.4523 15Z" fill="black"/>
<path fill-rule="evenodd" clip-rule="evenodd" d="M6.38303 7.91718C6.42523 7.53735 6.74628 7.25 7.12844 7.25H17.6548C18.0369 7.25 18.358 7.53735 18.4002 7.91718L18.6003 9.71852C18.9631 12.9838 18.9631 16.2793 18.6003 19.5446L18.5806 19.722C18.4366 21.0181 17.432 22.0517 16.1405 22.2325C13.6534 22.5807 11.1298 22.5807 8.64268 22.2325C7.35114 22.0517 6.3466 21.0181 6.20258 19.722L6.18288 19.5446C5.82006 16.2793 5.82006 12.9838 6.18288 9.71852L6.38303 7.91718ZM7.79972 8.75L7.6737 9.88417C7.32312 13.0394 7.32312 16.2238 7.6737 19.379L7.69341 19.5563C7.76171 20.171 8.23813 20.6612 8.85065 20.747C11.1998 21.0758 13.5834 21.0758 15.9325 20.747C16.5451 20.6612 17.0215 20.171 17.0898 19.5563L17.1095 19.379C17.4601 16.2238 17.4601 13.0394 17.1095 9.88417L16.9835 8.75H7.79972Z" fill="black"/>
</svg>
