<svg width="25" height="24" viewBox="0 0 25 24" fill="none" xmlns="http://www.w3.org/2000/svg">
<path d="M8.7627 15.5V8.086H10.1157V15.5H8.7627Z" fill="black"/>
<path d="M12.5965 15.5H11.2325V11.738C11.2325 11.122 11.2215 10.605 11.1885 10.143H12.3765L12.4425 10.946H12.4755C12.7065 10.528 13.2895 10.022 14.1805 10.022C15.1155 10.022 16.0835 10.627 16.0835 12.321V15.5H14.7305V12.475C14.7305 11.705 14.4445 11.122 13.7075 11.122C13.1685 11.122 12.7945 11.507 12.6515 11.914C12.6075 12.035 12.5965 12.2 12.5965 12.354V15.5Z" fill="black"/>
<path fill-rule="evenodd" clip-rule="evenodd" d="M17.6499 2.83303C14.1833 2.44559 10.5999 2.44559 7.13337 2.83303C5.12131 3.05791 3.49698 4.64292 3.26043 6.66545C2.84589 10.2097 2.84589 13.7903 3.26043 17.3346C3.49698 19.3571 5.12132 20.9421 7.13337 21.167C10.5999 21.5544 14.1833 21.5544 17.6499 21.167C19.6619 20.9421 21.2862 19.3571 21.5228 17.3346C21.9373 13.7903 21.9373 10.2097 21.5228 6.66545C21.2862 4.64292 19.6619 3.05791 17.6499 2.83303ZM7.29998 4.32375C10.6558 3.94868 14.1274 3.94868 17.4832 4.32375C18.8134 4.47241 19.8788 5.52202 20.033 6.8397C20.434 10.2682 20.434 13.7318 20.033 17.1603C19.8788 18.478 18.8134 19.5276 17.4832 19.6763C14.1274 20.0513 10.6558 20.0513 7.29998 19.6763C5.96987 19.5276 4.90439 18.478 4.75027 17.1603C4.34927 13.7318 4.34927 10.2682 4.75027 6.8397C4.90439 5.52202 5.96987 4.47241 7.29998 4.32375Z" fill="black"/>
</svg>
