<svg width="25" height="24" viewBox="0 0 25 24" fill="none" xmlns="http://www.w3.org/2000/svg">
<path d="M10.3916 3.01776C9.97738 3.01776 9.6416 2.68197 9.6416 2.26776C9.6416 1.85355 9.97738 1.51776 10.3916 1.51776H13.9271C14.3413 1.51776 14.6771 1.85355 14.6771 2.26776C14.6771 2.68197 14.3413 3.01776 13.9271 3.01776H10.3916Z" fill="black"/>
<path d="M6.92193 3.46967C7.21483 3.76256 7.21483 4.23743 6.92193 4.53033L4.42193 7.03033C4.12904 7.32322 3.65416 7.32322 3.36127 7.03033C3.06838 6.73743 3.06838 6.26256 3.36127 5.96967L5.86127 3.46967C6.15416 3.17677 6.62904 3.17677 6.92193 3.46967Z" fill="black"/>
<path d="M12.3916 5.75C8.38754 5.75 5.1416 8.99593 5.1416 13C5.1416 17.0041 8.38754 20.25 12.3916 20.25C16.3957 20.25 19.6416 17.0041 19.6416 13C19.6416 12.5858 19.9774 12.25 20.3916 12.25C20.8058 12.25 21.1416 12.5858 21.1416 13C21.1416 17.8325 17.2241 21.75 12.3916 21.75C7.55911 21.75 3.6416 17.8325 3.6416 13C3.6416 8.1675 7.55911 4.25 12.3916 4.25C12.8058 4.25 13.1416 4.58578 13.1416 5C13.1416 5.41421 12.8058 5.75 12.3916 5.75Z" fill="black"/>
<path d="M17.5798 8.36425C17.812 8.06569 17.7856 7.64093 17.5181 7.37347C17.2507 7.10601 16.8259 7.07957 16.5273 7.31178L13.3574 9.77726L11.286 11.2569C10.8435 11.5729 10.5809 12.0832 10.5809 12.6269C10.5809 13.5568 11.3348 14.3107 12.2646 14.3107C12.8084 14.3107 13.3187 14.0481 13.6347 13.6056L15.1143 11.5342L17.5798 8.36425Z" fill="black"/>
</svg>
