<svg width="25" height="24" viewBox="0 0 25 24" fill="none" xmlns="http://www.w3.org/2000/svg">
<path d="M17.3764 13.5C17.3764 14.2993 16.7284 14.9473 15.929 14.9473C15.1296 14.9473 14.4816 14.2993 14.4816 13.5C14.4816 12.7006 15.1296 12.0526 15.929 12.0526C16.7284 12.0526 17.3764 12.7006 17.3764 13.5Z" fill="black"/>
<path d="M8.84898 14.9473C9.64834 14.9473 10.2963 14.2993 10.2963 13.5C10.2963 12.7006 9.64834 12.0526 8.84898 12.0526C8.04962 12.0526 7.40161 12.7006 7.40161 13.5C7.40161 14.2993 8.04962 14.9473 8.84898 14.9473Z" fill="black"/>
<path d="M9.24173 16.6288C8.89139 16.4078 8.42824 16.5127 8.20725 16.863C7.98626 17.2134 8.09111 17.6765 8.44145 17.8975L8.78637 18.1151C10.9866 19.503 13.7887 19.503 15.9889 18.1151L16.3338 17.8975C16.6842 17.6765 16.789 17.2134 16.568 16.863C16.347 16.5127 15.8839 16.4078 15.5336 16.6288L15.1886 16.8464C13.4773 17.9259 11.298 17.9259 9.58665 16.8464L9.24173 16.6288Z" fill="black"/>
<path fill-rule="evenodd" clip-rule="evenodd" d="M20.3521 1.75C19.4782 1.75 18.7161 2.22861 18.3136 2.93801L14.7133 2.19949C14.3637 2.12777 14.012 2.31236 13.8724 2.64083C13.4616 3.60742 12.8451 5.07237 12.3309 6.32585C12.1489 6.76955 11.9789 7.18862 11.8351 7.55064C9.78869 7.63308 7.89224 8.16774 6.34111 9.03545C5.80633 8.14005 4.82768 7.53946 3.70739 7.53946C2.0142 7.53946 0.641602 8.91206 0.641602 10.6052C0.641602 11.9006 1.4444 13.007 2.57902 13.4565C2.44806 13.9351 2.37842 14.4334 2.37842 14.9474C2.37842 17.0889 3.58745 18.9587 5.40381 20.2642C7.22135 21.5706 9.6943 22.3552 12.3916 22.3552C15.0889 22.3552 17.5618 21.5706 19.3793 20.2642C21.1957 18.9587 22.4047 17.0889 22.4047 14.9474C22.4047 14.4334 22.3351 13.9351 22.2041 13.4565C23.3384 13.0072 24.1416 11.9009 24.1416 10.6052C24.1416 8.91206 22.769 7.53946 21.0758 7.53946C19.9555 7.53946 18.9768 8.14005 18.4421 9.03546C17.0159 8.23768 15.2979 7.72142 13.4398 7.57932C13.5274 7.36278 13.6211 7.13313 13.7187 6.89516C14.1376 5.87394 14.6257 4.7095 15.0135 3.79229L18.0316 4.41138C18.1873 5.55385 19.1669 6.43421 20.3521 6.43421C21.6456 6.43421 22.6942 5.38561 22.6942 4.0921C22.6942 2.7986 21.6456 1.75 20.3521 1.75ZM19.51 4.0921C19.51 3.62702 19.887 3.25 20.3521 3.25C20.8172 3.25 21.1942 3.62702 21.1942 4.0921C21.1942 4.55719 20.8172 4.93421 20.3521 4.93421C19.887 4.93421 19.51 4.55719 19.51 4.0921ZM12.3916 9.03946C12.5459 9.03946 12.6991 9.04233 12.8512 9.048C12.8498 9.07685 12.8469 9.0982 12.8454 9.10845C12.8429 9.12529 12.8404 9.13703 12.8394 9.1415L12.8381 9.14739L12.8407 9.13787C12.8462 9.11926 12.8555 9.09007 12.8696 9.04869C15.094 9.13488 17.0707 9.81841 18.5039 10.8485C20.0401 11.9527 20.9047 13.4118 20.9047 14.9474C20.9047 16.4829 20.0401 17.942 18.5039 19.0462C16.9688 20.1495 14.8102 20.8552 12.3916 20.8552C9.97295 20.8552 7.81433 20.1495 6.27926 19.0462C4.74301 17.942 3.87842 16.4829 3.87842 14.9474C3.87842 13.4118 4.74301 11.9527 6.27926 10.8485C7.81433 9.7452 9.97295 9.03946 12.3916 9.03946ZM2.1416 10.6052C2.1416 9.74049 2.84263 9.03946 3.70739 9.03946C4.30443 9.03946 4.82482 9.37393 5.08894 9.86728C4.28962 10.4962 3.62554 11.2401 3.15477 12.071C2.56249 11.8476 2.1416 11.2748 2.1416 10.6052ZM21.6284 12.071C21.1576 11.2401 20.4935 10.4962 19.6942 9.8673C19.9584 9.37394 20.4788 9.03946 21.0758 9.03946C21.9406 9.03946 22.6416 9.74049 22.6416 10.6052C22.6416 11.2746 22.2211 11.8475 21.6284 12.071Z" fill="black"/>
</svg>
