<svg width="25" height="24" viewBox="0 0 25 24" fill="none" xmlns="http://www.w3.org/2000/svg">
<path fill-rule="evenodd" clip-rule="evenodd" d="M19.6577 10.4838C20.6496 11.2513 20.6496 12.7487 19.6577 13.5162C16.6601 15.8356 13.3129 17.6638 9.74139 18.9322L9.08892 19.164C7.84064 19.6073 6.52213 18.7628 6.35314 17.4742C5.88098 13.874 5.88098 10.126 6.35314 6.5258C6.52213 5.23725 7.84065 4.39269 9.08892 4.83603L9.74139 5.06777C13.3129 6.33625 16.6601 8.1644 19.6577 10.4838ZM18.7397 12.3299C18.9555 12.1629 18.9555 11.8371 18.7397 11.6701C15.8679 9.44802 12.6611 7.69654 9.23937 6.48126L8.5869 6.24953C8.26195 6.13412 7.88851 6.35407 7.84041 6.72085C7.38523 10.1916 7.38523 13.8084 7.84041 17.2792C7.88851 17.6459 8.26194 17.8659 8.58689 17.7505L9.23937 17.5188C12.6611 16.3035 15.8679 14.552 18.7397 12.3299Z" fill="black"/>
</svg>
