<svg width="25" height="24" viewBox="0 0 25 24" fill="none" xmlns="http://www.w3.org/2000/svg">
<path fill-rule="evenodd" clip-rule="evenodd" d="M12.4016 22.5972C11.6646 22.673 10.2182 22.748 8.90199 22.7501C8.21463 22.7511 7.53994 22.7324 7.009 22.6797C6.74675 22.6536 6.49263 22.6168 6.28041 22.561C6.17517 22.5333 6.0549 22.4946 5.94027 22.4367C5.8405 22.3863 5.6558 22.2779 5.53064 22.0668C5.4102 21.8636 5.35171 21.6284 5.37869 21.3826C5.40442 21.148 5.50187 20.9568 5.60412 20.8146C5.79709 20.5463 6.08025 20.3517 6.31211 20.2175C6.41407 20.1584 6.52126 20.1026 6.63015 20.0503C6.16227 19.4778 5.81319 18.8544 5.57926 18.2319C5.45532 18.3862 5.32668 18.5355 5.20058 18.6636C5.09374 18.7722 4.96665 18.8885 4.82797 18.9801C4.7199 19.0515 4.45862 19.2088 4.12596 19.1682C3.7775 19.1255 3.58622 18.8857 3.51428 18.7781C3.42768 18.6486 3.37616 18.5082 3.34316 18.3883C3.27555 18.1428 3.24609 17.8358 3.25243 17.4797C3.26523 16.7595 3.42707 15.7193 3.86584 14.3069C4.20486 13.2152 4.58422 12.2755 5.09444 11.0116L5.10135 10.9945C5.1951 10.7623 5.29341 10.5188 5.39711 10.2604C5.35871 7.942 5.81834 5.73421 6.92659 4.07085C8.08225 2.33635 9.90627 1.2556 12.393 1.25063C12.3958 1.25063 12.3987 1.25061 12.4016 1.25061C12.4045 1.25061 12.4073 1.25061 12.4102 1.25061C14.8969 1.25558 16.7209 2.33635 17.8766 4.07085C18.9848 5.73421 19.4445 7.942 19.4061 10.2604C19.5098 10.5188 19.6081 10.7623 19.7018 10.9945L19.7087 11.0116C20.2189 12.2755 20.5983 13.2152 20.9373 14.3069C21.3761 15.7193 21.5379 16.7595 21.5507 17.4797C21.5571 17.8358 21.5276 18.1428 21.46 18.3883C21.427 18.5082 21.3755 18.6486 21.2889 18.7781C21.2169 18.8857 21.0257 19.1255 20.6772 19.1682C20.3445 19.2088 20.0833 19.0515 19.9752 18.9801C19.8365 18.8885 19.7094 18.7722 19.6026 18.6636C19.4765 18.5355 19.3478 18.3862 19.2239 18.2319C18.99 18.8544 18.6409 19.4778 18.173 20.0503C18.2819 20.1026 18.3891 20.1584 18.4911 20.2175C18.7229 20.3517 19.0061 20.5463 19.199 20.8146C19.3013 20.9568 19.3987 21.148 19.4245 21.3826C19.4514 21.6284 19.393 21.8636 19.2725 22.0668C19.1474 22.2779 18.9627 22.3863 18.8629 22.4367C18.7483 22.4946 18.628 22.5333 18.5228 22.561C18.3105 22.6168 18.0564 22.6536 17.7942 22.6797C17.2632 22.7324 16.5885 22.7511 15.9012 22.7501C14.585 22.748 13.1385 22.673 12.4016 22.5972ZM6.89994 10.3779C6.84267 8.18709 7.27137 6.25865 8.17489 4.90256C9.05203 3.58609 10.4093 2.75301 12.4016 2.75062C14.3939 2.75301 15.7511 3.58609 16.6283 4.90256C17.5318 6.25865 17.9605 8.18709 17.9032 10.3779C17.9006 10.48 17.9188 10.5816 17.9567 10.6764C18.0823 10.9898 18.2 11.2813 18.3105 11.5552C18.8282 12.8375 19.1857 13.7243 19.5048 14.7518C19.7604 15.5745 19.9056 16.2314 19.9811 16.7396C19.7075 16.3504 19.4923 16.0062 19.4721 15.9738C19.3157 15.7227 19.0263 15.5869 18.7332 15.6272L18.732 15.6274C18.3613 15.6784 18.0849 15.9947 18.0842 16.3689C18.0822 17.3654 17.5533 18.7537 16.3576 19.7667C16.2235 19.8804 16.1336 20.0375 16.1035 20.2107L16.1033 20.212C16.0635 20.4412 16.1323 20.6758 16.2895 20.8472L16.2905 20.8482C16.3804 20.9463 16.4947 21.0186 16.6218 21.0579C16.7626 21.1014 16.933 21.1585 17.1081 21.2254C16.748 21.2431 16.3368 21.2507 15.9035 21.2501C14.5784 21.248 13.0442 21.1635 12.4016 21.0929C11.7589 21.1635 10.2248 21.248 8.89966 21.2501C8.46632 21.2507 8.05512 21.2431 7.69508 21.2254C7.87014 21.1585 8.04057 21.1014 8.18134 21.0579C8.30844 21.0186 8.4228 20.9463 8.51271 20.8482L8.51368 20.8472C8.67087 20.6758 8.73966 20.4412 8.69989 20.212L8.69967 20.2107C8.66961 20.0375 8.57966 19.8804 8.44553 19.7667C7.24984 18.7537 6.72098 17.3654 6.71898 16.3689C6.71822 15.9947 6.44184 15.6784 6.07118 15.6274L6.06992 15.6272C5.77683 15.5869 5.48742 15.7227 5.33104 15.9738C5.31089 16.0062 5.09567 16.3504 4.82202 16.7396C4.89757 16.2314 5.04275 15.5745 5.29833 14.7518C5.61742 13.7243 5.97469 12.8382 6.49236 11.5558C6.6029 11.282 6.7209 10.9897 6.84642 10.6764C6.8844 10.5816 6.90261 10.48 6.89994 10.3779Z" fill="black"/>
</svg>
