<svg width="25" height="24" viewBox="0 0 25 24" fill="none" xmlns="http://www.w3.org/2000/svg">
<path d="M7.1416 7C7.1416 6.58579 6.80581 6.25 6.3916 6.25C5.97739 6.25 5.6416 6.58579 5.6416 7V17C5.6416 17.4142 5.97739 17.75 6.3916 17.75C6.80581 17.75 7.1416 17.4142 7.1416 17V7Z" fill="black"/>
<path fill-rule="evenodd" clip-rule="evenodd" d="M9.78474 13.2525C8.96539 12.6185 8.96539 11.3815 9.78474 10.7475C11.9438 9.07691 14.3547 7.76013 16.9272 6.84648L17.3933 6.68095C18.4168 6.31743 19.4936 7.00992 19.6316 8.06199C19.9713 10.6521 19.9713 13.3479 19.6316 15.938C19.4936 16.9901 18.4168 17.6826 17.3933 17.3191L16.9272 17.1535C14.3547 16.2399 11.9438 14.9231 9.78474 13.2525ZM10.7027 11.9339C10.6594 11.9673 10.6594 12.0327 10.7027 12.0662C12.736 13.6395 15.0065 14.8796 17.4292 15.74L17.8953 15.9056C17.9955 15.9412 18.1272 15.8733 18.1443 15.743C18.467 13.2824 18.467 10.7176 18.1443 8.25704C18.1272 8.12674 17.9955 8.05886 17.8953 8.09445L17.4292 8.25997C15.0065 9.12043 12.736 10.3605 10.7027 11.9339Z" fill="black"/>
</svg>
