<svg width="25" height="24" viewBox="0 0 25 24" fill="none" xmlns="http://www.w3.org/2000/svg">
<path d="M6.8204 2.41303C7.09276 2.10095 7.06057 1.62717 6.74849 1.35481C6.43641 1.08245 5.96263 1.11464 5.69027 1.42672L4.39846 2.90689C3.6657 3.74649 3.25147 4.81701 3.22823 5.93116L3.17155 8.64882C3.16292 9.06294 3.49163 9.40566 3.90575 9.41429C4.31987 9.42293 4.66259 9.09422 4.67123 8.6801L4.72791 5.96244C4.74381 5.20012 5.02723 4.46767 5.52859 3.8932L6.8204 2.41303Z" fill="black"/>
<path fill-rule="evenodd" clip-rule="evenodd" d="M6.6286 7.70081C6.7675 5.48007 8.6091 3.75006 10.8342 3.75006H11.3916V3.00006C11.3916 2.44778 11.8393 2.00006 12.3916 2.00006C12.9439 2.00006 13.3916 2.44778 13.3916 3.00006V3.75006H13.949C16.1741 3.75006 18.0157 5.48007 18.1546 7.7008L18.3756 11.2343C18.4598 12.5815 18.9121 13.8797 19.6832 14.9876C20.3799 15.9887 19.7596 17.3713 18.5487 17.5166L15.1416 17.9254V19.0001C15.1416 20.5188 13.9104 21.7501 12.3916 21.7501C10.8728 21.7501 9.64158 20.5188 9.64158 19.0001V17.9254L6.23446 17.5166C5.02353 17.3713 4.40331 15.9887 5.09999 14.9876C5.87105 13.8797 6.32334 12.5815 6.4076 11.2343L6.6286 7.70081ZM10.8342 5.25006C9.40116 5.25006 8.21513 6.36423 8.12567 7.79444L7.90467 11.3279C7.80328 12.949 7.25902 14.5113 6.33117 15.8445C6.28082 15.9168 6.32565 16.0168 6.41317 16.0273L10.1508 16.4758C11.6393 16.6544 13.1438 16.6544 14.6323 16.4758L18.37 16.0273C18.4575 16.0168 18.5023 15.9168 18.452 15.8445C17.5241 14.5113 16.9799 12.949 16.8785 11.3279L16.6575 7.79444C16.568 6.36423 15.382 5.25006 13.949 5.25006H10.8342ZM12.3916 20.2501C11.7012 20.2501 11.1416 19.6904 11.1416 19.0001V18.2501H13.6416V19.0001C13.6416 19.6904 13.0819 20.2501 12.3916 20.2501Z" fill="black"/>
<path d="M18.0347 1.35481C17.7226 1.62717 17.6904 2.10095 17.9628 2.41303L19.2546 3.8932C19.7559 4.46767 20.0394 5.20012 20.0553 5.96244L20.1119 8.6801C20.1206 9.09422 20.4633 9.42293 20.8774 9.41429C21.2915 9.40566 21.6203 9.06294 21.6116 8.64882L21.5549 5.93116C21.5317 4.81701 21.1175 3.74649 20.3847 2.90689L19.0929 1.42672C18.8205 1.11464 18.3468 1.08245 18.0347 1.35481Z" fill="black"/>
</svg>
