<svg width="25" height="24" viewBox="0 0 25 24" fill="none" xmlns="http://www.w3.org/2000/svg">
<path fill-rule="evenodd" clip-rule="evenodd" d="M11.9939 18.636C12.1219 18.7128 12.2587 18.7468 12.3916 18.7451C12.5245 18.7468 12.6614 18.7128 12.7893 18.636L13.9246 17.9549C16.1511 16.619 18.8741 16.4008 21.2849 17.3651C22.1742 17.7208 23.1416 17.0659 23.1416 16.1081V4.44918C23.1416 3.87123 22.7897 3.35151 22.2531 3.13686C19.148 1.89483 15.6408 2.17585 12.7731 3.89647L12.3916 4.12539L12.0101 3.89647C9.14237 2.17585 5.63517 1.89483 2.53008 3.13686C1.99347 3.35151 1.6416 3.87123 1.6416 4.44918V16.1081C1.6416 17.0659 2.60899 17.7208 3.49832 17.3651C5.90912 16.4008 8.63212 16.619 10.8586 17.9549L11.9939 18.636ZM3.1416 4.50801V15.8948C5.93739 14.8468 9.0634 15.1285 11.6304 16.6686L11.6416 16.6754V5.42467L11.2383 5.18271C8.78934 3.71332 5.79794 3.46498 3.1416 4.50801ZM13.1528 16.6686L13.1416 16.6754V5.42467L13.5449 5.18271C15.9939 3.71332 18.9853 3.46498 21.6416 4.50801V15.8948C18.8458 14.8468 15.7198 15.1285 13.1528 16.6686Z" fill="black"/>
<path d="M9.66676 19.0423C7.6429 17.8617 5.1403 17.8617 3.11644 19.0423L3.0137 19.1022C2.65591 19.3109 2.53506 19.7701 2.74377 20.1279C2.95248 20.4857 3.41172 20.6066 3.76951 20.3979L3.87225 20.3379C5.42906 19.4298 7.35414 19.4298 8.91095 20.3379L9.99821 20.9722C11.4772 21.8349 13.306 21.8349 14.785 20.9722L15.8722 20.3379C17.4291 19.4298 19.3541 19.4298 20.911 20.3379L21.0137 20.3979C21.3715 20.6066 21.8307 20.4857 22.0394 20.1279C22.2481 19.7701 22.1273 19.3109 21.7695 19.1022L21.6668 19.0423C19.6429 17.8617 17.1403 17.8617 15.1164 19.0423L14.0292 19.6765C13.0173 20.2668 11.7659 20.2668 10.754 19.6765L9.66676 19.0423Z" fill="black"/>
</svg>
