<svg width="25" height="24" viewBox="0 0 25 24" fill="none" xmlns="http://www.w3.org/2000/svg">
<path fill-rule="evenodd" clip-rule="evenodd" d="M6.9008 8.82899C7.05434 8.97095 7.14165 9.17057 7.14165 9.37969L7.14165 14.6045C7.14165 14.814 7.05402 15.0139 6.89997 15.1559C6.74592 15.2979 6.5395 15.369 6.33069 15.352L6.09515 15.3326C5.65736 15.2964 5.29404 14.98 5.19787 14.5516C4.81941 12.8662 4.81927 11.1172 5.19774 9.43168C5.29421 9.00205 5.6593 8.68537 6.09825 8.65057M6.9008 8.82899C6.74725 8.68703 6.30673 8.6342 6.09825 8.65057Z" fill="black"/>
<path fill-rule="evenodd" clip-rule="evenodd" d="M21.1417 14V10C21.1417 9.86193 21.0297 9.75 20.8917 9.75H19.4917C19.0774 9.75 18.7417 9.41421 18.7417 9V8.18967C18.7417 7.70183 18.3663 7.29611 17.88 7.25819L16.6115 7.15928C13.1369 6.88835 9.64644 6.88835 6.17183 7.15928L4.82423 7.26435C4.3014 7.30512 3.87355 7.69677 3.78684 8.21398C3.36663 10.7205 3.36663 13.2795 3.78684 15.786C3.87355 16.3032 4.3014 16.6949 4.82423 16.7356L6.17183 16.8407C9.64644 17.1116 13.1369 17.1116 16.6115 16.8407L17.88 16.7418C18.3663 16.7039 18.7417 16.2982 18.7417 15.8103V15C18.7417 14.5858 19.0774 14.25 19.4917 14.25H20.8917C21.0297 14.25 21.1417 14.1381 21.1417 14ZM22.6417 10V14C22.6417 14.9665 21.8582 15.75 20.8917 15.75H20.2417V15.8103C20.2417 17.0814 19.2638 18.1385 17.9966 18.2373L16.7281 18.3362C13.1759 18.6132 9.60746 18.6132 6.05523 18.3362L4.70763 18.2311C3.49798 18.1368 2.50809 17.2306 2.30748 16.034C1.85974 13.3633 1.85975 10.6367 2.30748 7.96597C2.50809 6.76935 3.49798 5.86321 4.70763 5.76889L6.05523 5.66382C9.60746 5.38684 13.1759 5.38684 16.7281 5.66382L17.9966 5.76273C19.2638 5.86153 20.2417 6.91863 20.2417 8.18967V8.25H20.8917C21.8582 8.25 22.6417 9.0335 22.6417 10Z" fill="black"/>
</svg>
