<svg width="25" height="24" viewBox="0 0 25 24" fill="none" xmlns="http://www.w3.org/2000/svg">
<path fill-rule="evenodd" clip-rule="evenodd" d="M12.3916 11.6495C11.7012 11.6495 11.1416 12.2091 11.1416 12.8995C11.1416 13.5898 11.7012 14.1495 12.3916 14.1495C13.082 14.1495 13.6416 13.5898 13.6416 12.8995C13.6416 12.2091 13.082 11.6495 12.3916 11.6495ZM9.6416 12.8995C9.6416 11.3807 10.8728 10.1495 12.3916 10.1495C13.9104 10.1495 15.1416 11.3807 15.1416 12.8995C15.1416 14.4183 13.9104 15.6495 12.3916 15.6495C10.8728 15.6495 9.6416 14.4183 9.6416 12.8995Z" fill="black"/>
<path fill-rule="evenodd" clip-rule="evenodd" d="M12.3916 7.64948C11.3533 7.64948 10.3382 7.95738 9.47486 8.53426C8.6115 9.11114 7.9386 9.93108 7.54124 10.8904C7.14388 11.8497 7.03991 12.9053 7.24248 13.9237C7.44505 14.9421 7.94507 15.8776 8.67929 16.6118C8.97219 16.9047 8.97219 17.3796 8.67929 17.6724C8.3864 17.9653 7.91153 17.9653 7.61863 17.6724C6.67463 16.7284 6.03175 15.5257 5.7713 14.2163C5.51085 12.907 5.64453 11.5498 6.15542 10.3164C6.66631 9.08296 7.53147 8.02876 8.64151 7.28706C9.75154 6.54536 11.0566 6.14948 12.3916 6.14948C13.7266 6.14948 15.0317 6.54536 16.1417 7.28706C17.2517 8.02875 18.1169 9.08296 18.6278 10.3164C19.1387 11.5498 19.2724 12.907 19.0119 14.2163C18.7515 15.5257 18.1086 16.7284 17.1646 17.6724C16.8717 17.9653 16.3968 17.9653 16.1039 17.6724C15.811 17.3796 15.811 16.9047 16.1039 16.6118C16.8381 15.8776 17.3382 14.9421 17.5407 13.9237C17.7433 12.9053 17.6393 11.8497 17.242 10.8904C16.8446 9.93108 16.1717 9.11114 15.3083 8.53426C14.445 7.95738 13.43 7.64948 12.3916 7.64948Z" fill="black"/>
<path fill-rule="evenodd" clip-rule="evenodd" d="M12.3917 3.75C10.5821 3.75 8.81312 4.28661 7.3085 5.29197C5.80387 6.29733 4.63116 7.72628 3.93865 9.39813C3.24615 11.07 3.06496 12.9096 3.418 14.6845C3.77103 16.4593 4.64244 18.0896 5.92201 19.3692C6.21491 19.662 6.21491 20.1369 5.92201 20.4298C5.62912 20.7227 5.15425 20.7227 4.86135 20.4298C3.372 18.9405 2.35773 17.0429 1.94682 14.9771C1.53591 12.9113 1.7468 10.77 2.55284 8.82411C3.35887 6.87817 4.72384 5.21494 6.47514 4.04476C8.22644 2.87458 10.2854 2.25 12.3917 2.25C14.4979 2.25 16.5569 2.87458 18.3082 4.04476C20.0595 5.21494 21.4245 6.87817 22.2305 8.82411C23.0366 10.77 23.2475 12.9113 22.8365 14.9771C22.4256 17.0429 21.4114 18.9405 19.922 20.4298C19.6291 20.7227 19.1542 20.7227 18.8613 20.4298C18.5685 20.1369 18.5685 19.662 18.8613 19.3692C20.1409 18.0896 21.0123 16.4593 21.3654 14.6845C21.7184 12.9096 21.5372 11.07 20.8447 9.39813C20.1522 7.72628 18.9795 6.29733 17.4749 5.29197C15.9702 4.28661 14.2013 3.75 12.3917 3.75Z" fill="black"/>
</svg>
