<svg width="25" height="24" viewBox="0 0 25 24" fill="none" xmlns="http://www.w3.org/2000/svg">
<path d="M12.3916 6.25C12.8059 6.25 13.1416 6.58579 13.1416 7V9.00002H15.1416C15.5558 9.00002 15.8916 9.33581 15.8916 9.75002C15.8916 10.1642 15.5558 10.5 15.1416 10.5H13.1416V12.5C13.1416 12.9142 12.8059 13.25 12.3916 13.25C11.9774 13.25 11.6416 12.9142 11.6416 12.5V10.5H9.64163C9.22741 10.5 8.89163 10.1642 8.89163 9.75002C8.89163 9.33581 9.22741 9.00002 9.64163 9.00002H11.6416V7C11.6416 6.58579 11.9774 6.25 12.3916 6.25Z" fill="black"/>
<path fill-rule="evenodd" clip-rule="evenodd" d="M12.1757 1.25C7.86247 1.25 4.27032 4.55824 3.91599 8.85685C3.72565 11.166 4.43893 13.4589 5.90559 15.2526L10.6987 21.1144C11.5737 22.1845 13.2096 22.1845 14.0846 21.1144L18.8777 15.2526C20.3443 13.4589 21.0576 11.166 20.8673 8.85685C20.5129 4.55824 16.9208 1.25 12.6076 1.25H12.1757ZM5.41092 8.98008C5.70112 5.45948 8.64312 2.75 12.1757 2.75H12.6076C16.1401 2.75 19.0821 5.45948 19.3723 8.98008C19.5307 10.9019 18.9371 12.8102 17.7164 14.3031L12.9234 20.1649C12.6485 20.501 12.1347 20.501 11.8599 20.1649L7.06681 14.3031C5.84615 12.8102 5.25251 10.9019 5.41092 8.98008Z" fill="black"/>
</svg>
