<svg width="25" height="24" viewBox="0 0 25 24" fill="none" xmlns="http://www.w3.org/2000/svg">
<path fill-rule="evenodd" clip-rule="evenodd" d="M18.8916 11.25C17.6192 11.25 16.5201 12.14 16.2556 13.3847L16.2334 13.4891C16.1655 13.8088 16.1535 14.1379 16.1981 14.4617L16.351 15.5744C16.2939 15.5813 16.2368 15.5885 16.1797 15.5959C15.2999 15.7102 14.6416 16.4595 14.6416 17.3466V19.6534C14.6416 20.5405 15.2999 21.2899 16.1797 21.4041C17.9801 21.6379 19.8032 21.6379 21.6036 21.4041C22.4833 21.2899 23.1416 20.5405 23.1416 19.6534V17.3466C23.1416 16.4595 22.4833 15.7102 21.6036 15.5959C21.5465 15.5885 21.4894 15.5813 21.4322 15.5744L21.5852 14.4617C21.6297 14.1379 21.6177 13.8088 21.5498 13.4891L21.5276 13.3847C21.2631 12.14 20.1641 11.25 18.8916 11.25ZM19.9357 15.4464L20.0992 14.2574C20.1201 14.1054 20.1145 13.951 20.0826 13.8009L20.0604 13.6965C19.9431 13.1446 19.4558 12.75 18.8916 12.75C18.3274 12.75 17.8401 13.1446 17.7229 13.6965L17.7007 13.8009C17.6688 13.951 17.6632 14.1054 17.6841 14.2574L17.8476 15.4464C18.5432 15.4119 19.2401 15.4119 19.9357 15.4464ZM16.3728 17.0834C18.045 16.8663 19.7383 16.8663 21.4104 17.0834C21.5427 17.1006 21.6416 17.2132 21.6416 17.3466V19.6534C21.6416 19.7868 21.5427 19.8994 21.4104 19.9166C19.7383 20.1338 18.045 20.1338 16.3728 19.9166C16.2406 19.8994 16.1416 19.7868 16.1416 19.6534V17.3466C16.1416 17.2132 16.2406 17.1006 16.3728 17.0834Z" fill="black"/>
<path d="M13.1416 18.3653C13.1416 18.1984 13.0054 18.0637 12.8385 18.0647C10.995 18.0763 9.15123 18.0163 7.31129 17.8846L5.79728 17.7763C5.2838 17.7396 4.86028 17.36 4.76775 16.8536C4.35812 14.6116 4.28799 12.3208 4.55972 10.058L4.83221 7.78888C4.90339 7.19611 5.40627 6.75 6.0033 6.75H8.29487C8.73491 6.75 9.09163 7.10672 9.09163 7.54677C9.09163 8.13183 9.56592 8.60612 10.151 8.60612H18.8638C19.433 8.60612 19.9179 9.0197 20.0076 9.58178L20.0209 9.66531C20.0453 9.8182 20.1564 9.94169 20.3022 9.99377C20.6537 10.1194 20.9849 10.2908 21.2877 10.5016C21.4385 10.6066 21.6593 10.4888 21.635 10.3067C21.61 10.1198 21.5827 9.93317 21.5529 9.74679L21.4888 9.34535C21.2829 8.05533 20.1702 7.10612 18.8638 7.10612L10.5494 7.10612C10.3439 6.04846 9.41262 5.25 8.29487 5.25H6.0033C4.64702 5.25 3.50461 6.26343 3.34291 7.61004L3.07042 9.87915C2.78076 12.2913 2.85552 14.7333 3.29218 17.1232C3.5077 18.3027 4.49421 19.1869 5.69024 19.2725L7.20424 19.3808C9.08191 19.5151 10.9635 19.5764 12.8447 19.5647C13.0092 19.5637 13.1416 19.4298 13.1416 19.2653V18.3653Z" fill="black"/>
</svg>
