<svg width="25" height="24" viewBox="0 0 25 24" fill="none" xmlns="http://www.w3.org/2000/svg">
<path fill-rule="evenodd" clip-rule="evenodd" d="M6.48819 2.49246C6.734 2.33586 7.04828 2.33584 7.29411 2.49243L12.3919 5.73963L17.4886 2.49247C17.7344 2.33584 18.0488 2.33584 18.2946 2.49247L23.7946 5.99657C24.0107 6.13428 24.1416 6.37282 24.1416 6.6291C24.1416 6.88539 24.0107 7.12393 23.7946 7.26163L19.2874 10.1332L23.7946 13.0048C24.0107 13.1425 24.1416 13.381 24.1416 13.6373C24.1416 13.8936 24.0107 14.1321 23.7946 14.2698L19.1882 17.2045L19.4077 17.3508C19.6163 17.4899 19.7416 17.7241 19.7416 17.9748C19.7416 18.2256 19.6163 18.4598 19.4077 18.5989L12.8082 22.999C12.5563 23.167 12.2281 23.167 11.9761 22.9991L5.37562 18.599C5.16696 18.4599 5.04162 18.2257 5.04163 17.975C5.04163 17.7242 5.16696 17.49 5.37563 17.3509L5.59529 17.2045L0.988608 14.2695C0.772464 14.1318 0.641602 13.8932 0.641602 13.637C0.641602 13.3807 0.772469 13.1421 0.988615 13.0044L5.49583 10.1329L0.988608 7.26129C0.772464 7.12358 0.641602 6.88504 0.641602 6.62875C0.641602 6.37247 0.772469 6.13393 0.988615 5.99622L6.48819 2.49246ZM10.9708 13.6211L9.90257 14.3332L6.8912 16.2515L2.78742 13.637L6.89121 11.0225L10.9708 13.6211ZM14.918 14.3576L13.8131 13.6209L17.8916 11.0225L21.9958 13.6373L17.8916 16.252L14.918 14.3576ZM10.7216 15.59L7.14378 17.975L12.3921 21.4736L17.6396 17.9749L14.0988 15.6142L12.3912 14.5264L10.7216 15.59ZM12.3912 7.51815L16.4958 10.1332L12.3919 12.7478L8.28667 10.1329L12.3912 7.51815ZM6.89121 4.01425L2.78742 6.62877L6.8912 9.24333L10.9956 6.6287L6.89121 4.01425ZM13.7874 6.6291L17.8916 9.24392L21.9958 6.6291L17.8916 4.01428L13.7874 6.6291Z" fill="black"/>
</svg>
