<svg width="25" height="24" viewBox="0 0 25 24" fill="none" xmlns="http://www.w3.org/2000/svg">
<path fill-rule="evenodd" clip-rule="evenodd" d="M19.1992 4.95723C17.8651 4.54563 16.4181 4.54563 15.084 4.95723C14.6325 9.64155 14.6325 14.3584 15.084 19.0428C16.4181 19.4544 17.8651 19.4544 19.1992 19.0428C19.6506 14.3584 19.6506 9.64155 19.1992 4.95723ZM20.6821 4.70874C21.1563 9.55801 21.1563 14.442 20.6821 19.2912C20.6298 19.8258 20.2635 20.2751 19.7578 20.4392C18.0647 20.9889 16.2185 20.9889 14.5254 20.4392C14.0196 20.2751 13.6533 19.8258 13.601 19.2912C13.1268 14.442 13.1268 9.55801 13.601 4.70874C13.6533 4.17419 14.0196 3.72492 14.5254 3.56074C16.2185 3.01113 18.0647 3.01113 19.7578 3.56074C20.2635 3.72492 20.6298 4.17419 20.6821 4.70874Z" fill="black"/>
<path fill-rule="evenodd" clip-rule="evenodd" d="M9.69918 4.95723C8.36509 4.54563 6.91805 4.54563 5.58396 4.95723C5.1325 9.64155 5.1325 14.3584 5.58396 19.0428C6.91805 19.4544 8.36509 19.4544 9.69918 19.0428C10.1506 14.3584 10.1506 9.64155 9.69918 4.95723ZM11.1821 4.70874C11.6563 9.55801 11.6563 14.442 11.1821 19.2912C11.1298 19.8258 10.7635 20.2751 10.2578 20.4392C8.56468 20.9889 6.71846 20.9889 5.02537 20.4392C4.5196 20.2751 4.15331 19.8258 4.10103 19.2912C3.6268 14.442 3.6268 9.55801 4.10103 4.70874C4.15331 4.17419 4.5196 3.72492 5.02537 3.56074C6.71846 3.01113 8.56468 3.01113 10.2578 3.56074C10.7635 3.72492 11.1298 4.17419 11.1821 4.70874Z" fill="black"/>
</svg>
