<svg width="25" height="24" viewBox="0 0 25 24" fill="none" xmlns="http://www.w3.org/2000/svg">
<path d="M16.324 10.143V15.5H14.96V10.143H16.324Z" fill="black"/>
<path d="M14.883 8.647C14.883 8.229 15.191 7.91 15.642 7.91C16.104 7.91 16.39 8.229 16.401 8.647C16.401 9.054 16.104 9.373 15.631 9.373C15.18 9.373 14.883 9.054 14.883 8.647Z" fill="black"/>
<path fill-rule="evenodd" clip-rule="evenodd" d="M13.0256 15.5L12.3546 13.399H10.0006L9.36258 15.5H7.96558L10.3416 8.086H12.0686L14.4776 15.5H13.0256ZM10.7926 10.55L10.2206 12.376H12.1236L11.5406 10.55C11.4248 10.185 11.3235 9.78393 11.2308 9.41684C11.2089 9.33037 11.1875 9.24579 11.1666 9.164H11.1446C11.1069 9.31094 11.0692 9.46819 11.0307 9.62914C10.9567 9.93806 10.8793 10.2608 10.7926 10.55Z" fill="black"/>
<path fill-rule="evenodd" clip-rule="evenodd" d="M17.6498 2.83303C14.1832 2.44559 10.5999 2.44559 7.13331 2.83303C5.12125 3.05791 3.49692 4.64292 3.26037 6.66545C2.84583 10.2097 2.84583 13.7903 3.26037 17.3346C3.49692 19.3571 5.12125 20.9421 7.13331 21.167C10.5999 21.5544 14.1832 21.5544 17.6498 21.167C19.6618 20.9421 21.2862 19.3571 21.5227 17.3346C21.9373 13.7903 21.9373 10.2097 21.5227 6.66545C21.2862 4.64292 19.6619 3.05791 17.6498 2.83303ZM7.29992 4.32375C10.6558 3.94868 14.1273 3.94868 17.4832 4.32375C18.8133 4.47241 19.8788 5.52202 20.0329 6.8397C20.4339 10.2682 20.4339 13.7318 20.0329 17.1603C19.8788 18.478 18.8133 19.5276 17.4832 19.6763C14.1273 20.0513 10.6558 20.0513 7.29992 19.6763C5.96981 19.5276 4.90433 18.478 4.75021 17.1603C4.34921 13.7318 4.34921 10.2682 4.75021 6.8397C4.90433 5.52202 5.96981 4.47241 7.29992 4.32375Z" fill="black"/>
</svg>
