<svg width="25" height="24" viewBox="0 0 25 24" fill="none" xmlns="http://www.w3.org/2000/svg">
<path d="M16.3916 15.5C18.1765 15.5 19.6694 14.137 19.8556 12.3681C19.8813 12.1245 19.8813 11.8755 19.8556 11.6319C19.6694 9.86302 18.1765 8.5 16.3916 8.5C14.6068 8.5 13.1138 9.86302 12.9276 11.6319C12.902 11.8755 12.902 12.1245 12.9276 12.3681C13.1138 14.137 14.6068 15.5 16.3916 15.5Z" fill="black"/>
<path fill-rule="evenodd" clip-rule="evenodd" d="M16.3173 18.75H8.46594C5.14444 18.75 2.31657 16.3336 1.79854 13.0527C1.68841 12.3552 1.68841 11.6448 1.79854 10.9473C2.31657 7.6664 5.14445 5.25 8.46594 5.25H16.3173C19.6388 5.25 22.4667 7.6664 22.9847 10.9473C23.0948 11.6448 23.0948 12.3552 22.9847 13.0527C22.4667 16.3336 19.6388 18.75 16.3173 18.75ZM16.3173 17.25C18.9007 17.25 21.1001 15.3706 21.503 12.8188C21.5887 12.2763 21.5887 11.7237 21.503 11.1812C21.1001 8.62942 18.9007 6.75 16.3173 6.75L8.46594 6.75C5.88256 6.75 3.6831 8.62942 3.28019 11.1812C3.19453 11.7237 3.19453 12.2763 3.28019 12.8188C3.6831 15.3706 5.88256 17.25 8.46594 17.25H16.3173Z" fill="black"/>
</svg>
