<svg width="25" height="24" viewBox="0 0 25 24" fill="none" xmlns="http://www.w3.org/2000/svg">
<path d="M12.3916 3.75C8.91558 3.75 6.1416 6.46727 6.1416 9.76594C6.1416 11.4449 6.71746 12.9303 7.76492 14.0012C7.88468 14.1237 7.89002 14.3209 7.76891 14.442L7.13395 15.077C7.01989 15.1911 6.83546 15.1949 6.72192 15.0803C5.35794 13.7038 4.6416 11.8138 4.6416 9.76594C4.6416 5.59116 8.13564 2.25 12.3916 2.25C14.3837 2.25 16.2089 2.98204 17.587 4.18896C17.7139 4.30015 17.7161 4.49485 17.5968 4.61418L16.9591 5.25185C16.8445 5.36643 16.6601 5.3687 16.537 5.26342C15.4373 4.32351 13.9885 3.75 12.3916 3.75Z" fill="black"/>
<path fill-rule="evenodd" clip-rule="evenodd" d="M20.3887 3.94358L4.42193 19.9103C4.41296 19.9193 4.40382 19.928 4.39451 19.9364L4.36127 19.9697C4.06838 20.2626 4.06838 20.7374 4.36127 21.0303C4.65416 21.3232 5.12904 21.3232 5.42193 21.0303L8.15849 18.2938C8.29713 19.0496 8.40276 19.7434 8.42887 20.175C8.49895 21.3332 9.35101 22.2805 10.481 22.5247L10.677 22.567C11.8062 22.811 12.977 22.811 14.1062 22.567L14.3022 22.5247C15.4322 22.2805 16.2843 21.3332 16.3543 20.175C16.386 19.6512 16.5348 18.7412 16.7176 17.8029C16.8491 17.128 16.9933 16.4627 17.1117 15.9601C17.1223 15.9148 17.1584 15.848 17.2448 15.7845C19.138 14.3926 20.1416 12.1898 20.1416 9.76594C20.1416 8.74722 19.9335 7.77813 19.5571 6.89512L21.4219 5.03033C21.7148 4.73744 21.7148 4.26256 21.4219 3.96967C21.138 3.68575 20.6831 3.67705 20.3887 3.94358ZM18.6416 9.76594C18.6416 9.17624 18.5529 8.60512 18.3875 8.06478L9.54273 16.9095H15.3671C15.4655 16.4337 15.5649 15.9847 15.6516 15.6162C15.7574 15.1672 16.0335 14.8133 16.3563 14.576C17.8207 13.4993 18.6416 11.7705 18.6416 9.76594ZM9.70288 18.4095C9.81329 19.0471 9.89991 19.6509 9.92614 20.0844C9.95375 20.5408 10.2949 20.9498 10.7978 21.0585L10.9938 21.1009C11.9142 21.2997 12.869 21.2997 13.7894 21.1009L13.9854 21.0585C14.4883 20.9498 14.8295 20.5408 14.8571 20.0844C14.8833 19.6509 14.9699 19.0471 15.0803 18.4095H9.70288Z" fill="black"/>
</svg>
