<svg width="25" height="24" viewBox="0 0 25 24" fill="none" xmlns="http://www.w3.org/2000/svg">
<path d="M16.8613 5.46967C16.5684 5.76256 16.5684 6.23744 16.8613 6.53033L17.5809 7.25H13.7684C13.0976 7.25 12.4858 7.63343 12.1934 8.23713L11.983 8.67144C11.9297 8.78157 11.9297 8.91006 11.983 9.02018L12.5519 10.1947C12.6248 10.3451 12.839 10.3451 12.9119 10.1947L13.5434 8.89102C13.5851 8.80478 13.6725 8.75 13.7684 8.75H17.5809L16.8613 9.46967C16.5684 9.76256 16.5684 10.2374 16.8613 10.5303C17.1542 10.8232 17.629 10.8232 17.9219 10.5303L19.9219 8.53033C20.2148 8.23744 20.2148 7.76256 19.9219 7.46967L17.9219 5.46967C17.629 5.17678 17.1542 5.17678 16.8613 5.46967Z" fill="black"/>
<path d="M10.4252 15.3286C10.4785 15.2184 10.4785 15.0899 10.4252 14.9798L9.85629 13.8053C9.78343 13.6549 9.56915 13.6549 9.4963 13.8053L8.86484 15.109C8.82306 15.1952 8.73567 15.25 8.63984 15.25H5.3916C4.97739 15.25 4.6416 15.5858 4.6416 16C4.6416 16.4142 4.97739 16.75 5.3916 16.75H8.63984C9.31063 16.75 9.92239 16.3666 10.2148 15.7629L10.4252 15.3286Z" fill="black"/>
<path d="M16.8613 18.5303C16.5684 18.2374 16.5684 17.7626 16.8613 17.4697L17.5809 16.75H13.7684C13.0976 16.75 12.4858 16.3666 12.1934 15.7629L8.86484 8.89102C8.82306 8.80478 8.73567 8.75 8.63984 8.75H5.3916C4.97739 8.75 4.6416 8.41421 4.6416 8C4.6416 7.58579 4.97739 7.25 5.3916 7.25H8.63984C9.31063 7.25 9.92239 7.63343 10.2148 8.23713L13.5434 15.109C13.5851 15.1952 13.6725 15.25 13.7684 15.25H17.5809L16.8613 14.5303C16.5684 14.2374 16.5684 13.7626 16.8613 13.4697C17.1542 13.1768 17.629 13.1768 17.9219 13.4697L19.9219 15.4697C20.2148 15.7626 20.2148 16.2374 19.9219 16.5303L17.9219 18.5303C17.629 18.8232 17.1542 18.8232 16.8613 18.5303Z" fill="black"/>
</svg>
