<svg width="25" height="24" viewBox="0 0 25 24" fill="none" xmlns="http://www.w3.org/2000/svg">
<path d="M10.3915 9.00002C10.3915 7.89545 11.287 7.00002 12.3915 7.00002C13.4961 7.00002 14.3915 7.89545 14.3915 9.00002C14.3915 10.1046 13.4961 11 12.3915 11C11.287 11 10.3915 10.1046 10.3915 9.00002Z" fill="black"/>
<path d="M11.3915 12.5C9.73469 12.5 8.39154 13.8432 8.39154 15.5C8.39154 16.0523 8.83926 16.5 9.39154 16.5H15.3915C15.9438 16.5 16.3915 16.0523 16.3915 15.5C16.3915 13.8432 15.0484 12.5 13.3915 12.5H11.3915Z" fill="black"/>
<path fill-rule="evenodd" clip-rule="evenodd" d="M7.93507 2.8827C10.8909 2.45796 13.8922 2.45796 16.848 2.8827C18.3135 3.09329 19.4426 4.28268 19.5767 5.75714L19.7037 7.15287C19.9971 10.3776 19.9971 13.6224 19.7037 16.8472L19.5767 18.2429C19.4426 19.7174 18.3135 20.9068 16.848 21.1173C13.8922 21.5421 10.8909 21.5421 7.93507 21.1173C6.46958 20.9068 5.34048 19.7174 5.20636 18.2429L5.07939 16.8472C4.78604 13.6224 4.78604 10.3776 5.07939 7.15287L5.20636 5.75714C5.34048 4.28268 6.46958 3.09329 7.93507 2.8827ZM16.6347 4.36745C13.8204 3.96305 10.9627 3.96305 8.14842 4.36745C7.37063 4.47922 6.77138 5.11048 6.70019 5.89303L6.57322 7.28876C6.28809 10.4231 6.28809 13.5769 6.57322 16.7113L6.70019 18.107C6.77138 18.8896 7.37063 19.5208 8.14842 19.6326C10.9627 20.037 13.8204 20.037 16.6347 19.6326C17.4125 19.5208 18.0117 18.8896 18.0829 18.107L18.2099 16.7113C18.495 13.5769 18.495 10.4231 18.2099 7.28876L18.0829 5.89303C18.0117 5.11048 17.4125 4.47922 16.6347 4.36745Z" fill="black"/>
</svg>
