<svg width="25" height="24" viewBox="0 0 25 24" fill="none" xmlns="http://www.w3.org/2000/svg">
<path fill-rule="evenodd" clip-rule="evenodd" d="M4.50237 6.26974C3.332 7.87828 2.6416 9.85851 2.6416 12C2.6416 16.9969 6.40061 21.1158 11.2451 21.6833C11.2819 21.6902 11.3189 21.6943 11.3558 21.6956C11.6961 21.7316 12.0417 21.75 12.3916 21.75C17.7764 21.75 22.1416 17.3848 22.1416 12C22.1416 10.6324 21.86 9.33049 21.3517 8.14921C21.3398 8.11577 21.3256 8.08342 21.3093 8.05236C19.794 4.63431 16.3713 2.25 12.3916 2.25C9.20167 2.25 6.36953 3.78191 4.59074 6.1502C4.55709 6.18731 4.52757 6.22739 4.50237 6.26974ZM5.11808 8.10321C4.49502 9.26373 4.1416 10.5906 4.1416 12C4.1416 16.0778 7.10015 19.4646 10.9879 20.1311L13.2136 16.2724C12.9474 16.3233 12.6726 16.35 12.3916 16.35C10.7153 16.35 9.26049 15.4018 8.53418 14.0125L5.11808 8.10321ZM6.05151 6.72087L8.27989 10.5765C8.86951 8.87313 10.4877 7.64999 12.3916 7.64999L19.4029 7.65C17.9472 5.30868 15.3514 3.75 12.3916 3.75C9.8433 3.75 7.56485 4.90538 6.05151 6.72087ZM20.1361 9.15H15.6781C16.3406 9.91336 16.7416 10.9098 16.7416 12C16.7416 12.8566 16.494 13.6554 16.0665 14.3287L12.6533 20.2459C17.0885 20.1077 20.6416 16.4688 20.6416 12C20.6416 10.9983 20.4631 10.0382 20.1361 9.15ZM12.3916 9.14999C10.8176 9.14999 9.54163 10.426 9.54163 12C9.54163 13.574 10.8176 14.85 12.3916 14.85C13.9656 14.85 15.2416 13.574 15.2416 12C15.2416 10.426 13.9656 9.14999 12.3916 9.14999Z" fill="black"/>
</svg>
