<svg width="25" height="24" viewBox="0 0 25 24" fill="none" xmlns="http://www.w3.org/2000/svg">
<path fill-rule="evenodd" clip-rule="evenodd" d="M6.92675 3.25C6.34163 3.25 5.79523 3.54243 5.47066 4.02927L1.88144 9.41311C1.66171 9.74271 1.63543 10.1648 1.81259 10.5191C3.77669 14.4473 6.50624 17.9432 9.84081 20.8014L11.5915 22.3021C12.0519 22.6967 12.7312 22.6967 13.1916 22.3021L14.9423 20.8014C18.2769 17.9432 21.0064 14.4473 22.9706 10.5191C23.1477 10.1648 23.1214 9.74271 22.9017 9.41311L19.3125 4.02927C18.9879 3.54243 18.4415 3.25 17.8564 3.25H6.92675ZM6.71874 4.86132C6.76511 4.79178 6.84316 4.75 6.92675 4.75H9.26656L7.35144 9.34629C7.30733 9.45216 7.27403 9.56135 7.25159 9.67224C6.54776 9.61985 5.84453 9.55669 5.14214 9.48276L3.73643 9.33479L6.71874 4.86132ZM3.67022 10.8361C5.46362 14.1261 7.83178 17.0714 10.6648 19.5312L7.53932 11.1967C6.68698 11.1381 5.83544 11.064 4.98512 10.9745L3.67022 10.8361ZM9.17638 11.2902L12.3916 19.864L15.6068 11.2902C13.4644 11.3876 11.3187 11.3876 9.17638 11.2902ZM17.2438 11.1967L14.1184 19.5312C16.9514 17.0714 19.3195 14.1261 21.1129 10.8361L19.798 10.9745C18.9477 11.064 18.0962 11.1381 17.2438 11.1967ZM21.0467 9.33479L19.641 9.48276C18.9386 9.55669 18.2354 9.61985 17.5315 9.67224C17.5091 9.56135 17.4758 9.45216 17.4317 9.34629L15.5166 4.75H17.8564C17.94 4.75 18.018 4.79178 18.0644 4.86133L21.0467 9.33479ZM15.9833 9.77005C13.5904 9.89432 11.1927 9.89432 8.79987 9.77005L10.8916 4.75H13.8916L15.9833 9.77005Z" fill="black"/>
</svg>
