<svg width="25" height="24" viewBox="0 0 25 24" fill="none" xmlns="http://www.w3.org/2000/svg">
<path d="M9.86127 6.53033C10.1542 6.82322 10.629 6.82322 10.9219 6.53033L11.6416 5.81066V11.25H6.20226L6.92193 10.5303C7.21482 10.2374 7.21482 9.76256 6.92193 9.46967C6.62904 9.17678 6.15416 9.17678 5.86127 9.46967L3.86127 11.4697C3.56838 11.7626 3.56838 12.2374 3.86127 12.5303L5.86127 14.5303C6.15416 14.8232 6.62904 14.8232 6.92193 14.5303C7.21482 14.2374 7.21482 13.7626 6.92193 13.4697L6.20226 12.75H11.6416V18.1893L10.9219 17.4697C10.629 17.1768 10.1542 17.1768 9.86127 17.4697C9.56838 17.7626 9.56838 18.2374 9.86127 18.5303L11.8613 20.5303C12.1542 20.8232 12.629 20.8232 12.9219 20.5303L14.9219 18.5303C15.2148 18.2374 15.2148 17.7626 14.9219 17.4697C14.629 17.1768 14.1542 17.1768 13.8613 17.4697L13.1416 18.1893V12.75H18.5809L17.8613 13.4697C17.5684 13.7626 17.5684 14.2374 17.8613 14.5303C18.1542 14.8232 18.629 14.8232 18.9219 14.5303L20.9219 12.5303C21.2148 12.2374 21.2148 11.7626 20.9219 11.4697L18.9219 9.46967C18.629 9.17678 18.1542 9.17678 17.8613 9.46967C17.5684 9.76256 17.5684 10.2374 17.8613 10.5303L18.5809 11.25H13.1416V5.81066L13.8613 6.53033C14.1542 6.82322 14.629 6.82322 14.9219 6.53033C15.2148 6.23744 15.2148 5.76256 14.9219 5.46967L12.9219 3.46967C12.629 3.17678 12.1542 3.17678 11.8613 3.46967L9.86127 5.46967C9.56838 5.76256 9.56838 6.23744 9.86127 6.53033Z" fill="black"/>
</svg>
