<svg width="25" height="24" viewBox="0 0 25 24" fill="none" xmlns="http://www.w3.org/2000/svg">
<path fill-rule="evenodd" clip-rule="evenodd" d="M10.3524 4.00376C11.5701 5.53217 12.6614 7.16581 13.6107 8.88887C15.3275 8.24754 16.9445 7.40165 18.4322 6.38083C16.9251 4.76136 14.7766 3.75 12.3916 3.75C11.6872 3.75 11.0041 3.83812 10.3524 4.00376ZM19.3519 7.56873C17.7954 8.64497 16.1049 9.54135 14.3107 10.2278C14.5962 10.8042 14.8661 11.3896 15.12 11.9836C15.7817 11.886 16.4588 11.8354 17.1477 11.8354C18.3524 11.8354 19.5219 11.9902 20.6369 12.2813C20.64 12.188 20.6416 12.0942 20.6416 12C20.6416 10.3683 20.1686 8.84858 19.3519 7.56873ZM20.4483 13.784C19.3989 13.4918 18.2921 13.3354 17.1477 13.3354C16.6566 13.3354 16.1722 13.3642 15.6962 13.4203C16.334 15.1202 16.8424 16.8834 17.2092 18.6981C18.8273 17.5321 20.0051 15.795 20.4483 13.784ZM15.8366 19.4987C15.4638 17.4943 14.9108 15.5532 14.1951 13.6928C11.3402 14.3976 8.87865 16.1016 7.20251 18.4141C8.62024 19.5627 10.425 20.25 12.3916 20.25C13.6225 20.25 14.7889 19.9809 15.8366 19.4987ZM6.11781 17.3577C7.95038 14.9121 10.5785 13.0952 13.6188 12.2916C13.3863 11.7614 13.1404 11.2384 12.8815 10.723C10.6347 11.4221 8.2459 11.7988 5.76965 11.7988C5.2239 11.7988 4.68231 11.7805 4.14548 11.7445C4.1429 11.8293 4.1416 11.9145 4.1416 12C4.1416 14.0452 4.88505 15.9158 6.11781 17.3577ZM4.32678 10.2531C4.80375 10.2834 5.28486 10.2988 5.76965 10.2988C7.9917 10.2988 10.1378 9.97553 12.1638 9.37347C11.2035 7.66386 10.0961 6.04778 8.85874 4.54237C6.57693 5.62535 4.87179 7.72469 4.32678 10.2531ZM8.79786 2.93389C9.91093 2.49233 11.1239 2.25 12.3916 2.25C15.5422 2.25 18.3439 3.74521 20.1251 6.06165C21.3895 7.70598 22.1416 9.76622 22.1416 12C22.1416 12.4635 22.1092 12.9198 22.0465 13.3668C21.608 16.49 19.6917 19.1359 17.0301 20.5779C15.6499 21.3257 14.0692 21.75 12.3916 21.75C9.79747 21.75 7.43858 20.7359 5.69236 19.084C3.81465 17.3077 2.6416 14.7902 2.6416 12C2.6416 11.61 2.66453 11.2251 2.70918 10.8466C3.13534 7.23368 5.53466 4.22841 8.79786 2.93389Z" fill="black"/>
</svg>
