<svg width="25" height="24" viewBox="0 0 25 24" fill="none" xmlns="http://www.w3.org/2000/svg">
<path fill-rule="evenodd" clip-rule="evenodd" d="M5.3916 1.25C3.87282 1.25 2.6416 2.48122 2.6416 4C2.6416 5.51878 3.87282 6.75 5.3916 6.75C6.91038 6.75 8.1416 5.51878 8.1416 4C8.1416 2.48122 6.91038 1.25 5.3916 1.25ZM4.1416 4C4.1416 3.30964 4.70125 2.75 5.3916 2.75C6.08196 2.75 6.6416 3.30964 6.6416 4C6.6416 4.69036 6.08196 5.25 5.3916 5.25C4.70125 5.25 4.1416 4.69036 4.1416 4Z" fill="black"/>
<path fill-rule="evenodd" clip-rule="evenodd" d="M2.6416 8C2.6416 7.58579 2.97739 7.25 3.3916 7.25H7.3916C7.80582 7.25 8.1416 7.58579 8.1416 8V21C8.1416 21.4142 7.80582 21.75 7.3916 21.75H3.3916C2.97739 21.75 2.6416 21.4142 2.6416 21V8ZM4.1416 8.75V20.25H6.6416V8.75H4.1416Z" fill="black"/>
<path fill-rule="evenodd" clip-rule="evenodd" d="M9.6416 8C9.6416 7.58579 9.97739 7.25 10.3916 7.25H14.3916C14.8058 7.25 15.1416 7.58579 15.1416 8V8.43402L15.5769 8.24748C16.3252 7.92676 17.1255 7.72565 17.9349 7.65207C20.7098 7.3998 23.1416 9.58038 23.1416 12.3802V21C23.1416 21.4142 22.8058 21.75 22.3916 21.75H18.3916C17.9774 21.75 17.6416 21.4142 17.6416 21V14C17.6416 13.6685 17.5099 13.3505 17.2755 13.1161C17.0411 12.8817 16.7231 12.75 16.3916 12.75C16.0601 12.75 15.7421 12.8817 15.5077 13.1161C15.2733 13.3505 15.1416 13.6685 15.1416 14V21C15.1416 21.4142 14.8058 21.75 14.3916 21.75H10.3916C9.97739 21.75 9.6416 21.4142 9.6416 21V8ZM11.1416 8.75V20.25H13.6416V14C13.6416 13.2707 13.9313 12.5712 14.4471 12.0555C14.9628 11.5397 15.6623 11.25 16.3916 11.25C17.1209 11.25 17.8204 11.5397 18.3361 12.0555C18.8519 12.5712 19.1416 13.2707 19.1416 14V20.25H21.6416V12.3802C21.6416 10.4759 19.9806 8.97227 18.0707 9.14591C17.4166 9.20536 16.77 9.36807 16.1678 9.6262L14.687 10.2608C14.4553 10.3601 14.1892 10.3363 13.9787 10.1976C13.7683 10.0588 13.6416 9.82354 13.6416 9.57143V8.75H11.1416Z" fill="black"/>
</svg>
