<svg width="25" height="24" viewBox="0 0 25 24" fill="none" xmlns="http://www.w3.org/2000/svg">
<path fill-rule="evenodd" clip-rule="evenodd" d="M20.1416 12C20.1416 11.5858 19.8058 11.25 19.3916 11.25H5.3916C4.97739 11.25 4.6416 11.5858 4.6416 12C4.6416 12.4142 4.97739 12.75 5.3916 12.75H19.3916C19.8058 12.75 20.1416 12.4142 20.1416 12Z" fill="black"/>
<path fill-rule="evenodd" clip-rule="evenodd" d="M20.1416 7C20.1416 6.58579 19.8058 6.25 19.3916 6.25H5.3916C4.97739 6.25 4.6416 6.58579 4.6416 7C4.6416 7.41421 4.97739 7.75 5.3916 7.75H19.3916C19.8058 7.75 20.1416 7.41421 20.1416 7Z" fill="black"/>
<path fill-rule="evenodd" clip-rule="evenodd" d="M20.1416 17C20.1416 16.5858 19.8058 16.25 19.3916 16.25H5.3916C4.97739 16.25 4.6416 16.5858 4.6416 17C4.6416 17.4142 4.97739 17.75 5.3916 17.75H19.3916C19.8058 17.75 20.1416 17.4142 20.1416 17Z" fill="black"/>
</svg>
