<svg width="25" height="24" viewBox="0 0 25 24" fill="none" xmlns="http://www.w3.org/2000/svg">
<path d="M9.28171 15.4027C8.7335 15.4698 8.34345 15.9685 8.41049 16.5167C8.47753 17.0649 8.97629 17.455 9.52449 17.3879C10.0727 17.3209 10.4627 16.8221 10.3957 16.2739C10.3287 15.7257 9.82991 15.3357 9.28171 15.4027Z" fill="black"/>
<path d="M5.93973 12.7891C5.87269 12.2409 6.26274 11.7421 6.81094 11.6751C7.35914 11.608 7.85789 11.9981 7.92494 12.5463C7.99198 13.0945 7.60192 13.5932 7.05372 13.6603C6.50552 13.7273 6.00677 13.3373 5.93973 12.7891Z" fill="black"/>
<path d="M8.31058 7.46188C7.76237 7.52892 7.37232 8.02768 7.43936 8.57588C7.5064 9.12408 8.00516 9.51413 8.55336 9.44709C9.10156 9.38005 9.49161 8.8813 9.42457 8.33309C9.35753 7.78489 8.85878 7.39484 8.31058 7.46188Z" fill="black"/>
<path d="M16.0889 9.28111C16.0219 8.73291 16.4119 8.23415 16.9601 8.16711C17.5083 8.10007 18.0071 8.49013 18.0741 9.03833C18.1412 9.58653 17.7511 10.0853 17.2029 10.1523C16.6547 10.2194 16.156 9.82931 16.0889 9.28111Z" fill="black"/>
<path d="M12.3842 10.8786C11.836 10.9457 11.446 11.4444 11.513 11.9926C11.5801 12.5408 12.0788 12.9309 12.627 12.8638C13.1752 12.7968 13.5653 12.298 13.4982 11.7498C13.4312 11.2016 12.9324 10.8116 12.3842 10.8786Z" fill="black"/>
<path d="M11.7847 7.037C11.7177 6.4888 12.1077 5.99004 12.6559 5.923C13.2041 5.85596 13.7029 6.24602 13.7699 6.79422C13.837 7.34242 13.4469 7.84117 12.8987 7.90821C12.3505 7.97525 11.8517 7.5852 11.7847 7.037Z" fill="black"/>
<path fill-rule="evenodd" clip-rule="evenodd" d="M2.64452 11.7637C2.77502 6.38052 7.24475 2.12236 12.6279 2.25286C18.0111 2.38336 22.2693 6.85308 22.1388 12.2363C22.1305 12.5772 22.0159 12.8887 21.8048 13.1451C21.6029 13.3904 21.3415 13.5512 21.0835 13.6589C20.5815 13.8685 19.9522 13.9342 19.3295 13.9384C16.6409 13.9566 14.3055 16.2692 14.1529 18.9967C14.1173 19.6331 14.0088 20.2803 13.7349 20.7889C13.5931 21.0522 13.3939 21.3027 13.115 21.4841C12.8294 21.6698 12.5018 21.7555 12.1554 21.7471C6.77218 21.6166 2.51403 17.1469 2.64452 11.7637ZM12.5916 3.75242C8.03658 3.642 4.2545 7.24505 4.14408 11.8001C4.03366 16.3551 7.63672 20.1372 12.1917 20.2476C12.2598 20.2492 12.285 20.2346 12.2974 20.2265C12.3164 20.2142 12.3604 20.1777 12.4142 20.0777C12.5316 19.8598 12.6237 19.4757 12.6552 18.9129C12.8497 15.438 15.7961 12.4623 19.3194 12.4385C19.8815 12.4347 20.2759 12.3706 20.5056 12.2747C20.5868 12.2408 20.6247 12.2122 20.6393 12.1992C20.7492 7.64449 17.1463 3.86283 12.5916 3.75242Z" fill="black"/>
</svg>
