<svg width="25" height="24" viewBox="0 0 25 24" fill="none" xmlns="http://www.w3.org/2000/svg">
<path d="M10.1252 2.6988C11.6206 2.39239 13.1626 2.39239 14.6579 2.6988C15.3047 2.83133 15.8028 3.34907 15.9102 4.00053L15.9644 4.32952C16.0568 4.89025 16.1304 5.45329 16.1853 6.0177C16.1925 6.09169 16.166 6.16494 16.1134 6.21751L15.1908 7.14017C15.0366 7.2943 14.7712 7.19116 14.7574 6.97361C14.7066 6.17063 14.6155 5.36957 14.4843 4.57344L14.4301 4.24445C14.4238 4.20632 14.3947 4.17602 14.3568 4.16827C13.0601 3.90257 11.723 3.90257 10.4263 4.16827C10.3885 4.17602 10.3593 4.20632 10.353 4.24445L10.2988 4.57344C9.89583 7.0186 9.87181 9.5103 10.2267 11.961C10.2381 12.0395 10.2121 12.1189 10.156 12.175L9.23791 13.093C9.11263 13.2183 8.90181 13.1743 8.87299 12.9995L8.81877 12.6705C8.36363 9.90879 8.36363 7.09121 8.81877 4.32952L8.87299 4.00053C8.98036 3.34907 9.47841 2.83133 10.1252 2.6988Z" fill="black"/>
<path fill-rule="evenodd" clip-rule="evenodd" d="M16.2624 9.98983L21.4219 4.83032C21.7148 4.53742 21.7148 4.06255 21.4219 3.76966C21.129 3.47676 20.6542 3.47676 20.3613 3.76966L4.36127 19.7697C4.06838 20.0625 4.06838 20.5374 4.36127 20.8303C4.65416 21.1232 5.12904 21.1232 5.42193 20.8303L8.05063 18.2016C8.05303 18.2019 8.05543 18.2022 8.05783 18.2025C9.24808 18.3546 10.4443 18.4437 11.6416 18.47V22.5C11.6416 22.9142 11.9774 23.25 12.3916 23.25C12.8058 23.25 13.1416 22.9142 13.1416 22.5V18.47C14.3389 18.4437 15.5351 18.3546 16.7253 18.2025C18.256 18.007 19.4671 16.8124 19.6836 15.2845L20.1342 12.1052C20.1923 11.6951 19.9069 11.3155 19.4968 11.2574C19.0867 11.1993 18.7071 11.4847 18.649 11.8948L18.1985 15.0741C18.0768 15.9331 17.3958 16.6047 16.5353 16.7146C14.1708 17.0166 11.7816 17.0591 9.41023 16.842L11.7401 14.5122C12.7154 14.5686 13.6963 14.4982 14.6579 14.3012C15.3047 14.1687 15.8028 13.6509 15.9102 12.9995L15.9644 12.6705C16.1109 11.7815 16.2102 10.8867 16.2624 9.98983ZM14.5989 11.6533L13.2598 12.9924C13.6275 12.9597 13.9937 12.9061 14.3568 12.8317C14.3947 12.824 14.4238 12.7937 14.4301 12.7556L14.4843 12.4266C14.5267 12.1693 14.5649 11.9115 14.5989 11.6533Z" fill="black"/>
<path d="M6.58466 15.0741C6.60232 15.1987 6.63175 15.3194 6.6718 15.435C6.70581 15.5332 6.68696 15.644 6.61348 15.7175L5.85136 16.4796C5.73961 16.5913 5.55301 16.5727 5.4778 16.4337C5.28832 16.0835 5.15782 15.6961 5.0995 15.2845L4.64899 12.1052C4.59088 11.6951 4.87623 11.3155 5.28635 11.2574C5.69647 11.1993 6.07604 11.4847 6.13416 11.8948L6.58466 15.0741Z" fill="black"/>
</svg>
