<svg width="25" height="24" viewBox="0 0 25 24" fill="none" xmlns="http://www.w3.org/2000/svg">
<path fill-rule="evenodd" clip-rule="evenodd" d="M18.9266 4.76625C19.6566 5.03522 20.1416 5.73076 20.1416 6.50878V17.4913C20.1416 18.2693 19.6566 18.9648 18.9266 19.2338C17.9358 19.5988 16.8474 19.5988 15.8566 19.2338C15.1266 18.9648 14.6416 18.2693 14.6416 17.4913L14.6416 6.50878C14.6416 5.73076 15.1266 5.03522 15.8566 4.76625C16.8474 4.40124 17.9358 4.40124 18.9266 4.76625ZM18.6416 6.50878C18.6416 6.3592 18.5484 6.22548 18.408 6.17377C17.752 5.93207 17.0312 5.93207 16.3752 6.17377C16.2348 6.22548 16.1416 6.3592 16.1416 6.50878L16.1416 17.4913C16.1416 17.6408 16.2348 17.7746 16.3752 17.8263C17.0312 18.068 17.752 18.068 18.408 17.8263C18.5484 17.7746 18.6416 17.6408 18.6416 17.4913V6.50878Z" fill="black"/>
<path fill-rule="evenodd" clip-rule="evenodd" d="M8.92656 4.76625C9.65661 5.03522 10.1416 5.73076 10.1416 6.50878L10.1416 17.4913C10.1416 18.2693 9.65661 18.9648 8.92656 19.2338C7.93581 19.5988 6.8474 19.5988 5.85664 19.2338C5.12659 18.9648 4.6416 18.2693 4.6416 17.4913L4.6416 6.50878C4.6416 5.73076 5.12659 5.03522 5.85664 4.76625C6.8474 4.40124 7.93581 4.40124 8.92656 4.76625ZM8.6416 6.50878C8.6416 6.3592 8.54836 6.22548 8.408 6.17377C7.75196 5.93207 7.03125 5.93207 6.3752 6.17377C6.23485 6.22548 6.1416 6.3592 6.1416 6.50878L6.1416 17.4913C6.1416 17.6408 6.23484 17.7746 6.3752 17.8263C7.03125 18.068 7.75196 18.068 8.408 17.8263C8.54836 17.7746 8.6416 17.6408 8.6416 17.4913L8.6416 6.50878Z" fill="black"/>
</svg>
