<svg width="25" height="24" viewBox="0 0 25 24" fill="none" xmlns="http://www.w3.org/2000/svg">
<path d="M17.1417 14.208V9.78988C17.1417 9.18588 16.6774 8.68334 16.0753 8.63561C12.8176 8.37737 9.54464 8.37737 6.28699 8.63561L6.09825 8.65057C5.6593 8.68537 5.29421 9.00205 5.19774 9.43168C4.81927 11.1172 4.81941 12.8662 5.19787 14.5516C5.29404 14.98 5.65736 15.2964 6.09515 15.3326L6.26943 15.347C9.53833 15.6169 12.8239 15.6169 16.0928 15.347C16.6855 15.298 17.1417 14.8027 17.1417 14.208Z" fill="black"/>
<path fill-rule="evenodd" clip-rule="evenodd" d="M22.6417 14V10C22.6417 9.0335 21.8582 8.25 20.8917 8.25H20.2417V8.18967C20.2417 6.91863 19.2638 5.86153 17.9966 5.76273L16.7281 5.66382C13.1759 5.38684 9.60746 5.38684 6.05523 5.66382L4.70763 5.76889C3.49798 5.86321 2.50809 6.76935 2.30748 7.96597C1.85975 10.6367 1.85974 13.3633 2.30748 16.034C2.50809 17.2306 3.49798 18.1368 4.70763 18.2311L6.05523 18.3362C9.60746 18.6132 13.1759 18.6132 16.7281 18.3362L17.9966 18.2373C19.2638 18.1385 20.2417 17.0814 20.2417 15.8103V15.75H20.8917C21.8582 15.75 22.6417 14.9665 22.6417 14ZM21.1417 10V14C21.1417 14.1381 21.0297 14.25 20.8917 14.25L19.4917 14.25C19.0774 14.25 18.7417 14.5858 18.7417 15V15.8103C18.7417 16.2982 18.3663 16.7039 17.88 16.7418L16.6115 16.8407C13.1369 17.1116 9.64644 17.1116 6.17183 16.8407L4.82423 16.7356C4.3014 16.6949 3.87355 16.3032 3.78684 15.786C3.36663 13.2795 3.36663 10.7205 3.78684 8.21398C3.87355 7.69677 4.3014 7.30512 4.82423 7.26435L6.17183 7.15928C9.64644 6.88835 13.1369 6.88835 16.6115 7.15928L17.88 7.25819C18.3663 7.29611 18.7417 7.70183 18.7417 8.18967V9C18.7417 9.41421 19.0774 9.75 19.4917 9.75H20.8917C21.0297 9.75 21.1417 9.86193 21.1417 10Z" fill="black"/>
</svg>
