<svg width="25" height="24" viewBox="0 0 25 24" fill="none" xmlns="http://www.w3.org/2000/svg">
<path d="M6.93703 8.16271C6.72181 8.10593 6.54293 7.95649 6.44877 7.7548C6.3546 7.55312 6.35489 7.32002 6.44955 7.11857L8.11031 3.58418C8.23407 3.3208 8.49902 3.15278 8.79003 3.15314C9.08104 3.1535 9.34558 3.32217 9.46869 3.58586L10.2013 5.1551C10.2275 5.1448 10.2546 5.13588 10.2824 5.12842C14.6297 3.96355 19.0983 6.54346 20.2631 10.8908C21.428 15.2382 18.8481 19.7067 14.5007 20.8716C10.1534 22.0364 5.68486 19.4565 4.51999 15.1092C4.14957 13.7267 4.1579 12.3298 4.48234 11.0311C4.58273 10.6292 4.98988 10.3849 5.39175 10.4852C5.79361 10.5856 6.03801 10.9928 5.93762 11.3947C5.67332 12.4526 5.66604 13.5907 5.96888 14.7209C6.91934 18.2681 10.5654 20.3731 14.1125 19.4227C17.6597 18.4722 19.7647 14.8262 18.8142 11.279C17.8793 7.78989 14.3363 5.69607 10.8447 6.53313L11.5839 8.11643C11.707 8.38012 11.6664 8.69122 11.4799 8.91455C11.2933 9.13789 10.9943 9.23313 10.713 9.15889L6.93703 8.16271Z" fill="black"/>
</svg>
