<svg width="25" height="24" viewBox="0 0 25 24" fill="none" xmlns="http://www.w3.org/2000/svg">
<path fill-rule="evenodd" clip-rule="evenodd" d="M13.9494 5.53423C13.0788 4.69887 11.7043 4.69887 10.8337 5.53423L6.20728 9.97357C6.09393 10.0823 6.01768 10.224 5.98934 10.3785C5.43521 13.4004 5.39431 16.494 5.86835 19.5295L5.98087 20.25H8.95733V14.0387C8.95733 13.6244 9.29312 13.2887 9.70733 13.2887H15.0758C15.49 13.2887 15.8258 13.6244 15.8258 14.0387V20.25H18.8022L18.9147 19.5295C19.3888 16.494 19.3479 13.4004 18.7937 10.3785C18.7654 10.224 18.6892 10.0823 18.5758 9.97357L13.9494 5.53423ZM9.79517 4.45191C11.2461 3.05965 13.537 3.05965 14.9879 4.45191L19.6144 8.89125C19.9549 9.21804 20.184 9.64373 20.2691 10.108C20.8537 13.2956 20.8968 16.559 20.3968 19.7609L20.216 20.9184C20.1412 21.3971 19.729 21.75 19.2445 21.75H15.0758C14.6615 21.75 14.3258 21.4142 14.3258 21V14.7887H10.4573V21C10.4573 21.4142 10.1215 21.75 9.70733 21.75H5.5386C5.05412 21.75 4.64183 21.3971 4.56708 20.9184L4.38632 19.7609C3.88627 16.559 3.92942 13.2956 4.51395 10.108C4.59908 9.64373 4.82816 9.21804 5.16873 8.89125L9.79517 4.45191Z" fill="black"/>
</svg>
