<svg width="25" height="24" viewBox="0 0 25 24" fill="none" xmlns="http://www.w3.org/2000/svg">
<path fill-rule="evenodd" clip-rule="evenodd" d="M20.4764 16.9323C20.9214 12.6556 20.9214 8.34432 20.4764 4.06762C20.3177 2.54257 18.5594 1.77006 17.3288 2.68478L13.2252 5.73519C11.9747 6.6647 10.4581 7.16665 8.9 7.16665H5.0708C4.38045 7.16665 3.8208 7.72629 3.8208 8.41664V12.5833C3.8208 13.2737 4.38044 13.8333 5.0708 13.8333H5.69508L4.84972 16.9882C4.75552 17.3398 4.92733 17.7082 5.2572 17.8621L8.93834 19.5787C9.13927 19.6724 9.37135 19.6724 9.57227 19.5787C9.7732 19.485 9.92238 19.3072 9.97976 19.093L11.2424 14.3806C11.2559 14.3306 11.2639 14.2803 11.2669 14.2305C11.9643 14.4714 12.6254 14.8189 13.2252 15.2648L17.3288 18.3152C18.5594 19.2299 20.3177 18.4574 20.4764 16.9323ZM18.9845 4.22285C19.4187 8.39634 19.4187 12.6036 18.9845 16.7771C18.9461 17.1457 18.5211 17.3324 18.2237 17.1114L14.12 14.0609C12.6109 12.9391 10.7804 12.3333 8.89999 12.3333L5.3208 12.3333L5.3208 8.66665H8.9C10.7804 8.66665 12.6109 8.06085 14.12 6.93902L18.2237 3.88861C18.5211 3.66752 18.9461 3.85424 18.9845 4.22285ZM9.82775 13.8929C9.52136 13.8534 9.2115 13.8333 8.89999 13.8333H7.24799L6.46149 16.7686L8.76221 17.8415L9.79356 13.9924C9.80278 13.958 9.81424 13.9248 9.82775 13.8929Z" fill="black"/>
</svg>
