<svg width="25" height="24" viewBox="0 0 25 24" fill="none" xmlns="http://www.w3.org/2000/svg">
<path d="M17.1416 11C17.1416 11.4142 16.8058 11.75 16.3916 11.75H8.3916C7.97739 11.75 7.6416 11.4142 7.6416 11C7.6416 10.5858 7.97739 10.25 8.3916 10.25H16.3916C16.8058 10.25 17.1416 10.5858 17.1416 11Z" fill="black"/>
<path fill-rule="evenodd" clip-rule="evenodd" d="M4.77718 8.1467L5.96591 4.8991C6.26549 4.08066 6.99208 3.49419 7.85531 3.37406C10.865 2.95523 13.9182 2.95523 16.928 3.37406C17.7912 3.49419 18.5178 4.08067 18.8174 4.89912L20.0062 8.147C20.2285 8.49389 20.3817 8.89042 20.4459 9.3179L20.5479 9.99574C20.9477 12.6544 20.9103 15.3605 20.4372 18.007C20.2275 19.1803 19.2639 20.0716 18.0778 20.1893L16.8474 20.3114C13.8841 20.6055 10.899 20.6055 7.93577 20.3114L6.70531 20.1893C5.51923 20.0716 4.55567 19.1803 4.34594 18.007C3.87287 15.3605 3.83549 12.6544 4.23529 9.99574L4.33722 9.3179C4.40152 8.89029 4.55474 8.49365 4.77718 8.1467ZM8.06206 4.85974C10.9346 4.46 13.8487 4.46 16.7212 4.85974C17.0353 4.90346 17.2997 5.11687 17.4088 5.4147L17.915 6.79769C17.8696 6.79108 17.8239 6.78549 17.778 6.78092L16.7998 6.68383C13.8682 6.39286 10.915 6.39286 7.98339 6.68384L7.0052 6.78092C6.95926 6.78548 6.91362 6.79107 6.8683 6.79767L7.37451 5.4147C7.48353 5.11687 7.74793 4.90346 8.06206 4.85974ZM6.07726 8.90098L6.09592 8.90781L6.11907 8.84456C6.36481 8.5287 6.73393 8.31522 7.15335 8.27359L8.13154 8.1765C10.9646 7.89531 13.8185 7.89531 16.6516 8.1765L17.6298 8.27359C18.0493 8.31523 18.4185 8.52879 18.6642 8.84476L18.6873 8.9078L18.7059 8.901C18.837 9.08689 18.927 9.30444 18.9626 9.54095L19.0645 10.2188C19.44 12.7158 19.4049 15.2574 18.9606 17.7431C18.869 18.2558 18.448 18.6452 17.9297 18.6966L16.6992 18.8188C13.8345 19.1031 10.9487 19.1031 8.08392 18.8188L6.85346 18.6966C6.3352 18.6452 5.91418 18.2558 5.82254 17.7431C5.37823 15.2574 5.34312 12.7158 5.71861 10.2188L5.82054 9.54095C5.85611 9.30443 5.94613 9.08688 6.07726 8.90098Z" fill="black"/>
</svg>
