<svg width="25" height="24" viewBox="0 0 25 24" fill="none" xmlns="http://www.w3.org/2000/svg">
<path d="M8.6416 8C8.6416 7.58579 8.97739 7.25 9.3916 7.25H16.3916C16.8058 7.25 17.1416 7.58579 17.1416 8C17.1416 8.41421 16.8058 8.75 16.3916 8.75H9.3916C8.97739 8.75 8.6416 8.41421 8.6416 8Z" fill="black"/>
<path d="M9.3916 10.25C8.97739 10.25 8.6416 10.5858 8.6416 11C8.6416 11.4142 8.97739 11.75 9.3916 11.75H14.3916C14.8058 11.75 15.1416 11.4142 15.1416 11C15.1416 10.5858 14.8058 10.25 14.3916 10.25H9.3916Z" fill="black"/>
<path fill-rule="evenodd" clip-rule="evenodd" d="M8.8916 3.25C6.26825 3.25 4.1416 5.37665 4.1416 8V18C4.1416 20.0711 5.82053 21.75 7.8916 21.75H18.8916C19.8581 21.75 20.6416 20.9665 20.6416 20V5C20.6416 4.0335 19.8581 3.25 18.8916 3.25H8.8916ZM19.1416 14.25V5C19.1416 4.86193 19.0297 4.75 18.8916 4.75H8.8916C7.09668 4.75 5.6416 6.20507 5.6416 8V14.9997C6.26835 14.529 7.0474 14.25 7.8916 14.25H19.1416ZM19.1416 15.75H7.8916C6.64896 15.75 5.6416 16.7574 5.6416 18C5.6416 19.2426 6.64896 20.25 7.8916 20.25H18.8916C19.0297 20.25 19.1416 20.1381 19.1416 20V15.75Z" fill="black"/>
</svg>
