<svg width="25" height="24" viewBox="0 0 25 24" fill="none" xmlns="http://www.w3.org/2000/svg">
<path fill-rule="evenodd" clip-rule="evenodd" d="M1.7848 13.2525C0.96545 12.6185 0.965449 11.3815 1.7848 10.7475C3.94387 9.0769 6.35479 7.76012 8.92729 6.84646L9.39334 6.68094C10.4169 6.31742 11.4937 7.0099 11.6316 8.06198C11.7454 8.92899 11.821 9.80786 11.8586 10.6906C13.9987 9.047 16.384 7.74973 18.9273 6.84646L19.3933 6.68094C20.4169 6.31742 21.4937 7.0099 21.6316 8.06198C21.9713 10.6521 21.9713 13.3479 21.6316 15.938C21.4937 16.9901 20.4169 17.6826 19.3933 17.319L18.9273 17.1535C16.384 16.2503 13.9987 14.953 11.8586 13.3093C11.821 14.1921 11.7454 15.071 11.6316 15.938C11.4937 16.9901 10.4169 17.6826 9.39334 17.319L8.92728 17.1535C6.35478 16.2399 3.94387 14.9231 1.7848 13.2525ZM2.70274 11.9338C2.65947 11.9673 2.65947 12.0327 2.70274 12.0661C4.73609 13.6395 7.00661 14.8796 9.42931 15.74L9.89536 15.9055C9.99556 15.9411 10.1273 15.8733 10.1444 15.743C10.4671 13.2824 10.4671 10.7176 10.1444 8.25703C10.1273 8.12673 9.99556 8.05885 9.89536 8.09443L9.42931 8.25996C7.00661 9.12041 4.73609 10.3605 2.70274 11.9338ZM12.7027 11.9338C12.6595 11.9673 12.6595 12.0327 12.7027 12.0661C14.7361 13.6395 17.0066 14.8796 19.4293 15.74L19.8954 15.9055C19.9956 15.9411 20.1273 15.8733 20.1444 15.743C20.4671 13.2824 20.4671 10.7176 20.1444 8.25703C20.1273 8.12673 19.9956 8.05885 19.8954 8.09443L19.4293 8.25996C17.0066 9.12041 14.7361 10.3605 12.7027 11.9338Z" fill="black"/>
</svg>
