<svg width="25" height="24" viewBox="0 0 25 24" fill="none" xmlns="http://www.w3.org/2000/svg">
<path fill-rule="evenodd" clip-rule="evenodd" d="M2.6416 12C2.6416 8.27208 5.66368 5.25 9.3916 5.25H17.3916C20.015 5.25 22.1416 7.37665 22.1416 10C22.1416 12.6234 20.015 14.75 17.3916 14.75H9.24874C7.72996 14.75 6.49874 13.5188 6.49874 12C6.49874 10.4812 7.72996 9.25 9.24874 9.25H17.1059C17.5201 9.25 17.8559 9.58579 17.8559 10C17.8559 10.4142 17.5201 10.75 17.1059 10.75H9.24874C8.55839 10.75 7.99874 11.3096 7.99874 12C7.99874 12.6904 8.55839 13.25 9.24874 13.25H17.3916C19.1865 13.25 20.6416 11.7949 20.6416 10C20.6416 8.20507 19.1865 6.75 17.3916 6.75H9.3916C6.49211 6.75 4.1416 9.10051 4.1416 12C4.1416 14.8995 6.49211 17.25 9.3916 17.25H17.1059C17.5201 17.25 17.8559 17.5858 17.8559 18C17.8559 18.4142 17.5201 18.75 17.1059 18.75H9.3916C5.66368 18.75 2.6416 15.7279 2.6416 12Z" fill="black"/>
</svg>
