<svg width="25" height="24" viewBox="0 0 25 24" fill="none" xmlns="http://www.w3.org/2000/svg">
<path d="M12.3916 9.75C12.8058 9.75 13.1416 10.0858 13.1416 10.5V12.25H14.8916C15.3058 12.25 15.6416 12.5858 15.6416 13C15.6416 13.4142 15.3058 13.75 14.8916 13.75H13.1416V15.5C13.1416 15.9142 12.8058 16.25 12.3916 16.25C11.9774 16.25 11.6416 15.9142 11.6416 15.5V13.75H9.8916C9.47739 13.75 9.1416 13.4142 9.1416 13C9.1416 12.5858 9.47739 12.25 9.8916 12.25H11.6416V10.5C11.6416 10.0858 11.9774 9.75 12.3916 9.75Z" fill="black"/>
<path fill-rule="evenodd" clip-rule="evenodd" d="M8.7916 5.25C6.01074 5.25 3.6416 7.3293 3.6416 10.0298C3.6416 11.8797 4.43048 13.5064 5.52342 14.8815C6.61447 16.2543 8.04165 17.4193 9.40813 18.366C9.93006 18.7276 10.4581 19.0611 10.9413 19.3072C11.3951 19.5383 11.9169 19.75 12.3916 19.75C12.8663 19.75 13.3881 19.5383 13.8419 19.3072C14.3251 19.0611 14.8531 18.7276 15.3751 18.366C16.7416 17.4193 18.1687 16.2543 19.2598 14.8815C20.3527 13.5064 21.1416 11.8797 21.1416 10.0298C21.1416 7.3293 18.7725 5.25 15.9916 5.25C14.5581 5.25 13.2968 5.92214 12.3916 6.79183C11.4864 5.92214 10.2251 5.25 8.7916 5.25ZM5.1416 10.0298C5.1416 8.2791 6.71235 6.75 8.7916 6.75C9.98575 6.75 11.1008 7.46342 11.797 8.36892C11.939 8.55356 12.1587 8.66176 12.3916 8.66176C12.6245 8.66176 12.8442 8.55356 12.9862 8.36892C13.6824 7.46342 14.7975 6.75 15.9916 6.75C18.0708 6.75 19.6416 8.2791 19.6416 10.0298C19.6416 11.4333 19.0458 12.74 18.0855 13.9482C17.1233 15.1588 15.8287 16.2269 14.5209 17.133C14.026 17.4758 13.5599 17.7675 13.1612 17.9706C12.733 18.1886 12.4849 18.25 12.3916 18.25C12.2983 18.25 12.0502 18.1886 11.6221 17.9706C11.2233 17.7675 10.7572 17.4758 10.2623 17.133C8.95453 16.2269 7.65988 15.1588 6.69769 13.9482C5.73739 12.74 5.1416 11.4333 5.1416 10.0298Z" fill="black"/>
</svg>
