<svg width="25" height="24" viewBox="0 0 25 24" fill="none" xmlns="http://www.w3.org/2000/svg">
<path d="M9.27755 7.16985C9.46051 7.17475 9.66335 7.18465 9.85634 7.61303C9.98431 7.89821 10.1999 8.42321 10.3755 8.85087C10.5122 9.18366 10.6246 9.45751 10.6527 9.51356C10.717 9.64156 10.7566 9.78926 10.6725 9.96156C10.6626 9.98188 10.6533 10.0013 10.6442 10.02C10.5768 10.16 10.5288 10.2597 10.4153 10.3899C10.3687 10.4435 10.3201 10.5022 10.2717 10.5607C10.1865 10.6636 10.102 10.7658 10.0294 10.838C9.90085 10.9659 9.76723 11.1039 9.91563 11.3599C10.0641 11.6159 10.5835 12.4579 11.3503 13.1373C12.1746 13.8712 12.8914 14.1805 13.2538 14.3368C13.3241 14.3672 13.3811 14.3918 13.4229 14.4126C13.6802 14.5406 13.8335 14.5209 13.9819 14.3486C14.1304 14.1762 14.625 13.6001 14.7982 13.3441C14.9664 13.0881 15.1395 13.1275 15.377 13.2161C15.6144 13.3047 16.8808 13.9251 17.138 14.0531C17.1888 14.0784 17.2364 14.1012 17.2805 14.1224C17.4594 14.2082 17.5811 14.2665 17.6327 14.3535C17.697 14.4618 17.697 14.9739 17.4843 15.5746C17.2667 16.1752 16.2179 16.7513 15.743 16.7956C15.698 16.7999 15.6533 16.8053 15.6072 16.8108C15.172 16.8635 14.6196 16.9303 12.6512 16.1555C10.2258 15.2018 8.62483 12.8354 8.30113 12.357C8.27558 12.3192 8.25799 12.2932 8.24858 12.2806L8.2431 12.2733C8.09583 12.0762 7.19489 10.8707 7.19489 9.62685C7.19489 8.43682 7.78111 7.81726 8.04849 7.53467C8.06544 7.51676 8.08111 7.50021 8.09526 7.48494C8.33267 7.22895 8.60975 7.16495 8.78286 7.16495C8.95605 7.16495 9.12916 7.16495 9.27755 7.16985Z" fill="black"/>
<path fill-rule="evenodd" clip-rule="evenodd" d="M2.57578 21.3314C2.49396 21.6284 2.76445 21.9025 3.0625 21.8247L7.66984 20.6213C9.1242 21.409 10.7616 21.8275 12.4287 21.8275H12.4337C17.9197 21.8275 22.3916 17.3815 22.3916 11.9163C22.3916 9.26735 21.3576 6.77594 19.4779 4.90491C17.5982 3.03397 15.1 2 12.4336 2C6.94767 2 2.47571 6.44605 2.47571 11.9114C2.47509 13.65 2.934 15.3582 3.80639 16.8645L2.57578 21.3314ZM5.25252 17.2629C5.35934 16.8752 5.30598 16.4608 5.10441 16.1127C4.36426 14.8348 3.97518 13.3855 3.97571 11.9114C3.97571 7.28158 7.76898 3.5 12.4336 3.5C14.7035 3.5 16.8212 4.37698 18.4197 5.96805C20.0164 7.55737 20.8916 9.66611 20.8916 11.9163C20.8916 16.5459 17.0984 20.3275 12.4337 20.3275H12.4287C11.0122 20.3275 9.62023 19.9718 8.38426 19.3023C8.04974 19.1211 7.65886 19.0738 7.29076 19.17L4.52836 19.8915L5.25252 17.2629Z" fill="black"/>
</svg>
