<svg width="25" height="24" viewBox="0 0 25 24" fill="none" xmlns="http://www.w3.org/2000/svg">
<path fill-rule="evenodd" clip-rule="evenodd" d="M13.6892 18.75C13.8555 18.75 14.0089 18.6608 14.0912 18.5164L17.4372 12.6432C17.8807 11.8646 18.0668 10.9658 17.969 10.0752L17.6158 6.86148C17.553 6.2897 17.1041 5.83679 16.5329 5.76884L14.4159 5.517C13.0183 5.35075 11.6013 5.49486 10.2658 5.93906C9.60626 6.15843 9.07799 6.65902 8.82348 7.30581L7.11939 11.6364C7.07773 11.7423 7.04894 11.8528 7.03363 11.9655C6.90439 12.9176 7.73786 13.7208 8.68453 13.5563L12.1003 12.9631C13.1793 12.7757 14.1112 13.7279 13.9007 14.8026L13.2353 18.1984C13.1793 18.4842 13.398 18.75 13.6892 18.75ZM15.3945 19.2589C15.0455 19.8716 14.3945 20.25 13.6893 20.25C12.4539 20.25 11.5257 19.1223 11.7632 17.91L12.4287 14.5141C12.4315 14.4996 12.43 14.4907 12.428 14.4843C12.4255 14.4765 12.4204 14.4672 12.4121 14.4587C12.4037 14.4502 12.3946 14.4449 12.3868 14.4423C12.3805 14.4401 12.3716 14.4384 12.357 14.4409L8.94122 15.0342C6.99503 15.3722 5.28157 13.7211 5.54726 11.7637C5.57873 11.5319 5.63792 11.3048 5.72357 11.0871L7.42766 6.75655C7.84494 5.69612 8.71106 4.87539 9.79238 4.51572C11.3372 4.00189 12.9764 3.83519 14.5931 4.0275L16.7101 4.27934C17.9743 4.42973 18.9678 5.43213 19.1069 6.69764L19.46 9.91131C19.5924 11.1163 19.3406 12.3323 18.7405 13.3857L15.3945 19.2589Z" fill="black"/>
</svg>
