<svg width="25" height="24" viewBox="0 0 25 24" fill="none" xmlns="http://www.w3.org/2000/svg">
<path fill-rule="evenodd" clip-rule="evenodd" d="M21.1416 14L21.1416 10C21.1416 9.86193 21.0297 9.75 20.8916 9.75L19.4916 9.75C19.0774 9.75 18.7416 9.41421 18.7416 9L18.7416 8.18967C18.7416 7.70183 18.3663 7.29611 17.8799 7.25819L16.6114 7.15928C13.1368 6.88835 9.64639 6.88835 6.17178 7.15928L4.82418 7.26435C4.30134 7.30512 3.87349 7.69677 3.78678 8.21398C3.36657 10.7205 3.36657 13.2795 3.78678 15.786C3.87349 16.3032 4.30134 16.6949 4.82418 16.7356L6.17178 16.8407C9.64639 17.1116 13.1368 17.1116 16.6114 16.8407L17.8799 16.7418C18.3663 16.7039 18.7416 16.2982 18.7416 15.8103L18.7416 15C18.7416 14.5858 19.0774 14.25 19.4916 14.25L20.8916 14.25C21.0297 14.25 21.1416 14.1381 21.1416 14ZM22.6416 10L22.6416 14C22.6416 14.9665 21.8581 15.75 20.8916 15.75L20.2416 15.75L20.2416 15.8103C20.2416 17.0814 19.2637 18.1385 17.9965 18.2373L16.728 18.3362C13.1758 18.6132 9.6074 18.6132 6.05517 18.3362L4.70757 18.2311C3.49793 18.1368 2.50804 17.2306 2.30743 16.034C1.85969 13.3633 1.85969 10.6367 2.30743 7.96597C2.50804 6.76935 3.49793 5.86321 4.70757 5.76889L6.05517 5.66382C9.6074 5.38684 13.1758 5.38684 16.728 5.66382L17.9965 5.76273C19.2637 5.86153 20.2416 6.91863 20.2416 8.18967L20.2416 8.25L20.8916 8.25C21.8581 8.25 22.6416 9.0335 22.6416 10Z" fill="black"/>
</svg>
