<svg width="25" height="24" viewBox="0 0 25 24" fill="none" xmlns="http://www.w3.org/2000/svg">
<path fill-rule="evenodd" clip-rule="evenodd" d="M14.8916 1.25C13.6474 1.25 12.6416 2.25579 12.6416 3.5V8.5C12.6416 9.74421 13.6474 10.75 14.8916 10.75C16.1358 10.75 17.1416 9.74421 17.1416 8.5V3.5C17.1416 2.25579 16.1358 1.25 14.8916 1.25ZM14.1416 3.5C14.1416 3.08421 14.4758 2.75 14.8916 2.75C15.3074 2.75 15.6416 3.08421 15.6416 3.5V8.5C15.6416 8.91579 15.3074 9.25 14.8916 9.25C14.4758 9.25 14.1416 8.91579 14.1416 8.5V3.5Z" fill="black"/>
<path fill-rule="evenodd" clip-rule="evenodd" d="M20.8916 6.25C19.6474 6.25 18.6416 7.25579 18.6416 8.5V10C18.6416 10.4142 18.9774 10.75 19.3916 10.75H20.8916C22.1358 10.75 23.1416 9.74421 23.1416 8.5C23.1416 7.25579 22.1358 6.25 20.8916 6.25ZM20.1416 8.5C20.1416 8.08421 20.4758 7.75 20.8916 7.75C21.3074 7.75 21.6416 8.08421 21.6416 8.5C21.6416 8.91579 21.3074 9.25 20.8916 9.25H20.1416V8.5Z" fill="black"/>
<path fill-rule="evenodd" clip-rule="evenodd" d="M7.6416 15.5C7.6416 14.2558 8.64739 13.25 9.8916 13.25C11.1358 13.25 12.1416 14.2558 12.1416 15.5V20.5C12.1416 21.7442 11.1358 22.75 9.8916 22.75C8.64739 22.75 7.6416 21.7442 7.6416 20.5V15.5ZM9.8916 14.75C9.47582 14.75 9.1416 15.0842 9.1416 15.5V20.5C9.1416 20.9158 9.47582 21.25 9.8916 21.25C10.3074 21.25 10.6416 20.9158 10.6416 20.5V15.5C10.6416 15.0842 10.3074 14.75 9.8916 14.75Z" fill="black"/>
<path fill-rule="evenodd" clip-rule="evenodd" d="M3.8916 13.25C2.64739 13.25 1.6416 14.2558 1.6416 15.5C1.6416 16.7442 2.64739 17.75 3.8916 17.75C5.13582 17.75 6.1416 16.7442 6.1416 15.5V14C6.1416 13.5858 5.80582 13.25 5.3916 13.25H3.8916ZM3.1416 15.5C3.1416 15.0842 3.47582 14.75 3.8916 14.75H4.6416V15.5C4.6416 15.9158 4.30739 16.25 3.8916 16.25C3.47582 16.25 3.1416 15.9158 3.1416 15.5Z" fill="black"/>
<path fill-rule="evenodd" clip-rule="evenodd" d="M13.6416 14.5C13.6416 13.2558 14.6474 12.25 15.8916 12.25H20.8916C22.1358 12.25 23.1416 13.2558 23.1416 14.5C23.1416 15.7442 22.1358 16.75 20.8916 16.75H15.8916C14.6474 16.75 13.6416 15.7442 13.6416 14.5ZM15.8916 13.75C15.4758 13.75 15.1416 14.0842 15.1416 14.5C15.1416 14.9158 15.4758 15.25 15.8916 15.25H20.8916C21.3074 15.25 21.6416 14.9158 21.6416 14.5C21.6416 14.0842 21.3074 13.75 20.8916 13.75H15.8916Z" fill="black"/>
<path fill-rule="evenodd" clip-rule="evenodd" d="M14.3916 18.25C13.9774 18.25 13.6416 18.5858 13.6416 19V20.5C13.6416 21.7442 14.6474 22.75 15.8916 22.75C17.1358 22.75 18.1416 21.7442 18.1416 20.5C18.1416 19.2558 17.1358 18.25 15.8916 18.25H14.3916ZM15.1416 20.5V19.75H15.8916C16.3074 19.75 16.6416 20.0842 16.6416 20.5C16.6416 20.9158 16.3074 21.25 15.8916 21.25C15.4758 21.25 15.1416 20.9158 15.1416 20.5Z" fill="black"/>
<path fill-rule="evenodd" clip-rule="evenodd" d="M1.6416 9.5C1.6416 8.25579 2.64739 7.25 3.8916 7.25H8.8916C10.1358 7.25 11.1416 8.25579 11.1416 9.5C11.1416 10.7442 10.1358 11.75 8.8916 11.75H3.8916C2.64739 11.75 1.6416 10.7442 1.6416 9.5ZM3.8916 8.75C3.47582 8.75 3.1416 9.08421 3.1416 9.5C3.1416 9.91579 3.47582 10.25 3.8916 10.25H8.8916C9.30739 10.25 9.6416 9.91579 9.6416 9.5C9.6416 9.08421 9.30739 8.75 8.8916 8.75H3.8916Z" fill="black"/>
<path fill-rule="evenodd" clip-rule="evenodd" d="M8.8916 1.25C7.64739 1.25 6.6416 2.25579 6.6416 3.5C6.6416 4.74421 7.64739 5.75 8.8916 5.75H10.3916C10.8058 5.75 11.1416 5.41421 11.1416 5V3.5C11.1416 2.25579 10.1358 1.25 8.8916 1.25ZM8.1416 3.5C8.1416 3.08421 8.47582 2.75 8.8916 2.75C9.30739 2.75 9.6416 3.08421 9.6416 3.5V4.25H8.8916C8.47582 4.25 8.1416 3.91579 8.1416 3.5Z" fill="black"/>
</svg>
