<svg width="25" height="24" viewBox="0 0 25 24" fill="none" xmlns="http://www.w3.org/2000/svg">
<path d="M13.1197 15.5H8.71973V8.086H10.0727V14.367H13.1197V15.5Z" fill="black"/>
<path d="M15.0025 15.5H13.6495V11.87C13.6495 11.144 13.6385 10.627 13.6055 10.143H14.7825L14.8265 11.166H14.8705C15.1345 10.407 15.7615 10.022 16.3335 10.022C16.4655 10.022 16.5425 10.033 16.6525 10.055V11.331C16.5425 11.309 16.4215 11.287 16.2565 11.287C15.6075 11.287 15.1675 11.705 15.0465 12.31C15.0245 12.431 15.0025 12.574 15.0025 12.728V15.5Z" fill="black"/>
<path fill-rule="evenodd" clip-rule="evenodd" d="M17.6499 2.83303C14.1833 2.44559 10.5999 2.44559 7.13337 2.83303C5.12131 3.05791 3.49698 4.64292 3.26043 6.66545C2.84589 10.2097 2.84589 13.7903 3.26043 17.3346C3.49698 19.3571 5.12132 20.9421 7.13337 21.167C10.5999 21.5544 14.1833 21.5544 17.6499 21.167C19.6619 20.9421 21.2862 19.3571 21.5228 17.3346C21.9373 13.7903 21.9373 10.2097 21.5228 6.66545C21.2862 4.64292 19.6619 3.05791 17.6499 2.83303ZM7.29998 4.32375C10.6558 3.94868 14.1274 3.94868 17.4832 4.32375C18.8134 4.47241 19.8788 5.52202 20.033 6.8397C20.434 10.2682 20.434 13.7318 20.033 17.1603C19.8788 18.478 18.8134 19.5276 17.4832 19.6763C14.1274 20.0513 10.6558 20.0513 7.29998 19.6763C5.96987 19.5276 4.90439 18.478 4.75027 17.1603C4.34927 13.7318 4.34927 10.2682 4.75027 6.8397C4.90439 5.52202 5.96987 4.47241 7.29998 4.32375Z" fill="black"/>
</svg>
