<svg width="25" height="24" viewBox="0 0 25 24" fill="none" xmlns="http://www.w3.org/2000/svg">
<path d="M13.3916 15C12.8393 15 12.3916 15.4477 12.3916 16C12.3916 16.5523 12.8393 17 13.3916 17C13.9439 17 14.3916 16.5523 14.3916 16C14.3916 15.4477 13.9439 15 13.3916 15Z" fill="black"/>
<path d="M10.3916 17C9.83929 17 9.39157 17.4477 9.39157 18C9.39157 18.5523 9.83929 19 10.3916 19C10.9439 19 11.3916 18.5523 11.3916 18C11.3916 17.4477 10.9439 17 10.3916 17Z" fill="black"/>
<path fill-rule="evenodd" clip-rule="evenodd" d="M14.8847 3.25001L14.8818 3.25H9.90137L9.89841 3.25001H8.89157C8.47736 3.25001 8.14157 3.58579 8.14157 4.00001C8.14157 4.41422 8.47736 4.75001 8.89157 4.75001H9.15137V9.83701C9.15137 11.2914 8.71396 12.7121 7.89597 13.9147L4.80218 18.4629C4.01653 19.6179 4.74076 21.194 6.12887 21.3502C10.2909 21.8184 14.4923 21.8184 18.6543 21.3502C20.0424 21.194 20.7666 19.6179 19.981 18.4629L16.8872 13.9147C16.0692 12.7121 15.6318 11.2914 15.6318 9.83701V4.75001H15.8916C16.3058 4.75001 16.6416 4.41422 16.6416 4.00001C16.6416 3.58579 16.3058 3.25001 15.8916 3.25001H14.8847ZM6.29656 19.8596C10.3471 20.3153 14.436 20.3153 18.4866 19.8596C18.7525 19.8297 18.8912 19.5278 18.7407 19.3065L15.6469 14.7583C15.4266 14.4345 15.2292 14.0976 15.0555 13.75H9.72768C9.5539 14.0976 9.3565 14.4345 9.13623 14.7583L6.04244 19.3065C5.89195 19.5278 6.03067 19.8297 6.29656 19.8596ZM10.3121 12.25H14.4711C14.2472 11.4697 14.1318 10.6578 14.1318 9.83701V4.75L10.6514 4.75001V9.83701C10.6514 10.6578 10.5359 11.4697 10.3121 12.25Z" fill="black"/>
</svg>
