<svg width="25" height="24" viewBox="0 0 25 24" fill="none" xmlns="http://www.w3.org/2000/svg">
<path fill-rule="evenodd" clip-rule="evenodd" d="M22.7552 17.7071C22.43 18.5127 21.6633 18.8898 21.2279 19.0678C20.9205 19.1934 20.5717 19.2995 20.1927 19.3896C20.1854 19.4188 20.1778 19.4484 20.1699 19.4783C20.0812 19.8514 19.8707 20.1998 19.5511 20.4539C19.2327 20.7071 18.8296 20.8461 18.4096 20.832H18.3943L18.3632 20.8307C18.1438 20.8216 17.9258 20.792 17.7121 20.7424C17.4881 20.6932 17.2605 20.6681 17.0326 20.667C16.9025 20.6672 16.7719 20.6773 16.6395 20.6978C16.384 20.7763 16.1429 20.9106 15.9301 21.0996C15.0023 21.9402 13.8234 22.4396 12.5765 22.4983L12.5412 22.5H12.5059C12.4673 22.5 12.4237 22.4995 12.378 22.4981C12.3439 22.4994 12.3097 22.5001 12.2755 22.5L12.2421 22.4999L12.2087 22.4984C10.9616 22.4402 9.78254 21.9409 8.85493 21.1001C8.64123 20.9109 8.39914 20.776 8.14576 20.698C8.01647 20.6782 7.88623 20.6679 7.75589 20.6671C7.53139 20.6704 7.30876 20.6974 7.08851 20.7481C6.88835 20.7967 6.6844 20.8281 6.47876 20.8418C6.03854 20.8799 5.60857 20.7493 5.26788 20.4903C4.93044 20.2338 4.70784 19.8741 4.61503 19.4875C4.6066 19.4554 4.59837 19.4233 4.59035 19.3911C4.21162 19.3011 3.86302 19.1949 3.55554 19.069C3.11943 18.8904 2.35647 18.5133 2.03088 17.711C1.95195 17.5176 1.90633 17.3135 1.89444 17.1077L1.89378 17.0961C1.87384 16.6975 1.99118 16.2936 2.24169 15.9615C2.49044 15.6316 2.8601 15.389 3.29402 15.3077C4.02471 15.1654 4.70481 14.7437 5.19737 14.0909L5.21314 14.07L5.22963 14.0497C5.44688 13.7818 5.63866 13.4904 5.80228 13.1786C5.71944 13.1509 5.59972 13.1097 5.48796 13.0621C5.26829 12.9696 4.88527 12.79 4.54426 12.5028C4.23932 12.2459 3.59888 11.5757 3.77996 10.5631L3.80252 10.4369L3.84617 10.3164C4.00348 9.88196 4.29048 9.49402 4.68344 9.21874C5.06564 8.95099 5.52564 8.80651 6.0016 8.81636C6.0094 8.81638 6.01719 8.81645 6.02498 8.81656C5.99748 7.75016 6.11429 6.68188 6.37426 5.64643L6.40059 5.54154L6.4417 5.44151C6.92001 4.27767 7.71572 3.27474 8.74319 2.56867C9.76748 1.86478 10.9733 1.49021 12.2105 1.50297L12.5546 1.50048C13.7966 1.48465 15.0078 1.85879 16.0365 2.56451C17.0653 3.27031 17.8624 4.27327 18.3422 5.43754L18.3839 5.53851L18.4104 5.64443C18.6691 6.67683 18.786 7.74065 18.7594 8.80338C18.7621 8.8034 18.7648 8.80341 18.7674 8.80344C19.0491 8.80467 19.3245 8.85704 19.583 8.95547C19.9508 9.07505 20.2717 9.29338 20.5173 9.577C20.7907 9.89287 20.9608 10.2773 21.0187 10.678L21.0321 10.771L21.0339 10.865C21.0546 11.9945 20.1842 12.6883 19.294 13.0632L19.2822 13.0681C19.1793 13.1104 19.069 13.1493 18.9759 13.1806C19.2253 13.6671 19.5556 14.0954 19.947 14.445C20.4228 14.87 20.9761 15.1676 21.5624 15.3228C21.9669 15.4171 22.3104 15.6525 22.545 15.9658C22.7935 16.2976 22.9096 16.7002 22.8894 17.0975L22.8891 17.1036C22.8777 17.3093 22.8334 17.5136 22.7552 17.7071ZM21.3638 17.1451C21.3796 17.1058 21.389 17.0639 21.3913 17.0212C21.3942 16.9648 21.3775 16.9092 21.3444 16.865C21.3113 16.8208 21.2642 16.7911 21.2119 16.7816C21.0965 16.7519 20.9822 16.7182 20.8692 16.6808L20.8652 16.6795C20.6027 16.5923 20.3471 16.4847 20.1004 16.3577C20.0748 16.3445 20.0494 16.3312 20.024 16.3176C19.6403 16.1122 19.279 15.8596 18.9477 15.5637C18.2913 14.9773 17.7709 14.2372 17.4274 13.4011L17.4225 13.3893C17.3494 13.2617 17.3034 13.1185 17.2877 12.9699C17.272 12.8214 17.2869 12.6709 17.3315 12.5291C17.3991 12.3584 17.5285 12.2248 17.6838 12.1178C17.7003 12.1065 17.7171 12.0954 17.7341 12.0846C17.9651 11.9385 18.2419 11.845 18.4574 11.7724C18.4708 11.7679 18.4841 11.7635 18.4973 11.759C18.5005 11.7579 18.5037 11.7569 18.5069 11.7558C18.5109 11.7544 18.5149 11.7531 18.5189 11.7517C18.5905 11.7273 18.6571 11.7032 18.7118 11.6807C18.7207 11.677 18.7294 11.6733 18.7381 11.6696C18.744 11.667 18.7499 11.6645 18.7557 11.6619L18.7573 11.6612C18.8563 11.6179 18.9433 11.5745 19.0196 11.5313C19.0425 11.5183 19.0643 11.5054 19.0853 11.4925C19.4524 11.2667 19.537 11.0495 19.5341 10.8926C19.5161 10.7678 19.4635 10.6516 19.3832 10.5588C19.3028 10.4659 19.1983 10.4007 19.083 10.3715L19.0781 10.3689C18.9761 10.3257 18.8679 10.3034 18.7573 10.3034C18.7212 10.3029 18.6852 10.3055 18.6497 10.311C18.5904 10.3203 18.5323 10.338 18.4771 10.3636C18.3932 10.4088 18.307 10.4483 18.219 10.4821C18.2156 10.4834 18.2121 10.4847 18.2087 10.486C18.1912 10.4926 18.1736 10.499 18.1559 10.5051C18.1384 10.5112 18.1208 10.5171 18.1031 10.5228C18.0849 10.5286 18.0665 10.5342 18.0481 10.5396L18.0428 10.5411C17.9037 10.5813 17.761 10.6074 17.6167 10.6189C17.5334 10.6208 17.4514 10.6079 17.3735 10.5814C17.2893 10.5527 17.21 10.508 17.1398 10.4487L17.168 9.93944L17.1717 9.87791C17.345 8.58594 17.2714 7.27 16.9554 6.00907C16.5825 5.10428 15.9678 4.33646 15.1879 3.80142C14.408 3.26637 13.4974 2.98778 12.5699 3.00041L12.2073 3.00303C11.2807 2.99093 10.3714 3.26983 9.59273 3.8049C8.8141 4.33998 8.20069 5.10752 7.8291 6.01169C7.51322 7.26988 7.43947 8.58568 7.61155 9.87529C7.62344 10.0664 7.6345 10.2575 7.64473 10.4487C7.57415 10.5077 7.49501 10.5525 7.4112 10.5817C7.31774 10.6144 7.21845 10.6278 7.11867 10.6203C6.98924 10.6144 6.86063 10.5963 6.73452 10.5664C6.73235 10.5659 6.73018 10.5654 6.72801 10.5649C6.71628 10.5621 6.70456 10.5591 6.69287 10.5561C6.65203 10.5456 6.61148 10.5338 6.57126 10.5207C6.56787 10.5196 6.56449 10.5185 6.5611 10.5174C6.55196 10.5144 6.54283 10.5113 6.53373 10.5082C6.42145 10.4695 6.31201 10.4212 6.20665 10.3636C6.18378 10.3528 6.16027 10.3438 6.1363 10.3367C6.08735 10.3221 6.0365 10.3153 5.98541 10.3165C5.82909 10.31 5.67478 10.3557 5.54408 10.4473C5.41338 10.5388 5.31284 10.6716 5.25654 10.8271C5.21225 11.0748 5.39405 11.2819 5.61931 11.4384C5.63911 11.4522 5.65925 11.4655 5.6796 11.4785C5.76274 11.5315 5.84941 11.5779 5.93115 11.6172C5.96093 11.6315 5.99007 11.6448 6.01814 11.6572C6.03683 11.6655 6.05505 11.6733 6.07268 11.6807C6.12771 11.7044 6.19487 11.7281 6.26702 11.7523C6.28673 11.759 6.30681 11.7657 6.32711 11.7724C6.52944 11.8407 6.78722 11.9278 7.00955 12.0598C7.02389 12.0684 7.03808 12.0771 7.0521 12.086C7.07015 12.0974 7.08791 12.1092 7.10534 12.1213C7.25859 12.2277 7.38613 12.3602 7.45299 12.5291C7.49748 12.6712 7.51229 12.8219 7.49636 12.9707C7.48044 13.1196 7.43417 13.2629 7.36081 13.3906L7.35712 13.4011C7.10761 13.9785 6.78434 14.514 6.39471 14.9945C5.96497 15.5639 5.42689 16.0216 4.82163 16.3412C4.78538 16.3604 4.74888 16.379 4.71215 16.3972C4.35187 16.5752 3.96924 16.7051 3.57263 16.7816C3.52011 16.7909 3.47265 16.8204 3.43931 16.8646C3.40598 16.9088 3.38911 16.9646 3.39195 17.0212C3.39443 17.0641 3.404 17.1062 3.42022 17.1456C3.46356 17.2533 3.5544 17.3559 3.691 17.4527C3.69519 17.4557 3.69942 17.4587 3.7037 17.4616C3.90358 17.5999 4.19743 17.726 4.58013 17.8378C4.69446 17.8712 4.81673 17.9033 4.9468 17.934C5.17908 17.989 5.43623 18.0396 5.71746 18.0856C5.84283 18.1066 5.89568 18.3252 5.96943 18.6826C5.99829 18.8323 6.03232 18.9808 6.07145 19.1278C6.08535 19.1957 6.1225 19.2558 6.17566 19.2962C6.22882 19.3366 6.2942 19.3545 6.35907 19.3464C6.4878 19.339 6.6157 19.3197 6.74132 19.2888C7.07319 19.2116 7.40997 19.171 7.74921 19.167C7.99303 19.1677 8.23639 19.1895 8.47686 19.2325C8.98402 19.3696 9.45576 19.6265 9.85717 19.984C10.5353 20.6008 11.3876 20.9584 12.2786 21C12.3085 21.0001 12.3384 20.9987 12.3683 20.9961C12.4052 20.9987 12.4543 21 12.5059 21C13.3968 20.958 14.249 20.6005 14.9273 19.984C15.3293 19.6253 15.8 19.37 16.3076 19.2325C16.5486 19.1893 16.7907 19.167 17.0353 19.167C17.3744 19.1683 17.7125 19.206 18.0444 19.2796C18.1697 19.3092 18.2972 19.3267 18.4254 19.332H18.4463C18.5074 19.3375 18.5683 19.319 18.6175 19.2799C18.6666 19.2408 18.7006 19.1839 18.7131 19.1199C18.7536 18.9693 18.7856 18.8253 18.8151 18.6787C18.8876 18.3226 18.9417 18.1052 19.067 18.0843C19.3731 18.0339 19.6506 17.9782 19.8985 17.9176C20.0053 17.8915 20.1066 17.8644 20.2023 17.8365C20.5535 17.7342 20.83 17.6199 21.0279 17.4954C21.0491 17.482 21.0695 17.4685 21.0889 17.4549C21.1304 17.4259 21.1678 17.3962 21.201 17.3661C21.2783 17.2959 21.3327 17.2229 21.3636 17.1473L21.3638 17.1451Z" fill="black"/>
</svg>
