<svg width="25" height="24" viewBox="0 0 25 24" fill="none" xmlns="http://www.w3.org/2000/svg">
<path d="M11.507 4.66668C11.507 5.134 11.1282 5.51283 10.6609 5.51283C10.1935 5.51283 9.8147 5.134 9.8147 4.66668C9.8147 4.19936 10.1935 3.82053 10.6609 3.82053C11.1282 3.82053 11.507 4.19936 11.507 4.66668Z" fill="black"/>
<path d="M14.0455 5.51283C14.5128 5.51283 14.8916 5.134 14.8916 4.66668C14.8916 4.19936 14.5128 3.82053 14.0455 3.82053C13.5782 3.82053 13.1993 4.19936 13.1993 4.66668C13.1993 5.134 13.5782 5.51283 14.0455 5.51283Z" fill="black"/>
<path fill-rule="evenodd" clip-rule="evenodd" d="M6.74591 0.46967C7.03881 0.176777 7.51368 0.176777 7.80658 0.46967L9.03433 1.69742C9.9752 1.13641 11.0749 0.814117 12.2499 0.814117H12.4563C13.6313 0.814117 14.7311 1.13642 15.672 1.69744L16.8997 0.46967C17.1926 0.176777 17.6675 0.176777 17.9604 0.46967C18.2533 0.762563 18.2533 1.23744 17.9604 1.53033L16.8686 2.62213C17.907 3.645 18.5915 5.02619 18.7216 6.56528C18.9362 6.49383 19.1658 6.45514 19.4044 6.45514C20.5975 6.45514 21.5647 7.42232 21.5647 8.61539V13.6923C21.5647 14.8854 20.5975 15.8526 19.4044 15.8526C19.1741 15.8526 18.9523 15.8165 18.7441 15.7498V17.6154C18.7441 18.5277 18.2999 19.3362 17.6159 19.8365V21.3077C17.6159 22.6565 16.5225 23.75 15.1736 23.75C13.8248 23.75 12.7313 22.6565 12.7313 21.3077V20.3654H11.9749V21.3077C11.9749 22.6565 10.8815 23.75 9.53264 23.75C8.18379 23.75 7.09033 22.6565 7.09033 21.3077V19.8365C6.40635 19.3363 5.9621 18.5277 5.9621 17.6154V15.7498C5.75399 15.8165 5.53213 15.8526 5.30186 15.8526C4.10878 15.8526 3.1416 14.8854 3.1416 13.6923V8.6154C3.1416 7.42232 4.10878 6.45514 5.30186 6.45514C5.54048 6.45514 5.77006 6.49383 5.98468 6.56528C6.11477 5.02617 6.79925 3.64497 7.83769 2.62211L6.74591 1.53033C6.45302 1.23744 6.45302 0.762563 6.74591 0.46967ZM7.7107 7.95514C7.57327 7.95589 7.4621 8.06753 7.4621 8.20514V8.60669L7.46211 8.61539V13.6923L7.4621 13.701V17.6154C7.4621 18.3043 8.01936 18.863 8.70768 18.8654H15.9986C16.6869 18.863 17.2441 18.3043 17.2441 17.6154V13.6981L17.2441 13.6923V8.6154L17.2441 8.60959V8.20514C17.2441 8.06753 17.133 7.95589 16.9955 7.95514H7.7107ZM16.9978 6.45514H17.2008C16.885 4.1168 14.8812 2.31412 12.4563 2.31412H12.2499C9.82505 2.31412 7.8212 4.1168 7.50542 6.45514H7.7084L7.7121 6.45514H16.9941L16.9978 6.45514ZM14.2313 21.3077V20.3654L15.9941 20.3654L16.0007 20.3654H16.1159V21.3077C16.1159 21.8281 15.6941 22.25 15.1736 22.25C14.6532 22.25 14.2313 21.8281 14.2313 21.3077ZM8.70555 20.3654L8.7121 20.3654L10.4749 20.3654V21.3077C10.4749 21.8281 10.0531 22.25 9.53264 22.25C9.01222 22.25 8.59033 21.8281 8.59033 21.3077V20.3654H8.70555ZM19.4044 14.3526C19.0408 14.3526 18.7459 14.0587 18.7441 13.6955V8.61219C18.7459 8.24901 19.0408 7.95514 19.4044 7.95514C19.769 7.95514 20.0647 8.25075 20.0647 8.61539V13.6923C20.0647 14.057 19.769 14.3526 19.4044 14.3526ZM5.9621 8.61058C5.95951 8.24815 5.6649 7.95514 5.30186 7.95514C4.93721 7.95514 4.6416 8.25075 4.6416 8.6154V13.6923C4.6416 14.057 4.93721 14.3526 5.30186 14.3526C5.6649 14.3526 5.95951 14.0596 5.9621 13.6971V8.61058Z" fill="black"/>
</svg>
