<svg width="25" height="24" viewBox="0 0 25 24" fill="none" xmlns="http://www.w3.org/2000/svg">
<path d="M16.9665 7.25C17.0282 7.5947 16.9484 7.93083 16.6282 7.96106L16.0969 8.05695L15.8762 16.374C15.4083 16.6242 14.9826 16.7615 14.6312 16.7492C14.0645 16.7295 13.9278 16.5344 13.5208 15.9534L10.2156 10.0074L10.066 15.643L11.154 15.9474C11.154 15.9474 11.1359 16.6282 10.2534 16.5975L7.81398 16.6647C7.74717 16.5103 7.8281 16.1328 8.07828 16.0685L8.71812 15.9003L8.91585 8.45078L8.0354 8.34408C7.97364 7.99938 8.16406 7.515 8.65759 7.49445L11.2749 7.39509L14.7195 13.4217L14.8581 8.20063L13.943 8.0544C13.8831 7.63736 14.1718 7.34318 14.5269 7.32025L16.9665 7.25Z" fill="black"/>
<path fill-rule="evenodd" clip-rule="evenodd" d="M17.6498 2.83303C14.1832 2.44559 10.5999 2.44559 7.13331 2.83303C5.12125 3.05791 3.49692 4.64292 3.26037 6.66545C2.84583 10.2097 2.84583 13.7903 3.26037 17.3346C3.49692 19.3571 5.12125 20.9421 7.13331 21.167C10.5999 21.5544 14.1832 21.5544 17.6498 21.167C19.6618 20.9421 21.2862 19.3571 21.5227 17.3346C21.9373 13.7903 21.9373 10.2097 21.5227 6.66545C21.2862 4.64292 19.6619 3.05791 17.6498 2.83303ZM7.29992 4.32375C10.6558 3.94868 14.1273 3.94868 17.4832 4.32375C18.8133 4.47241 19.8788 5.52202 20.0329 6.8397C20.4339 10.2682 20.4339 13.7318 20.0329 17.1603C19.8788 18.478 18.8133 19.5276 17.4832 19.6763C14.1273 20.0513 10.6558 20.0513 7.29992 19.6763C5.96981 19.5276 4.90433 18.478 4.75021 17.1603C4.34921 13.7318 4.34921 10.2682 4.75021 6.8397C4.90433 5.52202 5.96981 4.47241 7.29992 4.32375Z" fill="black"/>
</svg>
