<svg width="25" height="24" viewBox="0 0 25 24" fill="none" xmlns="http://www.w3.org/2000/svg">
<path fill-rule="evenodd" clip-rule="evenodd" d="M14.1999 8.44743C13.0074 8.31416 11.7757 8.31416 10.5833 8.44743C9.68531 8.5478 8.95758 9.2546 8.85125 10.1637C8.70856 11.3838 8.70856 12.6163 8.85125 13.8363C8.95758 14.7454 9.68531 15.4522 10.5833 15.5526C11.7757 15.6858 13.0074 15.6858 14.1999 15.5526C15.0979 15.4522 15.8256 14.7454 15.9319 13.8363C16.0746 12.6163 16.0746 11.3838 15.9319 10.1637C15.8256 9.2546 15.0979 8.5478 14.1999 8.44743ZM10.7499 9.93815C11.8316 9.81726 12.9516 9.81726 14.0333 9.93815C14.2493 9.9623 14.4182 10.1337 14.4421 10.338C14.5712 11.4422 14.5712 12.5578 14.4421 13.662C14.4182 13.8663 14.2493 14.0377 14.0333 14.0619C12.9516 14.1827 11.8316 14.1827 10.7499 14.0619C10.5339 14.0377 10.365 13.8663 10.3411 13.662C10.2119 12.5578 10.2119 11.4422 10.3411 10.338C10.365 10.1337 10.5339 9.9623 10.7499 9.93815Z" fill="black"/>
<path fill-rule="evenodd" clip-rule="evenodd" d="M16.1416 3C16.1416 2.58579 15.8058 2.25 15.3916 2.25C14.9774 2.25 14.6416 2.58579 14.6416 3V5.52362C14.1433 5.48862 13.6428 5.4653 13.1416 5.45366V4C13.1416 3.58579 12.8058 3.25 12.3916 3.25C11.9774 3.25 11.6416 3.58579 11.6416 4V5.45366C11.1404 5.4653 10.6399 5.48862 10.1416 5.52362V3C10.1416 2.58579 9.80582 2.25 9.3916 2.25C8.97739 2.25 8.6416 2.58579 8.6416 3V5.67203C7.34166 5.9088 6.30411 6.93591 6.07951 8.25H3.3916C2.97739 8.25 2.6416 8.58579 2.6416 9C2.6416 9.41421 2.97739 9.75 3.3916 9.75H5.929C5.89249 10.2495 5.86815 10.7496 5.85599 11.25H4.3916C3.97739 11.25 3.6416 11.5858 3.6416 12C3.6416 12.4142 3.97739 12.75 4.3916 12.75H5.85599C5.86815 13.2504 5.89249 13.7505 5.929 14.25H3.3916C2.97739 14.25 2.6416 14.5858 2.6416 15C2.6416 15.4142 2.97739 15.75 3.3916 15.75H6.07951C6.30411 17.0641 7.34166 18.0912 8.6416 18.328V21C8.6416 21.4142 8.97739 21.75 9.3916 21.75C9.80582 21.75 10.1416 21.4142 10.1416 21V18.4764C10.6399 18.5114 11.1404 18.5347 11.6416 18.5463V20C11.6416 20.4142 11.9774 20.75 12.3916 20.75C12.8058 20.75 13.1416 20.4142 13.1416 20V18.5463C13.6428 18.5347 14.1433 18.5114 14.6416 18.4764V21C14.6416 21.4142 14.9774 21.75 15.3916 21.75C15.8058 21.75 16.1416 21.4142 16.1416 21V18.328C17.4415 18.0912 18.4791 17.0641 18.7037 15.75H21.3916C21.8058 15.75 22.1416 15.4142 22.1416 15C22.1416 14.5858 21.8058 14.25 21.3916 14.25H18.8542C18.8907 13.7505 18.9151 13.2504 18.9272 12.75H20.3916C20.8058 12.75 21.1416 12.4142 21.1416 12C21.1416 11.5858 20.8058 11.25 20.3916 11.25H18.9272C18.9151 10.7496 18.8907 10.2495 18.8542 9.75H21.3916C21.8058 9.75 22.1416 9.41421 22.1416 9C22.1416 8.58579 21.8058 8.25 21.3916 8.25H18.7037C18.4791 6.93591 17.4415 5.90879 16.1416 5.67203V3ZM9.02495 7.13094C11.2437 6.88296 13.5395 6.88296 15.7583 7.13094C16.5313 7.21734 17.1485 7.82785 17.2375 8.58883C17.5026 10.8552 17.5026 13.1448 17.2375 15.4112C17.1485 16.1721 16.5313 16.7827 15.7583 16.8691C13.5395 17.117 11.2437 17.117 9.02495 16.8691C8.25187 16.7827 7.63469 16.1721 7.54568 15.4112C7.28061 13.1448 7.28061 10.8552 7.54568 8.58883C7.63469 7.82785 8.25187 7.21734 9.02495 7.13094Z" fill="black"/>
</svg>
