<svg width="25" height="24" viewBox="0 0 25 24" fill="none" xmlns="http://www.w3.org/2000/svg">
<path fill-rule="evenodd" clip-rule="evenodd" d="M14.0558 6.34311C14.0558 6.75732 14.3916 7.09311 14.8058 7.09311L17.2984 7.09311V9.58575C17.2984 9.99996 17.6342 10.3357 18.0484 10.3358C18.4626 10.3357 18.7984 9.99996 18.7984 9.58575V6.34311C18.7984 5.9289 18.4626 5.59311 18.0484 5.59311L14.8058 5.59311C14.3916 5.59311 14.0558 5.9289 14.0558 6.34311Z" fill="black"/>
<path fill-rule="evenodd" clip-rule="evenodd" d="M18.0484 13.6642C17.6342 13.6642 17.2984 14 17.2984 14.4142L17.2984 16.9068L14.8058 16.9068C14.3915 16.9068 14.0558 17.2426 14.0558 17.6568C14.0558 18.071 14.3915 18.4068 14.8058 18.4068L18.0484 18.4068C18.4626 18.4068 18.7984 18.071 18.7984 17.6568L18.7984 14.4142C18.7984 14 18.4626 13.6642 18.0484 13.6642Z" fill="black"/>
<path fill-rule="evenodd" clip-rule="evenodd" d="M6.73471 13.6642C7.14892 13.6642 7.48471 14 7.48471 14.4142L7.48471 16.9068L9.97735 16.9068C10.3916 16.9068 10.7273 17.2426 10.7273 17.6568C10.7273 18.071 10.3916 18.4068 9.97735 18.4068L6.73471 18.4068C6.32049 18.4068 5.98471 18.071 5.98471 17.6568L5.98471 14.4142C5.98471 14 6.32049 13.6642 6.73471 13.6642Z" fill="black"/>
<path fill-rule="evenodd" clip-rule="evenodd" d="M10.7273 6.34311C10.7273 6.75732 10.3915 7.09311 9.97732 7.09311L7.48468 7.09311L7.48468 9.58575C7.48468 9.99996 7.14889 10.3358 6.73468 10.3358C6.32047 10.3357 5.98468 9.99996 5.98468 9.58575L5.98468 6.34311C5.98468 5.9289 6.32047 5.59311 6.73468 5.59311L9.97732 5.59311C10.3915 5.59311 10.7273 5.9289 10.7273 6.34311Z" fill="black"/>
</svg>
