<svg width="25" height="24" viewBox="0 0 25 24" fill="none" xmlns="http://www.w3.org/2000/svg">
<path fill-rule="evenodd" clip-rule="evenodd" d="M7.64162 7.25V7.13012C7.64162 4.96238 9.10923 3.06964 11.2087 2.52979C11.9847 2.33024 12.7986 2.33024 13.5746 2.52979C15.674 3.06964 17.1416 4.96238 17.1416 7.13013V7.25H18.6427C19.214 7.25 19.6989 7.66898 19.7817 8.23423L20.0004 9.72668C20.4309 12.6651 20.4309 15.6507 20.0004 18.5891C19.7924 20.0081 18.6481 21.1052 17.2216 21.2531L16.5927 21.3183C13.7995 21.608 10.9837 21.608 8.19049 21.3183L7.56162 21.2531C6.13508 21.1052 4.99079 20.0081 4.78287 18.5891C4.35232 15.6507 4.35233 12.6651 4.78287 9.72668L5.00154 8.23423C5.08436 7.66898 5.56921 7.25 6.14049 7.25H7.64162ZM11.5822 3.98252C12.1132 3.84599 12.67 3.84599 13.201 3.98252C14.6375 4.3519 15.6416 5.64693 15.6416 7.13013V7.25H9.14162V7.13012C9.14162 5.64693 10.1458 4.3519 11.5822 3.98252ZM7.64162 8.75V11C7.64162 11.4142 7.9774 11.75 8.39162 11.75C8.80583 11.75 9.14162 11.4142 9.14162 11V8.75H15.6416V11C15.6416 11.4142 15.9774 11.75 16.3916 11.75C16.8058 11.75 17.1416 11.4142 17.1416 11V8.75H18.3412L18.5162 9.94414C18.9256 12.7384 18.9256 15.5774 18.5162 18.3717C18.4078 19.1118 17.8109 19.684 17.0669 19.7611L16.438 19.8264C13.7476 20.1054 11.0356 20.1054 8.34521 19.8264L7.71634 19.7611C6.9723 19.684 6.37547 19.1118 6.26702 18.3717C5.85761 15.5774 5.85761 12.7384 6.26702 9.94414L6.44199 8.75H7.64162Z" fill="black"/>
</svg>
