<svg width="25" height="24" viewBox="0 0 25 24" fill="none" xmlns="http://www.w3.org/2000/svg">
<path fill-rule="evenodd" clip-rule="evenodd" d="M8.63127 4.87594C8.57406 4.53491 8.2911 4.27719 7.94622 4.25201C7.60134 4.22683 7.28395 4.4407 7.17781 4.76981L5.08787 11.25H2.3916C1.97739 11.25 1.6416 11.5858 1.6416 12C1.6416 12.4142 1.97739 12.75 2.3916 12.75H5.63403C5.95955 12.75 6.24791 12.54 6.34782 12.2302L7.66097 8.15859L9.50042 19.1241C9.55839 19.4697 9.84794 19.7291 10.1978 19.7488C10.5477 19.7686 10.8646 19.5434 10.9611 19.2066L13.3906 10.7266L14.6705 15.2061C14.7529 15.4947 14.9996 15.7064 15.2975 15.7441C15.5953 15.7818 15.887 15.6382 16.0387 15.3791L17.579 12.75H18.7451C19.0716 13.9043 20.1328 14.75 21.3916 14.75C22.9104 14.75 24.1416 13.5188 24.1416 12C24.1416 10.4812 22.9104 9.25002 21.3916 9.25002C20.1328 9.25002 19.0716 10.0958 18.7451 11.25H17.1492C16.8829 11.25 16.6366 11.3912 16.5021 11.6209L15.631 13.1078L14.1127 7.79398C14.0208 7.4721 13.7266 7.25014 13.3919 7.25002C13.0571 7.24989 12.7628 7.47164 12.6706 7.79345L10.4316 15.6084L8.63127 4.87594ZM20.1416 12C20.1416 11.3097 20.7012 10.75 21.3916 10.75C22.082 10.75 22.6416 11.3097 22.6416 12C22.6416 12.6904 22.082 13.25 21.3916 13.25C20.7012 13.25 20.1416 12.6904 20.1416 12Z" fill="black"/>
</svg>
