<svg width="25" height="24" viewBox="0 0 25 24" fill="none" xmlns="http://www.w3.org/2000/svg">
<path fill-rule="evenodd" clip-rule="evenodd" d="M13.7451 8.75H4.3916C3.97739 8.75 3.6416 8.41421 3.6416 8C3.6416 7.58579 3.97739 7.25 4.3916 7.25H13.7451C14.0716 6.09575 15.1328 5.25 16.3916 5.25C17.6504 5.25 18.7116 6.09575 19.0381 7.25H20.3916C20.8058 7.25 21.1416 7.58579 21.1416 8C21.1416 8.41421 20.8058 8.75 20.3916 8.75H19.0381C18.7116 9.90425 17.6504 10.75 16.3916 10.75C15.1328 10.75 14.0716 9.90425 13.7451 8.75ZM15.1416 8C15.1416 7.30964 15.7012 6.75 16.3916 6.75C17.082 6.75 17.6416 7.30964 17.6416 8C17.6416 8.69036 17.082 9.25 16.3916 9.25C15.7012 9.25 15.1416 8.69036 15.1416 8Z" fill="black"/>
<path fill-rule="evenodd" clip-rule="evenodd" d="M11.0381 16.75H20.3916C20.8058 16.75 21.1416 16.4142 21.1416 16C21.1416 15.5858 20.8058 15.25 20.3916 15.25H11.0381C10.7116 14.0957 9.65038 13.25 8.3916 13.25C7.13282 13.25 6.07158 14.0957 5.74512 15.25H4.3916C3.97739 15.25 3.6416 15.5858 3.6416 16C3.6416 16.4142 3.97739 16.75 4.3916 16.75H5.74512C6.07158 17.9043 7.13282 18.75 8.3916 18.75C9.65038 18.75 10.7116 17.9043 11.0381 16.75ZM7.1416 16C7.1416 15.3096 7.70125 14.75 8.3916 14.75C9.08196 14.75 9.6416 15.3096 9.6416 16C9.6416 16.6904 9.08196 17.25 8.3916 17.25C7.70125 17.25 7.1416 16.6904 7.1416 16Z" fill="black"/>
</svg>
