<svg width="25" height="24" viewBox="0 0 25 24" fill="none" xmlns="http://www.w3.org/2000/svg">
<path fill-rule="evenodd" clip-rule="evenodd" d="M11.6398 15.5L10.9688 13.399H8.61483L7.97683 15.5H6.57983L8.95583 8.086H10.6828L13.0918 15.5H11.6398ZM9.40683 10.55L8.83483 12.376H10.7378L10.1548 10.55C10.0391 10.185 9.93777 9.78393 9.84502 9.41683C9.82318 9.33037 9.8018 9.24578 9.78083 9.164H9.75883C9.72114 9.31099 9.68345 9.46831 9.64488 9.62933C9.57087 9.93825 9.49361 10.2608 9.40683 10.55Z" fill="black"/>
<path fill-rule="evenodd" clip-rule="evenodd" d="M18.0753 12.629C18.0753 12.882 18.0533 13.08 18.0313 13.201H14.4454C14.4783 14.169 15.2373 14.587 16.0953 14.587C16.7223 14.587 17.1733 14.499 17.5803 14.345L17.7783 15.28C17.3163 15.467 16.6783 15.621 15.9083 15.621C14.1703 15.621 13.1474 14.543 13.1474 12.904C13.1474 11.419 14.0493 10.022 15.7653 10.022C17.5143 10.022 18.0753 11.452 18.0753 12.629ZM15.6883 10.946C14.8523 10.946 14.5003 11.705 14.4454 12.255H16.7993C16.8103 11.76 16.5903 10.946 15.6883 10.946Z" fill="black"/>
<path fill-rule="evenodd" clip-rule="evenodd" d="M17.6498 2.83303C14.1832 2.44559 10.5999 2.44559 7.13331 2.83303C5.12125 3.05791 3.49692 4.64292 3.26037 6.66545C2.84583 10.2097 2.84583 13.7903 3.26037 17.3346C3.49692 19.3571 5.12125 20.9421 7.13331 21.167C10.5999 21.5544 14.1832 21.5544 17.6498 21.167C19.6618 20.9421 21.2862 19.3571 21.5227 17.3346C21.9373 13.7903 21.9373 10.2097 21.5227 6.66545C21.2862 4.64292 19.6619 3.05791 17.6498 2.83303ZM7.29992 4.32375C10.6558 3.94868 14.1273 3.94868 17.4832 4.32375C18.8133 4.47241 19.8788 5.52202 20.0329 6.8397C20.4339 10.2682 20.4339 13.7318 20.0329 17.1603C19.8788 18.478 18.8133 19.5276 17.4832 19.6763C14.1273 20.0513 10.6558 20.0513 7.29992 19.6763C5.96981 19.5276 4.90433 18.478 4.75021 17.1603C4.34921 13.7318 4.34921 10.2682 4.75021 6.8397C4.90433 5.52202 5.96981 4.47241 7.29992 4.32375Z" fill="black"/>
</svg>
