<svg width="25" height="24" viewBox="0 0 25 24" fill="none" xmlns="http://www.w3.org/2000/svg">
<path d="M2.6416 10.0298C2.6416 7.3293 5.01074 5.25 7.7916 5.25C9.22507 5.25 10.4864 5.92214 11.3916 6.79183C12.2968 5.92214 13.5581 5.25 14.9916 5.25C17.7725 5.25 20.1416 7.3293 20.1416 10.0298C20.1416 10.1922 20.1355 10.3528 20.1237 10.5117C20.1124 10.6637 19.9835 10.7778 19.8311 10.7778H18.9339C18.7503 10.7778 18.6105 10.6144 18.6253 10.4314C18.6361 10.2984 18.6416 10.1646 18.6416 10.0298C18.6416 8.2791 17.0708 6.75 14.9916 6.75C13.7975 6.75 12.6824 7.46342 11.9862 8.36892C11.8442 8.55356 11.6245 8.66176 11.3916 8.66176C11.1587 8.66176 10.939 8.55356 10.797 8.36892C10.1008 7.46342 8.98575 6.75 7.7916 6.75C5.71235 6.75 4.1416 8.2791 4.1416 10.0298C4.1416 11.4333 4.73739 12.74 5.69769 13.9482C6.65988 15.1588 7.95453 16.2269 9.26234 17.133C9.75722 17.4758 10.2233 17.7675 10.6221 17.9706C11.0502 18.1886 11.2983 18.25 11.3916 18.25C11.4849 18.25 11.733 18.1886 12.1612 17.9706C12.5599 17.7675 13.026 17.4758 13.5209 17.133C13.9468 16.8378 14.3714 16.5255 14.7836 16.1967C14.9291 16.0806 15.1448 16.1197 15.2373 16.2812L15.689 17.0695C15.7622 17.1974 15.7319 17.3597 15.6162 17.4509C15.2042 17.7756 14.7869 18.0807 14.3751 18.366C13.8531 18.7276 13.3251 19.0611 12.8419 19.3072C12.3881 19.5383 11.8663 19.75 11.3916 19.75C10.9169 19.75 10.3951 19.5383 9.94133 19.3072C9.45808 19.0611 8.93006 18.7276 8.40813 18.366C7.04165 17.4193 5.61447 16.2543 4.52342 14.8815C3.43048 13.5064 2.6416 11.8797 2.6416 10.0298Z" fill="black"/>
<path d="M15.1984 9.68751C15.0908 9.45272 14.8699 9.28982 14.6138 9.25633C14.3577 9.22285 14.1024 9.32349 13.9381 9.52272L11.8714 12.0278H10.3916C9.97739 12.0278 9.6416 12.3636 9.6416 12.7778C9.6416 13.192 9.97739 13.5278 10.3916 13.5278H12.2249C12.4488 13.5278 12.661 13.4278 12.8035 13.2551L14.3335 11.4005L16.1265 15.3125C16.2341 15.5473 16.4549 15.7102 16.711 15.7437C16.9671 15.7772 17.2224 15.6765 17.3868 15.4773L18.9951 13.5278H21.3916C21.8058 13.5278 22.1416 13.192 22.1416 12.7778C22.1416 12.3636 21.8058 12.0278 21.3916 12.0278H18.6416C18.4177 12.0278 18.2055 12.1278 18.0631 12.3005L16.9914 13.5995L15.1984 9.68751Z" fill="black"/>
</svg>
