<svg width="25" height="24" viewBox="0 0 25 24" fill="none" xmlns="http://www.w3.org/2000/svg">
<path fill-rule="evenodd" clip-rule="evenodd" d="M7.05586 4.41425C7.05586 4.00003 7.39165 3.66425 7.80586 3.66425H10.6343C11.0485 3.66425 11.3843 4.00003 11.3843 4.41425C11.3843 4.82846 11.0485 5.16425 10.6343 5.16425H9.61652L12.2149 7.76259C12.3125 7.86023 12.4708 7.86023 12.5684 7.7626L16.4471 3.88392C16.74 3.59102 17.2149 3.59102 17.5078 3.88392C17.8007 4.17681 17.8007 4.65168 17.5078 4.94458L13.6291 8.82326C12.9457 9.50667 11.8376 9.50667 11.1542 8.82325L8.55586 6.22491V7.24267C8.55586 7.65689 8.22007 7.99267 7.80586 7.99267C7.39165 7.99267 7.05586 7.65689 7.05586 7.24267V4.41425Z" fill="black"/>
<path fill-rule="evenodd" clip-rule="evenodd" d="M18.3635 13.5722C14.3477 12.084 9.91083 12.1451 5.92957 13.7553L5.917 13.7603L5.13616 14.0597C4.14199 14.441 3.55124 15.467 3.72057 16.5183L4.06662 18.6666C4.08775 18.7978 4.20787 18.8895 4.34002 18.8754L7.18226 18.5714C7.32356 18.5563 7.42386 18.4266 7.40295 18.286L7.18904 16.8476C7.13709 16.4983 7.3359 16.16 7.66638 16.0355C10.7029 14.891 14.0627 14.891 17.0992 16.0355C17.4297 16.16 17.6285 16.4983 17.5766 16.8476L17.3627 18.286C17.3418 18.4266 17.4421 18.5563 17.5834 18.5714L20.426 18.8754C20.5581 18.8896 20.6782 18.7979 20.6994 18.6667L21.0481 16.5076C21.2189 15.4498 20.6201 14.4182 19.6168 14.0421L18.3648 13.5727L18.3635 13.5722ZM5.37351 12.3621C9.70073 10.6138 14.5221 10.5485 18.8862 12.1662L18.8888 12.1672L20.1434 12.6375C21.8156 13.2645 22.8136 14.9837 22.5289 16.7467L22.1802 18.9059C22.0319 19.8241 21.1913 20.4658 20.2665 20.3669L17.4238 20.0629C16.4348 19.9571 15.7327 19.0492 15.879 18.0654L16.0016 17.2411C13.6502 16.4891 11.1154 16.4891 8.76406 17.2411L8.88664 18.0654C9.03295 19.0492 8.33084 19.9571 7.3418 20.0629L4.49956 20.3669C3.57446 20.4658 2.73366 19.8236 2.5857 18.9051L2.23966 16.7568C1.95744 15.0048 2.94203 13.2947 4.59898 12.6592L5.37351 12.3621Z" fill="black"/>
</svg>
