<svg width="25" height="24" viewBox="0 0 25 24" fill="none" xmlns="http://www.w3.org/2000/svg">
<path fill-rule="evenodd" clip-rule="evenodd" d="M12.3916 3.75C8.91558 3.75 6.1416 6.46727 6.1416 9.76594C6.1416 11.7705 6.96253 13.4993 8.42694 14.576C8.7497 14.8133 9.02581 15.1672 9.13157 15.6162C9.21835 15.9847 9.31768 16.4337 9.41607 16.9095H15.3671C15.4655 16.4337 15.5649 15.9847 15.6516 15.6162C15.7574 15.1672 16.0335 14.8133 16.3563 14.576C17.8207 13.4993 18.6416 11.7705 18.6416 9.76594C18.6416 6.46727 15.8676 3.75 12.3916 3.75ZM15.0803 18.4095H9.70288C9.81329 19.0471 9.89991 19.6509 9.92614 20.0844C9.95375 20.5408 10.2949 20.9498 10.7978 21.0585L10.9938 21.1009C11.9142 21.2997 12.869 21.2997 13.7894 21.1009L13.9854 21.0585C14.4883 20.9498 14.8295 20.5408 14.8571 20.0844C14.8833 19.6509 14.9699 19.0471 15.0803 18.4095ZM4.6416 9.76594C4.6416 5.59116 8.13564 2.25 12.3916 2.25C16.6476 2.25 20.1416 5.59116 20.1416 9.76594C20.1416 12.1898 19.138 14.3926 17.2448 15.7845C17.1584 15.848 17.1223 15.9148 17.1117 15.9601C16.9933 16.4627 16.8491 17.128 16.7176 17.8029C16.5348 18.7412 16.386 19.6512 16.3543 20.175C16.2843 21.3332 15.4322 22.2805 14.3022 22.5247L14.1062 22.567C12.977 22.811 11.8062 22.811 10.677 22.567L10.481 22.5247C9.35101 22.2805 8.49895 21.3332 8.42887 20.175C8.39719 19.6512 8.24838 18.7412 8.0656 17.8029C7.9341 17.128 7.7899 16.4627 7.67151 15.9601C7.66086 15.9148 7.62475 15.848 7.53841 15.7845C5.64517 14.3926 4.6416 12.1898 4.6416 9.76594Z" fill="black"/>
</svg>
