<svg width="25" height="24" viewBox="0 0 25 24" fill="none" xmlns="http://www.w3.org/2000/svg">
<path d="M7.87495 5.25948C6.73051 5.38738 5.81446 6.29063 5.68205 7.42274C5.32636 10.4639 5.32636 13.5361 5.68205 16.5773C5.81446 17.7094 6.73051 18.6126 7.87494 18.7405C10.8518 19.0732 13.9314 19.0732 16.9082 18.7405C18.0527 18.6126 18.9687 17.7094 19.1011 16.5773C19.3567 14.3921 19.4286 12.1909 19.3169 9.99674C19.314 9.94008 19.3352 9.88481 19.3753 9.84469L20.4141 8.80591C20.5343 8.68568 20.7398 8.76086 20.7525 8.93042C20.9486 11.5353 20.8947 14.1544 20.591 16.7515C20.3761 18.5885 18.9012 20.0271 17.0748 20.2313C13.9873 20.5763 10.7959 20.5763 7.70833 20.2313C5.88195 20.0271 4.40706 18.5885 4.19221 16.7515C3.82298 13.5946 3.82298 10.4054 4.19221 7.24849C4.40706 5.41153 5.88195 3.97288 7.70834 3.76876C10.7959 3.42368 13.9873 3.42368 17.0748 3.76876C17.7181 3.84065 18.3177 4.06568 18.8341 4.40732C18.9357 4.47454 18.9458 4.61738 18.8596 4.70353L18.0568 5.50641C17.9911 5.57208 17.8892 5.58313 17.8074 5.53926C17.5339 5.39277 17.2301 5.29545 16.9082 5.25948C13.9314 4.92677 10.8518 4.92677 7.87495 5.25948Z" fill="black"/>
<path d="M21.4219 6.03034C21.7148 5.73744 21.7148 5.26257 21.4219 4.96968C21.129 4.67678 20.6541 4.67678 20.3612 4.96968L11.8916 13.4393L9.4219 10.9697C9.12901 10.6768 8.65413 10.6768 8.36124 10.9697C8.06835 11.2626 8.06835 11.7374 8.36124 12.0303L11.3612 15.0303C11.6541 15.3232 12.129 15.3232 12.4219 15.0303L21.4219 6.03034Z" fill="black"/>
</svg>
