<svg width="25" height="24" viewBox="0 0 25 24" fill="none" xmlns="http://www.w3.org/2000/svg">
<path d="M12.3916 5.25003C12.8058 5.25003 13.1416 5.58582 13.1416 6.00003C13.1416 6.41424 12.8058 6.75003 12.3916 6.75003C11.9774 6.75003 11.6416 6.41424 11.6416 6.00003C11.6416 5.58582 11.9774 5.25003 12.3916 5.25003ZM12.3916 11.25C12.8058 11.25 13.1416 11.5858 13.1416 12C13.1416 12.4142 12.8058 12.75 12.3916 12.75C11.9774 12.75 11.6416 12.4142 11.6416 12C11.6416 11.5858 11.9774 11.25 12.3916 11.25ZM12.3916 17.25C12.8058 17.25 13.1416 17.5858 13.1416 18C13.1416 18.4142 12.8058 18.75 12.3916 18.75C11.9774 18.75 11.6416 18.4142 11.6416 18C11.6416 17.5858 11.9774 17.25 12.3916 17.25Z" fill="black" stroke="black" stroke-width="1.5"/>
</svg>
