<svg width="25" height="24" viewBox="0 0 25 24" fill="none" xmlns="http://www.w3.org/2000/svg">
<path fill-rule="evenodd" clip-rule="evenodd" d="M10.3916 3.25C8.04439 3.25 6.1416 5.15279 6.1416 7.5C6.1416 9.84721 8.04439 11.75 10.3916 11.75C12.7388 11.75 14.6416 9.84721 14.6416 7.5C14.6416 5.15279 12.7388 3.25 10.3916 3.25ZM7.6416 7.5C7.6416 5.98122 8.87282 4.75 10.3916 4.75C11.9104 4.75 13.1416 5.98122 13.1416 7.5C13.1416 9.01878 11.9104 10.25 10.3916 10.25C8.87282 10.25 7.6416 9.01878 7.6416 7.5Z" fill="black"/>
<path d="M4.1416 17C4.1416 15.7574 5.14896 14.75 6.3916 14.75H6.73247C6.75883 14.75 6.78502 14.7542 6.81007 14.7623L7.67559 15.045C8.67206 15.3703 9.71239 15.512 10.747 15.4699C10.885 15.4643 10.9979 15.3614 11.027 15.2264C11.1005 14.8864 11.2029 14.5571 11.3313 14.2412C11.392 14.0921 11.2689 13.9257 11.1087 13.9416C10.1135 14.0405 9.10269 13.933 8.14119 13.6191L7.27567 13.3364C7.10029 13.2792 6.91696 13.25 6.73247 13.25H6.3916C4.32053 13.25 2.6416 14.9289 2.6416 17V18.1883C2.6416 18.9415 3.18749 19.5837 3.93087 19.7051C6.5261 20.1288 9.15259 20.2955 11.7724 20.2053C11.9349 20.1997 12.0229 20.0111 11.9313 19.8768C11.7374 19.5925 11.5673 19.2906 11.4238 18.9741C11.3548 18.8217 11.2039 18.7209 11.0366 18.7237C8.74202 18.762 6.44485 18.5957 4.17257 18.2247C4.15471 18.2218 4.1416 18.2064 4.1416 18.1883V17Z" fill="black"/>
<path fill-rule="evenodd" clip-rule="evenodd" d="M12.3916 16.5C12.3916 17.4719 12.6997 18.3718 13.2235 19.1074C13.5154 19.5173 13.8743 19.8762 14.2842 20.1681C15.0198 20.6919 15.9197 21 16.8916 21C19.3769 21 21.3916 18.9853 21.3916 16.5C21.3916 15.5281 21.0835 14.6282 20.5597 13.8926C20.2678 13.4827 19.9089 13.1238 19.499 12.8319C18.7634 12.3081 17.8635 12 16.8916 12C14.4063 12 12.3916 14.0147 12.3916 16.5ZM16.8916 19.5C16.3352 19.5 15.8143 19.3486 15.3676 19.0846L19.4762 14.976C19.7402 15.4227 19.8916 15.9436 19.8916 16.5C19.8916 18.1569 18.5485 19.5 16.8916 19.5ZM14.307 18.024L18.4156 13.9154C17.9689 13.6514 17.448 13.5 16.8916 13.5C15.2347 13.5 13.8916 14.8431 13.8916 16.5C13.8916 17.0564 14.043 17.5773 14.307 18.024Z" fill="black"/>
</svg>
