<svg width="25" height="24" viewBox="0 0 25 24" fill="none" xmlns="http://www.w3.org/2000/svg">
<path fill-rule="evenodd" clip-rule="evenodd" d="M11.1296 3.25C10.356 3.25 9.71064 3.84123 9.64309 4.61189C9.50184 6.22317 9.4661 7.84164 9.53596 9.45693C9.45163 9.46258 9.36731 9.46847 9.28301 9.47462L7.7935 9.5832C6.84145 9.6526 6.30925 10.7142 6.82323 11.5185C7.9194 13.2341 9.33186 14.7254 10.9853 15.9132L11.582 16.3418C12.0659 16.6894 12.7175 16.6894 13.2013 16.3418L13.7981 15.9132C15.4515 14.7254 16.864 13.2341 17.9601 11.5185C18.4741 10.7142 17.9419 9.6526 16.9899 9.5832L15.5004 9.47462C15.4161 9.46847 15.3317 9.46258 15.2474 9.45693C15.3173 7.84164 15.2815 6.22317 15.1403 4.61188C15.0727 3.84123 14.4274 3.25 13.6538 3.25H11.1296ZM11.0732 10.1147C10.9595 8.3275 10.9807 6.53417 11.1367 4.75H13.6466C13.8027 6.53417 13.8239 8.3275 13.7102 10.1147C13.6974 10.3151 13.7656 10.5122 13.8993 10.662C14.033 10.8117 14.2212 10.9016 14.4218 10.9114C14.7451 10.9274 15.0683 10.9471 15.3913 10.9707L16.4731 11.0495C15.5135 12.4628 14.312 13.6971 12.9229 14.6949L12.3917 15.0765L11.8604 14.6949C10.4713 13.6971 9.26984 12.4628 8.3103 11.0495L9.39206 10.9707C9.71505 10.9471 10.0382 10.9274 10.3616 10.9114C10.5621 10.9016 10.7503 10.8117 10.8841 10.662C11.0178 10.5122 11.0859 10.3151 11.0732 10.1147Z" fill="black"/>
<path d="M6.1416 17C6.1416 16.5858 5.80582 16.25 5.3916 16.25C4.97739 16.25 4.6416 16.5858 4.6416 17V19C4.6416 19.9665 5.4251 20.75 6.3916 20.75H18.3916C19.3581 20.75 20.1416 19.9665 20.1416 19V17C20.1416 16.5858 19.8058 16.25 19.3916 16.25C18.9774 16.25 18.6416 16.5858 18.6416 17V19C18.6416 19.1381 18.5297 19.25 18.3916 19.25H6.3916C6.25353 19.25 6.1416 19.1381 6.1416 19V17Z" fill="black"/>
</svg>
