<svg width="25" height="24" viewBox="0 0 25 24" fill="none" xmlns="http://www.w3.org/2000/svg">
<path d="M11.2645 16.4069C11.3134 16.2903 11.3385 16.1652 11.3384 16.039V6.9585C11.3384 6.4295 10.9031 6 10.3643 6H7.36308C6.82688 6 6.39154 6.43 6.39154 6.9585V16.039C6.39181 16.2934 6.49417 16.5373 6.67624 16.7174C6.85831 16.8974 7.10526 16.9991 7.36308 17H10.3643C10.4923 17.0001 10.619 16.9754 10.7373 16.9271C10.8555 16.8789 10.9629 16.8081 11.0534 16.7188C11.1439 16.6296 11.2156 16.5236 11.2645 16.4069Z" fill="black"/>
<path d="M18.107 12.7175C18.2891 12.5374 18.3914 12.2934 18.3915 12.039V6.9585C18.3915 6.4295 17.9557 6 17.42 6H14.4187C13.8831 6 13.4447 6.43 13.4447 6.9585V12.039C13.4449 12.2938 13.5476 12.5381 13.7303 12.7182C13.9129 12.8984 14.1605 12.9997 14.4187 13H17.42C17.6779 12.9992 17.9249 12.8976 18.107 12.7175Z" fill="black"/>
<path fill-rule="evenodd" clip-rule="evenodd" d="M17.6498 2.83303C14.1832 2.44559 10.5999 2.44559 7.13331 2.83303C5.12125 3.05791 3.49692 4.64292 3.26037 6.66545C2.84583 10.2097 2.84583 13.7903 3.26037 17.3346C3.49692 19.3571 5.12125 20.9421 7.13331 21.167C10.5999 21.5544 14.1832 21.5544 17.6498 21.167C19.6618 20.9421 21.2862 19.3571 21.5227 17.3346C21.9373 13.7903 21.9373 10.2097 21.5227 6.66545C21.2862 4.64292 19.6619 3.05791 17.6498 2.83303ZM7.29992 4.32375C10.6558 3.94868 14.1273 3.94868 17.4832 4.32375C18.8133 4.47241 19.8788 5.52202 20.0329 6.8397C20.4339 10.2682 20.4339 13.7318 20.0329 17.1603C19.8788 18.478 18.8133 19.5276 17.4832 19.6763C14.1273 20.0513 10.6558 20.0513 7.29992 19.6763C5.96981 19.5276 4.90433 18.478 4.75021 17.1603C4.34921 13.7318 4.34921 10.2682 4.75021 6.8397C4.90433 5.52202 5.96981 4.47241 7.29992 4.32375Z" fill="black"/>
</svg>
