<svg width="25" height="24" viewBox="0 0 25 24" fill="none" xmlns="http://www.w3.org/2000/svg">
<path d="M9.3916 3.25C6.21596 3.25 3.6416 5.82436 3.6416 9V16.1069C3.6416 16.5211 3.97739 16.8569 4.3916 16.8569C4.80582 16.8569 5.1416 16.5211 5.1416 16.1069V9C5.1416 6.65279 7.04439 4.75 9.3916 4.75H16.4045C16.8187 4.75 17.1545 4.41421 17.1545 4C17.1545 3.58579 16.8187 3.25 16.4045 3.25H9.3916Z" fill="black"/>
<path fill-rule="evenodd" clip-rule="evenodd" d="M18.7942 6.79326C15.5532 6.43104 12.23 6.43104 8.98908 6.79326C8.0658 6.89645 7.32387 7.62304 7.21505 8.55348C6.83066 11.84 6.83066 15.16 7.21505 18.4465C7.32387 19.377 8.0658 20.1035 8.98908 20.2067C12.23 20.569 15.5532 20.569 18.7942 20.2067C19.7174 20.1035 20.4594 19.377 20.5682 18.4465C20.9526 15.16 20.9526 11.84 20.5682 8.55348C20.4594 7.62304 19.7174 6.89645 18.7942 6.79326ZM9.15569 8.28398C12.2859 7.93413 15.4973 7.93413 18.6275 8.28398C18.8649 8.3105 19.0515 8.49821 19.0783 8.72773C19.4492 11.8984 19.4492 15.1016 19.0783 18.2723C19.0515 18.5018 18.8649 18.6895 18.6275 18.716C15.4973 19.0659 12.2859 19.0659 9.15569 18.716C8.91834 18.6895 8.73173 18.5018 8.70489 18.2723C8.33405 15.1016 8.33405 11.8984 8.70489 8.72773C8.73173 8.49821 8.91834 8.3105 9.15569 8.28398Z" fill="black"/>
</svg>
