<svg width="25" height="24" viewBox="0 0 25 24" fill="none" xmlns="http://www.w3.org/2000/svg">
<path fill-rule="evenodd" clip-rule="evenodd" d="M3.91599 8.85685C4.27032 4.55824 7.86247 1.25 12.1757 1.25H12.6076C16.9208 1.25 20.5129 4.55824 20.8673 8.85685C21.0576 11.166 20.3443 13.4589 18.8777 15.2526L14.0846 21.1144C13.2096 22.1845 11.5737 22.1845 10.6987 21.1144L5.90559 15.2526C4.43893 13.4589 3.72565 11.166 3.91599 8.85685ZM12.1757 2.75C8.64312 2.75 5.70112 5.45948 5.41092 8.98008C5.25251 10.9019 5.84615 12.8102 7.06681 14.3031L11.8599 20.1649C12.1347 20.501 12.6485 20.501 12.9234 20.1649L17.7164 14.3031C18.9371 12.8102 19.5307 10.9019 19.3723 8.98008C19.0821 5.45948 16.1401 2.75 12.6076 2.75H12.1757Z" fill="black"/>
<path d="M13.3916 16C13.3916 16.5523 12.9439 17 12.3916 17C11.8393 17 11.3916 16.5523 11.3916 16C11.3916 15.4477 11.8393 15 12.3916 15C12.9439 15 13.3916 15.4477 13.3916 16Z" fill="black"/>
<path fill-rule="evenodd" clip-rule="evenodd" d="M12.3916 7.75C11.4449 7.75 10.6416 8.54542 10.6416 9.57143C10.6416 9.98564 10.3058 10.3214 9.89163 10.3214C9.47741 10.3214 9.14163 9.98564 9.14163 9.57143C9.14163 7.75711 10.5769 6.25 12.3916 6.25C14.2063 6.25 15.6416 7.75711 15.6416 9.57143C15.6416 11.0024 14.7534 12.2348 13.4897 12.6983C13.3652 12.744 13.264 12.8138 13.2029 12.8818C13.1457 12.9455 13.1416 12.9844 13.1416 13C13.1416 13.4142 12.8058 13.75 12.3916 13.75C11.9774 13.75 11.6416 13.4142 11.6416 13C11.6416 12.0764 12.3851 11.5057 12.9732 11.29C13.6447 11.0438 14.1416 10.3747 14.1416 9.57143C14.1416 8.54542 13.3383 7.75 12.3916 7.75Z" fill="black"/>
</svg>
