<svg width="25" height="24" viewBox="0 0 25 24" fill="none" xmlns="http://www.w3.org/2000/svg">
<path fill-rule="evenodd" clip-rule="evenodd" d="M15.5285 3.46967C15.3879 3.32902 15.1971 3.25 14.9982 3.25C14.7993 3.25 14.6085 3.32902 14.4679 3.46967L5.27548 12.6621C5.18126 12.7563 5.11384 12.8739 5.08016 13.0028L4.08016 16.8313C4.01287 17.0889 4.08721 17.3629 4.27548 17.5511C4.46376 17.7394 4.73774 17.8138 4.99536 17.7465L8.82378 16.7465C8.95271 16.7128 9.07034 16.6454 9.16457 16.5511L18.357 7.35876C18.6498 7.06586 18.6498 6.59099 18.357 6.2981L15.5285 3.46967ZM6.48004 13.5788L14.9982 5.06066L16.766 6.82843L8.2478 15.3466L5.85504 15.9716L6.48004 13.5788Z" fill="black"/>
<path d="M4.3916 19.25C3.97739 19.25 3.6416 19.5858 3.6416 20C3.6416 20.4142 3.97739 20.75 4.3916 20.75H19.3916C19.8058 20.75 20.1416 20.4142 20.1416 20C20.1416 19.5858 19.8058 19.25 19.3916 19.25H4.3916Z" fill="black"/>
</svg>
