<svg width="25" height="24" viewBox="0 0 25 24" fill="none" xmlns="http://www.w3.org/2000/svg">
<path fill-rule="evenodd" clip-rule="evenodd" d="M15.413 3.34348C15.9214 3.2564 16.4907 3.22732 17.0265 3.31796C17.9833 3.47984 18.8672 3.92457 19.5658 4.59133C20.0225 4.60166 20.4713 4.51169 20.8685 4.38343C21.2046 4.27488 21.4885 4.1438 21.6875 4.04017C21.7864 3.98864 21.8628 3.94468 21.9125 3.91492C21.9373 3.90006 21.9553 3.88882 21.966 3.88203L21.9755 3.87596C22.2723 3.67824 22.6676 3.71672 22.9204 3.96823C23.1734 4.21979 23.2141 4.61471 23.0179 4.91261C22.8101 5.22791 22.5218 5.78998 22.1987 6.41974C22.1479 6.51876 22.0963 6.61945 22.0439 6.72112C21.8587 7.08108 21.6687 7.4449 21.4916 7.75703C21.3804 7.95301 21.2615 8.15199 21.1416 8.32393V8.59771C21.1492 9.60334 21.0338 10.6037 20.7998 11.5769C20.6525 12.1893 20.4582 12.7909 20.218 13.3763C19.5955 14.8929 18.6771 16.2704 17.5164 17.4281C16.3557 18.5859 14.9759 19.5007 13.4576 20.1193C11.9407 20.7372 10.316 21.047 8.67813 21.0306C6.30382 21.0327 3.97946 20.3486 1.98473 19.0607C1.69093 18.871 1.56723 18.5034 1.68657 18.1747C1.80591 17.8459 2.1366 17.6433 2.48367 17.6863C2.78403 17.7235 3.08644 17.7416 3.3891 17.7406C4.47655 17.7376 5.54329 17.4973 6.51715 17.0446C6.2076 16.9037 5.91206 16.73 5.63591 16.5252C4.82419 15.9233 4.22028 15.0833 3.90821 14.1222C3.82712 13.8725 3.88256 13.5985 4.05437 13.3999C4.05745 13.3963 4.06056 13.3928 4.06369 13.3893C3.88016 13.2257 3.70844 13.0475 3.55034 12.8559C2.83902 11.9937 2.44735 10.9122 2.44156 9.79448L2.44154 9.7906L2.44155 9.7406C2.44155 9.47474 2.58231 9.22874 2.81151 9.09402C2.86961 9.05987 2.93119 9.03416 2.99455 9.01692C2.65621 8.34184 2.48027 7.5964 2.48155 6.84014C2.48115 5.98337 2.70495 5.1414 3.13071 4.3979C3.25362 4.18327 3.47445 4.04303 3.72098 4.02305C3.96751 4.00308 4.20804 4.10593 4.3639 4.29798C5.32645 5.48399 6.52774 6.45424 7.88973 7.14571C8.58987 7.50117 9.32442 7.77886 10.0802 7.9753C10.504 8.08543 10.9344 8.17001 11.3691 8.22844C11.35 7.50518 11.4928 6.78231 11.7925 6.11438C12.2322 5.13456 12.9847 4.32838 13.9319 3.82229C14.3331 3.60796 14.8656 3.43725 15.413 3.34348ZM4.13483 10.891C4.26448 11.2559 4.45734 11.5982 4.7074 11.9013C5.19872 12.4968 5.88067 12.9044 6.63789 13.055C6.97517 13.1221 7.22361 13.41 7.24063 13.7535C7.25766 14.0969 7.03891 14.408 6.70991 14.5081C6.43742 14.591 6.15824 14.6488 5.87588 14.6809C6.06247 14.9214 6.28195 15.1369 6.52935 15.3203C7.09054 15.7364 7.76748 15.9673 8.46599 15.9807C8.78291 15.9868 9.06177 16.1915 9.1626 16.492C9.26343 16.7926 9.16444 17.124 8.91534 17.32C7.86617 18.1456 6.65297 18.7212 5.36742 19.0151C6.4329 19.3563 7.55035 19.532 8.68064 19.5306L8.68934 19.5306C10.1294 19.5455 11.558 19.2735 12.8917 18.7301C14.2254 18.1868 15.4375 17.3831 16.4571 16.3661C17.4767 15.3491 18.2835 14.1391 18.8303 12.8068C19.0413 12.2925 19.212 11.7641 19.3413 11.2262C19.5472 10.3704 19.6485 9.49073 19.6416 8.60647L19.6416 8.6006V8.0706C19.6416 7.88875 19.7076 7.71309 19.8275 7.57632C19.8967 7.49727 20.0179 7.31472 20.1869 7.01682C20.3476 6.73369 20.5254 6.39379 20.7103 6.0346C20.7215 6.01288 20.7327 5.99104 20.7439 5.96911C20.2644 6.07325 19.7208 6.12784 19.151 6.06626C18.9705 6.04676 18.8032 5.96247 18.6802 5.82903C18.1773 5.28369 17.5077 4.92069 16.7763 4.79694C16.4517 4.74204 16.0594 4.75461 15.6663 4.82194C15.2391 4.89511 14.8674 5.02312 14.6388 5.14529C13.9845 5.49486 13.4648 6.05171 13.1611 6.72849C12.8574 7.40528 12.7869 8.16373 12.9607 8.88488C13.0161 9.11479 12.9598 9.35737 12.8088 9.5394C12.6579 9.72143 12.4299 9.82159 12.1937 9.80964C11.3502 9.76698 10.5158 9.63833 9.7029 9.42707C8.843 9.20358 8.00727 8.88763 7.21069 8.48321C6.03791 7.8878 4.96986 7.11071 4.04502 6.18302C4.00283 6.39863 3.98141 6.61866 3.98155 6.84011L3.98155 6.84202C3.98051 7.39274 4.11566 7.93517 4.37497 8.42102C4.63428 8.90687 5.0097 9.32106 5.46781 9.62672C5.74583 9.81222 5.86756 10.1593 5.76631 10.4778C5.66506 10.7963 5.36526 11.0094 5.03116 11.0003C4.72856 10.9921 4.4285 10.9553 4.13483 10.891Z" fill="black"/>
</svg>
