<svg width="25" height="24" viewBox="0 0 25 24" fill="none" xmlns="http://www.w3.org/2000/svg">
<path fill-rule="evenodd" clip-rule="evenodd" d="M22.1416 12C22.1416 12.2724 21.9939 12.5233 21.7558 12.6556L19.4735 13.9236C14.9621 16.4299 10.2063 18.4687 5.28039 20.008L4.61531 20.2159C4.38758 20.287 4.13958 20.2456 3.94735 20.1043C3.75512 19.9629 3.6416 19.7386 3.6416 19.5L3.6416 13.75C3.6416 13.359 3.94202 13.0336 4.33179 13.0024L4.55912 12.9842C6.71058 12.8121 8.84547 12.4829 10.9468 11.9997C8.81596 11.5098 6.65062 11.1782 4.4685 11.0083L4.33336 10.9977C3.94292 10.9673 3.6416 10.6416 3.6416 10.25L3.6416 4.50001C3.6416 4.26142 3.75512 4.03706 3.94735 3.89574C4.13958 3.75441 4.38758 3.71298 4.61531 3.78415L5.28038 3.99198C10.2063 5.53134 14.9621 7.57008 19.4735 10.0764L21.7558 11.3444C21.9939 11.4767 22.1416 11.7276 22.1416 12ZM19.8473 12L18.745 11.3877C14.4172 8.98333 9.86007 7.01801 5.1416 5.52089L5.1416 9.55957C8.07169 9.82384 10.9699 10.3702 13.7959 11.1912L14.1008 11.2798C14.4215 11.3729 14.6419 11.6668 14.6416 12.0007C14.6413 12.3346 14.4203 12.6281 14.0994 12.7206L13.7089 12.8333C10.9104 13.6404 8.04163 14.1784 5.1416 14.44L5.1416 18.4791C9.86006 16.982 14.4172 15.0167 18.745 12.6124L19.8473 12Z" fill="black"/>
</svg>
