<svg width="25" height="24" viewBox="0 0 25 24" fill="none" xmlns="http://www.w3.org/2000/svg">
<path fill-rule="evenodd" clip-rule="evenodd" d="M11.9679 5.56075C9.30533 4.12428 6.55658 2.64231 6.17752 2.44177C5.78869 2.21902 5.34861 2.14898 4.94269 2.21873C4.93492 2.22005 4.92716 2.22149 4.9194 2.22306C4.91206 2.22454 4.90475 2.22613 4.89748 2.22783C4.55147 2.30773 4.21982 2.50501 3.98214 2.83759C3.7473 3.16618 3.6416 3.57338 3.6416 4.01772V19.8414C3.6416 20.2292 3.71734 20.6378 3.92977 20.9816C4.15723 21.3497 4.53026 21.617 5.01298 21.6616C5.07034 21.6669 5.12753 21.6655 5.18354 21.6579C5.5322 21.6593 5.86498 21.5468 6.17283 21.3794L6.28186 21.3203C6.41229 21.2496 6.62196 21.1358 6.89785 20.9867C8.78495 19.9664 13.7401 17.2874 17.2917 15.3565C17.3002 15.3519 17.3086 15.3471 17.3169 15.3422C17.9939 14.9744 18.6194 14.6342 19.1622 14.339L20.0131 13.8763C20.361 13.6872 20.6451 13.5329 20.851 13.4217C20.954 13.366 21.0366 13.3215 21.0974 13.289L21.1702 13.2504L21.1963 13.2368L21.2141 13.2277C21.5358 13.0585 21.9794 12.6989 22.1076 12.1535C22.1795 11.8479 22.1407 11.5161 21.959 11.2114C21.7882 10.9248 21.5211 10.7114 21.2173 10.5498L21.2101 10.546C20.9236 10.3975 19.3414 9.53859 17.2927 8.42056C17.2513 8.39798 17.2085 8.37963 17.1649 8.36546L15.6415 7.54315C14.6487 7.00725 13.3182 6.28923 11.9679 5.56075ZM14.0988 10.8508L8.70275 5.50394C9.50444 5.93618 10.3837 6.41045 11.2557 6.88089C12.6059 7.6093 13.9362 8.32727 14.9291 8.86315L15.6816 9.26938L14.0988 10.8508ZM5.1416 19.7825V4.08695L13.0371 11.9104L5.1416 19.7825ZM15.1674 11.9061L17.0744 10.0102C18.8616 10.9848 20.2269 11.7256 20.5157 11.8756L20.5378 11.8878C20.5315 11.8916 20.5253 11.8951 20.5193 11.8984C20.3641 11.9777 19.5458 12.4228 18.3728 13.0608C17.9735 13.278 17.533 13.5176 17.0636 13.7727L15.1674 11.9061ZM8.80078 18.2523L14.1043 12.9645L15.686 14.5219C13.4443 15.7392 10.8308 17.1541 8.80078 18.2523Z" fill="black"/>
</svg>
