<svg width="25" height="24" viewBox="0 0 25 24" fill="none" xmlns="http://www.w3.org/2000/svg">
<path fill-rule="evenodd" clip-rule="evenodd" d="M13.3234 6.20831C11.7731 6.20831 10.4321 7.11064 9.79967 8.42212C9.62962 8.77473 9.21697 8.93724 8.85215 8.79528C8.36141 8.60433 7.82695 8.49919 7.26615 8.49919C4.84968 8.49919 2.89075 10.4581 2.89075 12.8746C2.89075 15.2911 4.84968 17.25 7.26615 17.25H18.9148C20.5593 17.25 21.8924 15.9169 21.8924 14.2724C21.8924 12.628 20.5593 11.2949 18.9148 11.2949C18.6472 11.2949 18.389 11.33 18.144 11.3954C17.9037 11.4596 17.6474 11.4005 17.4594 11.2378C17.2715 11.075 17.1764 10.8296 17.2056 10.5827C17.2236 10.4305 17.2329 10.2754 17.2329 10.1178C17.2329 7.95864 15.4826 6.20831 13.3234 6.20831ZM8.77157 7.19402C9.73331 5.69973 11.412 4.70831 13.3234 4.70831C16.204 4.70831 18.5586 6.95976 18.7237 9.79889C18.7871 9.79622 18.8508 9.79487 18.9148 9.79487C21.3877 9.79487 23.3924 11.7995 23.3924 14.2724C23.3924 16.7453 21.3877 18.75 18.9148 18.75H7.26615C4.02125 18.75 1.39075 16.1195 1.39075 12.8746C1.39075 9.6297 4.02125 6.99919 7.26615 6.99919C7.78581 6.99919 8.29053 7.06684 8.77157 7.19402Z" fill="black"/>
</svg>
