<svg width="25" height="24" viewBox="0 0 25 24" fill="none" xmlns="http://www.w3.org/2000/svg">
<path fill-rule="evenodd" clip-rule="evenodd" d="M13.3916 3C13.3916 2.44772 12.9439 2 12.3916 2C11.8393 2 11.3916 2.44772 11.3916 3V3.75H10.8342C8.60911 3.75 6.76751 5.48001 6.62862 7.70074L6.40762 11.2342C6.32335 12.5814 5.87107 13.8797 5.10001 14.9876C4.40332 15.9886 5.02354 17.3712 6.23447 17.5165L9.6416 17.9254V19C9.6416 20.5188 10.8728 21.75 12.3916 21.75C13.9104 21.75 15.1416 20.5188 15.1416 19V17.9254L18.5487 17.5165C19.7597 17.3712 20.3799 15.9886 19.6832 14.9876C18.9121 13.8797 18.4598 12.5814 18.3756 11.2342L18.1546 7.70074C18.0157 5.48001 16.1741 3.75 13.949 3.75H13.3916V3ZM10.8342 5.25C9.40118 5.25 8.21515 6.36417 8.12569 7.79438L7.90469 11.3278C7.8033 12.949 7.25904 14.5112 6.33119 15.8444C6.28084 15.9168 6.32566 16.0167 6.41319 16.0272L10.1509 16.4757C11.6393 16.6543 13.1439 16.6543 14.6323 16.4757L18.37 16.0272C18.4575 16.0167 18.5024 15.9168 18.452 15.8444C17.5242 14.5112 16.9799 12.949 16.8785 11.3278L16.6575 7.79438C16.568 6.36417 15.382 5.25 13.949 5.25H10.8342ZM12.3916 20.25C11.7012 20.25 11.1416 19.6904 11.1416 19V18.25H13.6416V19C13.6416 19.6904 13.082 20.25 12.3916 20.25Z" fill="black"/>
</svg>
