<svg width="25" height="24" viewBox="0 0 25 24" fill="none" xmlns="http://www.w3.org/2000/svg">
<path fill-rule="evenodd" clip-rule="evenodd" d="M7.33741 1.35103C6.71351 1.2813 6.06972 1.2813 5.44582 1.35103C4.82633 1.42027 4.32276 1.90752 4.24898 2.5383C4.17425 3.17725 4.17425 3.82274 4.24898 4.4617C4.32276 5.09247 4.82633 5.57972 5.44582 5.64896C6.06972 5.71869 6.71351 5.71869 7.33741 5.64896C7.9569 5.57972 8.46047 5.09247 8.53425 4.4617C8.60898 3.82274 8.60898 3.17725 8.53425 2.5383C8.46047 1.90752 7.9569 1.42027 7.33741 1.35103ZM5.72612 4.16998C5.68187 3.72442 5.68187 3.27557 5.72612 2.83001C6.16589 2.78831 6.61734 2.78831 7.0571 2.83001C7.10136 3.27557 7.10136 3.72442 7.0571 4.16998C6.61734 4.21168 6.16589 4.21168 5.72612 4.16998Z" fill="black"/>
<path fill-rule="evenodd" clip-rule="evenodd" d="M13.3374 1.35103C12.7135 1.2813 12.0697 1.2813 11.4458 1.35103C10.8263 1.42027 10.3228 1.90752 10.249 2.5383C10.1742 3.17725 10.1742 3.82274 10.249 4.4617C10.3228 5.09247 10.8263 5.57972 11.4458 5.64896C12.0697 5.71869 12.7135 5.71869 13.3374 5.64896C13.9569 5.57972 14.4605 5.09247 14.5342 4.4617C14.609 3.82274 14.609 3.17725 14.5342 2.5383C14.4605 1.90752 13.9569 1.42027 13.3374 1.35103ZM11.7261 4.16998C11.6819 3.72442 11.6819 3.27557 11.7261 2.83001C12.1659 2.78831 12.6173 2.78831 13.0571 2.83001C13.1014 3.27557 13.1014 3.72442 13.0571 4.16998C12.6173 4.21168 12.1659 4.21168 11.7261 4.16998Z" fill="black"/>
<path fill-rule="evenodd" clip-rule="evenodd" d="M17.4458 1.35103C18.0697 1.2813 18.7135 1.2813 19.3374 1.35103C19.9569 1.42027 20.4605 1.90752 20.5342 2.5383C20.609 3.17725 20.609 3.82274 20.5342 4.4617C20.4605 5.09247 19.9569 5.57972 19.3374 5.64896C18.7135 5.71869 18.0697 5.71869 17.4458 5.64896C16.8263 5.57972 16.3228 5.09247 16.249 4.4617C16.1742 3.82274 16.1742 3.17725 16.249 2.5383C16.3228 1.90752 16.8263 1.42027 17.4458 1.35103ZM17.7261 2.83001C17.6819 3.27557 17.6819 3.72442 17.7261 4.16998C18.1659 4.21168 18.6173 4.21168 19.0571 4.16998C19.1014 3.72442 19.1014 3.27557 19.0571 2.83001C18.6173 2.78831 18.1659 2.78831 17.7261 2.83001Z" fill="black"/>
<path fill-rule="evenodd" clip-rule="evenodd" d="M7.33741 6.85103C6.71351 6.7813 6.06972 6.7813 5.44582 6.85103C4.82633 6.92027 4.32276 7.40752 4.24898 8.0383C4.17425 8.67725 4.17425 9.32274 4.24898 9.9617C4.32276 10.5925 4.82633 11.0797 5.44582 11.149C6.06972 11.2187 6.71351 11.2187 7.33741 11.149C7.9569 11.0797 8.46047 10.5925 8.53425 9.9617C8.60898 9.32274 8.60898 8.67725 8.53425 8.0383C8.46047 7.40752 7.9569 6.92027 7.33741 6.85103ZM5.72612 9.66998C5.68187 9.22442 5.68187 8.77557 5.72612 8.33001C6.16589 8.28831 6.61734 8.28831 7.0571 8.33001C7.10136 8.77557 7.10136 9.22442 7.0571 9.66998C6.61734 9.71168 6.16589 9.71168 5.72612 9.66998Z" fill="black"/>
<path fill-rule="evenodd" clip-rule="evenodd" d="M11.4458 6.85103C12.0697 6.7813 12.7135 6.7813 13.3374 6.85103C13.9569 6.92027 14.4605 7.40752 14.5342 8.0383C14.609 8.67725 14.609 9.32274 14.5342 9.9617C14.4605 10.5925 13.9569 11.0797 13.3374 11.149C12.7135 11.2187 12.0697 11.2187 11.4458 11.149C10.8263 11.0797 10.3228 10.5925 10.249 9.9617C10.1742 9.32274 10.1742 8.67725 10.249 8.0383C10.3228 7.40752 10.8263 6.92027 11.4458 6.85103ZM11.7261 8.33001C11.6819 8.77557 11.6819 9.22442 11.7261 9.66998C12.1659 9.71168 12.6173 9.71168 13.0571 9.66998C13.1014 9.22442 13.1014 8.77557 13.0571 8.33001C12.6173 8.28831 12.1659 8.28831 11.7261 8.33001Z" fill="black"/>
<path fill-rule="evenodd" clip-rule="evenodd" d="M19.3374 6.85103C18.7135 6.7813 18.0697 6.7813 17.4458 6.85103C16.8263 6.92027 16.3228 7.40752 16.249 8.0383C16.1742 8.67725 16.1742 9.32274 16.249 9.9617C16.3228 10.5925 16.8263 11.0797 17.4458 11.149C18.0697 11.2187 18.7135 11.2187 19.3374 11.149C19.9569 11.0797 20.4605 10.5925 20.5342 9.9617C20.609 9.32274 20.609 8.67725 20.5342 8.0383C20.4605 7.40752 19.9569 6.92027 19.3374 6.85103ZM17.7261 9.66998C17.6819 9.22442 17.6819 8.77557 17.7261 8.33001C18.1659 8.28831 18.6173 8.28831 19.0571 8.33001C19.1014 8.77557 19.1014 9.22442 19.0571 9.66998C18.6173 9.71168 18.1659 9.71168 17.7261 9.66998Z" fill="black"/>
<path fill-rule="evenodd" clip-rule="evenodd" d="M5.44582 12.351C6.06972 12.2813 6.71351 12.2813 7.33741 12.351C7.9569 12.4203 8.46047 12.9075 8.53425 13.5383C8.60898 14.1773 8.60898 14.8227 8.53425 15.4617C8.46047 16.0925 7.9569 16.5797 7.33741 16.649C6.71351 16.7187 6.06972 16.7187 5.44582 16.649C4.82633 16.5797 4.32276 16.0925 4.24898 15.4617C4.17425 14.8227 4.17425 14.1773 4.24898 13.5383C4.32276 12.9075 4.82633 12.4203 5.44582 12.351ZM5.72612 13.83C5.68187 14.2756 5.68187 14.7244 5.72612 15.17C6.16589 15.2117 6.61734 15.2117 7.0571 15.17C7.10136 14.7244 7.10136 14.2756 7.0571 13.83C6.61734 13.7883 6.16589 13.7883 5.72612 13.83Z" fill="black"/>
<path fill-rule="evenodd" clip-rule="evenodd" d="M13.3374 12.351C12.7135 12.2813 12.0697 12.2813 11.4458 12.351C10.8263 12.4203 10.3228 12.9075 10.249 13.5383C10.1742 14.1773 10.1742 14.8227 10.249 15.4617C10.3228 16.0925 10.8263 16.5797 11.4458 16.649C12.0697 16.7187 12.7135 16.7187 13.3374 16.649C13.9569 16.5797 14.4605 16.0925 14.5342 15.4617C14.609 14.8227 14.609 14.1773 14.5342 13.5383C14.4605 12.9075 13.9569 12.4203 13.3374 12.351ZM11.7261 15.17C11.6819 14.7244 11.6819 14.2756 11.7261 13.83C12.1659 13.7883 12.6173 13.7883 13.0571 13.83C13.1014 14.2756 13.1014 14.7244 13.0571 15.17C12.6173 15.2117 12.1659 15.2117 11.7261 15.17Z" fill="black"/>
<path fill-rule="evenodd" clip-rule="evenodd" d="M11.4458 17.851C12.0697 17.7813 12.7135 17.7813 13.3374 17.851C13.9569 17.9203 14.4605 18.4075 14.5342 19.0383C14.609 19.6773 14.609 20.3227 14.5342 20.9617C14.4605 21.5925 13.9569 22.0797 13.3374 22.149C12.7135 22.2187 12.0697 22.2187 11.4458 22.149C10.8263 22.0797 10.3228 21.5925 10.249 20.9617C10.1742 20.3227 10.1742 19.6773 10.249 19.0383C10.3228 18.4075 10.8263 17.9203 11.4458 17.851ZM11.7261 19.33C11.6819 19.7756 11.6819 20.2244 11.7261 20.67C12.1659 20.7117 12.6173 20.7117 13.0571 20.67C13.1014 20.2244 13.1014 19.7756 13.0571 19.33C12.6173 19.2883 12.1659 19.2883 11.7261 19.33Z" fill="black"/>
<path fill-rule="evenodd" clip-rule="evenodd" d="M19.3374 12.351C18.7135 12.2813 18.0697 12.2813 17.4458 12.351C16.8263 12.4203 16.3228 12.9075 16.249 13.5383C16.1742 14.1773 16.1742 14.8227 16.249 15.4617C16.3228 16.0925 16.8263 16.5797 17.4458 16.649C18.0697 16.7187 18.7135 16.7187 19.3374 16.649C19.9569 16.5797 20.4605 16.0925 20.5342 15.4617C20.609 14.8227 20.609 14.1773 20.5342 13.5383C20.4605 12.9075 19.9569 12.4203 19.3374 12.351ZM17.7261 15.17C17.6819 14.7244 17.6819 14.2756 17.7261 13.83C18.1659 13.7883 18.6173 13.7883 19.0571 13.83C19.1014 14.2756 19.1014 14.7244 19.0571 15.17C18.6173 15.2117 18.1659 15.2117 17.7261 15.17Z" fill="black"/>
</svg>
