<svg width="25" height="24" viewBox="0 0 25 24" fill="none" xmlns="http://www.w3.org/2000/svg">
<path d="M14.3916 9C14.3916 8.17157 15.0632 7.5 15.8916 7.5C16.72 7.5 17.3916 8.17157 17.3916 9C17.3916 9.82843 16.72 10.5 15.8916 10.5C15.0632 10.5 14.3916 9.82843 14.3916 9Z" fill="black"/>
<path fill-rule="evenodd" clip-rule="evenodd" d="M7.65913 4.65855C10.8082 4.38481 13.975 4.38481 17.1241 4.65855L18.6343 4.78983C20.0794 4.91545 21.2501 6.0151 21.4658 7.44949C21.9194 10.4662 21.9194 13.5338 21.4658 16.5505C21.2501 17.9849 20.0794 19.0845 18.6343 19.2102L17.1241 19.3414C13.975 19.6152 10.8082 19.6152 7.65913 19.3414L6.1489 19.2102C4.70383 19.0845 3.53316 17.9849 3.31746 16.5505C2.86382 13.5338 2.86382 10.4662 3.31746 7.44949C3.53316 6.0151 4.70383 4.91545 6.1489 4.78983L7.65913 4.65855ZM16.9942 6.15292C13.9316 5.88669 10.8516 5.88669 7.78904 6.15292L6.2788 6.2842C5.52447 6.34977 4.91338 6.92379 4.80079 7.67254C4.54325 9.38516 4.43946 11.115 4.4894 12.8415L8.36127 8.96967C8.50733 8.82361 8.70716 8.74426 8.91363 8.75032C9.1201 8.75639 9.31492 8.84734 9.45215 9.00173L13.1236 13.1321L15.6544 12.2885C15.9375 12.1941 16.2495 12.2765 16.4491 12.4983L19.9682 16.4084C19.9736 16.3817 19.9783 16.3547 19.9824 16.3274C20.4138 13.4586 20.4138 10.5414 19.9824 7.67254C19.8698 6.92379 19.2587 6.34977 18.5044 6.2842L16.9942 6.15292ZM19.0118 17.588L15.6627 13.8669L13.1288 14.7115C12.8441 14.8064 12.5304 14.7225 12.331 14.4983L8.85948 10.5928L4.6158 14.8365C4.66458 15.3346 4.72624 15.8317 4.80079 16.3274C4.91338 17.0762 5.52447 17.6502 6.2788 17.7158L7.78904 17.8471C10.8516 18.1133 13.9316 18.1133 16.9942 17.8471L18.5044 17.7158C18.6832 17.7003 18.8538 17.6562 19.0118 17.588Z" fill="black"/>
</svg>
