<svg width="25" height="24" viewBox="0 0 25 24" fill="none" xmlns="http://www.w3.org/2000/svg">
<path fill-rule="evenodd" clip-rule="evenodd" d="M12.3916 6.25C10.5967 6.25 9.14161 7.70507 9.14161 9.5C9.14161 11.2949 10.5967 12.75 12.3916 12.75C14.1865 12.75 15.6416 11.2949 15.6416 9.5C15.6416 7.70507 14.1865 6.25 12.3916 6.25ZM10.6416 9.5C10.6416 8.5335 11.4251 7.75 12.3916 7.75C13.3581 7.75 14.1416 8.5335 14.1416 9.5C14.1416 10.4665 13.3581 11.25 12.3916 11.25C11.4251 11.25 10.6416 10.4665 10.6416 9.5Z" fill="black"/>
<path fill-rule="evenodd" clip-rule="evenodd" d="M12.3916 2.25C8.38754 2.25 5.14161 5.49594 5.14161 9.5C5.14161 10.9681 5.57799 12.3343 6.32812 13.476L3.74208 17.9551C3.59502 18.2099 3.61042 18.527 3.78148 18.7663C3.95253 19.0056 4.24767 19.1228 4.53627 19.066L7.15014 18.5522L8.01207 21.0728C8.10724 21.3511 8.35631 21.5481 8.64905 21.5766C8.9418 21.6051 9.22418 21.4599 9.37125 21.2051L11.951 16.7368C12.0968 16.7456 12.2437 16.75 12.3916 16.75C12.5395 16.75 12.6865 16.7456 12.8322 16.7368L15.412 21.2051C15.5592 21.4601 15.842 21.6054 16.135 21.5765C16.428 21.5477 16.677 21.3501 16.7717 21.0713L17.6292 18.5455L20.2453 19.0657C20.5341 19.1232 20.8298 19.0063 21.0013 18.767C21.1728 18.5276 21.1883 18.2101 21.0411 17.9551L18.4551 13.476C19.2052 12.3343 19.6416 10.9681 19.6416 9.5C19.6416 5.49594 16.3957 2.25 12.3916 2.25ZM6.64161 9.5C6.64161 6.32436 9.21597 3.75 12.3916 3.75C15.5672 3.75 18.1416 6.32436 18.1416 9.5C18.1416 12.6756 15.5672 15.25 12.3916 15.25C9.21597 15.25 6.64161 12.6756 6.64161 9.5ZM10.3754 16.466C9.22238 16.1328 8.18757 15.5212 7.34851 14.7086L5.8663 17.2759L7.50327 16.9541C7.87132 16.8817 8.23623 17.0924 8.35759 17.4473L8.89739 19.0259L10.3754 16.466ZM15.8834 19.0217L14.4079 16.466C15.5608 16.1328 16.5956 15.5212 17.4347 14.7086L18.9145 17.2717L17.2768 16.9461C16.9076 16.8727 16.5413 17.0842 16.4203 17.4406L15.8834 19.0217Z" fill="black"/>
</svg>
