<svg width="25" height="24" viewBox="0 0 25 24" fill="none" xmlns="http://www.w3.org/2000/svg">
<path d="M8.3916 15.5C6.60677 15.5 5.11378 14.137 4.92759 12.3681C4.90195 12.1245 4.90195 11.8755 4.92759 11.6319C5.11378 9.86302 6.60677 8.5 8.3916 8.5C10.1764 8.5 11.6694 9.86302 11.8556 11.6319C11.8813 11.8755 11.8813 12.1245 11.8556 12.3681C11.6694 14.137 10.1764 15.5 8.3916 15.5Z" fill="black"/>
<path fill-rule="evenodd" clip-rule="evenodd" d="M8.46594 18.75H16.3173C19.6388 18.75 22.4667 16.3336 22.9847 13.0527C23.0948 12.3552 23.0948 11.6448 22.9847 10.9473C22.4667 7.6664 19.6388 5.25 16.3173 5.25H8.46594C5.14445 5.25 2.31657 7.6664 1.79854 10.9473C1.68841 11.6448 1.68841 12.3552 1.79854 13.0527C2.31657 16.3336 5.14445 18.75 8.46594 18.75ZM8.46594 17.25C5.88256 17.25 3.6831 15.3706 3.28019 12.8188C3.19453 12.2763 3.19453 11.7237 3.28019 11.1812C3.6831 8.62942 5.88256 6.75 8.46594 6.75L16.3173 6.75C18.9007 6.75 21.1001 8.62942 21.503 11.1812C21.5887 11.7237 21.5887 12.2763 21.503 12.8188C21.1001 15.3706 18.9007 17.25 16.3173 17.25H8.46594Z" fill="black"/>
</svg>
