<svg width="25" height="24" viewBox="0 0 25 24" fill="none" xmlns="http://www.w3.org/2000/svg">
<path fill-rule="evenodd" clip-rule="evenodd" d="M14.7766 15.4457C12.1264 17.5684 8.24692 17.4013 5.79014 14.9445C3.1541 12.3085 3.1541 8.03464 5.79014 5.3986C8.42618 2.76256 12.7 2.76256 15.3361 5.3986C17.7929 7.85538 17.9599 11.7348 15.8373 14.3851L20.9929 19.5407C21.2858 19.8336 21.2858 20.3085 20.9929 20.6014C20.7 20.8943 20.2252 20.8943 19.9323 20.6014L14.7766 15.4457ZM6.8508 13.8839C4.80055 11.8336 4.80055 8.50951 6.8508 6.45926C8.90105 4.40901 12.2252 4.40901 14.2754 6.45926C16.3242 8.50801 16.3257 11.8287 14.2799 13.8794C14.2784 13.8809 14.2769 13.8823 14.2754 13.8839C14.2739 13.8854 14.2724 13.8869 14.2709 13.8884C12.2203 15.9341 8.89955 15.9326 6.8508 13.8839Z" fill="black"/>
</svg>
