<svg width="25" height="24" viewBox="0 0 25 24" fill="none" xmlns="http://www.w3.org/2000/svg">
<path fill-rule="evenodd" clip-rule="evenodd" d="M3.6416 10.0298C3.6416 7.3293 6.01074 5.25 8.7916 5.25C10.2251 5.25 11.4864 5.92214 12.3916 6.79183C13.2968 5.92214 14.5581 5.25 15.9916 5.25C18.7725 5.25 21.1416 7.3293 21.1416 10.0298C21.1416 11.8797 20.3527 13.5064 19.2598 14.8815C18.1687 16.2543 16.7416 17.4193 15.3751 18.366C14.8531 18.7276 14.3251 19.0611 13.8419 19.3072C13.3881 19.5383 12.8663 19.75 12.3916 19.75C11.9169 19.75 11.3951 19.5383 10.9413 19.3072C10.4581 19.0611 9.93006 18.7276 9.40813 18.366C8.04165 17.4193 6.61447 16.2543 5.52342 14.8815C4.43048 13.5064 3.6416 11.8797 3.6416 10.0298ZM8.7916 6.75C6.71235 6.75 5.1416 8.2791 5.1416 10.0298C5.1416 11.4333 5.73739 12.74 6.69769 13.9482C7.65988 15.1588 8.95453 16.2269 10.2623 17.133C10.7572 17.4758 11.2233 17.7675 11.6221 17.9706C12.0502 18.1886 12.2983 18.25 12.3916 18.25C12.4849 18.25 12.733 18.1886 13.1612 17.9706C13.5599 17.7675 14.026 17.4758 14.5209 17.133C15.8287 16.2269 17.1233 15.1588 18.0855 13.9482C19.0458 12.74 19.6416 11.4333 19.6416 10.0298C19.6416 8.2791 18.0708 6.75 15.9916 6.75C14.7975 6.75 13.6824 7.46342 12.9862 8.36892C12.8442 8.55356 12.6245 8.66176 12.3916 8.66176C12.1587 8.66176 11.939 8.55356 11.797 8.36892C11.1008 7.46342 9.98575 6.75 8.7916 6.75Z" fill="black"/>
</svg>
