<svg width="25" height="24" viewBox="0 0 25 24" fill="none" xmlns="http://www.w3.org/2000/svg">
<path d="M8.86127 8.46966C9.15416 8.17677 9.62904 8.17677 9.92193 8.46966L12.3916 10.9393L14.8613 8.46967C15.1542 8.17678 15.629 8.17678 15.9219 8.46967C16.2148 8.76256 16.2148 9.23744 15.9219 9.53033L13.4523 12L15.9219 14.4697C16.2148 14.7626 16.2148 15.2374 15.9219 15.5303C15.629 15.8232 15.1542 15.8232 14.8613 15.5303L12.3916 13.0607L9.92194 15.5303C9.62905 15.8232 9.15417 15.8232 8.86128 15.5303C8.56839 15.2374 8.56839 14.7626 8.86128 14.4697L11.3309 12L8.86127 9.53032C8.56838 9.23743 8.56838 8.76255 8.86127 8.46966Z" fill="black"/>
<path fill-rule="evenodd" clip-rule="evenodd" d="M7.70834 3.76876C10.7959 3.42368 13.9873 3.42368 17.0748 3.76876C18.9012 3.97288 20.3761 5.41153 20.591 7.24849C20.9602 10.4054 20.9602 13.5946 20.591 16.7515C20.3761 18.5885 18.9012 20.0271 17.0748 20.2313C13.9873 20.5763 10.7959 20.5763 7.70833 20.2313C5.88195 20.0271 4.40706 18.5885 4.19221 16.7515C3.82298 13.5946 3.82298 10.4054 4.19221 7.24849C4.40706 5.41153 5.88195 3.97288 7.70834 3.76876ZM16.9082 5.25948C13.9314 4.92677 10.8518 4.92677 7.87495 5.25948C6.73051 5.38738 5.81446 6.29063 5.68205 7.42274C5.32636 10.4639 5.32636 13.5361 5.68205 16.5773C5.81446 17.7094 6.73051 18.6126 7.87494 18.7405C10.8518 19.0732 13.9314 19.0732 16.9082 18.7405C18.0527 18.6126 18.9687 17.7094 19.1011 16.5773C19.4568 13.5361 19.4568 10.4639 19.1011 7.42274C18.9687 6.29063 18.0527 5.38738 16.9082 5.25948Z" fill="black"/>
</svg>
