<svg width="25" height="24" viewBox="0 0 25 24" fill="none" xmlns="http://www.w3.org/2000/svg">
<path d="M12.3916 9C11.287 9 10.3916 9.89543 10.3916 11C10.3916 12.1046 11.287 13 12.3916 13C13.4962 13 14.3916 12.1046 14.3916 11C14.3916 9.89543 13.4962 9 12.3916 9Z" fill="black"/>
<path d="M8.3916 17.5C8.3916 15.8431 9.73475 14.5 11.3916 14.5H13.3916C15.0485 14.5 16.3916 15.8431 16.3916 17.5C16.3916 18.0523 15.9439 18.5 15.3916 18.5H9.3916C8.83932 18.5 8.3916 18.0523 8.3916 17.5Z" fill="black"/>
<path fill-rule="evenodd" clip-rule="evenodd" d="M7.3916 2.25C5.87282 2.25 4.6416 3.48122 4.6416 5V19C4.6416 20.5188 5.87282 21.75 7.3916 21.75H17.3916C18.9104 21.75 20.1416 20.5188 20.1416 19V8.1979C20.1416 7.83178 20.0268 7.47488 19.8133 7.17745L16.8001 2.97955C16.4714 2.52157 15.9422 2.25 15.3784 2.25H7.3916ZM6.1416 5C6.1416 4.30964 6.70125 3.75 7.3916 3.75H14.6416V8.14705C14.6416 8.56126 14.9774 8.89705 15.3916 8.89705H18.6416V19C18.6416 19.6904 18.082 20.25 17.3916 20.25H7.3916C6.70125 20.25 6.1416 19.6904 6.1416 19V5Z" fill="black"/>
</svg>
