<svg width="25" height="24" viewBox="0 0 25 24" fill="none" xmlns="http://www.w3.org/2000/svg">
<path fill-rule="evenodd" clip-rule="evenodd" d="M4.1416 8C4.1416 5.37665 6.26825 3.25 8.8916 3.25H18.8916C19.8581 3.25 20.6416 4.0335 20.6416 5V20C20.6416 20.9665 19.8581 21.75 18.8916 21.75H7.8916C5.82053 21.75 4.1416 20.0711 4.1416 18V8ZM19.1416 5V14.25H7.8916C7.0474 14.25 6.26835 14.529 5.6416 14.9997V8C5.6416 6.20507 7.09668 4.75 8.8916 4.75H12.0995C11.8362 6.73154 11.8599 8.74229 12.171 10.72L12.2334 11.1166C12.2781 11.4006 12.4812 11.6341 12.7564 11.7176C13.0315 11.8012 13.3301 11.7201 13.5252 11.5089L14.8916 10.0297L16.258 11.5089C16.4531 11.7201 16.7517 11.8012 17.0269 11.7176C17.302 11.6341 17.5051 11.4006 17.5498 11.1166L17.6122 10.72C17.9234 8.74228 17.947 6.73154 17.6837 4.75H18.8916C19.0297 4.75 19.1416 4.86193 19.1416 5ZM16.1695 4.75H13.6137C13.3966 6.26418 13.3604 7.79819 13.5055 9.31967L14.157 8.61431C14.553 8.1857 15.2302 8.1857 15.6262 8.61431L16.2777 9.31967C16.4228 7.79819 16.3866 6.26418 16.1695 4.75ZM7.8916 15.75H19.1416V20C19.1416 20.1381 19.0297 20.25 18.8916 20.25H7.8916C6.64896 20.25 5.6416 19.2426 5.6416 18C5.6416 16.7574 6.64896 15.75 7.8916 15.75Z" fill="black"/>
</svg>
