<svg width="25" height="24" viewBox="0 0 25 24" fill="none" xmlns="http://www.w3.org/2000/svg">
<path d="M16.1416 13C16.1416 12.5858 15.8058 12.25 15.3916 12.25H9.3916C8.97739 12.25 8.6416 12.5858 8.6416 13C8.6416 13.4142 8.97739 13.75 9.3916 13.75H15.3916C15.8058 13.75 16.1416 13.4142 16.1416 13Z" fill="black"/>
<path d="M16.1416 17C16.1416 16.5858 15.8058 16.25 15.3916 16.25H9.3916C8.97739 16.25 8.6416 16.5858 8.6416 17C8.6416 17.4142 8.97739 17.75 9.3916 17.75H15.3916C15.8058 17.75 16.1416 17.4142 16.1416 17Z" fill="black"/>
<path fill-rule="evenodd" clip-rule="evenodd" d="M7.3916 2.25C5.87282 2.25 4.6416 3.48122 4.6416 5V19C4.6416 20.5188 5.87282 21.75 7.3916 21.75H17.3916C18.9104 21.75 20.1416 20.5188 20.1416 19V7.96766C20.1416 7.58689 20.0174 7.21651 19.7879 6.9127L16.7901 2.94504C16.4593 2.5073 15.9425 2.25 15.3938 2.25H7.3916ZM6.1416 5C6.1416 4.30964 6.70125 3.75 7.3916 3.75H14.6416V8.14705C14.6416 8.56126 14.9774 8.89705 15.3916 8.89705H18.6416V19C18.6416 19.6904 18.082 20.25 17.3916 20.25H7.3916C6.70125 20.25 6.1416 19.6904 6.1416 19V5Z" fill="black"/>
</svg>
