<svg width="25" height="24" viewBox="0 0 25 24" fill="none" xmlns="http://www.w3.org/2000/svg">
<path fill-rule="evenodd" clip-rule="evenodd" d="M8.6416 9C8.6416 6.92893 10.3205 5.25 12.3916 5.25C14.4627 5.25 16.1416 6.92893 16.1416 9C16.1416 11.0711 14.4627 12.75 12.3916 12.75C10.3205 12.75 8.6416 11.0711 8.6416 9ZM12.3916 6.75C11.149 6.75 10.1416 7.75736 10.1416 9C10.1416 10.2426 11.149 11.25 12.3916 11.25C13.6342 11.25 14.6416 10.2426 14.6416 9C14.6416 7.75736 13.6342 6.75 12.3916 6.75Z" fill="black"/>
<path fill-rule="evenodd" clip-rule="evenodd" d="M5.84801 8.12724C6.12177 4.80603 8.89716 2.25 12.2296 2.25H12.5536C15.8861 2.25 18.6614 4.80603 18.9352 8.12724C19.0819 9.90751 18.532 11.6753 17.4013 13.0581L13.8065 17.4545C13.0752 18.3488 11.708 18.3488 10.9767 17.4545L7.38192 13.0581C6.25118 11.6752 5.70127 9.90751 5.84801 8.12724ZM12.2296 3.75C9.67781 3.75 7.55257 5.70726 7.34294 8.25046C7.22812 9.64343 7.6584 11.0266 8.54314 12.1086L12.1379 16.505C12.269 16.6653 12.5142 16.6653 12.6453 16.505L16.2401 12.1086C17.1248 11.0266 17.5551 9.64343 17.4403 8.25046C17.2306 5.70726 15.1054 3.75 12.5536 3.75H12.2296Z" fill="black"/>
<path d="M8.06242 16.3354C8.24766 15.9649 8.0975 15.5144 7.72701 15.3292C7.35653 15.1439 6.90602 15.2941 6.72078 15.6646L4.72078 19.6646C4.60454 19.8971 4.61696 20.1732 4.75361 20.3943C4.89027 20.6154 5.13167 20.75 5.3916 20.75H19.3916C19.6515 20.75 19.8929 20.6154 20.0296 20.3943C20.1662 20.1732 20.1787 19.8971 20.0624 19.6646L18.0624 15.6646C17.8772 15.2941 17.4267 15.1439 17.0562 15.3292C16.6857 15.5144 16.5355 15.9649 16.7208 16.3354L18.1781 19.25H6.60513L8.06242 16.3354Z" fill="black"/>
</svg>
