<svg width="25" height="24" viewBox="0 0 25 24" fill="none" xmlns="http://www.w3.org/2000/svg">
<path d="M15.4916 11.45C15.9058 11.45 16.2416 11.7858 16.2416 12.2C16.2416 12.6142 15.9058 12.95 15.4916 12.95H9.99155C9.57734 12.95 9.24155 12.6142 9.24155 12.2C9.24155 11.7858 9.57734 11.45 9.99155 11.45H15.4916Z" fill="black"/>
<path fill-rule="evenodd" clip-rule="evenodd" d="M4.98342 15.3042C2.73556 9.78675 6.79466 3.75 12.7525 3.75H13.0739C17.5295 3.75 21.1415 7.36201 21.1415 11.8176C21.1415 16.7785 17.12 20.8 12.1592 20.8H4.33891C4.02065 20.8 3.73705 20.5991 3.63142 20.2989C3.52579 19.9987 3.62114 19.6645 3.86929 19.4652L5.84078 17.8819C5.92698 17.8127 5.95747 17.6951 5.91576 17.5927L4.98342 15.3042ZM12.7525 5.25C7.85994 5.25 4.52662 10.2074 6.37256 14.7383L7.3049 17.0268C7.5969 17.7435 7.38344 18.5669 6.78002 19.0515L6.47058 19.3H12.1592C16.2916 19.3 19.6415 15.95 19.6415 11.8176C19.6415 8.19044 16.7011 5.25 13.0739 5.25H12.7525Z" fill="black"/>
</svg>
