<svg width="25" height="24" viewBox="0 0 25 24" fill="none" xmlns="http://www.w3.org/2000/svg">
<path fill-rule="evenodd" clip-rule="evenodd" d="M12.3916 5.75C8.38754 5.75 5.1416 8.99594 5.1416 13C5.1416 17.0041 8.38754 20.25 12.3916 20.25C16.3957 20.25 19.6416 17.0041 19.6416 13C19.6416 8.99594 16.3957 5.75 12.3916 5.75ZM3.6416 13C3.6416 8.16751 7.55911 4.25 12.3916 4.25C17.2241 4.25 21.1416 8.16751 21.1416 13C21.1416 17.8325 17.2241 21.75 12.3916 21.75C7.55911 21.75 3.6416 17.8325 3.6416 13Z" fill="black"/>
<path fill-rule="evenodd" clip-rule="evenodd" d="M12.3916 7.25C12.8058 7.25 13.1416 7.58579 13.1416 8V12.5843L15.7891 14.239C16.1404 14.4585 16.2471 14.9212 16.0276 15.2725C15.8081 15.6238 15.3454 15.7305 14.9941 15.511L11.9941 13.636C11.7748 13.4989 11.6416 13.2586 11.6416 13V8C11.6416 7.58579 11.9774 7.25 12.3916 7.25Z" fill="black"/>
<path fill-rule="evenodd" clip-rule="evenodd" d="M6.92193 3.46967C7.21482 3.76256 7.21482 4.23744 6.92193 4.53033L4.42193 7.03033C4.12904 7.32322 3.65416 7.32322 3.36127 7.03033C3.06838 6.73744 3.06838 6.26256 3.36127 5.96967L5.86127 3.46967C6.15416 3.17678 6.62904 3.17678 6.92193 3.46967Z" fill="black"/>
<path fill-rule="evenodd" clip-rule="evenodd" d="M17.8613 3.46967C17.5684 3.76256 17.5684 4.23744 17.8613 4.53033L20.3613 7.03033C20.6542 7.32322 21.129 7.32322 21.4219 7.03033C21.7148 6.73744 21.7148 6.26256 21.4219 5.96967L18.9219 3.46967C18.629 3.17678 18.1542 3.17678 17.8613 3.46967Z" fill="black"/>
</svg>
