<svg width="25" height="24" viewBox="0 0 25 24" fill="none" xmlns="http://www.w3.org/2000/svg">
<path fill-rule="evenodd" clip-rule="evenodd" d="M21.422 4.83032C21.7149 4.53742 21.7149 4.06255 21.422 3.76966C21.1291 3.47676 20.6542 3.47676 20.3613 3.76966L4.36133 19.7697C4.06844 20.0626 4.06844 20.5374 4.36133 20.8303C4.65423 21.1232 5.1291 21.1232 5.42199 20.8303L7.50231 18.75H18.9149C21.3878 18.75 23.3925 16.7453 23.3925 14.2724C23.3925 11.7995 21.3878 9.79487 18.9149 9.79487C18.8509 9.79487 18.7872 9.79622 18.7238 9.79889C18.6861 9.15021 18.5341 8.5322 18.2876 7.96472L21.422 4.83032ZM17.1103 9.14203L9.00231 17.25H18.9149C20.5594 17.25 21.8925 15.9169 21.8925 14.2724C21.8925 12.628 20.5594 11.2949 18.9149 11.2949C18.6473 11.2949 18.3891 11.33 18.1441 11.3954C17.9039 11.4596 17.6475 11.4005 17.4595 11.2378C17.2716 11.075 17.1765 10.8296 17.2057 10.5827C17.2237 10.4305 17.233 10.2754 17.233 10.1178C17.233 9.78087 17.1904 9.45393 17.1103 9.14203Z" fill="black"/>
<path d="M13.3236 4.70831C14.4305 4.70831 15.4597 5.04077 16.3169 5.61127C16.4438 5.69573 16.4565 5.87445 16.3488 5.98224L15.6211 6.70985C15.5371 6.79386 15.406 6.80637 15.3036 6.74611C14.7229 6.40434 14.0461 6.20831 13.3236 6.20831C11.7733 6.20831 10.4323 7.11064 9.79979 8.42212C9.62974 8.77473 9.2171 8.93724 8.85227 8.79528C8.36153 8.60433 7.82707 8.49919 7.26627 8.49919C4.8498 8.49919 2.89087 10.4581 2.89087 12.8746C2.89087 14.5209 3.80012 15.9549 5.14385 16.7017C5.29663 16.7866 5.3348 16.9962 5.21119 17.1198L4.48807 17.8429C4.40832 17.9227 4.28474 17.9396 4.18871 17.8805C2.50997 16.8462 1.39087 14.9911 1.39087 12.8746C1.39087 9.6297 4.02138 6.99919 7.26627 6.99919C7.78593 6.99919 8.29065 7.06684 8.77169 7.19402C9.73343 5.69973 11.4121 4.70831 13.3236 4.70831Z" fill="black"/>
</svg>
