<svg width="25" height="24" viewBox="0 0 25 24" fill="none" xmlns="http://www.w3.org/2000/svg">
<path d="M10.5917 6.95001C11.0059 6.95001 11.3417 7.2858 11.3417 7.70001V9.45001H13.0917C13.5059 9.45001 13.8417 9.7858 13.8417 10.2C13.8417 10.6142 13.5059 10.95 13.0917 10.95H11.3417V12.7C11.3417 13.1142 11.0059 13.45 10.5917 13.45C10.1775 13.45 9.84167 13.1142 9.84167 12.7V10.95H8.09167C7.67746 10.95 7.34167 10.6142 7.34167 10.2C7.34167 9.7858 7.67746 9.45001 8.09167 9.45001H9.84167V7.70001C9.84167 7.2858 10.1775 6.95001 10.5917 6.95001Z" fill="black"/>
<path fill-rule="evenodd" clip-rule="evenodd" d="M5.79026 14.9445C8.24705 17.4013 12.1265 17.5684 14.7767 15.4457L19.9324 20.6014C20.2253 20.8943 20.7001 20.8943 20.993 20.6014C21.2859 20.3085 21.2859 19.8336 20.993 19.5407L15.8374 14.3851C17.9601 11.7348 17.793 7.85538 15.3362 5.3986C12.7002 2.76256 8.4263 2.76256 5.79026 5.3986C3.15422 8.03464 3.15422 12.3085 5.79026 14.9445ZM6.85092 6.45926C4.80067 8.50951 4.80067 11.8336 6.85092 13.8839C8.89967 15.9326 12.2204 15.9341 14.271 13.8884L14.2755 13.8839L14.2801 13.8794C16.3258 11.8287 16.3243 8.50801 14.2755 6.45926C12.2253 4.40901 8.90117 4.40901 6.85092 6.45926Z" fill="black"/>
</svg>
