<svg width="25" height="24" viewBox="0 0 25 24" fill="none" xmlns="http://www.w3.org/2000/svg">
<path d="M13.3917 8.99999C13.3917 9.55227 12.9439 9.99999 12.3917 9.99999C11.8394 9.99999 11.3917 9.55227 11.3917 8.99999C11.3917 8.4477 11.8394 7.99999 12.3917 7.99999C12.9439 7.99999 13.3917 8.4477 13.3917 8.99999Z" fill="black"/>
<path d="M12.3917 11.75C12.8059 11.75 13.1417 12.0858 13.1417 12.5V17.5C13.1417 17.9142 12.8059 18.25 12.3917 18.25C11.9774 18.25 11.6417 17.9142 11.6417 17.5V12.5C11.6417 12.0858 11.9774 11.75 12.3917 11.75Z" fill="black"/>
<path fill-rule="evenodd" clip-rule="evenodd" d="M14.662 3.99262C13.57 2.39496 11.2132 2.39495 10.1213 3.99262L9.68935 4.62457C6.98331 8.58378 4.65835 12.7904 2.74562 17.1881L2.65541 17.3955C1.98135 18.9453 2.99971 20.705 4.67926 20.8927C9.80489 21.4656 14.9784 21.4656 20.104 20.8927C21.7836 20.705 22.8019 18.9453 22.1279 17.3955L22.0377 17.1881C20.1249 12.7904 17.8 8.58379 15.0939 4.62457L14.662 3.99262ZM11.3597 4.83903C11.856 4.11282 12.9273 4.11282 13.4236 4.83903L13.8555 5.47098C16.5081 9.352 18.7872 13.4755 20.6621 17.7863L20.7524 17.9938C21.0238 18.6178 20.6137 19.3264 19.9374 19.402C14.9225 19.9625 9.86077 19.9625 4.84587 19.402C4.16957 19.3264 3.75951 18.6178 4.03093 17.9938L4.12114 17.7863C5.9961 13.4755 8.27514 9.35199 10.9277 5.47098L11.3597 4.83903Z" fill="black"/>
</svg>
