<svg width="25" height="24" viewBox="0 0 25 24" fill="none" xmlns="http://www.w3.org/2000/svg">
<path d="M12.3916 10.75C12.8058 10.75 13.1416 11.0858 13.1416 11.5V16.5C13.1416 16.9142 12.8058 17.25 12.3916 17.25C11.9774 17.25 11.6416 16.9142 11.6416 16.5L11.6416 11.5C11.6416 11.0858 11.9774 10.75 12.3916 10.75Z" fill="black"/>
<path d="M12.3916 9.00001C12.9439 9.00001 13.3916 8.55229 13.3916 8.00001C13.3916 7.44772 12.9439 7.00001 12.3916 7.00001C11.8393 7.00001 11.3916 7.44772 11.3916 8.00001C11.3916 8.55229 11.8393 9.00001 12.3916 9.00001Z" fill="black"/>
<path fill-rule="evenodd" clip-rule="evenodd" d="M7.70834 3.76876C10.7959 3.42368 13.9873 3.42368 17.0748 3.76876C18.9012 3.97288 20.3761 5.41153 20.591 7.24849C20.9602 10.4054 20.9602 13.5946 20.591 16.7515C20.3761 18.5885 18.9012 20.0271 17.0748 20.2313C13.9873 20.5763 10.7959 20.5763 7.70833 20.2313C5.88195 20.0271 4.40706 18.5885 4.19221 16.7515C3.82298 13.5946 3.82298 10.4054 4.19221 7.24849C4.40706 5.41153 5.88195 3.97288 7.70834 3.76876ZM16.9082 5.25948C13.9314 4.92677 10.8518 4.92677 7.87495 5.25948C6.73051 5.38738 5.81446 6.29063 5.68205 7.42274C5.32636 10.4639 5.32636 13.5361 5.68205 16.5773C5.81446 17.7094 6.73051 18.6126 7.87494 18.7405C10.8518 19.0732 13.9314 19.0732 16.9082 18.7405C18.0527 18.6126 18.9687 17.7094 19.1011 16.5773C19.4568 13.5361 19.4568 10.4639 19.1011 7.42274C18.9687 6.29063 18.0527 5.38738 16.9082 5.25948Z" fill="black"/>
</svg>
