<svg width="25" height="24" viewBox="0 0 25 24" fill="none" xmlns="http://www.w3.org/2000/svg">
<path d="M10.8613 8.46966C11.1542 8.17677 11.629 8.17677 11.9219 8.46966L14.3916 10.9393L16.8613 8.46967C17.1542 8.17678 17.629 8.17678 17.9219 8.46967C18.2148 8.76256 18.2148 9.23744 17.9219 9.53033L15.4523 12L17.9219 14.4697C18.2148 14.7626 18.2148 15.2374 17.9219 15.5303C17.629 15.8232 17.1542 15.8232 16.8613 15.5303L14.3916 13.0607L11.9219 15.5303C11.629 15.8232 11.1542 15.8232 10.8613 15.5303C10.5684 15.2374 10.5684 14.7626 10.8613 14.4697L13.3309 12L10.8613 9.53032C10.5684 9.23743 10.5684 8.76255 10.8613 8.46966Z" fill="black"/>
<path fill-rule="evenodd" clip-rule="evenodd" d="M8.79755 4.95001C7.64648 4.95001 6.55918 5.47865 5.84825 6.38394L2.28675 10.9192C1.78853 11.5536 1.78853 12.4464 2.28675 13.0808L5.84826 17.6161C6.55918 18.5214 7.64648 19.05 8.79755 19.05H19.4442C20.963 19.05 22.1942 17.8188 22.1942 16.3V7.70001C22.1942 6.18123 20.963 4.95001 19.4442 4.95001H8.79755ZM7.02797 7.31037C7.45452 6.7672 8.10691 6.45001 8.79755 6.45001H19.4442C20.1346 6.45001 20.6942 7.00966 20.6942 7.70001V16.3C20.6942 16.9904 20.1346 17.55 19.4442 17.55H8.79755C8.10691 17.55 7.45452 17.2328 7.02797 16.6897L3.46647 12.1544C3.39529 12.0638 3.39529 11.9362 3.46647 11.8456L7.02797 7.31037Z" fill="black"/>
</svg>
