<svg width="25" height="24" viewBox="0 0 25 24" fill="none" xmlns="http://www.w3.org/2000/svg">
<path fill-rule="evenodd" clip-rule="evenodd" d="M11.094 5.25C10.9278 5.25 10.7743 5.33919 10.692 5.48362L7.34604 11.3569C6.90251 12.1354 6.71638 13.0342 6.81425 13.9249L7.1674 17.1385C7.23023 17.7103 7.6791 18.1632 8.2503 18.2312L10.3673 18.483C11.7649 18.6493 13.1819 18.5051 14.5174 18.0609C15.177 17.8416 15.7052 17.341 15.9597 16.6942L17.6638 12.3636C17.7055 12.2578 17.7343 12.1473 17.7496 12.0345C17.8788 11.0824 17.0454 10.2792 16.0987 10.4437L12.6829 11.0369C11.6039 11.2243 10.672 10.2722 10.8826 9.19744L11.548 5.80158C11.604 5.51581 11.3852 5.25 11.094 5.25ZM9.38869 4.74111C9.73777 4.12836 10.3888 3.75001 11.094 3.75C12.3294 3.74999 13.2575 4.87768 13.02 6.09001L12.3546 9.48587C12.3517 9.50042 12.3532 9.50931 12.3553 9.51569C12.3577 9.52355 12.3628 9.53276 12.3711 9.5413C12.3795 9.54984 12.3886 9.5551 12.3964 9.55774C12.4027 9.55988 12.4116 9.5616 12.4262 9.55906L15.842 8.96579C17.7882 8.62777 19.5017 10.2789 19.236 12.2363C19.2045 12.4681 19.1453 12.6952 19.0597 12.9129L17.3556 17.2435C16.9383 18.3039 16.0722 19.1246 14.9908 19.4843C13.446 19.9981 11.8068 20.1648 10.1902 19.9725L8.07311 19.7207C6.80891 19.5703 5.81544 18.5679 5.67637 17.3024L5.32323 14.0887C5.19081 12.8837 5.44263 11.6677 6.04271 10.6143L9.38869 4.74111Z" fill="black"/>
</svg>
