<svg width="25" height="24" viewBox="0 0 25 24" fill="none" xmlns="http://www.w3.org/2000/svg">
<path fill-rule="evenodd" clip-rule="evenodd" d="M12.3916 4.75C8.38754 4.75 5.1416 7.99594 5.1416 12C5.1416 16.0041 8.38754 19.25 12.3916 19.25C16.3957 19.25 19.6416 16.0041 19.6416 12C19.6416 7.99594 16.3957 4.75 12.3916 4.75ZM3.6416 12C3.6416 7.16751 7.55911 3.25 12.3916 3.25C17.2241 3.25 21.1416 7.16751 21.1416 12C21.1416 16.8325 17.2241 20.75 12.3916 20.75C7.55911 20.75 3.6416 16.8325 3.6416 12Z" fill="black"/>
<path fill-rule="evenodd" clip-rule="evenodd" d="M11.2414 9.30875C10.3078 10.0768 9.68413 11.1571 9.48577 12.3496L9.04784 14.9824C8.82042 16.3496 10.4102 17.2675 11.4805 16.3869L13.5416 14.6912C14.4752 13.9232 15.0989 12.8429 15.2972 11.6504L15.7352 9.01756C15.9626 7.65035 14.3729 6.73251 13.3025 7.61307L11.2414 9.30875ZM12.3916 10.5C11.5632 10.5 10.8916 11.1716 10.8916 12C10.8916 12.8284 11.5632 13.5 12.3916 13.5C13.22 13.5 13.8916 12.8284 13.8916 12C13.8916 11.1716 13.22 10.5 12.3916 10.5Z" fill="black"/>
</svg>
