<svg width="25" height="24" viewBox="0 0 25 24" fill="none" xmlns="http://www.w3.org/2000/svg">
<path fill-rule="evenodd" clip-rule="evenodd" d="M6.41156 6.48009C6.11867 6.1872 6.11867 5.71232 6.41156 5.41943C6.70446 5.12654 7.17933 5.12654 7.47222 5.41943L12.1416 10.0888L12.1416 2.60357C12.1416 1.71266 13.2188 1.26649 13.8487 1.89646L18.1949 6.24266C18.5855 6.63318 18.5855 7.26634 18.1949 7.65687L13.9021 11.9498L18.1949 16.2427C18.5855 16.6332 18.5855 17.2663 18.1949 17.6569L13.8487 22.0031C13.2188 22.633 12.1416 22.1869 12.1416 21.296V13.8107L7.47222 18.4801C7.17933 18.773 6.70446 18.773 6.41156 18.4801C6.11867 18.1872 6.11867 17.7123 6.41156 17.4194L11.8812 11.9498L6.41156 6.48009ZM13.6416 3.81067V10.0888L16.7807 6.94976L13.6416 3.81067ZM16.7807 16.9498L13.6416 13.8107L13.6416 20.0888L16.7807 16.9498Z" fill="black"/>
</svg>
