<svg width="25" height="24" viewBox="0 0 25 24" fill="none" xmlns="http://www.w3.org/2000/svg">
<path d="M10.8917 16C10.8917 15.1716 11.5632 14.5 12.3917 14.5C13.2201 14.5 13.8917 15.1716 13.8917 16C13.8917 16.8284 13.2201 17.5 12.3917 17.5C11.5632 17.5 10.8917 16.8284 10.8917 16Z" fill="black"/>
<path fill-rule="evenodd" clip-rule="evenodd" d="M8.01331 10.5971L7.69787 7.75816C7.65743 7.39418 7.65743 7.02684 7.69787 6.66286L7.72064 6.45796C7.96213 4.28457 9.67073 2.56492 11.8425 2.30941C12.2073 2.26649 12.5759 2.26649 12.9408 2.30941C15.1125 2.56492 16.8212 4.28458 17.0626 6.45797L17.0854 6.66286C17.1258 7.02684 17.1258 7.39418 17.0854 7.75815L16.77 10.5971L17.4566 10.6519C18.5393 10.7384 19.4234 11.5523 19.5989 12.6242C19.965 14.8598 19.965 17.1401 19.5989 19.3758C19.4234 20.4477 18.5393 21.2616 17.4566 21.348L15.9604 21.4675C13.5851 21.6571 11.1983 21.6571 8.82294 21.4675L7.32681 21.348C6.24409 21.2616 5.35998 20.4477 5.18447 19.3758C4.81839 17.1401 4.81839 14.8598 5.18447 12.6242C5.35998 11.5523 6.24409 10.7384 7.32681 10.6519L8.01331 10.5971ZM12.0178 3.79914C12.2662 3.76992 12.5171 3.76992 12.7655 3.79914C14.2441 3.97309 15.4074 5.1439 15.5718 6.62361L15.5946 6.82851C15.6228 7.08239 15.6228 7.33862 15.5946 7.59251L15.2734 10.483C13.3542 10.3594 11.4291 10.3594 9.50986 10.483L9.1887 7.59251C9.16049 7.33862 9.16049 7.08239 9.1887 6.82851L9.21146 6.62361C9.37588 5.1439 10.5392 3.97309 12.0178 3.79914ZM15.8411 12.0277C13.5451 11.8445 11.2382 11.8445 8.94231 12.0277L7.44618 12.1472C7.05125 12.1787 6.72877 12.4756 6.66475 12.8666C6.32497 14.9417 6.32497 17.0583 6.66475 19.1334C6.72877 19.5244 7.05125 19.8213 7.44618 19.8528L8.94231 19.9722C11.2382 20.1555 13.5451 20.1555 15.8411 19.9722L17.3372 19.8528C17.7321 19.8213 18.0546 19.5244 18.1186 19.1334C18.4584 17.0583 18.4584 14.9417 18.1186 12.8666C18.0546 12.4756 17.7321 12.1787 17.3372 12.1472L15.8411 12.0277Z" fill="black"/>
</svg>
