<svg width="25" height="24" viewBox="0 0 25 24" fill="none" xmlns="http://www.w3.org/2000/svg">
<path d="M15.4773 12.4685C15.2185 12.792 14.7466 12.8444 14.4231 12.5857L13.1417 11.5605V15C13.1417 15.4142 12.8059 15.75 12.3917 15.75C11.9774 15.75 11.6417 15.4142 11.6417 15V11.5604L10.3602 12.5857C10.0367 12.8444 9.56474 12.792 9.30598 12.4685C9.04723 12.1451 9.09967 11.6731 9.42311 11.4143L11.9204 9.41648C12.0477 9.31359 12.2093 9.25148 12.3853 9.25003C12.3874 9.25001 12.3896 9.25 12.3917 9.25L12.3941 9.25C12.5732 9.25057 12.7375 9.31392 12.8662 9.41919L15.3602 11.4143C15.6836 11.6731 15.736 12.1451 15.4773 12.4685Z" fill="black"/>
<path fill-rule="evenodd" clip-rule="evenodd" d="M8.77169 7.19402C9.73343 5.69973 11.4121 4.70831 13.3236 4.70831C16.2041 4.70831 18.5587 6.95976 18.7238 9.79889C18.7872 9.79622 18.8509 9.79487 18.9149 9.79487C21.3878 9.79487 23.3925 11.7995 23.3925 14.2724C23.3925 16.7453 21.3878 18.75 18.9149 18.75H7.26627C4.02138 18.75 1.39087 16.1195 1.39087 12.8746C1.39087 9.6297 4.02138 6.99919 7.26627 6.99919C7.78593 6.99919 8.29065 7.06684 8.77169 7.19402ZM13.3236 6.20831C11.7733 6.20831 10.4323 7.11064 9.79979 8.42212C9.62974 8.77473 9.2171 8.93724 8.85227 8.79528C8.36153 8.60433 7.82707 8.49919 7.26627 8.49919C4.8498 8.49919 2.89087 10.4581 2.89087 12.8746C2.89087 15.2911 4.8498 17.25 7.26627 17.25H18.9149C20.5594 17.25 21.8925 15.9169 21.8925 14.2724C21.8925 12.628 20.5594 11.2949 18.9149 11.2949C18.6473 11.2949 18.3891 11.33 18.1441 11.3954C17.9039 11.4596 17.6475 11.4005 17.4595 11.2378C17.2716 11.075 17.1765 10.8296 17.2057 10.5827C17.2237 10.4305 17.233 10.2754 17.233 10.1178C17.233 7.95864 15.4827 6.20831 13.3236 6.20831Z" fill="black"/>
</svg>
