<svg width="25" height="24" viewBox="0 0 25 24" fill="none" xmlns="http://www.w3.org/2000/svg">
<path d="M6.39163 7.5C6.39163 6.94772 6.83935 6.5 7.39163 6.5C7.94392 6.5 8.39163 6.94772 8.39163 7.5C8.39163 8.05228 7.94392 8.5 7.39163 8.5C6.83935 8.5 6.39163 8.05228 6.39163 7.5Z" fill="black"/>
<path d="M9.39163 7.5C9.39163 6.94772 9.83935 6.5 10.3916 6.5C10.9439 6.5 11.3916 6.94772 11.3916 7.5C11.3916 8.05228 10.9439 8.5 10.3916 8.5C9.83935 8.5 9.39163 8.05228 9.39163 7.5Z" fill="black"/>
<path d="M7.39163 13.5C6.83935 13.5 6.39163 13.9477 6.39163 14.5C6.39163 15.0523 6.83935 15.5 7.39163 15.5C7.94392 15.5 8.39163 15.0523 8.39163 14.5C8.39163 13.9477 7.94392 13.5 7.39163 13.5Z" fill="black"/>
<path d="M10.3916 13.5C9.83935 13.5 9.39163 13.9477 9.39163 14.5C9.39163 15.0523 9.83935 15.5 10.3916 15.5C10.9439 15.5 11.3916 15.0523 11.3916 14.5C11.3916 13.9477 10.9439 13.5 10.3916 13.5Z" fill="black"/>
<path fill-rule="evenodd" clip-rule="evenodd" d="M6.33899 3.25C4.82021 3.25 3.58899 4.48122 3.58899 6V9C3.58899 9.78801 3.92043 10.4986 4.45152 11C3.92043 11.5014 3.58899 12.212 3.58899 13V16C3.58899 17.5188 4.82021 18.75 6.33899 18.75H11.6416V20.25H5.39163C4.97742 20.25 4.64163 20.5858 4.64163 21C4.64163 21.4142 4.97742 21.75 5.39163 21.75H19.3916C19.8058 21.75 20.1416 21.4142 20.1416 21C20.1416 20.5858 19.8058 20.25 19.3916 20.25H13.1416V18.75H18.339C19.8578 18.75 21.089 17.5188 21.089 16V13C21.089 12.212 20.7575 11.5014 20.2265 11C20.7575 10.4986 21.089 9.78802 21.089 9V6C21.089 4.48122 19.8578 3.25 18.339 3.25H6.33899ZM6.33899 10.25H18.339C19.0293 10.25 19.589 9.69036 19.589 9V6C19.589 5.30964 19.0293 4.75 18.339 4.75H6.33899C5.64863 4.75 5.08899 5.30964 5.08899 6V9C5.08899 9.69036 5.64863 10.25 6.33899 10.25ZM6.33899 11.75C5.64863 11.75 5.08899 12.3096 5.08899 13V16C5.08899 16.6904 5.64863 17.25 6.33899 17.25H18.339C19.0293 17.25 19.589 16.6904 19.589 16V13C19.589 12.3096 19.0293 11.75 18.339 11.75H6.33899Z" fill="black"/>
</svg>
