<svg width="25" height="24" viewBox="0 0 25 24" fill="none" xmlns="http://www.w3.org/2000/svg">
<path fill-rule="evenodd" clip-rule="evenodd" d="M10.8983 1.50804C11.08 1.29895 11.3622 1.20705 11.6322 1.26904C15.241 2.09755 17.0651 6.05217 16.6361 9.5903C16.4694 10.9657 16.0574 12.0439 15.4508 12.9018C15.4471 12.9071 15.4433 12.9123 15.4396 12.9175C15.5774 12.8498 15.7045 12.7767 15.8235 12.6995C16.4154 12.3153 16.8499 11.8083 17.4155 11.1481C17.4839 11.0683 17.5542 10.9863 17.6269 10.902C17.7903 10.7125 18.0375 10.6169 18.2858 10.6473C18.5342 10.6776 18.7511 10.8299 18.8641 11.0531C19.3616 12.0363 19.6416 13.1479 19.6416 14.3226C19.6416 18.3267 16.3957 21.5726 12.3916 21.5726C8.38754 21.5726 5.1416 18.3267 5.1416 14.3226C5.1416 11.7856 6.44531 9.5535 8.41592 8.25906L8.48347 8.19098C8.51818 8.15601 8.55625 8.12454 8.59712 8.09703C9.46299 7.5144 10.0847 7.03786 10.5033 6.47743C10.8987 5.94801 11.1416 5.3022 11.1416 4.32264C11.1416 3.59736 11.0077 2.90512 10.7639 2.26809C10.6649 2.00936 10.7165 1.71713 10.8983 1.50804ZM12.5628 3.25081C12.6147 3.60079 12.6416 3.95872 12.6416 4.32264C12.6416 5.59106 12.3139 6.55995 11.7051 7.37505C11.1333 8.14054 10.3419 8.72847 9.49626 9.2999L9.42396 9.37275C9.38522 9.41179 9.34231 9.44644 9.29599 9.4761C7.69808 10.4991 6.6416 12.2877 6.6416 14.3226C6.6416 17.4983 9.21596 20.0726 12.3916 20.0726C15.5672 20.0726 18.1416 17.4983 18.1416 14.3226C18.1416 13.8028 18.0728 13.2997 17.9439 12.8217C17.5637 13.2334 17.144 13.6307 16.6401 13.9577C15.7169 14.5569 14.5615 14.899 12.8916 14.899C12.5493 14.899 12.2505 14.6673 12.1652 14.3358C12.08 14.0044 12.2299 13.6572 12.5297 13.4921C13.2085 13.1181 13.7839 12.661 14.2261 12.0357C14.6673 11.4118 15.0053 10.5787 15.1471 9.40975C15.4539 6.879 14.4065 4.38107 12.5628 3.25081Z" fill="black"/>
</svg>
