<svg width="25" height="24" viewBox="0 0 25 24" fill="none" xmlns="http://www.w3.org/2000/svg">
<path fill-rule="evenodd" clip-rule="evenodd" d="M7.95775 6.55229C7.95443 6.66183 7.97477 6.7666 8.01416 6.86169C6.56228 8.09977 5.6416 9.94236 5.6416 12C5.6416 14.0576 6.56228 15.9002 8.01416 17.1383C7.97477 17.2334 7.95443 17.3382 7.95775 17.4477L8.04521 20.335C8.06557 21.0073 8.51145 21.592 9.15432 21.7896C11.2638 22.438 13.5194 22.438 15.6289 21.7896C16.2718 21.592 16.7177 21.0073 16.738 20.335L16.8255 17.4477C16.8288 17.3382 16.8085 17.2334 16.7691 17.1383C17.7279 16.3206 18.4551 15.2393 18.8384 14.0064C18.9755 14.1561 19.1726 14.25 19.3916 14.25C19.8058 14.25 20.1416 13.9142 20.1416 13.5V10.5C20.1416 10.0858 19.8058 9.75 19.3916 9.75C19.1726 9.75 18.9755 9.84388 18.8384 9.99358C18.4551 8.76074 17.7279 7.67938 16.7691 6.8617C16.8085 6.76661 16.8288 6.66184 16.8255 6.55229L16.738 3.66496C16.7177 2.99272 16.2718 2.40795 15.6289 2.21036C13.5194 1.562 11.2638 1.562 9.15432 2.21036C8.51145 2.40795 8.06557 2.99272 8.04521 3.66496L7.95775 6.55229ZM15.1882 3.64417C13.3659 3.08406 11.4173 3.08406 9.595 3.64417C9.56574 3.65316 9.54545 3.67978 9.54452 3.71037L9.47791 5.90952C10.36 5.48677 11.3481 5.25 12.3916 5.25C13.4351 5.25 14.4232 5.48677 15.3053 5.90953L15.2387 3.71037C15.2378 3.67978 15.2175 3.65316 15.1882 3.64417ZM9.54452 20.2896L9.47791 18.0905C10.36 18.5132 11.3481 18.75 12.3916 18.75C13.4351 18.75 14.4232 18.5132 15.3053 18.0905L15.2387 20.2896C15.2378 20.3202 15.2175 20.3468 15.1882 20.3558C13.3659 20.9159 11.4173 20.9159 9.595 20.3558C9.56574 20.3468 9.54545 20.3202 9.54452 20.2896ZM12.3916 6.75C9.49211 6.75 7.1416 9.1005 7.1416 12C7.1416 14.8995 9.49211 17.25 12.3916 17.25C15.2911 17.25 17.6416 14.8995 17.6416 12C17.6416 9.1005 15.2911 6.75 12.3916 6.75Z" fill="black"/>
</svg>
