<svg width="25" height="24" viewBox="0 0 25 24" fill="none" xmlns="http://www.w3.org/2000/svg">
<path d="M9.89163 15.25C9.47742 15.25 9.14163 15.5858 9.14163 16C9.14163 16.4142 9.47742 16.75 9.89163 16.75H11.6416V18.5C11.6416 18.9142 11.9774 19.25 12.3916 19.25C12.8058 19.25 13.1416 18.9142 13.1416 18.5V16.75H14.8916C15.3058 16.75 15.6416 16.4142 15.6416 16C15.6416 15.5858 15.3058 15.25 14.8916 15.25H13.1416V13.5C13.1416 13.0858 12.8058 12.75 12.3916 12.75C11.9774 12.75 11.6416 13.0858 11.6416 13.5V15.25H9.89163Z" fill="black"/>
<path fill-rule="evenodd" clip-rule="evenodd" d="M7.64163 5.4612V6.69898C7.27234 6.72683 6.90324 6.75794 6.53436 6.79229C4.86527 6.94775 3.58899 8.34842 3.58899 10.0247V17.9753C3.58899 19.6516 4.86527 21.0523 6.53436 21.2077C10.4308 21.5706 14.3525 21.5706 18.2489 21.2077C19.918 21.0523 21.1943 19.6516 21.1943 17.9753V10.0247C21.1943 8.34842 19.918 6.94775 18.2489 6.79229C17.88 6.75794 17.5109 6.72684 17.1416 6.69898V5.4612C17.1416 4.59495 16.5079 3.85906 15.6512 3.73056L14.4313 3.54757C13.0791 3.34474 11.7042 3.34474 10.3519 3.54757L9.13204 3.73056C8.27538 3.85906 7.64163 4.59495 7.64163 5.4612ZM14.2088 5.03098C13.0041 4.85027 11.7792 4.85027 10.5745 5.03098L9.35455 5.21396C9.23217 5.23232 9.14163 5.33745 9.14163 5.4612V6.60379C11.3069 6.49223 13.4764 6.49223 15.6416 6.60379V5.4612C15.6416 5.33745 15.5511 5.23232 15.4287 5.21396L14.2088 5.03098ZM18.1098 8.28583C14.3059 7.93155 10.4773 7.93155 6.67346 8.28583C5.77557 8.36946 5.08899 9.12295 5.08899 10.0247V10.25H19.6943V10.0247C19.6943 9.12295 19.0077 8.36946 18.1098 8.28583ZM19.6943 11.75H5.08899V17.9753C5.08899 18.8771 5.77557 19.6306 6.67346 19.7142C10.4773 20.0685 14.3059 20.0685 18.1098 19.7142C19.0077 19.6306 19.6943 18.8771 19.6943 17.9753V11.75Z" fill="black"/>
</svg>
