<svg width="25" height="24" viewBox="0 0 25 24" fill="none" xmlns="http://www.w3.org/2000/svg">
<path fill-rule="evenodd" clip-rule="evenodd" d="M14.6416 5.5C14.6416 3.70507 16.0967 2.25 17.8916 2.25C19.6865 2.25 21.1416 3.70507 21.1416 5.5C21.1416 7.29493 19.6865 8.75 17.8916 8.75C16.932 8.75 16.0695 8.33409 15.4746 7.6727L12.7573 9.15487L9.71675 10.8923C9.98712 11.3664 10.1416 11.9152 10.1416 12.5C10.1416 12.7963 10.1019 13.0834 10.0276 13.3562L15.4746 16.3273C16.0695 15.6659 16.932 15.25 17.8916 15.25C19.6865 15.25 21.1416 16.7051 21.1416 18.5C21.1416 20.2949 19.6865 21.75 17.8916 21.75C16.0967 21.75 14.6416 20.2949 14.6416 18.5C14.6416 18.2036 14.6813 17.9166 14.7556 17.6438L9.30864 14.6727C8.71372 15.3341 7.85123 15.75 6.8916 15.75C5.09668 15.75 3.6416 14.2949 3.6416 12.5C3.6416 10.7051 5.09668 9.25 6.8916 9.25C7.54228 9.25 8.1483 9.44122 8.65653 9.77052L12.026 7.84514L14.7556 6.35625C14.6813 6.08344 14.6416 5.79635 14.6416 5.5ZM17.8916 3.75C16.9251 3.75 16.1416 4.5335 16.1416 5.5C16.1416 6.4665 16.9251 7.25 17.8916 7.25C18.8581 7.25 19.6416 6.4665 19.6416 5.5C19.6416 4.5335 18.8581 3.75 17.8916 3.75ZM6.8916 10.75C5.9251 10.75 5.1416 11.5335 5.1416 12.5C5.1416 13.4665 5.9251 14.25 6.8916 14.25C7.8581 14.25 8.6416 13.4665 8.6416 12.5C8.6416 11.5335 7.8581 10.75 6.8916 10.75ZM16.1416 18.5C16.1416 17.5335 16.9251 16.75 17.8916 16.75C18.8581 16.75 19.6416 17.5335 19.6416 18.5C19.6416 19.4665 18.8581 20.25 17.8916 20.25C16.9251 20.25 16.1416 19.4665 16.1416 18.5Z" fill="black"/>
</svg>
