<svg width="25" height="24" viewBox="0 0 25 24" fill="none" xmlns="http://www.w3.org/2000/svg">
<path d="M16.6124 5.59854C16.7276 5.48336 16.6637 5.2884 16.5015 5.27343C16.3334 5.25792 16.1633 5.25 15.9916 5.25C14.5581 5.25 13.2968 5.92214 12.3916 6.79183C11.4864 5.92214 10.2251 5.25 8.7916 5.25C6.01074 5.25 3.6416 7.3293 3.6416 10.0298C3.6416 11.8797 4.43048 13.5064 5.52342 14.8815C5.72481 15.1349 5.93765 15.3812 6.15944 15.6204C6.27342 15.7433 6.46632 15.7446 6.58483 15.6261L7.22169 14.9892C7.33734 14.8736 7.33874 14.6869 7.22798 14.5666C7.04229 14.3648 6.86497 14.1587 6.69769 13.9482C5.73739 12.74 5.1416 11.4333 5.1416 10.0298C5.1416 8.2791 6.71235 6.75 8.7916 6.75C9.98575 6.75 11.1008 7.46342 11.797 8.36892C11.939 8.55356 12.1587 8.66176 12.3916 8.66176C12.6245 8.66176 12.8442 8.55356 12.9862 8.36892C13.5425 7.64536 14.3663 7.04445 15.2841 6.83218C15.362 6.81416 15.4344 6.77652 15.491 6.71997L16.6124 5.59854Z" fill="black"/>
<path fill-rule="evenodd" clip-rule="evenodd" d="M4.8946 19.4363L4.86127 19.4697C4.56838 19.7626 4.56838 20.2374 4.86127 20.5303C5.15416 20.8232 5.62904 20.8232 5.92193 20.5303L8.63917 17.8131C8.89588 18.005 9.15307 18.1893 9.40813 18.366C9.93006 18.7276 10.4581 19.0611 10.9413 19.3072C11.3951 19.5383 11.9169 19.75 12.3916 19.75C12.8663 19.75 13.3881 19.5383 13.8419 19.3072C14.3251 19.0611 14.8531 18.7276 15.3751 18.366C16.7416 17.4193 18.1687 16.2543 19.2598 14.8815C20.3527 13.5064 21.1416 11.8797 21.1416 10.0298C21.1416 8.73357 20.5958 7.58046 19.7205 6.73172L21.9219 4.53033C22.2148 4.23744 22.2148 3.76256 21.9219 3.46967C21.638 3.18572 21.183 3.17705 20.8886 3.44365L4.92193 19.4103C4.91299 19.4193 4.90387 19.4279 4.8946 19.4363ZM18.6594 7.79291L9.7116 16.7407C9.89432 16.8746 10.0782 17.0054 10.2623 17.133C10.7572 17.4758 11.2233 17.7675 11.6221 17.9706C12.0502 18.1886 12.2983 18.25 12.3916 18.25C12.4849 18.25 12.733 18.1886 13.1612 17.9706C13.5599 17.7675 14.026 17.4758 14.5209 17.133C15.8287 16.2269 17.1233 15.1588 18.0855 13.9482C19.0458 12.74 19.6416 11.4333 19.6416 10.0298C19.6416 9.183 19.2741 8.38806 18.6594 7.79291Z" fill="black"/>
</svg>
