<svg width="25" height="24" viewBox="0 0 25 24" fill="none" xmlns="http://www.w3.org/2000/svg">
<path d="M5.15386 8.38953C5.0434 8.38953 4.95386 8.47907 4.95386 8.58953V10.9653C4.95386 11.0758 5.0434 11.1653 5.15386 11.1653H7.90759C8.67411 11.1653 9.29549 10.5439 9.29549 9.77743C9.29549 9.01091 8.67411 8.38953 7.90759 8.38953H5.15386Z" fill="black"/>
<path d="M5.15386 12.9447C5.0434 12.9447 4.95386 13.0342 4.95386 13.1447V16.0187C4.95386 16.1292 5.0434 16.2187 5.15386 16.2187H8.08553C8.98962 16.2187 9.72254 15.4858 9.72254 14.5817C9.72254 13.6776 8.98962 12.9447 8.08553 12.9447H5.15386Z" fill="black"/>
<path d="M16.5285 13.087C16.4798 13.087 16.4404 13.0476 16.4404 12.9989C16.4404 12.0256 17.2294 11.2365 18.2028 11.2365H18.5925C19.5659 11.2365 20.355 12.0256 20.355 12.9989C20.355 13.0476 20.3155 13.087 20.2668 13.087H16.5285Z" fill="black"/>
<path fill-rule="evenodd" clip-rule="evenodd" d="M12.962 11.9933C12.8981 11.9127 12.8314 11.8345 12.7623 11.759C13.1947 11.0757 13.4144 10.2796 13.3939 9.47161C13.4119 8.77696 13.2728 8.087 12.9868 7.45324C12.708 6.82314 12.2622 6.28121 11.6978 5.88596L11.6865 5.87812C11.154 5.51255 10.5504 5.26371 9.91527 5.14778C9.30541 5.0216 8.68371 4.96145 8.06094 4.96837H2.3916C1.56317 4.96837 0.891602 5.63994 0.891602 6.46837V18.4251C0.891602 19.2536 1.56317 19.9251 2.3916 19.9251H8.19225C8.84911 19.9256 9.50336 19.8424 10.1392 19.6775C10.7928 19.5084 11.4121 19.227 11.9694 18.8459L11.9768 18.8409C12.533 18.4556 12.994 17.9498 13.3259 17.3619C13.5393 17.7708 13.8018 18.1535 14.1084 18.5011C14.117 18.5108 14.1257 18.5205 14.1346 18.53C14.6731 19.1094 15.3346 19.5608 16.0703 19.8516L16.0891 19.8588C16.8448 20.1458 17.6477 20.2883 18.4559 20.2791C19.6185 20.3082 20.7654 20.0017 21.7582 19.3957C21.7873 19.3779 21.8158 19.3592 21.8436 19.3395C22.8905 18.598 23.6453 17.5141 23.9759 16.2749C24.0413 16.0296 24.0426 15.7753 23.9844 15.5349C24.0967 15.3424 24.1676 15.1222 24.1844 14.8861C24.2409 14.0935 24.173 13.2971 23.9831 12.5255L23.9817 12.5198C23.7881 11.7462 23.4494 11.0163 22.9837 10.3686L22.9681 10.3473C22.475 9.68656 21.8385 9.14614 21.1066 8.76627C21.0969 8.7612 21.0871 8.75624 21.0772 8.75139C20.2783 8.3588 19.3979 8.16008 18.5079 8.17109C17.6943 8.16738 16.888 8.32499 16.1358 8.63491L16.1261 8.63892C15.4187 8.93617 14.7773 9.37095 14.2395 9.91814L14.2277 9.93031C13.688 10.4921 13.2697 11.1589 12.9993 11.8893L12.9983 11.892C12.9859 11.9257 12.9738 11.9595 12.962 11.9933ZM10.2192 11.924C10.7943 12.0626 11.3096 12.3758 11.6962 12.8169C11.7626 12.8926 11.8252 12.972 11.8836 13.055C11.9116 13.0976 11.9386 13.1408 11.9646 13.1844C12.2819 13.7187 12.4424 14.3328 12.4257 14.956C12.442 15.4999 12.321 16.0393 12.0738 16.5242C11.8505 16.9578 11.5238 17.3299 11.1227 17.6077C10.7086 17.8909 10.2484 18.0999 9.76264 18.2255C9.53292 18.2851 9.30021 18.3314 9.06567 18.3644C8.77696 18.405 8.48546 18.4253 8.19333 18.4251H2.3916V6.46837H8.06968C8.59362 6.46196 9.11667 6.51296 9.62949 6.62044C10.0628 6.69711 10.4747 6.86564 10.8374 7.11468C11.1795 7.35422 11.4492 7.68298 11.6173 8.06514C11.8173 8.50626 11.9118 8.98788 11.8931 9.47182C11.9123 9.94999 11.7982 10.423 11.5652 10.8387C11.5396 10.8844 11.5126 10.9293 11.4841 10.9735C11.1714 11.3942 10.7032 11.7226 10.2192 11.924ZM16.3934 14.9936C16.3901 14.9225 16.3901 14.851 16.3934 14.7794H22.6882C22.6973 14.6525 22.7024 14.5256 22.7035 14.3987C22.7049 14.2356 22.6998 14.0725 22.6882 13.91C22.6732 13.6987 22.6471 13.4882 22.6101 13.2794C22.5867 13.1468 22.5588 13.0149 22.5266 12.8839C22.3791 12.2945 22.121 11.7382 21.7659 11.2444C21.4085 10.7654 20.9468 10.3733 20.4156 10.0976C19.8246 9.80719 19.1727 9.66101 18.5139 9.67115C17.8942 9.66663 17.2799 9.78586 16.7072 10.0218C16.1828 10.2421 15.7076 10.5643 15.3094 10.9695C14.9123 11.3828 14.6048 11.8732 14.406 12.4101C14.1928 12.9897 14.0865 13.6029 14.0923 14.2202C14.0825 14.8463 14.1855 15.469 14.3965 16.0588C14.5758 16.5929 14.8603 17.0859 15.2333 17.5088C15.6193 17.9241 16.0936 18.2479 16.6216 18.4566C17.2103 18.6801 17.8364 18.7895 18.4663 18.7788C19.3501 18.8062 20.2226 18.5756 20.9766 18.1154C21.2704 17.9073 21.5324 17.6623 21.7572 17.3882C22.0292 17.0566 22.2467 16.6824 22.4003 16.2794C22.4489 16.1517 22.4911 16.0212 22.5266 15.8882H20.4251C20.3715 16.0302 20.2963 16.162 20.2031 16.2794C20.1009 16.4082 19.9768 16.5197 19.8356 16.6085C19.4699 16.85 19.038 16.9725 18.5994 16.9591C18.3092 16.9893 18.0158 16.9594 17.7376 16.8714C17.4595 16.7833 17.2025 16.639 16.9829 16.4474C16.935 16.3932 16.8898 16.3372 16.8474 16.2794C16.5725 15.9047 16.4145 15.4573 16.3934 14.9936Z" fill="black"/>
<path d="M20.8382 6.39593C20.8359 6.17662 20.6575 6 20.4382 6H16.4133C16.1924 6 16.0133 6.17909 16.0133 6.4V7.47128C16.0133 7.6922 16.1924 7.87128 16.4133 7.87128H20.4491C20.6716 7.87128 20.8513 7.68971 20.8491 7.46722L20.8382 6.39593Z" fill="black"/>
</svg>
