<svg width="25" height="24" viewBox="0 0 25 24" fill="none" xmlns="http://www.w3.org/2000/svg">
<path fill-rule="evenodd" clip-rule="evenodd" d="M8.64158 13C8.64158 10.9289 10.3205 9.25 12.3916 9.25C14.4626 9.25 16.1416 10.9289 16.1416 13C16.1416 15.0711 14.4626 16.75 12.3916 16.75C10.3205 16.75 8.64158 15.0711 8.64158 13ZM12.3916 10.75C11.1489 10.75 10.1416 11.7574 10.1416 13C10.1416 14.2426 11.1489 15.25 12.3916 15.25C13.6342 15.25 14.6416 14.2426 14.6416 13C14.6416 11.7574 13.6342 10.75 12.3916 10.75Z" fill="black"/>
<path fill-rule="evenodd" clip-rule="evenodd" d="M11.0077 5.75C9.96254 5.75 9.11526 6.59728 9.11526 7.64245C9.11526 8.30841 8.60404 8.86283 7.94026 8.91674L5.71066 9.09782C5.27289 9.13337 4.91286 9.45709 4.83115 9.88864C4.38241 12.2586 4.34895 14.6886 4.73226 17.0701L4.82951 17.6743C4.92136 18.2449 5.39099 18.679 5.96705 18.7258L7.90938 18.8835C10.8926 19.1258 13.8905 19.1258 16.8738 18.8835L18.8161 18.7258C19.3922 18.679 19.8618 18.2449 19.9536 17.6743L20.0509 17.0701C20.4342 14.6886 20.4007 12.2586 19.952 9.88864C19.8703 9.45709 19.5103 9.13337 19.0725 9.09782L16.8429 8.91674C16.1791 8.86284 15.6679 8.30841 15.6679 7.64245C15.6679 6.59728 14.8206 5.75 13.7754 5.75H11.0077ZM7.62134 7.4377C7.72719 5.65944 9.20286 4.25 11.0077 4.25H13.7754C15.5803 4.25 17.056 5.65944 17.1618 7.4377L19.1939 7.60274C20.3048 7.69296 21.2185 8.51446 21.4258 9.60958C21.9069 12.1503 21.9428 14.7554 21.5318 17.3084L21.4346 17.9126C21.233 19.1652 20.202 20.1182 18.9375 20.2209L16.9952 20.3786C13.9312 20.6274 10.852 20.6274 7.78796 20.3786L5.84563 20.2209C4.5811 20.1182 3.55019 19.1652 3.34858 17.9126L3.25132 17.3084C2.84039 14.7554 2.87626 12.1503 3.35734 9.60958C3.56469 8.51446 4.47832 7.69296 5.58924 7.60274L7.62134 7.4377Z" fill="black"/>
</svg>
