<svg width="25" height="24" viewBox="0 0 25 24" fill="none" xmlns="http://www.w3.org/2000/svg">
<path fill-rule="evenodd" clip-rule="evenodd" d="M3.88071 6.2367C4.04653 4.81893 5.24777 3.75 6.67521 3.75H17.4179C17.6 3.75 17.7759 3.81626 17.9127 3.93641L20.6732 6.3602C21.2938 6.90511 21.6367 7.70008 21.607 8.52543L21.263 18.0988C21.2098 19.5781 19.9951 20.75 18.5148 20.75H6.50451C5.17489 20.75 4.05236 19.762 3.88351 18.4432C3.38702 14.565 3.36563 10.6407 3.81983 6.75728L3.88071 6.2367ZM6.67521 5.25C6.00879 5.25 5.44797 5.74905 5.37056 6.41096L5.30967 6.93153C4.86965 10.6937 4.89037 14.4955 5.37137 18.2527C5.44437 18.8229 5.92967 19.25 6.50451 19.25H7.1416V15C7.1416 14.0335 7.9251 13.25 8.8916 13.25H15.8916C16.8581 13.25 17.6416 14.0335 17.6416 15V19.25H18.5148C19.1877 19.25 19.7398 18.7173 19.764 18.0449L20.108 8.47157C20.1214 8.09641 19.9656 7.73505 19.6835 7.48737L17.1416 5.2555V7.59998C17.1416 8.56647 16.3581 9.34998 15.3916 9.34998H9.3916C8.4251 9.34998 7.6416 8.56647 7.6416 7.59998V5.25H6.67521ZM9.1416 5.25V7.59998C9.1416 7.73805 9.25353 7.84998 9.3916 7.84998H15.3916C15.5297 7.84998 15.6416 7.73805 15.6416 7.59998V5.25H9.1416ZM16.1416 19.25H8.6416V15C8.6416 14.8619 8.75353 14.75 8.8916 14.75H15.8916C16.0297 14.75 16.1416 14.8619 16.1416 15V19.25Z" fill="black"/>
</svg>
