<svg width="25" height="24" viewBox="0 0 25 24" fill="none" xmlns="http://www.w3.org/2000/svg">
<path fill-rule="evenodd" clip-rule="evenodd" d="M10.8793 3.78769C11.8639 2.80312 13.1992 2.25 14.5916 2.25H17.2916C17.7058 2.25 18.0416 2.58579 18.0416 3V6.6C18.0416 7.01421 17.7058 7.35 17.2916 7.35H14.5916C14.5518 7.35 14.5137 7.3658 14.4855 7.39393C14.4574 7.42206 14.4416 7.46022 14.4416 7.5V9.45H17.2916C17.5226 9.45 17.7406 9.5564 17.8828 9.73844C18.0249 9.92048 18.0752 10.1578 18.0192 10.3819L17.1192 13.9819C17.0357 14.3158 16.7358 14.55 16.3916 14.55H14.4416V21C14.4416 21.4142 14.1058 21.75 13.6916 21.75H10.0916C9.67739 21.75 9.3416 21.4142 9.3416 21V14.55H7.3916C6.97739 14.55 6.6416 14.2142 6.6416 13.8V10.2C6.6416 9.78579 6.97739 9.45 7.3916 9.45H9.3416V7.5C9.3416 6.10761 9.89472 4.77226 10.8793 3.78769ZM14.5916 3.75C13.597 3.75 12.6432 4.14509 11.94 4.84835C11.2367 5.55161 10.8416 6.50544 10.8416 7.5V10.2C10.8416 10.6142 10.5058 10.95 10.0916 10.95H8.1416V13.05H10.0916C10.5058 13.05 10.8416 13.3858 10.8416 13.8V20.25H12.9416V13.8C12.9416 13.3858 13.2774 13.05 13.6916 13.05H15.806L16.331 10.95H13.6916C13.2774 10.95 12.9416 10.6142 12.9416 10.2V7.5C12.9416 7.06239 13.1154 6.64271 13.4249 6.33327C13.7343 6.02384 14.154 5.85 14.5916 5.85H16.5416V3.75H14.5916Z" fill="black"/>
</svg>
