<svg width="25" height="24" viewBox="0 0 25 24" fill="none" xmlns="http://www.w3.org/2000/svg">
<path fill-rule="evenodd" clip-rule="evenodd" d="M4.6416 5C4.6416 3.48122 5.87282 2.25 7.3916 2.25H15.3784C15.9422 2.25 16.4714 2.52157 16.8001 2.97955L19.8133 7.17745C20.0268 7.47488 20.1416 7.83178 20.1416 8.1979V19C20.1416 20.5188 18.9104 21.75 17.3916 21.75H7.3916C5.87282 21.75 4.6416 20.5188 4.6416 19V5ZM7.3916 3.75C6.70125 3.75 6.1416 4.30964 6.1416 5V19C6.1416 19.6904 6.70125 20.25 7.3916 20.25H17.3916C18.082 20.25 18.6416 19.6904 18.6416 19V8.89705H15.3916C14.9774 8.89705 14.6416 8.56126 14.6416 8.14705V3.75H7.3916Z" fill="black"/>
<path d="M15.4773 13.2185C15.2185 13.542 14.7466 13.5944 14.4231 13.3357L13.1417 12.3105V15.75C13.1417 16.1642 12.8059 16.5 12.3917 16.5C11.9774 16.5 11.6417 16.1642 11.6417 15.75V12.3104L10.3602 13.3357C10.0367 13.5944 9.56473 13.542 9.30598 13.2185C9.04722 12.8951 9.09966 12.4231 9.42311 12.1643L11.9204 10.1665C12.0477 10.0636 12.2093 10.0015 12.3853 10C12.3874 10 12.3895 10 12.3917 10L12.3941 10C12.5732 10.0006 12.7375 10.0639 12.8662 10.1692L15.3602 12.1643C15.6836 12.4231 15.736 12.8951 15.4773 13.2185Z" fill="black"/>
</svg>
