<svg width="25" height="24" viewBox="0 0 25 24" fill="none" xmlns="http://www.w3.org/2000/svg">
<path fill-rule="evenodd" clip-rule="evenodd" d="M10.8609 3.55448C11.3462 3.35346 11.8663 3.25 12.3916 3.25C12.9169 3.25 13.437 3.35346 13.9223 3.55448C14.4076 3.7555 14.8486 4.05014 15.22 4.42157C15.5915 4.79301 15.8861 5.23397 16.0871 5.71927C16.2881 6.20457 16.3916 6.72471 16.3916 7.25C16.3916 7.77529 16.2881 8.29543 16.0871 8.78073C15.8861 9.26603 15.5915 9.70699 15.22 10.0784C14.8486 10.4499 14.4076 10.7445 13.9223 10.9455C13.437 11.1465 12.9169 11.25 12.3916 11.25C11.8663 11.25 11.3462 11.1465 10.8609 10.9455C10.3756 10.7445 9.93461 10.4499 9.56317 10.0784C9.19174 9.70699 8.8971 9.26604 8.69608 8.78073C8.49506 8.29543 8.3916 7.77529 8.3916 7.25C8.3916 6.72471 8.49506 6.20457 8.69608 5.71927C8.8971 5.23396 9.19174 4.79301 9.56317 4.42157C9.93461 4.05014 10.3756 3.7555 10.8609 3.55448ZM12.3916 4.75C12.0633 4.75 11.7382 4.81466 11.4349 4.9403C11.1316 5.06594 10.856 5.25009 10.6238 5.48223C10.3917 5.71438 10.2075 5.98998 10.0819 6.29329C9.95627 6.59661 9.8916 6.92169 9.8916 7.25C9.8916 7.5783 9.95627 7.90339 10.0819 8.20671C10.2075 8.51002 10.3917 8.78562 10.6238 9.01777C10.856 9.24991 11.1316 9.43406 11.4349 9.5597C11.7382 9.68534 12.0633 9.75 12.3916 9.75C12.7199 9.75 13.045 9.68534 13.3483 9.5597C13.6516 9.43406 13.9272 9.24991 14.1594 9.01777C14.3915 8.78562 14.5757 8.51002 14.7013 8.20671C14.8269 7.90339 14.8916 7.5783 14.8916 7.25C14.8916 6.9217 14.8269 6.59661 14.7013 6.29329C14.5757 5.98998 14.3915 5.71438 14.1594 5.48223C13.9272 5.25009 13.6516 5.06594 13.3483 4.9403C13.045 4.81466 12.7199 4.75 12.3916 4.75Z" fill="black"/>
<path fill-rule="evenodd" clip-rule="evenodd" d="M5.86087 12.5545C6.34617 12.3535 6.86631 12.25 7.3916 12.25C7.91689 12.25 8.43703 12.3535 8.92233 12.5545C9.40764 12.7555 9.84859 13.0501 10.22 13.4216C10.5915 13.793 10.8861 14.234 11.0871 14.7193C11.2881 15.2046 11.3916 15.7247 11.3916 16.25C11.3916 16.7753 11.2881 17.2954 11.0871 17.7807C10.8861 18.266 10.5915 18.707 10.22 19.0784C9.84859 19.4499 9.40764 19.7445 8.92233 19.9455C8.43703 20.1465 7.91689 20.25 7.3916 20.25C6.86631 20.25 6.34617 20.1465 5.86087 19.9455C5.37557 19.7445 4.93461 19.4499 4.56317 19.0784C4.19174 18.707 3.8971 18.266 3.69608 17.7807C3.49506 17.2954 3.3916 16.7753 3.3916 16.25C3.3916 15.7247 3.49506 15.2046 3.69608 14.7193C3.8971 14.234 4.19174 13.793 4.56317 13.4216C4.93461 13.0501 5.37557 12.7555 5.86087 12.5545ZM7.3916 13.75C7.0633 13.75 6.73821 13.8147 6.43489 13.9403C6.13158 14.0659 5.85598 14.2501 5.62383 14.4822C5.39169 14.7144 5.20754 14.99 5.0819 15.2933C4.95627 15.5966 4.8916 15.9217 4.8916 16.25C4.8916 16.5783 4.95627 16.9034 5.0819 17.2067C5.20754 17.51 5.39169 17.7856 5.62383 18.0178C5.85598 18.2499 6.13158 18.4341 6.43489 18.5597C6.73821 18.6853 7.0633 18.75 7.3916 18.75C7.71991 18.75 8.045 18.6853 8.34831 18.5597C8.65162 18.4341 8.92722 18.2499 9.15937 18.0178C9.39151 17.7856 9.57566 17.51 9.7013 17.2067C9.82694 16.9034 9.8916 16.5783 9.8916 16.25C9.8916 15.9217 9.82694 15.5966 9.7013 15.2933C9.57566 14.99 9.39151 14.7144 9.15937 14.4822C8.92722 14.2501 8.65162 14.0659 8.34831 13.9403C8.045 13.8147 7.71991 13.75 7.3916 13.75Z" fill="black"/>
<path fill-rule="evenodd" clip-rule="evenodd" d="M17.3916 12.25C16.8663 12.25 16.3462 12.3535 15.8609 12.5545C15.3756 12.7555 14.9346 13.0501 14.5632 13.4216C14.1917 13.793 13.8971 14.234 13.6961 14.7193C13.4951 15.2046 13.3916 15.7247 13.3916 16.25C13.3916 16.7753 13.4951 17.2954 13.6961 17.7807C13.8971 18.266 14.1917 18.707 14.5632 19.0784C14.9346 19.4499 15.3756 19.7445 15.8609 19.9455C16.3462 20.1465 16.8663 20.25 17.3916 20.25C17.9169 20.25 18.437 20.1465 18.9223 19.9455C19.4076 19.7445 19.8486 19.4499 20.22 19.0784C20.5915 18.707 20.8861 18.266 21.0871 17.7807C21.2881 17.2954 21.3916 16.7753 21.3916 16.25C21.3916 15.7247 21.2881 15.2046 21.0871 14.7193C20.8861 14.234 20.5915 13.793 20.22 13.4216C19.8486 13.0501 19.4076 12.7555 18.9223 12.5545C18.437 12.3535 17.9169 12.25 17.3916 12.25ZM16.4349 13.9403C16.7382 13.8147 17.0633 13.75 17.3916 13.75C17.7199 13.75 18.045 13.8147 18.3483 13.9403C18.6516 14.0659 18.9272 14.2501 19.1594 14.4822C19.3915 14.7144 19.5757 14.99 19.7013 15.2933C19.8269 15.5966 19.8916 15.9217 19.8916 16.25C19.8916 16.5783 19.8269 16.9034 19.7013 17.2067C19.5757 17.51 19.3915 17.7856 19.1594 18.0178C18.9272 18.2499 18.6516 18.4341 18.3483 18.5597C18.045 18.6853 17.7199 18.75 17.3916 18.75C17.0633 18.75 16.7382 18.6853 16.4349 18.5597C16.1316 18.4341 15.856 18.2499 15.6238 18.0178C15.3917 17.7856 15.2075 17.51 15.0819 17.2067C14.9563 16.9034 14.8916 16.5783 14.8916 16.25C14.8916 15.9217 14.9563 15.5966 15.0819 15.2933C15.2075 14.99 15.3917 14.7144 15.6238 14.4822C15.856 14.2501 16.1316 14.0659 16.4349 13.9403Z" fill="black"/>
</svg>
