<svg width="25" height="24" viewBox="0 0 25 24" fill="none" xmlns="http://www.w3.org/2000/svg">
<path d="M8.35632 6.20181C8.17057 6.17467 7.98112 6.21196 7.81951 6.30747H7.80573C7.43053 6.5274 7.09253 6.80538 6.80429 7.13106C6.56476 7.408 6.43482 7.68822 6.4007 7.95794C6.38035 8.11872 6.39413 8.2795 6.44204 8.43306L6.4591 8.44356C6.72882 9.23631 7.08123 9.99887 7.51173 10.7168C8.06628 11.7254 8.74873 12.6582 9.54217 13.4921L9.56579 13.5262L9.6032 13.5538L9.62682 13.5813L9.65439 13.605C10.4913 14.4007 11.4263 15.0864 12.4369 15.6452C13.5919 16.2739 14.2928 16.5712 14.7134 16.6946V16.7012C14.8368 16.7386 14.949 16.7556 15.0619 16.7556C15.4204 16.7294 15.7598 16.5838 16.0259 16.3422C16.3501 16.0539 16.625 15.7145 16.8397 15.3375V15.3309C17.0411 14.9516 16.9729 14.5926 16.6822 14.3498C16.0999 13.8409 15.4704 13.3889 14.802 12.9999C14.3544 12.7571 13.8997 12.9041 13.7153 13.1502L13.3222 13.6457C13.1207 13.8917 12.7545 13.8576 12.7545 13.8576L12.744 13.8642C10.0134 13.1666 9.28492 10.4018 9.28492 10.4018C9.28492 10.4018 9.25079 10.0258 9.50345 9.83415L9.99564 9.43778C10.2312 9.24615 10.3953 8.79203 10.1426 8.34381C9.75637 7.67454 9.30533 7.0448 8.79601 6.46365C8.68467 6.32665 8.52846 6.23343 8.35501 6.2005L8.35632 6.20181Z" fill="black"/>
<path d="M12.9708 5C12.6947 5 12.4708 5.22386 12.4708 5.5C12.4708 5.77614 12.6947 6 12.9708 6C14.2353 6 15.286 6.41332 16.1161 7.20475C16.5434 7.63814 16.876 8.15115 17.0944 8.71254C17.3136 9.27604 17.4133 9.87691 17.3877 10.4788C17.376 10.7547 17.5901 10.9878 17.866 10.9995C18.1419 11.0113 18.3751 10.7971 18.3868 10.5212C18.4183 9.7808 18.2955 9.04205 18.0263 8.35C17.7571 7.65798 17.3474 7.02737 16.8223 6.49648L16.8123 6.48686C15.7823 5.50184 14.4767 5 12.9708 5Z" fill="black"/>
<path d="M12.9368 6.64433C12.6607 6.64433 12.4368 6.86819 12.4368 7.14433C12.4368 7.42047 12.6607 7.64433 12.9368 7.64433H12.9531C13.8656 7.70863 14.5295 8.01277 14.995 8.51201C15.4715 9.02617 15.7183 9.6648 15.7 10.455C15.6937 10.731 15.9123 10.96 16.1883 10.9664C16.4644 10.9728 16.6934 10.7542 16.6998 10.4781C16.7238 9.44062 16.3901 8.54598 15.7279 7.83165L15.727 7.83071C15.0504 7.10462 14.1221 6.72051 13.0038 6.64545L12.9871 6.64433H12.9368Z" fill="black"/>
<path d="M12.9179 8.31868C12.6421 8.30416 12.4068 8.51594 12.3923 8.7917C12.3778 9.06747 12.5896 9.30278 12.8653 9.3173C13.284 9.33933 13.5508 9.4649 13.7186 9.63434C13.8872 9.80451 14.0132 10.077 14.0362 10.5042C14.0511 10.78 14.2866 10.9915 14.5624 10.9766C14.8381 10.9618 15.0496 10.7263 15.0348 10.4505C15.0025 9.85049 14.8147 9.32002 14.4292 8.93068C14.0429 8.54062 13.5154 8.35013 12.9179 8.31868Z" fill="black"/>
<path fill-rule="evenodd" clip-rule="evenodd" d="M7.45833 2.38348C10.6404 1.67218 13.9403 1.67218 17.1224 2.38348L17.4615 2.45926C19.3583 2.88325 20.8553 4.33807 21.3334 6.22194C22.1411 9.40479 22.1411 12.739 21.3334 15.9218C20.8553 17.8057 19.3582 19.2605 17.4615 19.6845L17.1224 19.7603C15.1236 20.2071 13.0783 20.3732 11.0449 20.2587L8.3917 22.6326C8.18797 22.8149 7.90119 22.8719 7.64324 22.7814C7.38529 22.6909 7.19703 22.4672 7.15189 22.1975L6.71308 19.5762C5.01069 19.0472 3.69079 17.669 3.24739 15.9218C2.43967 12.739 2.43967 9.40479 3.24739 6.22195C3.72547 4.33807 5.22252 2.88325 7.1193 2.45926L7.45833 2.38348ZM16.7952 3.84735C13.8286 3.18422 10.7522 3.18422 7.78555 3.84735L7.44652 3.92313C6.10169 4.22374 5.04026 5.25522 4.7013 6.59091C3.95503 9.53161 3.95503 12.6121 4.7013 15.5528C5.04026 16.8885 6.10169 17.92 7.44652 18.2206L7.53608 18.2406C7.83397 18.3072 8.06178 18.5477 8.11218 18.8488L8.40645 20.6067L10.2788 18.9314C10.43 18.7961 10.6295 18.7279 10.8319 18.7422C12.8254 18.8833 14.8343 18.7347 16.7952 18.2964L17.1342 18.2206C18.4791 17.92 19.5405 16.8885 19.8795 15.5529C20.6257 12.6121 20.6257 9.53161 19.8795 6.59091C19.5405 5.25522 18.4791 4.22374 17.1342 3.92313L16.7952 3.84735Z" fill="black"/>
</svg>
