<svg width="25" height="24" viewBox="0 0 25 24" fill="none" xmlns="http://www.w3.org/2000/svg">
<path fill-rule="evenodd" clip-rule="evenodd" d="M5.34887 5.19239C4.93726 6.52648 4.93726 7.97352 5.34887 9.30761C10.0332 9.75907 14.7501 9.75907 19.4344 9.30761C19.846 7.97352 19.846 6.52648 19.4344 5.19239C14.7501 4.74092 10.0332 4.74092 5.34887 5.19239ZM5.10038 3.70946C9.94964 3.23523 14.8336 3.23523 19.6829 3.70946C20.2174 3.76174 20.6667 4.12803 20.8309 4.6338C21.3805 6.32689 21.3805 8.1731 20.8309 9.8662C20.6667 10.372 20.2174 10.7383 19.6829 10.7905C14.8336 11.2648 9.94964 11.2648 5.10038 10.7905C4.56582 10.7383 4.11656 10.372 3.95237 9.8662C3.40276 8.17311 3.40276 6.32689 3.95237 4.6338C4.11656 4.12803 4.56582 3.76174 5.10038 3.70946Z" fill="black"/>
<path fill-rule="evenodd" clip-rule="evenodd" d="M5.34887 14.6924C4.93726 16.0265 4.93726 17.4735 5.34887 18.8076C10.0332 19.2591 14.7501 19.2591 19.4344 18.8076C19.846 17.4735 19.846 16.0265 19.4344 14.6924C14.7501 14.2409 10.0332 14.2409 5.34887 14.6924ZM5.10038 13.2095C9.94964 12.7352 14.8336 12.7352 19.6829 13.2095C20.2174 13.2617 20.6667 13.628 20.8309 14.1338C21.3805 15.8269 21.3805 17.6731 20.8309 19.3662C20.6667 19.872 20.2174 20.2383 19.6829 20.2905C14.8336 20.7648 9.94964 20.7648 5.10038 20.2905C4.56582 20.2383 4.11656 19.872 3.95237 19.3662C3.40276 17.6731 3.40276 15.8269 3.95237 14.1338C4.11656 13.628 4.56582 13.2617 5.10038 13.2095Z" fill="black"/>
</svg>
