<svg width="25" height="24" viewBox="0 0 25 24" fill="none" xmlns="http://www.w3.org/2000/svg">
<path fill-rule="evenodd" clip-rule="evenodd" d="M20.9315 16.8073C21.1531 16.5775 21.205 16.2326 21.0608 15.9478L20.3306 14.5059C18.6704 11.2271 15.3074 9.16048 11.6322 9.16049H11.2283C11.2029 8.60714 11.1701 8.05406 11.1298 7.50138L11.0613 6.56241C11.006 5.80389 10.1603 5.37987 9.5194 5.78937C7.40369 7.14127 5.56441 8.88321 4.09959 10.9224L3.63941 11.563C3.45158 11.8245 3.45158 12.1766 3.63941 12.4381L4.09959 13.0787C5.56441 15.1179 7.40369 16.8598 9.5194 18.2117C10.1603 18.6212 11.006 18.1972 11.0613 17.4387L11.1298 16.4997C11.1779 15.8402 11.2154 15.18 11.2423 14.5196C13.4144 14.4559 15.5841 14.8939 17.578 15.8141L20.0774 16.9676C20.3672 17.1014 20.7099 17.0371 20.9315 16.8073ZM18.7207 14.6894L18.2066 14.4522C15.7749 13.3299 13.1069 12.856 10.4594 13.0594C10.0771 13.0888 9.77851 13.4018 9.76718 13.785C9.74148 14.6542 9.69701 15.5229 9.63375 16.3907L9.62742 16.4776C7.96461 15.3039 6.50759 13.8598 5.31785 12.2036L5.17199 12.0005L5.31785 11.7975C6.50759 10.1413 7.96461 8.69718 9.62741 7.52347L9.63375 7.61043C9.69022 8.38499 9.73172 9.16037 9.75825 9.93613C9.77207 10.3401 10.1036 10.6605 10.5078 10.6605L11.6322 10.6605C14.5531 10.6605 17.2408 12.2032 18.7207 14.6894Z" fill="black"/>
</svg>
