<svg width="25" height="24" viewBox="0 0 25 24" fill="none" xmlns="http://www.w3.org/2000/svg">
<path d="M8.39162 7.25C8.80583 7.25 9.14162 7.58579 9.14162 8V9.25H10.3916C10.8058 9.25 11.1416 9.58579 11.1416 10C11.1416 10.4142 10.8058 10.75 10.3916 10.75H9.14162V12C9.14162 12.4142 8.80583 12.75 8.39162 12.75C7.9774 12.75 7.64162 12.4142 7.64162 12V10.75H6.39162C5.9774 10.75 5.64162 10.4142 5.64162 10C5.64162 9.58579 5.9774 9.25 6.39162 9.25H7.64162V8C7.64162 7.58579 7.9774 7.25 8.39162 7.25Z" fill="black"/>
<path d="M17.3916 11.75C17.3916 11.1977 16.9439 10.75 16.3916 10.75C15.8393 10.75 15.3916 11.1977 15.3916 11.75V12C15.3916 12.5523 15.8393 13 16.3916 13C16.9439 13 17.3916 12.5523 17.3916 12V11.75Z" fill="black"/>
<path d="M16.3916 7C16.9439 7 17.3916 7.44772 17.3916 8V8.25C17.3916 8.80228 16.9439 9.25 16.3916 9.25C15.8393 9.25 15.3916 8.80228 15.3916 8.25V8C15.3916 7.44772 15.8393 7 16.3916 7Z" fill="black"/>
<path d="M19.3916 10C19.3916 10.5523 18.9439 11 18.3916 11H18.1416C17.5893 11 17.1416 10.5523 17.1416 10C17.1416 9.44771 17.5893 9 18.1416 9H18.3916C18.9439 9 19.3916 9.44772 19.3916 10Z" fill="black"/>
<path d="M14.6416 11C15.1939 11 15.6416 10.5523 15.6416 10C15.6416 9.44772 15.1939 9 14.6416 9H14.3916C13.8393 9 13.3916 9.44771 13.3916 10C13.3916 10.5523 13.8393 11 14.3916 11H14.6416Z" fill="black"/>
<path fill-rule="evenodd" clip-rule="evenodd" d="M13.1416 3C13.1416 2.58579 12.8058 2.25 12.3916 2.25C11.9774 2.25 11.6416 2.58579 11.6416 3V4.48688C10.2025 4.50654 8.76399 4.58282 7.32939 4.71571L6.99779 4.74642C4.60609 4.96797 2.76441 6.95407 2.7237 9.35566L2.71161 10.0691C2.66431 12.8602 2.88929 15.6492 3.38336 18.3967C3.62832 19.7588 4.81366 20.75 6.19766 20.75H6.41871C7.65407 20.75 8.77338 20.022 9.27424 18.8927L10.3348 16.5014C11.126 14.7177 13.6573 14.7177 14.4484 16.5014L15.509 18.8927C16.0099 20.022 17.1292 20.75 18.3645 20.75H18.5856C19.9696 20.75 21.1549 19.7588 21.3999 18.3967C21.8939 15.6492 22.1189 12.8602 22.0716 10.0691L22.0595 9.35566C22.0188 6.95406 20.1772 4.96797 17.7855 4.74643L17.4538 4.71571C16.0192 4.58282 14.5807 4.50654 13.1416 4.48688V3ZM7.46774 6.20931C10.7433 5.9059 14.0399 5.9059 17.3155 6.20931L17.6471 6.24003C19.277 6.39101 20.532 7.74447 20.5597 9.38108L20.5718 10.0945C20.6175 12.7881 20.4004 15.4797 19.9236 18.1312C19.8071 18.7788 19.2436 19.25 18.5856 19.25H18.3645C17.7224 19.25 17.1405 18.8716 16.8802 18.2846L15.8196 15.8933C14.5011 12.9205 10.2822 12.9205 8.96366 15.8933L7.90306 18.2846C7.6427 18.8716 7.06087 19.25 6.41871 19.25H6.19766C5.53967 19.25 4.97614 18.7788 4.85968 18.1312C4.38286 15.4797 4.16574 12.7881 4.21139 10.0945L4.22349 9.38108C4.25122 7.74447 5.50627 6.39101 7.13614 6.24003L7.46774 6.20931Z" fill="black"/>
</svg>
