<svg width="25" height="24" viewBox="0 0 25 24" fill="none" xmlns="http://www.w3.org/2000/svg">
<path d="M15.1683 14.0377L17.8183 10.1182C18.0806 9.73215 17.5832 9.31251 17.2033 9.58947L14.3452 11.6038C14.2513 11.6691 14.137 11.7045 14.0196 11.7045C13.9022 11.7045 13.7879 11.6691 13.694 11.6038L11.5776 10.1266C10.9445 9.69019 10.04 9.84965 9.61493 10.4623L6.96488 14.3818C6.70259 14.7679 7.20004 15.1875 7.57991 14.9105L10.438 12.8962C10.5319 12.8309 10.6462 12.7955 10.7636 12.7955C10.881 12.7955 10.9953 12.8309 11.0892 12.8962L13.2056 14.3482C13.8387 14.8098 14.7432 14.6504 15.1683 14.0377Z" fill="black"/>
<path fill-rule="evenodd" clip-rule="evenodd" d="M12.3916 2.25C7.00682 2.25 2.6416 6.61522 2.6416 12C2.6416 14.7651 3.79354 17.2621 5.6416 19.0356V21.5C5.6416 21.7411 5.75749 21.9675 5.95307 22.1084C6.14865 22.2494 6.40006 22.2878 6.62877 22.2115L9.40843 21.285C10.3495 21.5871 11.3522 21.75 12.3916 21.75C17.7764 21.75 22.1416 17.3848 22.1416 12C22.1416 6.61522 17.7764 2.25 12.3916 2.25ZM4.1416 12C4.1416 7.44365 7.83525 3.75 12.3916 3.75C16.948 3.75 20.6416 7.44365 20.6416 12C20.6416 16.5563 16.948 20.25 12.3916 20.25C11.4321 20.25 10.5123 20.0865 9.65773 19.7865C9.50076 19.7313 9.32993 19.73 9.1721 19.7826L7.1416 20.4594V18.7083C7.1416 18.495 7.05075 18.2917 6.89179 18.1495C5.20278 16.6378 4.1416 14.4433 4.1416 12Z" fill="black"/>
</svg>
