<svg width="25" height="24" viewBox="0 0 25 24" fill="none" xmlns="http://www.w3.org/2000/svg">
<path d="M11.9259 4.13112C12.0234 3.98765 11.9157 3.78849 11.7434 3.80875C6.34829 4.4432 2.86494 10.1043 4.98342 15.3042L5.91576 17.5927C5.95747 17.6951 5.92698 17.8127 5.84078 17.8819L3.86929 19.4652C3.62114 19.6645 3.52579 19.9987 3.63142 20.2989C3.73705 20.5991 4.02065 20.8 4.33891 20.8H12.1592C16.9578 20.8 20.8775 16.9605 21.1287 12.2196C21.1382 12.0415 20.9221 11.9486 20.7865 12.0644C20.4693 12.3352 20.1234 12.5736 19.7543 12.7743C19.6387 12.8372 19.5576 12.9498 19.5356 13.0795C18.9358 16.611 15.8615 19.3 12.1592 19.3H6.47058L6.78002 19.0515C7.38344 18.5669 7.5969 17.7435 7.3049 17.0268L6.37256 14.7383C4.74978 10.7551 7.1297 6.44236 11.0528 5.45784C11.1851 5.42466 11.2942 5.33023 11.3464 5.20432C11.5034 4.82545 11.6981 4.46615 11.9259 4.13112Z" fill="black"/>
<path fill-rule="evenodd" clip-rule="evenodd" d="M13.2235 10.1074C12.6996 9.37179 12.3915 8.47187 12.3915 7.5C12.3915 5.01472 14.4063 3 16.8915 3C17.8634 3 18.7633 3.30809 19.4989 3.83194C19.9088 4.12383 20.2677 4.48271 20.5596 4.8926C21.0834 5.62821 21.3915 6.52813 21.3915 7.5C21.3915 9.98528 19.3768 12 16.8915 12C15.9197 12 15.0198 11.6919 14.2841 11.1681C13.8742 10.8762 13.5154 10.5173 13.2235 10.1074ZM15.3676 10.0846C15.8142 10.3486 16.3352 10.5 16.8915 10.5C18.5484 10.5 19.8915 9.15685 19.8915 7.5C19.8915 6.94364 19.7401 6.42266 19.4762 5.97602L15.3676 10.0846ZM18.4155 4.91536L14.3069 9.02398C14.043 8.57734 13.8915 8.05636 13.8915 7.5C13.8915 5.84315 15.2347 4.5 16.8915 4.5C17.4479 4.5 17.9689 4.65145 18.4155 4.91536Z" fill="black"/>
</svg>
