<svg width="25" height="24" viewBox="0 0 25 24" fill="none" xmlns="http://www.w3.org/2000/svg">
<path d="M10.8916 16C10.8916 15.1716 11.5631 14.5 12.3916 14.5C13.22 14.5 13.8916 15.1716 13.8916 16C13.8916 16.8284 13.22 17.5 12.3916 17.5C11.5631 17.5 10.8916 16.8284 10.8916 16Z" fill="black"/>
<path fill-rule="evenodd" clip-rule="evenodd" d="M10.2021 4.00497C10.4344 3.91246 10.6768 3.8475 10.9243 3.81144C12.3976 3.59678 13.8242 4.42661 14.366 5.81335L14.441 6.00537C14.534 6.2433 14.6003 6.4908 14.6388 6.74334L14.8554 8.16565L16.3383 7.9398L16.1217 6.51749C16.0665 6.15544 15.9715 5.80062 15.8382 5.45951L15.7632 5.26749C14.9674 3.23066 12.8719 2.01182 10.708 2.32712C10.3445 2.38008 9.98848 2.47548 9.6472 2.61137C7.61555 3.42026 6.41024 5.52354 6.7395 7.68538L6.77054 7.88919C6.82568 8.25123 6.92075 8.60605 7.05402 8.94716L7.70817 10.6215L7.32669 10.6519C6.24396 10.7384 5.35986 11.5523 5.18434 12.6242C4.81827 14.8598 4.81827 17.1401 5.18434 19.3758C5.35986 20.4477 6.24396 21.2616 7.32669 21.348L8.82282 21.4675C11.1982 21.6571 13.5849 21.6571 15.9603 21.4675L17.4564 21.348C18.5392 21.2616 19.4233 20.4477 19.5988 19.3758C19.9649 17.1401 19.9649 14.8598 19.5988 12.6242C19.4233 11.5523 18.5392 10.7384 17.4564 10.6519L15.9603 10.5325C13.7342 10.3548 11.4981 10.3436 9.27073 10.499L8.45118 8.4013C8.35822 8.16337 8.2919 7.91587 8.25344 7.66334L8.2224 7.45953C7.99823 5.98768 8.81884 4.55569 10.2021 4.00497ZM15.8409 12.0277C13.545 11.8445 11.2381 11.8445 8.94219 12.0277L7.44606 12.1472C7.05113 12.1787 6.72865 12.4756 6.66463 12.8666C6.32484 14.9417 6.32484 17.0583 6.66463 19.1334C6.72865 19.5244 7.05113 19.8213 7.44606 19.8528L8.94219 19.9722C11.2381 20.1555 13.545 20.1555 15.8409 19.9722L17.3371 19.8528C17.732 19.8213 18.0545 19.5244 18.1185 19.1334C18.4583 17.0583 18.4583 14.9417 18.1185 12.8666C18.0545 12.4756 17.732 12.1787 17.3371 12.1472L15.8409 12.0277Z" fill="black"/>
</svg>
