<svg width="25" height="24" viewBox="0 0 25 24" fill="none" xmlns="http://www.w3.org/2000/svg">
<path fill-rule="evenodd" clip-rule="evenodd" d="M4.6416 5C4.6416 3.48122 5.87282 2.25 7.3916 2.25H15.3784C15.9422 2.25 16.4714 2.52157 16.8001 2.97955L19.8133 7.17745C20.0268 7.47488 20.1416 7.83178 20.1416 8.1979V19C20.1416 20.5188 18.9104 21.75 17.3916 21.75H7.3916C5.87282 21.75 4.6416 20.5188 4.6416 19V5ZM7.3916 3.75C6.70125 3.75 6.1416 4.30964 6.1416 5V19C6.1416 19.6904 6.70125 20.25 7.3916 20.25H17.3916C18.082 20.25 18.6416 19.6904 18.6416 19V8.89705H15.3916C14.9774 8.89705 14.6416 8.56126 14.6416 8.14705V3.75H7.3916Z" fill="black"/>
</svg>
