<svg width="25" height="24" viewBox="0 0 25 24" fill="none" xmlns="http://www.w3.org/2000/svg">
<path d="M15.9326 7.4806C16.2195 7.77941 16.2098 8.25419 15.911 8.54104L12.786 11.541C12.4958 11.8197 12.0374 11.8197 11.7472 11.541L9.8722 9.74104C9.5734 9.45419 9.56371 8.97941 9.85056 8.6806C10.1374 8.38179 10.6122 8.3721 10.911 8.65896L12.2666 9.96034L14.8722 7.45896C15.171 7.1721 15.6458 7.18179 15.9326 7.4806Z" fill="black"/>
<path fill-rule="evenodd" clip-rule="evenodd" d="M4.1416 8C4.1416 5.37665 6.26825 3.25 8.8916 3.25H18.8916C19.8581 3.25 20.6416 4.0335 20.6416 5V20C20.6416 20.9665 19.8581 21.75 18.8916 21.75H7.8916C5.82053 21.75 4.1416 20.0711 4.1416 18V8ZM5.6416 14.9997C6.26835 14.529 7.0474 14.25 7.8916 14.25H19.1416V5C19.1416 4.86193 19.0297 4.75 18.8916 4.75H8.8916C7.09668 4.75 5.6416 6.20507 5.6416 8V14.9997ZM5.6416 18C5.6416 19.2426 6.64896 20.25 7.8916 20.25H18.8916C19.0297 20.25 19.1416 20.1381 19.1416 20V15.75H7.8916C6.64896 15.75 5.6416 16.7574 5.6416 18Z" fill="black"/>
</svg>
