<svg width="25" height="24" viewBox="0 0 25 24" fill="none" xmlns="http://www.w3.org/2000/svg">
<path fill-rule="evenodd" clip-rule="evenodd" d="M12.3916 3.0792L10.1788 5.3687C9.94329 5.61239 9.61891 5.75 9.28001 5.75H6.14162V8.88839C6.14162 9.2273 6.00401 9.55167 5.76032 9.7872L3.47082 12L5.76032 14.2128C6.00401 14.4483 6.14162 14.7727 6.14162 15.1116V18.25H9.28C9.61891 18.25 9.94329 18.3876 10.1788 18.6313L12.3916 20.9208L14.6044 18.6313C14.8399 18.3876 15.1643 18.25 15.5032 18.25H18.6416V15.1116C18.6416 14.7727 18.7792 14.4483 19.0229 14.2128L21.3124 12L19.0229 9.78721C18.7792 9.55168 18.6416 9.2273 18.6416 8.8884V5.75H15.5032C15.1643 5.75 14.8399 5.61239 14.6044 5.3687L12.3916 3.0792ZM11.4928 1.85077C11.9842 1.34237 12.7991 1.34237 13.2904 1.85077L15.6093 4.25H18.8916C19.582 4.25 20.1416 4.80965 20.1416 5.5V8.78234L22.5409 11.1012C23.0493 11.5926 23.0493 12.4074 22.5409 12.8988L20.1416 15.2177V18.5C20.1416 19.1904 19.582 19.75 18.8916 19.75H15.6093L13.2904 22.1492C12.7991 22.6576 11.9842 22.6576 11.4928 22.1492L9.17395 19.75H5.89162C5.20126 19.75 4.64162 19.1904 4.64162 18.5V15.2177L2.24238 12.8988C1.73398 12.4074 1.73398 11.5926 2.24238 11.1012L4.64162 8.78233V5.5C4.64162 4.80964 5.20126 4.25 5.89162 4.25H9.17395L11.4928 1.85077Z" fill="black"/>
<path fill-rule="evenodd" clip-rule="evenodd" d="M7.64162 12C7.64162 9.37665 9.76827 7.25 12.3916 7.25C15.015 7.25 17.1416 9.37665 17.1416 12C17.1416 14.6234 15.015 16.75 12.3916 16.75C9.76827 16.75 7.64162 14.6234 7.64162 12ZM12.3916 8.75C10.5967 8.75 9.14162 10.2051 9.14162 12C9.14162 13.7949 10.5967 15.25 12.3916 15.25C14.1865 15.25 15.6416 13.7949 15.6416 12C15.6416 10.2051 14.1865 8.75 12.3916 8.75Z" fill="black"/>
</svg>
