<svg width="25" height="24" viewBox="0 0 25 24" fill="none" xmlns="http://www.w3.org/2000/svg">
<path d="M7.92193 6.53033C8.21482 6.23744 8.21482 5.76256 7.92193 5.46967C7.62904 5.17678 7.15416 5.17678 6.86127 5.46967L4.86127 7.46967C4.56838 7.76256 4.56838 8.23744 4.86127 8.53033L6.86127 10.5303C7.15416 10.8232 7.62904 10.8232 7.92193 10.5303C8.21482 10.2374 8.21482 9.76256 7.92193 9.46967L7.20226 8.75H17.3916C17.8058 8.75 18.1416 8.41421 18.1416 8C18.1416 7.58579 17.8058 7.25 17.3916 7.25H7.20226L7.92193 6.53033Z" fill="black"/>
<path d="M16.8613 13.4697C16.5684 13.7626 16.5684 14.2374 16.8613 14.5303L17.5809 15.25H7.3916C6.97739 15.25 6.6416 15.5858 6.6416 16C6.6416 16.4142 6.97739 16.75 7.3916 16.75H17.5809L16.8613 17.4697C16.5684 17.7626 16.5684 18.2374 16.8613 18.5303C17.1542 18.8232 17.629 18.8232 17.9219 18.5303L19.9219 16.5303C20.2148 16.2374 20.2148 15.7626 19.9219 15.4697L17.9219 13.4697C17.629 13.1768 17.1542 13.1768 16.8613 13.4697Z" fill="black"/>
</svg>
