<svg width="25" height="24" viewBox="0 0 25 24" fill="none" xmlns="http://www.w3.org/2000/svg">
<path fill-rule="evenodd" clip-rule="evenodd" d="M10.7775 8.35688C10.5458 8.21786 10.2572 8.21422 10.0221 8.34735C9.78695 8.48048 9.6416 8.7298 9.6416 9V15C9.6416 15.2702 9.78695 15.5195 10.0221 15.6526C10.2572 15.7858 10.5458 15.7821 10.7775 15.6431L15.7775 12.6431C16.0034 12.5076 16.1416 12.2634 16.1416 12C16.1416 11.7366 16.0034 11.4924 15.7775 11.3569L10.7775 8.35688ZM13.9339 12L11.1416 13.6754V10.3246L13.9339 12Z" fill="black"/>
<path fill-rule="evenodd" clip-rule="evenodd" d="M17.4223 4.64128C14.0736 4.3793 10.7096 4.3793 7.36099 4.64128L5.12028 4.81658C3.75772 4.92318 2.64303 5.94439 2.4178 7.29243C1.89703 10.4092 1.89703 13.5908 2.41779 16.7076C2.64303 18.0556 3.75772 19.0768 5.12029 19.1834L7.36099 19.3587C10.7096 19.6207 14.0736 19.6207 17.4223 19.3587L19.663 19.1834C21.0255 19.0768 22.1402 18.0556 22.3655 16.7076C22.8862 13.5908 22.8862 10.4092 22.3655 7.29243C22.1402 5.94439 21.0255 4.92318 19.663 4.81658L17.4223 4.64128ZM7.47798 6.13671C10.7488 5.88082 14.0345 5.88082 17.3053 6.13671L19.546 6.31201C20.2216 6.36487 20.7743 6.87122 20.886 7.53963C21.3794 10.4927 21.3794 13.5073 20.886 16.4604C20.7743 17.1288 20.2216 17.6351 19.546 17.688L17.3053 17.8633C14.0345 18.1192 10.7487 18.1192 7.47798 17.8633L5.23728 17.688C4.56167 17.6351 4.00897 17.1288 3.89729 16.4604C3.40387 13.5073 3.40387 10.4927 3.89729 7.53963C4.00897 6.87122 4.56167 6.36487 5.23728 6.31201L7.47798 6.13671Z" fill="black"/>
</svg>
