<svg width="25" height="24" viewBox="0 0 25 24" fill="none" xmlns="http://www.w3.org/2000/svg">
<path fill-rule="evenodd" clip-rule="evenodd" d="M9.48696 15.5H8.14496V8.18501C8.62896 8.09701 9.29996 8.03101 10.213 8.03101C11.203 8.03101 11.929 8.24001 12.402 8.63601C12.842 8.99901 13.128 9.58201 13.128 10.275C13.128 10.979 12.908 11.562 12.49 11.958C11.951 12.497 11.104 12.75 10.147 12.75C9.89396 12.75 9.66296 12.739 9.48696 12.706V15.5ZM10.268 9.06501C9.89396 9.06501 9.62996 9.09801 9.48696 9.13101V11.639C9.65196 11.683 9.87196 11.694 10.147 11.694C11.159 11.694 11.775 11.199 11.775 10.33C11.775 9.50501 11.203 9.06501 10.268 9.06501Z" fill="black"/>
<path d="M14.8562 15.621C14.2072 15.621 13.6242 15.456 13.2282 15.236L13.4922 14.257C13.8002 14.444 14.3832 14.642 14.8672 14.642C15.4612 14.642 15.7252 14.4 15.7252 14.048C15.7252 13.685 15.5052 13.498 14.8452 13.267C13.8002 12.904 13.3602 12.332 13.3712 11.705C13.3712 10.759 14.1522 10.022 15.3952 10.022C15.9892 10.022 16.5062 10.176 16.8142 10.341L16.5502 11.298C16.3192 11.166 15.8902 10.99 15.4172 10.99C14.9332 10.99 14.6692 11.221 14.6692 11.551C14.6692 11.892 14.9222 12.057 15.6042 12.299C16.5722 12.651 17.0232 13.146 17.0342 13.938C17.0342 14.906 16.2752 15.621 14.8562 15.621Z" fill="black"/>
<path fill-rule="evenodd" clip-rule="evenodd" d="M17.6498 2.83303C14.1832 2.44559 10.5999 2.44559 7.13331 2.83303C5.12125 3.05791 3.49692 4.64292 3.26037 6.66545C2.84583 10.2097 2.84583 13.7903 3.26037 17.3346C3.49692 19.3571 5.12125 20.9421 7.13331 21.167C10.5999 21.5544 14.1832 21.5544 17.6498 21.167C19.6618 20.9421 21.2862 19.3571 21.5227 17.3346C21.9373 13.7903 21.9373 10.2097 21.5227 6.66545C21.2862 4.64292 19.6619 3.05791 17.6498 2.83303ZM7.29992 4.32375C10.6558 3.94868 14.1273 3.94868 17.4832 4.32375C18.8133 4.47241 19.8788 5.52202 20.0329 6.8397C20.4339 10.2682 20.4339 13.7318 20.0329 17.1603C19.8788 18.478 18.8133 19.5276 17.4832 19.6763C14.1273 20.0513 10.6558 20.0513 7.29992 19.6763C5.96981 19.5276 4.90433 18.478 4.75021 17.1603C4.34921 13.7318 4.34921 10.2682 4.75021 6.8397C4.90433 5.52202 5.96981 4.47241 7.29992 4.32375Z" fill="black"/>
</svg>
