<svg width="25" height="24" viewBox="0 0 25 24" fill="none" xmlns="http://www.w3.org/2000/svg">
<path d="M10.3916 8.08223C10.3916 7.89948 10.2022 7.7796 10.0434 7.87007C8.60886 8.68749 7.6416 10.2308 7.6416 12C7.6416 14.6234 9.76825 16.75 12.3916 16.75C15.015 16.75 17.1416 14.6234 17.1416 12C17.1416 10.2308 16.1743 8.68749 14.7398 7.87007C14.581 7.7796 14.3916 7.89948 14.3916 8.08223V9.31619C14.3916 9.39312 14.4274 9.46532 14.4862 9.51493C15.1928 10.1111 15.6416 11.0031 15.6416 12C15.6416 13.7949 14.1865 15.25 12.3916 15.25C10.5967 15.25 9.1416 13.7949 9.1416 12C9.1416 11.0031 9.59041 10.1111 10.297 9.51493C10.3558 9.46532 10.3916 9.39312 10.3916 9.31619V8.08223Z" fill="black"/>
<path d="M13.1416 7C13.1416 6.58579 12.8058 6.25 12.3916 6.25C11.9774 6.25 11.6416 6.58579 11.6416 7V12C11.6416 12.4142 11.9774 12.75 12.3916 12.75C12.8058 12.75 13.1416 12.4142 13.1416 12V7Z" fill="black"/>
<path fill-rule="evenodd" clip-rule="evenodd" d="M3.6416 12C3.6416 7.16751 7.55911 3.25 12.3916 3.25C17.2241 3.25 21.1416 7.16751 21.1416 12C21.1416 16.8325 17.2241 20.75 12.3916 20.75C7.55911 20.75 3.6416 16.8325 3.6416 12ZM12.3916 4.75C8.38754 4.75 5.1416 7.99594 5.1416 12C5.1416 16.0041 8.38754 19.25 12.3916 19.25C16.3957 19.25 19.6416 16.0041 19.6416 12C19.6416 7.99594 16.3957 4.75 12.3916 4.75Z" fill="black"/>
</svg>
