<svg width="25" height="24" viewBox="0 0 25 24" fill="none" xmlns="http://www.w3.org/2000/svg">
<path fill-rule="evenodd" clip-rule="evenodd" d="M11.1295 16.6273C10.3559 16.6273 9.71056 16.036 9.643 15.2654C9.50175 13.6541 9.46601 12.0356 9.53587 10.4203C9.45155 10.4147 9.36723 10.4088 9.28293 10.4026L7.79338 10.2941C6.84133 10.2247 6.30912 9.16309 6.82311 8.35871C7.9193 6.6432 9.92853 4.72314 11.582 3.53541C12.0658 3.18786 12.7174 3.18786 13.2013 3.53541C14.8547 4.72314 16.8639 6.64319 17.9601 8.35871C18.4741 9.16309 17.9419 10.2247 16.9899 10.2941L15.5003 10.4026C15.416 10.4088 15.3317 10.4147 15.2474 10.4203C15.3172 12.0356 15.2815 13.6541 15.1402 15.2654C15.0727 16.036 14.4274 16.6273 13.6538 16.6273H11.1295ZM11.0731 9.76253C10.9594 11.5498 10.9806 13.3431 11.1366 15.1273H13.6466C13.8026 13.3431 13.8239 11.5498 13.7102 9.76253C13.6974 9.56216 13.7655 9.36505 13.8993 9.21531C14.033 9.06556 14.2212 8.9757 14.4217 8.96582C14.7451 8.94989 15.0683 8.93015 15.3913 8.90661L16.4731 8.82775C15.5135 7.41445 14.312 6.1802 12.9229 5.18235L12.3916 4.80071L11.8603 5.18235C10.4712 6.1802 9.26973 7.41446 8.31018 8.82775L9.39198 8.90661C9.71497 8.93015 10.0382 8.94989 10.3615 8.96582C10.562 8.9757 10.7502 9.06556 10.884 9.21531C11.0177 9.36505 11.0858 9.56216 11.0731 9.76253Z" fill="black"/>
<path d="M6.1416 17C6.1416 16.5858 5.80582 16.25 5.3916 16.25C4.97739 16.25 4.6416 16.5858 4.6416 17V19C4.6416 19.9665 5.4251 20.75 6.3916 20.75H18.3916C19.3581 20.75 20.1416 19.9665 20.1416 19V17C20.1416 16.5858 19.8058 16.25 19.3916 16.25C18.9774 16.25 18.6416 16.5858 18.6416 17V19C18.6416 19.1381 18.5297 19.25 18.3916 19.25H6.3916C6.25353 19.25 6.1416 19.1381 6.1416 19V17Z" fill="black"/>
</svg>
