<svg width="25" height="24" viewBox="0 0 25 24" fill="none" xmlns="http://www.w3.org/2000/svg">
<path fill-rule="evenodd" clip-rule="evenodd" d="M10.1252 2.6988C11.6206 2.39239 13.1626 2.39239 14.6579 2.6988C15.3047 2.83133 15.8028 3.34907 15.9102 4.00053L15.9644 4.32952C16.4195 7.09121 16.4195 9.90879 15.9644 12.6705L15.9102 12.9995C15.8028 13.6509 15.3047 14.1687 14.6579 14.3012C13.1626 14.6076 11.6206 14.6076 10.1252 14.3012C9.47841 14.1687 8.98036 13.6509 8.87299 12.9995L8.81877 12.6705C8.36363 9.90879 8.36363 7.09121 8.81877 4.32952L8.87299 4.00053C8.98036 3.34907 9.47841 2.83133 10.1252 2.6988ZM14.3568 4.16827C13.0601 3.90257 11.723 3.90257 10.4263 4.16827C10.3885 4.17602 10.3593 4.20632 10.353 4.24445L10.2988 4.57344C9.87029 7.17361 9.87029 9.82639 10.2988 12.4266L10.353 12.7556C10.3593 12.7937 10.3885 12.824 10.4263 12.8317C11.723 13.0974 13.0601 13.0974 14.3568 12.8317C14.3947 12.824 14.4238 12.7937 14.4301 12.7556L14.4843 12.4266C14.9129 9.82639 14.9129 7.17361 14.4843 4.57344L14.4301 4.24445C14.4238 4.20632 14.3947 4.17602 14.3568 4.16827Z" fill="black"/>
<path d="M5.28635 11.2574C5.69647 11.1993 6.07604 11.4847 6.13416 11.8948L6.58466 15.0741C6.70638 15.9331 7.3873 16.6047 8.24788 16.7146C10.9992 17.0661 13.784 17.0661 16.5353 16.7146C17.3958 16.6047 18.0768 15.9331 18.1985 15.0741L18.649 11.8948C18.7071 11.4847 19.0867 11.1993 19.4968 11.2574C19.9069 11.3155 20.1923 11.6951 20.1342 12.1052L19.6836 15.2845C19.4671 16.8124 18.256 18.007 16.7253 18.2025C15.5351 18.3546 14.3389 18.4437 13.1416 18.47V22.5C13.1416 22.9142 12.8058 23.25 12.3916 23.25C11.9774 23.25 11.6416 22.9142 11.6416 22.5V18.47C10.4443 18.4437 9.24808 18.3546 8.05783 18.2025C6.52713 18.007 5.316 16.8124 5.0995 15.2845L4.64899 12.1052C4.59088 11.6951 4.87623 11.3155 5.28635 11.2574Z" fill="black"/>
</svg>
