<svg width="25" height="24" viewBox="0 0 25 24" fill="none" xmlns="http://www.w3.org/2000/svg">
<path fill-rule="evenodd" clip-rule="evenodd" d="M13.1416 2C13.1416 1.58579 12.8058 1.25 12.3916 1.25C11.9774 1.25 11.6416 1.58579 11.6416 2V2.27842C6.65804 2.65752 2.72179 6.78303 2.64281 11.8451C2.63568 12.3024 2.96582 12.6894 3.40902 12.7632C6.13526 13.2176 8.88736 13.4637 11.6416 13.5015V19C11.6416 19.4142 11.3058 19.75 10.8916 19.75C10.4774 19.75 10.1416 19.4142 10.1416 19V18.5C10.1416 18.0858 9.80582 17.75 9.3916 17.75C8.97739 17.75 8.6416 18.0858 8.6416 18.5V19C8.6416 20.2426 9.64896 21.25 10.8916 21.25C12.1342 21.25 13.1416 20.2426 13.1416 19V13.5015C15.8959 13.4637 18.6479 13.2176 21.3742 12.7632C21.8174 12.6894 22.1475 12.3025 22.1404 11.8451C22.0614 6.78303 18.1252 2.65751 13.1416 2.27842V2ZM20.6176 11.3661C20.294 7.10606 16.7347 3.75 12.3916 3.75C8.04854 3.75 4.48919 7.10606 4.16558 11.3661C9.61633 12.2202 15.1669 12.2202 20.6176 11.3661Z" fill="black"/>
</svg>
