<svg width="25" height="24" viewBox="0 0 25 24" fill="none" xmlns="http://www.w3.org/2000/svg">
<path fill-rule="evenodd" clip-rule="evenodd" d="M7.1416 7.5C7.1416 5.15279 9.04439 3.25 11.3916 3.25C13.7388 3.25 15.6416 5.15279 15.6416 7.5C15.6416 9.84721 13.7388 11.75 11.3916 11.75C9.04439 11.75 7.1416 9.84721 7.1416 7.5ZM11.3916 4.75C9.87282 4.75 8.6416 5.98122 8.6416 7.5C8.6416 9.01878 9.87282 10.25 11.3916 10.25C12.9104 10.25 14.1416 9.01878 14.1416 7.5C14.1416 5.98122 12.9104 4.75 11.3916 4.75Z" fill="black"/>
<path fill-rule="evenodd" clip-rule="evenodd" d="M3.6416 17C3.6416 14.9289 5.32053 13.25 7.3916 13.25H7.73247C7.91696 13.25 8.10029 13.2792 8.27567 13.3364L9.14119 13.6191C10.6035 14.0965 12.1797 14.0965 13.642 13.6191L14.5075 13.3364C14.6829 13.2792 14.8662 13.25 15.0507 13.25H15.3916C17.4627 13.25 19.1416 14.9289 19.1416 17V18.1883C19.1416 18.9415 18.5957 19.5837 17.8523 19.7051C13.5735 20.4037 9.2097 20.4037 4.93087 19.7051C4.18749 19.5837 3.6416 18.9415 3.6416 18.1883V17ZM7.3916 14.75C6.14896 14.75 5.1416 15.7574 5.1416 17V18.1883C5.1416 18.2064 5.15471 18.2218 5.17257 18.2247C9.29133 18.8972 13.4919 18.8972 17.6106 18.2247C17.6285 18.2218 17.6416 18.2064 17.6416 18.1883V17C17.6416 15.7574 16.6342 14.75 15.3916 14.75H15.0507C15.0244 14.75 14.9982 14.7542 14.9731 14.7623L14.1076 15.045C12.3428 15.6212 10.4404 15.6212 8.67559 15.045L7.81007 14.7623C7.78502 14.7542 7.75883 14.75 7.73247 14.75H7.3916Z" fill="black"/>
<path d="M19.8916 6.25C20.3058 6.25 20.6416 6.58579 20.6416 7V8.75H22.3916C22.8058 8.75 23.1416 9.08579 23.1416 9.5C23.1416 9.91421 22.8058 10.25 22.3916 10.25H20.6416V12C20.6416 12.4142 20.3058 12.75 19.8916 12.75C19.4774 12.75 19.1416 12.4142 19.1416 12V10.25H17.3916C16.9774 10.25 16.6416 9.91421 16.6416 9.5C16.6416 9.08579 16.9774 8.75 17.3916 8.75H19.1416V7C19.1416 6.58579 19.4774 6.25 19.8916 6.25Z" fill="black"/>
</svg>
