<svg width="25" height="24" viewBox="0 0 25 24" fill="none" xmlns="http://www.w3.org/2000/svg">
<path fill-rule="evenodd" clip-rule="evenodd" d="M5.14624 12C5.14624 7.99594 8.39218 4.75 12.3962 4.75C16.4003 4.75 19.6462 7.99594 19.6462 12C19.6462 12.0337 19.6485 12.0668 19.6528 12.0993C19.6495 12.1307 19.6483 12.1626 19.649 12.1949C19.6552 12.4495 19.6226 12.8444 19.539 13.2219C19.4479 13.6331 19.3292 13.8694 19.2598 13.9423C18.9579 14.2591 18.5425 14.4429 18.1051 14.4535C17.6676 14.464 17.2438 14.3003 16.927 13.9984C16.7199 13.801 16.6605 13.5113 16.6443 12.8381L16.5288 8.04002C16.5189 7.62592 16.1751 7.29831 15.761 7.30828C15.3469 7.31825 15.0193 7.66201 15.0293 8.07611L15.0459 8.76875C14.3248 8.17672 13.402 7.82135 12.3962 7.82135C10.0885 7.82135 8.21765 9.69216 8.21765 11.9999C8.21765 14.3077 10.0885 16.1785 12.3962 16.1785C13.6706 16.1785 14.8118 15.608 15.5782 14.7084C15.6642 14.8392 15.7676 14.9655 15.8922 15.0843C16.497 15.6606 17.306 15.9731 18.1411 15.953C18.9763 15.9329 19.7693 15.5819 20.3457 14.9771C20.7154 14.5892 20.9025 14.0022 21.0035 13.5463C21.1119 13.0566 21.1578 12.5406 21.1486 12.1588C21.1479 12.1313 21.1458 12.1042 21.1423 12.0775C21.1449 12.052 21.1462 12.0262 21.1462 12C21.1462 7.16751 17.2287 3.25 12.3962 3.25C7.56375 3.25 3.64624 7.16751 3.64624 12C3.64624 16.8325 7.56375 20.75 12.3962 20.75C14.4393 20.75 16.3206 20.0489 17.8099 18.8747C18.1351 18.6182 18.1909 18.1466 17.9344 17.8213C17.678 17.4961 17.2064 17.4403 16.8811 17.6968C15.647 18.6698 14.0904 19.25 12.3962 19.25C8.39218 19.25 5.14624 16.0041 5.14624 12ZM12.3962 9.32135C10.9169 9.32135 9.71765 10.5206 9.71765 11.9999C9.71765 13.4793 10.9169 14.6785 12.3962 14.6785C13.8756 14.6785 15.0748 13.4793 15.0748 11.9999C15.0748 10.5206 13.8756 9.32135 12.3962 9.32135Z" fill="black"/>
</svg>
