<svg width="25" height="24" viewBox="0 0 25 24" fill="none" xmlns="http://www.w3.org/2000/svg">
<path d="M14.4231 13.1643C14.7466 12.9056 15.2185 12.958 15.4773 13.2815C15.736 13.6049 15.6836 14.0769 15.3602 14.3357L12.8662 16.3308C12.7375 16.4361 12.5732 16.4994 12.3941 16.5L12.3917 16.5L12.3853 16.5C12.2093 16.4985 12.0477 16.4364 11.9204 16.3335L9.42311 14.3357C9.09966 14.0769 9.04722 13.6049 9.30598 13.2815C9.56473 12.958 10.0367 12.9056 10.3602 13.1643L11.6417 14.1896V10.75C11.6417 10.3358 11.9774 10 12.3917 10C12.8059 10 13.1417 10.3358 13.1417 10.75V14.1895L14.4231 13.1643Z" fill="black"/>
<path fill-rule="evenodd" clip-rule="evenodd" d="M7.3916 2.25C5.87282 2.25 4.6416 3.48122 4.6416 5V19C4.6416 20.5188 5.87282 21.75 7.3916 21.75H17.3916C18.9104 21.75 20.1416 20.5188 20.1416 19V8.1979C20.1416 7.83178 20.0268 7.47488 19.8133 7.17745L16.8001 2.97955C16.4714 2.52157 15.9422 2.25 15.3784 2.25H7.3916ZM6.1416 5C6.1416 4.30964 6.70125 3.75 7.3916 3.75H14.6416V8.14705C14.6416 8.56126 14.9774 8.89705 15.3916 8.89705H18.6416V19C18.6416 19.6904 18.082 20.25 17.3916 20.25H7.3916C6.70125 20.25 6.1416 19.6904 6.1416 19V5Z" fill="black"/>
</svg>
