<svg width="25" height="24" viewBox="0 0 25 24" fill="none" xmlns="http://www.w3.org/2000/svg">
<path fill-rule="evenodd" clip-rule="evenodd" d="M17.1023 1.37734C17.0928 1.15855 16.9882 0.954848 16.8158 0.819718C16.6435 0.684589 16.4207 0.631533 16.206 0.674482C15.7057 0.77454 14.074 1.1796 12.7857 2.46782C12.1279 3.12562 11.7638 3.956 11.5665 4.71195C11.4649 5.10154 11.4041 5.48411 11.3718 5.8344C11.295 5.80097 11.2143 5.76602 11.1287 5.72955C10.4358 5.43409 9.5394 5.08909 8.51928 5.08909C7.42662 5.08909 5.87615 5.53363 4.59611 6.78991C3.29835 8.06357 2.34156 10.1078 2.34155 13.1904C2.34155 14.9223 3.20766 17.4409 4.37501 19.4848C4.96524 20.5182 5.66006 21.4801 6.41005 22.1888C7.13845 22.8771 8.02688 23.4271 8.99454 23.4022C9.71475 23.3992 10.4437 23.1165 11.0118 22.8961L11.062 22.8767C11.7155 22.6235 12.1815 22.4525 12.5726 22.4525C12.9466 22.4525 13.4161 22.6232 14.0807 22.8777L14.1293 22.8963C14.706 23.1174 15.4486 23.4022 16.1619 23.4022C16.7005 23.4022 17.324 23.1141 17.8698 22.7746C18.4532 22.4118 19.0843 21.9032 19.6656 21.2993C20.8031 20.1174 21.8822 18.428 21.8404 16.6201C21.8338 16.3369 21.6683 16.0816 21.4124 15.96C21.0655 15.7952 20.4994 15.4228 20.0223 14.8756C19.5493 14.3333 19.2007 13.6641 19.179 12.888C19.1482 11.7925 19.4557 10.8237 19.8619 10.0815C20.2831 9.31199 20.7611 8.87106 20.9835 8.75452C21.1755 8.6539 21.3146 8.47515 21.3649 8.26431C21.4152 8.05347 21.3718 7.83118 21.246 7.65471C20.9033 7.17425 20.2539 6.54287 19.4879 6.03364C18.7302 5.52985 17.744 5.06894 16.7333 5.08924C16.5569 5.09278 16.3838 5.10578 16.2145 5.12636C16.5844 4.57657 16.7992 3.8945 16.9251 3.29577C17.0767 2.57455 17.1231 1.8559 17.1023 1.37734ZM13.8464 3.52848C14.388 2.98691 15.0237 2.64484 15.5501 2.43408C15.5272 2.6127 15.4967 2.7994 15.4572 2.98714C15.3265 3.60892 15.121 4.12902 14.8674 4.42482C14.3885 4.98361 13.7441 5.59354 12.8798 5.83471C12.9073 5.59791 12.9515 5.34532 13.0179 5.09069C13.1731 4.49584 13.4372 3.9377 13.8464 3.52848ZM16.7635 6.58894C17.3286 6.57758 18.0057 6.84946 18.6575 7.28276C19.0012 7.51129 19.3057 7.76326 19.548 7.99492C19.1904 8.35343 18.84 8.82425 18.5461 9.36133C18.0331 10.2986 17.6402 11.5283 17.6795 12.9301C17.7138 14.1519 18.264 15.1416 18.8918 15.8615C19.3512 16.3884 19.8721 16.7946 20.3211 17.0701C20.1951 18.1661 19.4979 19.3105 18.5849 20.2591C18.0828 20.7807 17.5474 21.2087 17.0775 21.5009C16.57 21.8166 16.2536 21.9022 16.1619 21.9022C15.7611 21.9022 15.2738 21.7284 14.6172 21.477L14.5377 21.4464C13.9733 21.2297 13.2517 20.9525 12.5726 20.9525C11.8733 20.9525 11.1544 21.2317 10.5921 21.45L10.5201 21.478C9.87237 21.7289 9.3936 21.9022 8.98327 21.9022C8.97566 21.9022 8.96805 21.9023 8.96045 21.9025C8.58441 21.914 8.06646 21.6903 7.44027 21.0986C6.83278 20.5245 6.22319 19.6962 5.67754 18.7409C4.57312 16.8072 3.84155 14.5539 3.84155 13.1904C3.84156 10.4342 4.68666 8.80275 5.64678 7.86046C6.62462 6.90078 7.78801 6.58909 8.51928 6.58909C9.21503 6.58909 9.87223 6.82446 10.5404 7.10936C10.6278 7.14663 10.7184 7.18609 10.8105 7.22616C11.0477 7.32947 11.2942 7.4368 11.5181 7.52074C11.8302 7.63772 12.1975 7.74983 12.5726 7.74983C12.9476 7.74983 13.3188 7.64471 13.642 7.53068C13.8838 7.44536 14.1472 7.33644 14.402 7.23108C14.4874 7.19577 14.5719 7.16085 14.6542 7.12737C15.3477 6.84525 16.0364 6.60354 16.7635 6.58894Z" fill="black"/>
</svg>
