<svg width="25" height="24" viewBox="0 0 25 24" fill="none" xmlns="http://www.w3.org/2000/svg">
<path fill-rule="evenodd" clip-rule="evenodd" d="M6.01702 9.63124L5.69779 6.75816C5.65735 6.39418 5.65735 6.02684 5.69779 5.66286L5.72056 5.45796C5.96204 3.28457 7.67065 1.56492 9.84243 1.30941C10.2073 1.26649 10.5759 1.26649 10.9407 1.30941C13.1125 1.56492 14.8211 3.28458 15.0626 5.45797L15.0853 5.66286C15.1258 6.02684 15.1258 6.39418 15.0853 6.75816L14.8044 9.28682C14.7845 9.46552 14.6476 9.60783 14.4715 9.64411C13.4759 9.84926 12.5575 10.2658 11.7653 10.8448C11.6912 10.899 11.6015 10.9281 11.5096 10.9256C9.94313 10.8828 8.37478 10.93 6.81233 11.0672L5.67788 11.1668C5.15315 11.2129 4.72846 11.6127 4.6509 12.1338C4.31868 14.3656 4.31868 16.6343 4.6509 18.8662C4.72846 19.3872 5.15315 19.7871 5.67788 19.8332L6.81233 19.9328C7.75839 20.0159 8.70661 20.0659 9.65528 20.083C9.79422 20.0855 9.92158 20.1596 9.99665 20.2765C10.2154 20.6172 10.4629 20.9378 10.7357 21.2347C10.8569 21.3667 10.7686 21.5883 10.5894 21.5892C9.28543 21.5953 7.9813 21.5412 6.68111 21.427L5.54667 21.3274C4.33091 21.2206 3.34694 20.2942 3.16725 19.0871C2.81323 16.7088 2.81323 14.2912 3.16725 11.9129C3.34694 10.7058 4.33091 9.77931 5.54667 9.67255L6.01702 9.63124ZM10.0177 2.79914C10.2661 2.76992 10.517 2.76992 10.7654 2.79914C12.244 2.97309 13.4073 4.1439 13.5717 5.62361L13.5945 5.82851C13.6227 6.08239 13.6227 6.33862 13.5945 6.59251L13.2705 9.50814C11.3534 9.37772 9.42968 9.37772 7.51257 9.50814L7.18861 6.59251C7.16041 6.33862 7.16041 6.08239 7.18861 5.82851L7.21138 5.62361C7.37579 4.1439 8.53907 2.97309 10.0177 2.79914Z" fill="black"/>
<path d="M16.6416 15C16.6416 14.5858 16.3058 14.25 15.8916 14.25C15.4773 14.25 15.1416 14.5858 15.1416 15V16.7727C15.1416 17.0127 15.2564 17.2381 15.4504 17.3793L16.4504 18.1065C16.7854 18.3502 17.2545 18.2761 17.4981 17.9411C17.7417 17.6061 17.6677 17.1371 17.3327 16.8934L16.6416 16.3908V15Z" fill="black"/>
<path fill-rule="evenodd" clip-rule="evenodd" d="M15.8916 22C18.9291 22 21.3916 19.5375 21.3916 16.5C21.3916 13.4624 18.9291 11 15.8916 11C12.854 11 10.3916 13.4624 10.3916 16.5C10.3916 19.5375 12.854 22 15.8916 22ZM15.8916 20.5C18.1007 20.5 19.8916 18.7091 19.8916 16.5C19.8916 14.2908 18.1007 12.5 15.8916 12.5C13.6824 12.5 11.8916 14.2908 11.8916 16.5C11.8916 18.7091 13.6824 20.5 15.8916 20.5Z" fill="black"/>
</svg>
