<svg width="25" height="24" viewBox="0 0 25 24" fill="none" xmlns="http://www.w3.org/2000/svg">
<path d="M13.3916 15C12.8393 15 12.3916 15.4477 12.3916 16C12.3916 16.5523 12.8393 17 13.3916 17C13.9439 17 14.3916 16.5523 14.3916 16C14.3916 15.4477 13.9439 15 13.3916 15Z" fill="black"/>
<path d="M10.3916 17C9.83929 17 9.39157 17.4477 9.39157 18C9.39157 18.5523 9.83929 19 10.3916 19C10.9439 19 11.3916 18.5523 11.3916 18C11.3916 17.4477 10.9439 17 10.3916 17Z" fill="black"/>
<path fill-rule="evenodd" clip-rule="evenodd" d="M14.8863 3.25001L14.8817 3.25H9.90136L9.89683 3.25001H8.89157C8.47736 3.25001 8.14157 3.5858 8.14157 4.00001C8.14157 4.41423 8.47736 4.75001 8.89157 4.75001H9.15136V9.81112C4.69965 11.9155 4.05653 18.052 8.05776 21.0195L8.35276 21.2383C10.7514 23.0173 14.0317 23.0173 16.4304 21.2383L16.7253 21.0195C20.7266 18.052 20.0835 11.9155 15.6317 9.81112V4.75001H15.8916C16.3058 4.75001 16.6416 4.41423 16.6416 4.00001C16.6416 3.5858 16.3058 3.25001 15.8916 3.25001H14.8863ZM9.24632 20.0335C11.1143 21.4189 13.6688 21.4189 15.5368 20.0335L15.8318 19.8147C17.8473 18.3199 18.3356 15.7831 17.4761 13.75H7.30698C6.44753 15.7831 6.93584 18.3199 8.95132 19.8147L9.24632 20.0335ZM8.28842 12.25H16.4947C16.0424 11.7748 15.4825 11.3757 14.8191 11.0897C14.402 10.9099 14.1317 10.4991 14.1317 10.0448V4.75001H10.6514V10.0448C10.6514 10.4991 10.3811 10.9099 9.96397 11.0897C9.3006 11.3757 8.74066 11.7748 8.28842 12.25Z" fill="black"/>
</svg>
