<svg width="25" height="24" viewBox="0 0 25 24" fill="none" xmlns="http://www.w3.org/2000/svg">
<path d="M8.09155 9.45001C7.67734 9.45001 7.34155 9.7858 7.34155 10.2C7.34155 10.6142 7.67734 10.95 8.09155 10.95H13.0916C13.5058 10.95 13.8416 10.6142 13.8416 10.2C13.8416 9.7858 13.5058 9.45001 13.0916 9.45001H8.09155Z" fill="black"/>
<path fill-rule="evenodd" clip-rule="evenodd" d="M5.79014 14.9445C8.24692 17.4013 12.1264 17.5684 14.7766 15.4457L19.9323 20.6014C20.2252 20.8943 20.7 20.8943 20.9929 20.6014C21.2858 20.3085 21.2858 19.8336 20.9929 19.5407L15.8373 14.3851C17.9599 11.7348 17.7929 7.85538 15.3361 5.3986C12.7 2.76256 8.42618 2.76256 5.79014 5.3986C3.1541 8.03464 3.1541 12.3085 5.79014 14.9445ZM6.8508 6.45926C4.80055 8.50951 4.80055 11.8336 6.8508 13.8839C8.89955 15.9326 12.2203 15.9341 14.2709 13.8884L14.2754 13.8839L14.2799 13.8794C16.3257 11.8287 16.3242 8.50801 14.2754 6.45926C12.2252 4.40901 8.90105 4.40901 6.8508 6.45926Z" fill="black"/>
</svg>
