<svg width="25" height="24" viewBox="0 0 25 24" fill="none" xmlns="http://www.w3.org/2000/svg">
<path d="M11.4219 8.53033C11.7148 8.23744 11.7148 7.76256 11.4219 7.46967C11.129 7.17678 10.6542 7.17678 10.3613 7.46967L6.36127 11.4697C6.21482 11.6161 6.1416 11.8081 6.1416 12C6.1416 12.1017 6.16184 12.1987 6.19851 12.2871C6.23511 12.3755 6.28936 12.4584 6.36127 12.5303L10.3613 16.5303C10.6542 16.8232 11.129 16.8232 11.4219 16.5303C11.7148 16.2374 11.7148 15.7626 11.4219 15.4697L8.70226 12.75H18.3916C18.8058 12.75 19.1416 12.4142 19.1416 12C19.1416 11.5858 18.8058 11.25 18.3916 11.25H8.70226L11.4219 8.53033Z" fill="black"/>
</svg>
