<svg width="25" height="24" viewBox="0 0 25 24" fill="none" xmlns="http://www.w3.org/2000/svg">
<path d="M7.25621 6.88236C8.56973 5.56432 10.3849 4.75 12.3916 4.75C16.3957 4.75 19.6416 7.99594 19.6416 12C19.6416 16.0041 16.3957 19.25 12.3916 19.25C8.38754 19.25 5.1416 16.0041 5.1416 12C5.1416 11.5858 4.80582 11.25 4.3916 11.25C3.97739 11.25 3.6416 11.5858 3.6416 12C3.6416 16.8325 7.55911 20.75 12.3916 20.75C17.2241 20.75 21.1416 16.8325 21.1416 12C21.1416 7.16751 17.2241 3.25 12.3916 3.25C9.97011 3.25 7.77718 4.23462 6.19373 5.82352C6.16828 5.84906 6.14505 5.87597 6.12405 5.90401L4.86648 4.64645C4.72929 4.50926 4.52513 4.46382 4.34271 4.52986C4.16029 4.59591 4.03254 4.76152 4.01498 4.95473L3.66143 8.84382C3.64799 8.9916 3.70089 9.13771 3.80582 9.24264C3.91075 9.34757 4.05686 9.40047 4.20464 9.38703L8.09373 9.03348C8.28694 9.01591 8.45255 8.88817 8.5186 8.70575C8.58464 8.52332 8.5392 8.31916 8.40201 8.18198L7.1739 6.95386C7.20262 6.93235 7.23014 6.90852 7.25621 6.88236Z" fill="black"/>
<path d="M13.1416 7C13.1416 6.58579 12.8058 6.25 12.3916 6.25C11.9774 6.25 11.6416 6.58579 11.6416 7V12C11.6416 12.2586 11.7748 12.4989 11.9941 12.636L14.9941 14.511C15.3454 14.7305 15.8081 14.6238 16.0276 14.2725C16.2471 13.9212 16.1404 13.4585 15.7891 13.239L13.1416 11.5843V7Z" fill="black"/>
</svg>
