<svg width="25" height="24" viewBox="0 0 25 24" fill="none" xmlns="http://www.w3.org/2000/svg">
<path d="M6.3916 10.5C5.56317 10.5 4.8916 11.1716 4.8916 12C4.8916 12.8284 5.56317 13.5 6.3916 13.5C7.22003 13.5 7.8916 12.8284 7.8916 12C7.8916 11.1716 7.22003 10.5 6.3916 10.5Z" fill="black"/>
<path d="M10.8916 12C10.8916 11.1716 11.5632 10.5 12.3916 10.5C13.22 10.5 13.8916 11.1716 13.8916 12C13.8916 12.8284 13.22 13.5 12.3916 13.5C11.5632 13.5 10.8916 12.8284 10.8916 12Z" fill="black"/>
<path d="M16.8916 12C16.8916 11.1716 17.5632 10.5 18.3916 10.5C19.22 10.5 19.8916 11.1716 19.8916 12C19.8916 12.8284 19.22 13.5 18.3916 13.5C17.5632 13.5 16.8916 12.8284 16.8916 12Z" fill="black"/>
</svg>
