<svg width="25" height="24" viewBox="0 0 25 24" fill="none" xmlns="http://www.w3.org/2000/svg">
<path fill-rule="evenodd" clip-rule="evenodd" d="M12.5303 4.5748C13.5828 3.6977 15.1889 4.33147 15.3588 5.69095C15.8825 9.88069 15.8825 14.1193 15.3588 18.3091C15.1889 19.6686 13.5828 20.3023 12.5303 19.4252L8.1896 15.808C8.14467 15.7705 8.08804 15.75 8.02955 15.75H4.3916C3.4251 15.75 2.6416 14.9665 2.6416 14V10C2.6416 9.03351 3.4251 8.25001 4.3916 8.25001H8.02955C8.08804 8.25001 8.14467 8.22951 8.1896 8.19207L12.5303 4.5748ZM13.8704 5.87701C13.8476 5.69446 13.6319 5.60936 13.4906 5.72713L9.14987 9.3444C8.83537 9.60648 8.43894 9.75001 8.02955 9.75001H4.3916C4.25353 9.75001 4.1416 9.86194 4.1416 10V14C4.1416 14.1381 4.25353 14.25 4.3916 14.25H8.02955C8.43894 14.25 8.83537 14.3935 9.14987 14.6556L13.4906 18.2729C13.6319 18.3907 13.8476 18.3056 13.8704 18.123C14.3787 14.0568 14.3787 9.94319 13.8704 5.87701Z" fill="black"/>
<path d="M17.5935 9.70192C17.8864 9.40902 18.3613 9.40902 18.6542 9.70192L19.8916 10.9393L21.129 9.70191C21.4219 9.40902 21.8968 9.40902 22.1897 9.70191C22.4826 9.99481 22.4826 10.4697 22.1897 10.7626L20.9523 12L22.1897 13.2374C22.4826 13.5303 22.4826 14.0052 22.1897 14.2981C21.8968 14.591 21.4219 14.591 21.129 14.2981L19.8916 13.0607L18.6542 14.2981C18.3613 14.591 17.8864 14.591 17.5935 14.2981C17.3006 14.0052 17.3006 13.5303 17.5935 13.2374L18.8309 12L17.5935 10.7626C17.3006 10.4697 17.3006 9.99481 17.5935 9.70192Z" fill="black"/>
</svg>
