<svg width="25" height="24" viewBox="0 0 25 24" fill="none" xmlns="http://www.w3.org/2000/svg">
<path d="M13.8613 7.53033C14.1542 7.82322 14.629 7.82322 14.9219 7.53033L15.6416 6.81066L15.6416 17C15.6416 17.4142 15.9774 17.75 16.3916 17.75C16.8058 17.75 17.1416 17.4142 17.1416 17L17.1416 6.81066L17.8613 7.53033C18.1542 7.82322 18.629 7.82322 18.9219 7.53033C19.2148 7.23744 19.2148 6.76256 18.9219 6.46967L16.9219 4.46967C16.629 4.17678 16.1542 4.17678 15.8613 4.46967L13.8613 6.46967C13.5684 6.76256 13.5684 7.23744 13.8613 7.53033Z" fill="black"/>
<path d="M9.1416 17.1893L9.86127 16.4697C10.1542 16.1768 10.629 16.1768 10.9219 16.4697C11.2148 16.7626 11.2148 17.2374 10.9219 17.5303L8.92193 19.5303C8.62904 19.8232 8.15416 19.8232 7.86127 19.5303L5.86127 17.5303C5.56838 17.2374 5.56838 16.7626 5.86127 16.4697C6.15416 16.1768 6.62904 16.1768 6.92193 16.4697L7.6416 17.1893L7.6416 7C7.6416 6.58579 7.97739 6.25 8.3916 6.25C8.80581 6.25 9.1416 6.58579 9.1416 7L9.1416 17.1893Z" fill="black"/>
</svg>
