<svg width="25" height="24" viewBox="0 0 25 24" fill="none" xmlns="http://www.w3.org/2000/svg">
<path fill-rule="evenodd" clip-rule="evenodd" d="M12.0032 3.30203C12.2467 3.23273 12.5035 3.23267 12.7469 3.30176C13.2645 3.44863 13.7868 3.58485 14.3108 3.72153C16.7716 4.36334 19.2709 5.01516 21.4944 6.82618L22.5183 7.66016C22.9336 7.99845 23.1414 8.49918 23.1416 9V16C23.1416 16.4142 22.8058 16.75 22.3916 16.75C21.9774 16.75 21.6416 16.4142 21.6416 16V11.0567L21.4787 11.1896C20.7082 11.8183 19.9044 12.3066 19.0804 12.7029C19.1198 12.794 19.1416 12.8944 19.1416 13V17.2939C19.1416 18.4272 18.4464 19.4444 17.3905 19.8561L13.3905 21.4156C12.7481 21.666 12.0351 21.666 11.3927 21.4156L7.3927 19.8561C6.33682 19.4444 5.6416 18.4272 5.6416 17.2939V13C5.6416 12.8918 5.66453 12.7889 5.70578 12.696C4.87543 12.2973 4.06533 11.8063 3.28885 11.1738L2.2649 10.3398C1.43425 9.66327 1.43381 8.33693 2.26375 7.65967L3.30453 6.81037C5.51197 5.00904 7.99353 4.36111 10.4361 3.72335C10.9613 3.58623 11.4847 3.44957 12.0032 3.30203ZM21.6416 9.0006C21.6416 8.91051 21.6052 8.85102 21.571 8.8232L20.5471 7.98922C18.3916 6.5 16.471 5.84319 14.0315 5.20216C13.4951 5.06121 12.9435 4.91626 12.3756 4.75559C11.8051 4.91742 11.2515 5.06306 10.7133 5.20465C8.2934 5.84128 6.18483 6.39601 4.25288 7.97253L3.2121 8.82184C3.17791 8.84973 3.14156 8.90931 3.1416 8.9994C3.14164 9.08949 3.17803 9.14898 3.21218 9.1768L4.23613 10.0108C6.18445 11.5977 8.31225 12.1568 10.7517 12.7978C11.2881 12.9388 11.8397 13.0837 12.4076 13.2444C12.9781 13.0826 13.5316 12.937 14.0698 12.7954C16.4897 12.1587 18.5984 11.604 20.5303 10.0275L21.5711 9.17816C21.6053 9.15029 21.6416 9.09054 21.6416 9.0006ZM14.3471 14.2766C15.4469 13.9895 16.5546 13.7003 17.6416 13.3046V17.2939C17.6416 17.8091 17.3256 18.2714 16.8456 18.4585L12.8456 20.018C12.5537 20.1318 12.2296 20.1318 11.9376 20.018L7.93756 18.4585C7.45761 18.2714 7.1416 17.8091 7.1416 17.2939V13.2961C8.24037 13.6963 9.36029 13.9884 10.4724 14.2785C10.9964 14.4151 11.5187 14.5514 12.0363 14.6982C12.2797 14.7673 12.5366 14.7673 12.78 14.698C13.2985 14.5504 13.8219 14.4138 14.3471 14.2766Z" fill="black"/>
</svg>
