<svg width="25" height="24" viewBox="0 0 25 24" fill="none" xmlns="http://www.w3.org/2000/svg">
<path fill-rule="evenodd" clip-rule="evenodd" d="M16.3588 5.69095C16.1889 4.33147 14.5828 3.6977 13.5303 4.5748L9.1896 8.19207C9.14467 8.22951 9.08804 8.25001 9.02955 8.25001H5.3916C4.4251 8.25001 3.6416 9.03351 3.6416 10V14C3.6416 14.9665 4.4251 15.75 5.3916 15.75H9.02955C9.08804 15.75 9.14467 15.7705 9.1896 15.808L13.5303 19.4252C14.5828 20.3023 16.1889 19.6686 16.3588 18.3091C16.8825 14.1193 16.8825 9.88069 16.3588 5.69095ZM14.4906 5.72713C14.6319 5.60936 14.8476 5.69446 14.8704 5.87701C15.3787 9.94319 15.3787 14.0568 14.8704 18.123C14.8476 18.3056 14.6319 18.3907 14.4906 18.2729L10.1499 14.6556C9.83537 14.3935 9.43894 14.25 9.02955 14.25H5.3916C5.25353 14.25 5.1416 14.1381 5.1416 14V10C5.1416 9.86194 5.25353 9.75001 5.3916 9.75001H9.02955C9.43894 9.75001 9.83537 9.60648 10.1499 9.3444L14.4906 5.72713Z" fill="black"/>
<path d="M19.4239 7.94771C19.281 7.55891 18.8501 7.35953 18.4613 7.50238C18.0725 7.64524 17.8731 8.07623 18.0159 8.46503C18.4204 9.56596 18.6416 10.7563 18.6416 12C18.6416 13.0316 18.4894 14.0264 18.2068 14.9637C18.1911 15.0159 18.1749 15.068 18.1584 15.1198C18.1138 15.2595 18.0663 15.398 18.0159 15.535C17.8731 15.9238 18.0725 16.3548 18.4613 16.4977C18.8501 16.6405 19.281 16.4411 19.4239 16.0523C19.4817 15.8951 19.5362 15.7362 19.5874 15.5759C19.6064 15.5163 19.6249 15.4566 19.643 15.3967C19.9675 14.3204 20.1416 13.1799 20.1416 12C20.1416 10.5772 19.8884 9.21188 19.4239 7.94771Z" fill="black"/>
</svg>
