<svg width="25" height="24" viewBox="0 0 25 24" fill="none" xmlns="http://www.w3.org/2000/svg">
<path fill-rule="evenodd" clip-rule="evenodd" d="M15.922 7.46967C16.2148 7.76256 16.2148 8.23744 15.922 8.53033L12.422 12.0303C12.1291 12.3232 11.6542 12.3232 11.3613 12.0303L9.3613 10.0303C9.0684 9.73744 9.0684 9.26256 9.3613 8.96967C9.65419 8.67678 10.1291 8.67678 10.422 8.96967L11.8916 10.4393L14.8613 7.46967C15.1542 7.17678 15.6291 7.17678 15.922 7.46967Z" fill="black"/>
<path fill-rule="evenodd" clip-rule="evenodd" d="M3.91599 8.85685C4.27032 4.55824 7.86247 1.25 12.1757 1.25H12.6076C16.9208 1.25 20.5129 4.55824 20.8673 8.85685C21.0576 11.166 20.3443 13.4589 18.8777 15.2526L14.0846 21.1144C13.2096 22.1845 11.5737 22.1845 10.6987 21.1144L5.90559 15.2526C4.43893 13.4589 3.72565 11.166 3.91599 8.85685ZM12.1757 2.75C8.64312 2.75 5.70112 5.45948 5.41092 8.98008C5.25251 10.9019 5.84615 12.8102 7.06681 14.3031L11.8599 20.1649C12.1347 20.501 12.6485 20.501 12.9234 20.1649L17.7164 14.3031C18.9371 12.8102 19.5307 10.9019 19.3723 8.98008C19.0821 5.45948 16.1401 2.75 12.6076 2.75H12.1757Z" fill="black"/>
</svg>
