<svg width="25" height="24" viewBox="0 0 25 24" fill="none" xmlns="http://www.w3.org/2000/svg">
<path d="M19.0717 9.98322C19.0925 10.114 19.1121 10.245 19.1305 10.3761C19.148 10.501 19.2409 10.6014 19.3621 10.6363C19.7199 10.7393 20.0542 10.8979 20.355 11.1021C20.5055 11.2043 20.7264 11.0911 20.7072 10.9102C20.6661 10.5215 20.6146 10.1335 20.5529 9.74679L20.4888 9.34535C20.2829 8.05533 19.1702 7.10612 17.8638 7.10612L9.54941 7.10612C9.34389 6.04846 8.41262 5.25 7.29487 5.25H5.0033C3.64702 5.25 2.50461 6.26343 2.34291 7.61004L2.07042 9.87915C1.78076 12.2913 1.85552 14.7333 2.29218 17.1232C2.5077 18.3027 3.49421 19.1869 4.69024 19.2725L6.20424 19.3808C8.38497 19.5368 10.571 19.5943 12.7556 19.5533C12.8944 19.5507 13.012 19.4524 13.0484 19.3183C13.1396 18.9821 13.2689 18.6615 13.4313 18.3615C13.5084 18.219 13.4058 18.0378 13.2438 18.042C10.9324 18.1022 8.61883 18.0497 6.31129 17.8846L4.79728 17.7763C4.2838 17.7396 3.86028 17.36 3.76775 16.8536C3.35812 14.6116 3.28799 12.3208 3.55972 10.058L3.83221 7.78888C3.90339 7.19611 4.40627 6.75 5.0033 6.75H7.29487C7.73491 6.75 8.09163 7.10672 8.09163 7.54677C8.09163 8.13183 8.56592 8.60612 9.15099 8.60612H17.8638C18.433 8.60612 18.9179 9.0197 19.0076 9.58178L19.0717 9.98322Z" fill="black"/>
<path d="M18.3916 12C17.2871 12 16.3916 12.8954 16.3916 14C16.3916 15.1046 17.2871 16 18.3916 16C19.4962 16 20.3916 15.1046 20.3916 14C20.3916 12.8954 19.4962 12 18.3916 12Z" fill="black"/>
<path d="M14.3916 20.5C14.3916 18.8431 15.7348 17.5 17.3916 17.5H19.3916C21.0485 17.5 22.3916 18.8431 22.3916 20.5C22.3916 21.0523 21.9439 21.5 21.3916 21.5H15.3916C14.8393 21.5 14.3916 21.0523 14.3916 20.5Z" fill="black"/>
</svg>
