<svg width="25" height="24" viewBox="0 0 25 24" fill="none" xmlns="http://www.w3.org/2000/svg">
<path fill-rule="evenodd" clip-rule="evenodd" d="M14.9985 10.7475C15.8178 11.3815 15.8178 12.6185 14.9985 13.2525C12.8394 14.9231 10.4285 16.2399 7.85597 17.1535L7.38992 17.3191C6.3664 17.6826 5.28959 16.9901 5.15161 15.938C4.81193 13.3479 4.81193 10.6521 5.15161 8.06199C5.28959 7.00991 6.36639 6.31743 7.38992 6.68095L7.85597 6.84647C10.4285 7.76013 12.8394 9.07691 14.9985 10.7475ZM14.0805 12.0661C14.1238 12.0327 14.1238 11.9673 14.0805 11.9339C12.0472 10.3605 9.77665 9.12042 7.35395 8.25997L6.8879 8.09444C6.78769 8.05885 6.65597 8.12674 6.63888 8.25704C6.31617 10.7176 6.31617 13.2824 6.63888 15.743C6.65596 15.8733 6.78769 15.9411 6.8879 15.9056L7.35395 15.74C9.77665 14.8796 12.0472 13.6395 14.0805 12.0661Z" fill="black"/>
<path fill-rule="evenodd" clip-rule="evenodd" d="M18.3916 6.25C18.8058 6.25 19.1416 6.58579 19.1416 7V17C19.1416 17.4142 18.8058 17.75 18.3916 17.75C17.9774 17.75 17.6416 17.4142 17.6416 17V7C17.6416 6.58579 17.9774 6.25 18.3916 6.25Z" fill="black"/>
</svg>
