<svg width="25" height="24" viewBox="0 0 25 24" fill="none" xmlns="http://www.w3.org/2000/svg">
<path fill-rule="evenodd" clip-rule="evenodd" d="M7.64157 6.63104V5.46126C7.64157 4.59501 8.27532 3.85912 9.13198 3.73062L10.3519 3.54763C11.7041 3.3448 13.079 3.3448 14.4313 3.54763L15.6512 3.73062C16.5078 3.85912 17.1416 4.59501 17.1416 5.46126V6.63104L18.8556 6.76939C20.168 6.87533 21.2385 7.86347 21.449 9.16319C21.9142 12.0357 21.9142 14.9644 21.449 17.8369C21.2385 19.1367 20.168 20.1248 18.8556 20.2307L16.9837 20.3818C13.9272 20.6285 10.8559 20.6285 7.79944 20.3818L5.92753 20.2307C4.61514 20.1248 3.5446 19.1367 3.33412 17.8369C2.86893 14.9644 2.86893 12.0357 3.33412 9.16319C3.5446 7.86347 4.61514 6.87533 5.92753 6.76939L7.64157 6.63104ZM10.5744 5.03104C11.7791 4.85033 13.004 4.85033 14.2087 5.03104L15.4287 5.21402C15.551 5.23238 15.6416 5.33751 15.6416 5.46126V6.52586C13.4767 6.40239 11.3065 6.40239 9.14157 6.52586V5.46126C9.14157 5.33751 9.23211 5.23238 9.35449 5.21402L10.5744 5.03104ZM7.92013 8.11343C10.8962 7.8732 13.8869 7.8732 16.863 8.11343L18.7349 8.26453C19.3591 8.31491 19.8682 8.78485 19.9683 9.40298C20.0306 9.78791 20.0841 10.1739 20.1288 10.5607C15.2512 12.9625 9.53195 12.9625 4.65435 10.5607C4.699 10.1739 4.75249 9.78791 4.81483 9.40298C4.91493 8.78485 5.42406 8.31491 6.04821 8.26453L7.92013 8.11343ZM4.52046 12.1567C9.51986 14.4304 15.2633 14.4304 20.2627 12.1567C20.358 13.9729 20.2599 15.7967 19.9683 17.5971C19.8682 18.2153 19.3591 18.6852 18.7349 18.7356L16.863 18.8867C13.8869 19.1269 10.8962 19.1269 7.92013 18.8867L6.04821 18.7356C5.42406 18.6852 4.91493 18.2153 4.81483 17.5971C4.52326 15.7967 4.42513 13.9729 4.52046 12.1567Z" fill="black"/>
</svg>
