<svg width="25" height="24" viewBox="0 0 25 24" fill="none" xmlns="http://www.w3.org/2000/svg">
<path d="M9.14163 13.5C9.14163 13.0858 9.47742 12.75 9.89163 12.75H11.6416V11C11.6416 10.5858 11.9774 10.25 12.3916 10.25C12.8058 10.25 13.1416 10.5858 13.1416 11V12.75H14.8916C15.3058 12.75 15.6416 13.0858 15.6416 13.5C15.6416 13.9142 15.3058 14.25 14.8916 14.25H13.1416V16C13.1416 16.4142 12.8058 16.75 12.3916 16.75C11.9774 16.75 11.6416 16.4142 11.6416 16V14.25H9.89163C9.47742 14.25 9.14163 13.9142 9.14163 13.5Z" fill="black"/>
<path fill-rule="evenodd" clip-rule="evenodd" d="M21.5529 9.74679C21.9497 12.233 21.9213 14.7686 21.4688 17.2453C21.2664 18.353 20.34 19.1833 19.2169 19.2636L17.579 19.3808C14.1252 19.6279 10.6581 19.6279 7.20424 19.3808L5.69024 19.2725C4.49421 19.1869 3.5077 18.3027 3.29218 17.1232C2.85552 14.7333 2.78076 12.2913 3.07042 9.87915L3.34291 7.61004C3.50461 6.26343 4.64702 5.25 6.0033 5.25H8.29487C9.41262 5.25 10.3439 6.04846 10.5494 7.10612L18.8638 7.10612C20.1702 7.10612 21.2829 8.05533 21.4888 9.34535L21.5529 9.74679ZM19.9932 16.9757C20.4152 14.6662 20.4417 12.3017 20.0717 9.98322L20.0076 9.58178C19.9179 9.0197 19.433 8.60612 18.8638 8.60612H10.151C9.56592 8.60612 9.09163 8.13183 9.09163 7.54677C9.09163 7.10672 8.73491 6.75 8.29487 6.75H6.0033C5.40627 6.75 4.90339 7.19611 4.83221 7.78888L4.55972 10.058C4.28799 12.3208 4.35812 14.6116 4.76775 16.8536C4.86028 17.36 5.2838 17.7396 5.79728 17.7763L7.31129 17.8846C10.6939 18.1266 14.0894 18.1266 17.472 17.8846L19.1099 17.7674C19.5504 17.7359 19.9138 17.4102 19.9932 16.9757Z" fill="black"/>
</svg>
