<svg width="25" height="24" viewBox="0 0 25 24" fill="none" xmlns="http://www.w3.org/2000/svg">
<path fill-rule="evenodd" clip-rule="evenodd" d="M7.64177 15.0507C7.6335 15.3948 7.86052 15.7004 8.19236 15.7918C8.5242 15.8832 8.87567 15.737 9.04479 15.4372L9.94709 13.8377C11.0172 11.9407 13.1474 10.9015 15.3011 11.2256L15.4504 11.2481C15.4772 11.9259 15.5153 12.6035 15.5647 13.2804L15.6325 14.211C15.6877 14.9678 16.5316 15.3909 17.171 14.9823C19.2687 13.6419 21.0923 11.9149 22.5446 9.8931L23.0007 9.25816C23.1885 8.99669 23.1885 8.64451 23.0007 8.38303L22.5446 7.7481C21.0923 5.72634 19.2687 3.99925 17.171 2.65889C16.5316 2.25031 15.6877 2.67338 15.6325 3.43019L15.5647 4.36083C15.5249 4.90656 15.4924 5.45269 15.4673 5.99907L14.4491 5.99907C10.7844 5.99907 7.7891 8.92317 7.70101 12.5868L7.64177 15.0507ZM15.5243 9.74232C13.105 9.3782 10.7088 10.3522 9.22449 12.2306C9.48611 9.56748 11.7308 7.49907 14.4491 7.49907L16.1878 7.49907C16.592 7.49907 16.9235 7.17871 16.9373 6.77471C16.9636 6.00591 17.0048 5.23749 17.0607 4.46989L17.0661 4.39543C18.7096 5.55709 20.1499 6.98548 21.3263 8.62323L21.4681 8.8206L21.3263 9.01797C20.1499 10.6557 18.7096 12.0841 17.0661 13.2458L17.0607 13.1713C16.9977 12.3074 16.9535 11.4425 16.9281 10.5772C16.9175 10.2146 16.6488 9.91156 16.2901 9.85757L15.5243 9.74232Z" fill="black"/>
<path d="M20.0329 17.4113C20.1508 16.403 20.2341 15.3916 20.2826 14.379C20.2879 14.2694 20.3376 14.1667 20.4199 14.0941C20.7832 13.7733 21.1353 13.44 21.4755 13.0948C21.6034 12.9649 21.827 13.0557 21.823 13.238C21.7918 14.6899 21.6917 16.1407 21.5227 17.5855C21.2862 19.6081 19.6619 21.1931 17.6498 21.418C14.1832 21.8054 10.5999 21.8054 7.13331 21.418C5.12125 21.1931 3.49692 19.6081 3.26037 17.5855C2.84583 14.0412 2.84583 10.4607 3.26037 6.9164C3.49692 4.89387 5.12125 3.30886 7.13331 3.08399C9.42429 2.82794 11.7663 2.7411 14.0918 2.82349C14.2876 2.83042 14.4224 3.0221 14.398 3.2165C14.3929 3.25698 14.3888 3.29793 14.3858 3.33932L14.3345 4.04314C14.3228 4.20473 14.1848 4.32767 14.0229 4.32199C11.7758 4.24315 9.51272 4.32739 7.29992 4.5747C5.96981 4.72336 4.90433 5.77298 4.75021 7.09065C4.34921 10.5192 4.34921 13.9828 4.75021 17.4113C4.90433 18.729 5.96981 19.7786 7.29992 19.9272C10.6558 20.3023 14.1273 20.3023 17.4832 19.9272C18.8133 19.7786 19.8788 18.729 20.0329 17.4113Z" fill="black"/>
</svg>
