<svg width="25" height="24" viewBox="0 0 25 24" fill="none" xmlns="http://www.w3.org/2000/svg">
<path d="M11.3857 10.8253C11.4915 10.7195 11.5028 10.5522 11.4154 10.4308C11.0737 9.95653 10.7662 9.45581 10.4964 8.93221L11.1659 8.43605C11.965 7.84381 12.1105 6.70542 11.4859 5.93125L9.69089 3.7062C9.10689 2.98231 8.05867 2.8417 7.30454 3.38611L5.53125 4.66627C4.08327 5.71158 3.57334 7.63299 4.31244 9.25874L4.86694 10.4785L4.86811 10.481C5.52179 11.9047 6.34691 13.2302 7.31784 14.4319C7.42853 14.5689 7.63323 14.5778 7.75777 14.4532L8.39852 13.8125C8.5078 13.7032 8.51595 13.529 8.41955 13.4082C7.55492 12.3247 6.81839 11.1335 6.23189 9.85641L6.23129 9.85511L5.67795 8.63795C5.23449 7.6625 5.54045 6.50966 6.40924 5.88247L8.18253 4.60231C8.29026 4.52454 8.44001 4.54462 8.52344 4.64804L10.3185 6.87308C10.4077 6.98368 10.3869 7.14631 10.2728 7.23091L9.10438 8.09677C8.82063 8.30705 8.72203 8.68681 8.86764 9.00857C9.25862 9.87251 9.73822 10.6869 10.295 11.4402C10.4022 11.5852 10.6129 11.5981 10.7404 11.4706L11.3857 10.8253Z" fill="black"/>
<path fill-rule="evenodd" clip-rule="evenodd" d="M20.3887 3.94361L4.42195 19.9104C4.41298 19.9193 4.40383 19.928 4.39453 19.9365L4.36129 19.9697C4.06839 20.2626 4.06839 20.7375 4.36129 21.0304C4.65418 21.3233 5.12905 21.3233 5.42195 21.0304L9.62945 16.8229C11.0907 18.0874 12.7515 19.129 14.5615 19.8974L15.3193 20.235C16.9403 20.9572 18.8457 20.4443 19.8851 19.0058L21.1594 17.242C21.7043 16.4879 21.5639 15.4393 20.8398 14.8551L18.615 13.0603C17.8408 12.4358 16.7024 12.5812 16.1102 13.3804L15.614 14.0499C14.9211 13.6928 14.2682 13.2697 13.6636 12.7888L21.4219 5.03036C21.7148 4.73747 21.7148 4.26259 21.4219 3.9697C21.138 3.68578 20.6831 3.67708 20.3887 3.94361ZM15.5377 15.6786C14.4753 15.1978 13.488 14.5831 12.5968 13.8555L10.6931 15.7592C12.0188 16.8919 13.5201 17.8265 15.1535 18.5191L15.1659 18.5244L15.9298 18.8648C16.9024 19.2982 18.0456 18.9904 18.6692 18.1273L19.9436 16.3636C20.0214 16.2558 20.0014 16.106 19.8979 16.0226L17.6732 14.2278C17.5626 14.1385 17.4 14.1593 17.3153 14.2735L16.4495 15.4419C16.2392 15.7256 15.8594 15.8242 15.5377 15.6786Z" fill="black"/>
</svg>
