<svg width="25" height="24" viewBox="0 0 25 24" fill="none" xmlns="http://www.w3.org/2000/svg">
<path d="M13.8916 9.75002C13.8916 9.3358 13.5558 9.00002 13.1416 9.00002H7.1416C6.72739 9.00002 6.3916 9.3358 6.3916 9.75002C6.3916 10.1642 6.72739 10.5 7.1416 10.5H13.1416C13.5558 10.5 13.8916 10.1642 13.8916 9.75002Z" fill="black"/>
<path d="M12.8916 12.75C12.8916 12.3358 12.5558 12 12.1416 12H7.1416C6.72739 12 6.3916 12.3358 6.3916 12.75C6.3916 13.1642 6.72739 13.5 7.1416 13.5H12.1416C12.5558 13.5 12.8916 13.1642 12.8916 12.75Z" fill="black"/>
<path d="M13.1416 15C13.5558 15 13.8916 15.3358 13.8916 15.75C13.8916 16.1642 13.5558 16.5 13.1416 16.5H7.1416C6.72739 16.5 6.3916 16.1642 6.3916 15.75C6.3916 15.3358 6.72739 15 7.1416 15H13.1416Z" fill="black"/>
<path fill-rule="evenodd" clip-rule="evenodd" d="M6.3916 21.75H19.3916C20.9104 21.75 22.1416 20.5188 22.1416 19V13.5C22.1416 13.0858 21.8058 12.75 21.3916 12.75H18.1416V4.94321C18.1416 3.51981 16.5327 2.69184 15.3744 3.51918L15.1994 3.64421C14.4189 4.2017 13.3617 4.19983 12.5775 3.63972C11.2737 2.70839 9.50954 2.70839 8.20567 3.63972C7.42152 4.19983 6.36431 4.2017 5.58382 3.64421L5.40877 3.51918C4.2505 2.69184 2.6416 3.51981 2.6416 4.94321V18C2.6416 20.0711 4.32053 21.75 6.3916 21.75ZM9.07753 4.86032C9.85985 4.30152 10.9234 4.30152 11.7057 4.86032C13.0077 5.79035 14.7655 5.79745 16.0712 4.86481L16.2463 4.73978C16.4118 4.62159 16.6416 4.73987 16.6416 4.94321V19C16.6416 19.4501 16.7497 19.875 16.9415 20.25H6.3916C5.14896 20.25 4.1416 19.2427 4.1416 18V4.94321C4.1416 4.73987 4.37144 4.62159 4.53691 4.73978L4.71196 4.86481C6.01765 5.79745 7.7755 5.79034 9.07753 4.86032ZM18.1416 19V14.25H20.6416V19C20.6416 19.6904 20.082 20.25 19.3916 20.25C18.7012 20.25 18.1416 19.6904 18.1416 19Z" fill="black"/>
</svg>
