<svg width="25" height="24" viewBox="0 0 25 24" fill="none" xmlns="http://www.w3.org/2000/svg">
<path fill-rule="evenodd" clip-rule="evenodd" d="M19.5393 5.25H5.72674L4.54657 3.1346C4.4141 2.89715 4.1635 2.75 3.8916 2.75H2.3916C1.97739 2.75 1.6416 3.08579 1.6416 3.5C1.6416 3.91421 1.97739 4.25 2.3916 4.25H3.4512L4.6159 6.33765L7.30197 12.2809L7.30472 12.2869L7.54131 12.8104L4.84447 15.687C4.65056 15.8939 4.58986 16.1924 4.68759 16.4585C4.78532 16.7247 5.02477 16.913 5.30646 16.9452L7.76459 17.2261C10.8393 17.5775 13.944 17.5775 17.0186 17.2261L19.4768 16.9452C19.8883 16.8981 20.1838 16.5264 20.1368 16.1148C20.0897 15.7033 19.718 15.4078 19.3065 15.4549L16.8483 15.7358C13.8868 16.0742 10.8964 16.0742 7.93491 15.7358L6.95939 15.6243L8.93877 13.513C8.95792 13.4925 8.9757 13.4713 8.99212 13.4494L9.74494 13.5474C10.7999 13.6847 11.8662 13.7116 12.9267 13.6277C15.4002 13.4321 17.6926 12.2551 19.2931 10.3591L19.8711 9.67425C19.8906 9.65125 19.9086 9.62711 19.9251 9.60194L21.0025 7.96009C21.7661 6.79633 20.9313 5.25 19.5393 5.25ZM9.04788 11.944C8.88246 11.9225 8.73983 11.8175 8.67019 11.666L8.66885 11.6631L6.44834 6.75H19.5393C19.7382 6.75 19.8574 6.9709 19.7483 7.13716L18.6958 8.74123L18.1468 9.39152C16.8048 10.9814 14.8825 11.9683 12.8085 12.1324C11.8519 12.208 10.89 12.1837 9.93848 12.0599L9.04788 11.944Z" fill="black"/>
<path d="M6.8916 18.5C6.06318 18.5 5.3916 19.1716 5.3916 20C5.3916 20.8284 6.06318 21.5 6.8916 21.5C7.72003 21.5 8.3916 20.8284 8.3916 20C8.3916 19.1716 7.72003 18.5 6.8916 18.5Z" fill="black"/>
<path d="M16.3916 20C16.3916 19.1716 17.0632 18.5 17.8916 18.5C18.72 18.5 19.3916 19.1716 19.3916 20C19.3916 20.8284 18.72 21.5 17.8916 21.5C17.0632 21.5 16.3916 20.8284 16.3916 20Z" fill="black"/>
</svg>
