<svg width="25" height="24" viewBox="0 0 25 24" fill="none" xmlns="http://www.w3.org/2000/svg">
<path fill-rule="evenodd" clip-rule="evenodd" d="M11.8067 2.39511C12.1878 2.27797 12.5954 2.27797 12.9765 2.39511L15.9622 3.31277C17.5199 3.79152 18.9991 4.49538 20.3532 5.40203C21.4063 6.10722 20.9071 7.74997 19.6397 7.74997H5.14351C3.87606 7.74997 3.37686 6.10722 4.43001 5.40204C5.78404 4.49538 7.26334 3.79152 8.82098 3.31277L11.8067 2.39511ZM12.5358 3.82891C12.4418 3.80003 12.3414 3.80003 12.2474 3.82891L9.26166 4.74658C8.08086 5.1095 6.94951 5.61454 5.89229 6.24997H18.8909C17.8337 5.61454 16.7023 5.1095 15.5215 4.74658L12.5358 3.82891Z" fill="black"/>
<path d="M4.6416 21C4.6416 20.5858 4.97739 20.25 5.3916 20.25H19.3916C19.8058 20.25 20.1416 20.5858 20.1416 21C20.1416 21.4142 19.8058 21.75 19.3916 21.75H5.3916C4.97739 21.75 4.6416 21.4142 4.6416 21Z" fill="black"/>
<path d="M6.6416 17C6.6416 17.4142 6.97739 17.75 7.3916 17.75C7.80582 17.75 8.1416 17.4142 8.1416 17L8.1416 11C8.1416 10.5858 7.80581 10.25 7.3916 10.25C6.97739 10.25 6.6416 10.5858 6.6416 11L6.6416 17Z" fill="black"/>
<path d="M12.3916 17.75C11.9774 17.75 11.6416 17.4142 11.6416 17L11.6416 11C11.6416 10.5858 11.9774 10.25 12.3916 10.25C12.8058 10.25 13.1416 10.5858 13.1416 11V17C13.1416 17.4142 12.8058 17.75 12.3916 17.75Z" fill="black"/>
<path d="M16.6416 17C16.6416 17.4142 16.9774 17.75 17.3916 17.75C17.8058 17.75 18.1416 17.4142 18.1416 17V11C18.1416 10.5858 17.8058 10.25 17.3916 10.25C16.9774 10.25 16.6416 10.5858 16.6416 11V17Z" fill="black"/>
</svg>
