<svg width="25" height="24" viewBox="0 0 25 24" fill="none" xmlns="http://www.w3.org/2000/svg">
<path fill-rule="evenodd" clip-rule="evenodd" d="M12.3915 3.74969L19.6652 3.95535C20.9504 3.99169 22.0134 4.96734 22.1595 6.24474C22.4831 9.07235 22.4831 11.9276 22.1595 14.7552C22.0134 16.0326 20.9504 17.0083 19.6652 17.0446L14.1415 17.2008V19.25H17.3915C17.8058 19.25 18.1415 19.5858 18.1415 20C18.1415 20.4142 17.8058 20.75 17.3915 20.75H7.39154C6.97733 20.75 6.64154 20.4142 6.64154 20C6.64154 19.5858 6.97733 19.25 7.39154 19.25H10.6415V17.2008L5.1179 17.0446C3.83268 17.0083 2.76966 16.0326 2.6235 14.7552C2.29998 11.9276 2.29998 9.07235 2.6235 6.24474C2.76966 4.96734 3.83268 3.99169 5.1179 3.95535L12.3915 3.74969ZM12.3915 5.25029L5.16029 5.45475C4.62108 5.46999 4.1751 5.87932 4.11378 6.41525C3.80322 9.12956 3.80322 11.8704 4.11378 14.5847C4.1751 15.1207 4.62108 15.53 5.16029 15.5452L12.3915 15.7497L19.6228 15.5452C20.162 15.53 20.608 15.1207 20.6693 14.5847C20.9798 11.8704 20.9798 9.12956 20.6693 6.41525C20.608 5.87933 20.162 5.46999 19.6228 5.45475L12.3915 5.25029Z" fill="black"/>
</svg>
