<svg width="25" height="24" viewBox="0 0 25 24" fill="none" xmlns="http://www.w3.org/2000/svg">
<path fill-rule="evenodd" clip-rule="evenodd" d="M19.5753 4.91224L12.3916 4.74976L5.20787 4.91224C3.87671 4.94235 2.74961 5.90297 2.50892 7.21254C1.9272 10.3776 1.9272 13.6223 2.50892 16.7874C2.74961 18.0969 3.87671 19.0575 5.20787 19.0876L12.3916 19.2501L19.5753 19.0876C20.9065 19.0575 22.0336 18.0969 22.2743 16.7874C22.856 13.6223 22.856 10.3776 22.2743 7.21254C22.0336 5.90297 20.9065 4.94235 19.5753 4.91224ZM5.24179 6.41186L12.3916 6.25014L19.5414 6.41186C20.1617 6.42589 20.6868 6.87349 20.799 7.48369C20.9523 8.31767 21.0627 9.15752 21.1304 9.99994H3.65281C3.72046 9.15752 3.83093 8.31767 3.98421 7.48369C4.09636 6.87349 4.62154 6.42589 5.24179 6.41186ZM3.57263 11.9999C3.57263 13.5116 3.70983 15.0233 3.98421 16.5162C4.09636 17.1264 4.62154 17.574 5.24179 17.588L12.3916 17.7498L19.5414 17.588C20.1617 17.574 20.6868 17.1264 20.799 16.5162C21.0734 15.0233 21.2106 13.5116 21.2106 11.9999H3.57263Z" fill="black"/>
</svg>
