<svg width="25" height="24" viewBox="0 0 25 24" fill="none" xmlns="http://www.w3.org/2000/svg">
<path fill-rule="evenodd" clip-rule="evenodd" d="M8.38592 3.12438C8.51998 2.89268 8.76739 2.75 9.03508 2.75H15.7481C16.0158 2.75 16.2632 2.89268 16.3973 3.12438L23.0408 14.6061C23.1791 14.8451 23.1748 15.1408 23.0297 15.3758L19.621 20.8941C19.4844 21.1153 19.2429 21.25 18.9829 21.25H5.8003C5.5403 21.25 5.29885 21.1153 5.16222 20.8941L1.75352 15.3758C1.60837 15.1408 1.60412 14.8451 1.74244 14.6061L8.38592 3.12438ZM9.03677 4.99461L3.26538 14.9691L5.78347 19.0456L8.38677 14.6046L8.38805 14.6024L11.5066 9.24084L9.03677 4.99461ZM12.3742 10.7325L10.339 14.2317H14.4095L12.3742 10.7325ZM16.1447 14.2317H21.0911L15.3156 4.25H10.339L16.1447 14.2317ZM21.0468 15.7317H9.4648L7.1093 19.75H18.5646L21.0468 15.7317Z" fill="black"/>
</svg>
