<svg width="25" height="24" viewBox="0 0 25 24" fill="none" xmlns="http://www.w3.org/2000/svg">
<path d="M19.0717 9.98322C19.1112 10.231 19.1462 10.4792 19.1767 10.7279C19.1944 10.8722 19.2877 10.9956 19.4195 11.0569C19.7742 11.2219 20.1101 11.4206 20.4231 11.6488C20.5656 11.7528 20.7736 11.6471 20.7594 11.4712C20.7131 10.8947 20.6443 10.3194 20.5529 9.74679L20.4888 9.34535C20.2829 8.05533 19.1702 7.10612 17.8638 7.10612L9.54941 7.10612C9.34389 6.04846 8.41262 5.25 7.29487 5.25H5.0033C3.64702 5.25 2.50461 6.26343 2.34291 7.61004L2.07042 9.87915C1.78076 12.2913 1.85552 14.7333 2.29218 17.1232C2.5077 18.3027 3.49421 19.1869 4.69024 19.2725L6.20424 19.3808C7.9282 19.5041 9.65545 19.5659 11.3827 19.5661C11.5375 19.5661 11.6338 19.3969 11.5625 19.2596C11.4132 18.9719 11.2866 18.6706 11.1849 18.358C11.1291 18.1866 10.973 18.0651 10.7928 18.0636C9.29791 18.051 7.80334 17.9914 6.31129 17.8846L4.79728 17.7763C4.2838 17.7396 3.86028 17.36 3.76775 16.8536C3.35812 14.6116 3.28799 12.3208 3.55972 10.058L3.83221 7.78888C3.90339 7.19611 4.40627 6.75 5.0033 6.75H7.29487C7.73491 6.75 8.09163 7.10672 8.09163 7.54677C8.09163 8.13183 8.56592 8.60612 9.15099 8.60612H17.8638C18.433 8.60612 18.9179 9.0197 19.0076 9.58178L19.0717 9.98322Z" fill="black"/>
<path fill-rule="evenodd" clip-rule="evenodd" d="M12.3916 16.5C12.3916 17.4719 12.6997 18.3718 13.2236 19.1074C13.5155 19.5173 13.8743 19.8762 14.2842 20.1681C15.0198 20.6919 15.9198 21 16.8916 21C19.3769 21 21.3916 18.9853 21.3916 16.5C21.3916 15.5281 21.0835 14.6282 20.5597 13.8926C20.2678 13.4827 19.9089 13.1238 19.499 12.8319C18.7634 12.3081 17.8635 12 16.8916 12C14.4064 12 12.3916 14.0147 12.3916 16.5ZM16.8916 19.5C16.3353 19.5 15.8143 19.3486 15.3677 19.0846L19.4763 14.976C19.7402 15.4227 19.8916 15.9436 19.8916 16.5C19.8916 18.1569 18.5485 19.5 16.8916 19.5ZM14.307 18.024L18.4156 13.9154C17.969 13.6514 17.448 13.5 16.8916 13.5C15.2348 13.5 13.8916 14.8431 13.8916 16.5C13.8916 17.0564 14.0431 17.5773 14.307 18.024Z" fill="black"/>
</svg>
