<svg width="25" height="24" viewBox="0 0 25 24" fill="none" xmlns="http://www.w3.org/2000/svg">
<path fill-rule="evenodd" clip-rule="evenodd" d="M23.7966 16.865C23.2527 15.7695 22.536 14.7688 21.6741 13.9013C21.3808 13.5603 21.0369 13.2238 20.7684 12.9612L20.7309 12.9245C20.5924 12.7889 20.478 12.6764 20.3844 12.5795C21.5629 10.9407 22.5716 9.18595 23.3946 7.34222L23.4278 7.26783L23.4511 7.18976C23.5592 6.82687 23.6838 6.1368 23.2431 5.51317C22.7876 4.86859 22.0582 4.75234 21.5698 4.75234H19.3227C18.8543 4.73087 18.3904 4.85751 17.9974 5.11498C17.6014 5.37439 17.2985 5.75278 17.1318 6.1951C16.6479 7.34779 16.0424 8.4442 15.3263 9.46598V6.83269C15.3263 6.4923 15.2943 5.92289 14.9298 5.44229C14.4934 4.86685 13.8623 4.75234 13.4242 4.75234H9.85868C9.39931 4.74172 8.95254 4.90597 8.60921 5.21259C8.2576 5.52659 8.04212 5.96521 8.00847 6.43543L8.00529 6.47997V6.52463C8.00529 7.01011 8.19766 7.36822 8.35135 7.59344C8.42016 7.69427 8.49376 7.78606 8.54025 7.84403L8.55098 7.85741C8.60055 7.91923 8.63364 7.96049 8.66685 8.00566C8.7542 8.12448 8.87984 8.30768 8.91539 8.78174V10.2547C8.3007 9.24423 7.65226 7.89957 7.16436 6.46344L7.15688 6.4414L7.14857 6.41965C7.02692 6.10103 6.8318 5.63743 6.44101 5.28266C5.98448 4.86821 5.4445 4.75234 4.95342 4.75234H2.67348C2.17666 4.75234 1.57774 4.86857 1.13084 5.33999C0.691375 5.80358 0.641602 6.35907 0.641602 6.65442V6.78755L0.66964 6.91769C1.30115 9.84881 2.60236 12.5937 4.47106 14.9377C5.31828 16.2737 6.46628 17.3936 7.82373 18.2075C9.20284 19.0345 10.7587 19.5219 12.3631 19.6297L12.4049 19.6325H12.4469C13.1727 19.6325 13.9294 19.5699 14.4984 19.1907C15.266 18.6792 15.3263 17.8936 15.3263 17.5021V16.3642C15.5233 16.5234 15.7677 16.7378 16.0669 17.0259C16.4286 17.3879 16.7166 17.7016 16.9636 17.9754L17.0954 18.122L17.0962 18.1228C17.288 18.3364 17.4768 18.5467 17.6487 18.7195C17.8648 18.9367 18.1312 19.1761 18.4661 19.3529C18.8287 19.5444 19.2093 19.631 19.6136 19.631H21.8951C22.3757 19.631 23.0651 19.5173 23.5498 18.9554C24.078 18.343 24.0377 17.5924 23.8716 17.053L23.8417 16.956L23.7966 16.865ZM18.0773 16.9706C17.8205 16.6859 17.5108 16.3484 17.1194 15.9571L17.1162 15.9539C15.7601 14.6464 15.1264 14.4186 14.6784 14.4186C14.4401 14.4186 14.1764 14.4454 14.0053 14.6585C13.9245 14.7591 13.8821 14.8805 13.8583 15.007C13.8345 15.1333 13.8263 15.2816 13.8263 15.4505V17.5021C13.8263 17.7569 13.7844 17.8639 13.6666 17.9425C13.5096 18.0471 13.1741 18.1319 12.4553 18.1325C11.0909 18.0395 9.76801 17.6244 8.59509 16.9211C7.41977 16.2164 6.42869 15.2425 5.70347 14.0797L5.69558 14.0671L5.68624 14.0554C3.94497 11.8881 2.73163 9.34571 2.1419 6.6291C2.1451 6.49814 2.17347 6.42045 2.21944 6.37195C2.26681 6.32198 2.38159 6.25234 2.67348 6.25234H4.95342C5.20705 6.25234 5.3383 6.30751 5.43277 6.39327C5.53987 6.4905 5.63276 6.65561 5.74561 6.95042C6.30522 8.5964 7.06199 10.1357 7.7786 11.2675C8.13679 11.8332 8.48929 12.3041 8.80689 12.6368C8.96544 12.803 9.12092 12.9406 9.2693 13.0385C9.41292 13.1332 9.57574 13.2079 9.74318 13.2079C9.83154 13.2079 9.93489 13.1988 10.0344 13.1547C10.1414 13.1074 10.2245 13.0284 10.2832 12.9225C10.387 12.7353 10.4154 12.458 10.4154 12.0947V8.73099L10.4149 8.7231C10.3631 7.90476 10.116 7.44443 9.87541 7.11718C9.82268 7.04546 9.77069 6.98068 9.72519 6.92399L9.71273 6.90846C9.66278 6.84616 9.62302 6.79582 9.59036 6.74795C9.53051 6.66024 9.50731 6.59909 9.50542 6.53356C9.51322 6.45578 9.54988 6.38361 9.60835 6.33139C9.66904 6.27719 9.74846 6.24897 9.82976 6.25234H13.4242C13.6303 6.25234 13.6997 6.30262 13.7346 6.34868C13.7839 6.4137 13.8263 6.54893 13.8263 6.83269V11.3613C13.8263 11.8992 14.0743 12.2634 14.4344 12.2634C14.8488 12.2634 15.1475 12.012 15.6699 11.4896L15.6786 11.4809L15.6864 11.4713C16.8572 10.0436 17.8141 8.45298 18.5263 6.74943L18.5308 6.73666C18.5844 6.58613 18.6857 6.45726 18.8194 6.3697C18.953 6.28215 19.1117 6.24072 19.271 6.25175L19.2797 6.25234H21.5698C21.8821 6.25234 21.9849 6.33183 22.0181 6.37884C22.0535 6.42885 22.078 6.53604 22.018 6.74625C21.1969 8.58266 20.1815 10.3258 18.9896 11.9464L18.9821 11.9578C18.8664 12.1348 18.7395 12.3306 18.7211 12.5554C18.7014 12.7968 18.8059 13.0163 18.9886 13.2515C19.1218 13.4484 19.3965 13.7173 19.6752 13.9901L19.7015 14.0158C19.9937 14.3018 20.3102 14.6116 20.5643 14.9116L20.5711 14.9195L20.5785 14.9269C21.336 15.6825 21.9659 16.556 22.4436 17.5132C22.5199 17.7738 22.4732 17.907 22.4139 17.9757C22.3446 18.0561 22.1892 18.131 21.8951 18.131H19.6136C19.4354 18.131 19.2979 18.0959 19.1665 18.0265C19.0296 17.9542 18.8888 17.8392 18.7122 17.6617C18.57 17.5187 18.4146 17.3457 18.225 17.1348C18.178 17.0825 18.1289 17.0277 18.0773 16.9706Z" fill="black"/>
</svg>
