<svg width="25" height="24" viewBox="0 0 25 24" fill="none" xmlns="http://www.w3.org/2000/svg">
<path fill-rule="evenodd" clip-rule="evenodd" d="M16.0417 4.2629L16.8551 4.3642C18.7324 4.59801 20.1416 6.19359 20.1416 8.08545V18.5749C20.1416 20.4118 18.7733 21.961 16.9505 22.188C13.9229 22.5651 10.8603 22.5651 7.83268 22.188C6.00986 21.961 4.6416 20.4118 4.6416 18.5749V8.08545C4.6416 6.19359 6.0508 4.59801 7.92815 4.3642L8.7415 4.2629C9.06368 3.10206 10.1281 2.25 11.3916 2.25H13.3916C14.6551 2.25 15.7195 3.10206 16.0417 4.2629ZM8.6416 5.78693L8.11353 5.8527C6.98712 5.99299 6.1416 6.95034 6.1416 8.08545V18.5749C6.1416 19.655 6.94618 20.566 8.01806 20.6995C10.9225 21.0612 13.8607 21.0612 16.7651 20.6995C17.837 20.566 18.6416 19.655 18.6416 18.5749V8.08545C18.6416 6.95034 17.7961 5.99299 16.6697 5.8527L16.1416 5.78693V7C16.1416 7.41421 15.8058 7.75 15.3916 7.75H9.3916C8.97739 7.75 8.6416 7.41421 8.6416 7V5.78693ZM10.1416 5C10.1416 4.30964 10.7012 3.75 11.3916 3.75H13.3916C14.082 3.75 14.6416 4.30964 14.6416 5V6.25H10.1416V5Z" fill="black"/>
<path d="M16.1416 11.75C16.1416 11.3358 15.8058 11 15.3916 11H9.3916C8.97739 11 8.6416 11.3358 8.6416 11.75C8.6416 12.1642 8.97739 12.5 9.3916 12.5H15.3916C15.8058 12.5 16.1416 12.1642 16.1416 11.75Z" fill="black"/>
<path d="M15.1416 14.75C15.1416 14.3358 14.8058 14 14.3916 14H9.3916C8.97739 14 8.6416 14.3358 8.6416 14.75C8.6416 15.1642 8.97739 15.5 9.3916 15.5H14.3916C14.8058 15.5 15.1416 15.1642 15.1416 14.75Z" fill="black"/>
</svg>
