<svg width="25" height="24" viewBox="0 0 25 24" fill="none" xmlns="http://www.w3.org/2000/svg">
<path fill-rule="evenodd" clip-rule="evenodd" d="M14.738 10.726V7.69H16.091V13.993C16.091 14.543 16.113 15.137 16.135 15.5H14.925L14.87 14.653H14.848C14.529 15.247 13.88 15.621 13.099 15.621C11.823 15.621 10.811 14.532 10.811 12.882C10.8 11.089 11.922 10.022 13.209 10.022C13.946 10.022 14.474 10.33 14.716 10.726H14.738ZM14.694 13.575C14.727 13.454 14.738 13.322 14.738 13.179V12.376C14.738 12.266 14.727 12.134 14.705 12.024C14.584 11.496 14.155 11.067 13.539 11.067C12.67 11.067 12.186 11.837 12.186 12.838C12.186 13.817 12.67 14.532 13.528 14.532C14.078 14.532 14.562 14.158 14.694 13.575Z" fill="black"/>
<path d="M8.74658 15.5V8.086H10.0996V15.5H8.74658Z" fill="black"/>
<path fill-rule="evenodd" clip-rule="evenodd" d="M17.6499 2.83303C14.1833 2.44559 10.5999 2.44559 7.13337 2.83303C5.12131 3.05791 3.49698 4.64292 3.26043 6.66545C2.84589 10.2097 2.84589 13.7903 3.26043 17.3346C3.49698 19.3571 5.12132 20.9421 7.13337 21.167C10.5999 21.5544 14.1833 21.5544 17.6499 21.167C19.6619 20.9421 21.2862 19.3571 21.5228 17.3346C21.9373 13.7903 21.9373 10.2097 21.5228 6.66545C21.2862 4.64292 19.6619 3.05791 17.6499 2.83303ZM7.29998 4.32375C10.6558 3.94868 14.1274 3.94868 17.4832 4.32375C18.8134 4.47241 19.8788 5.52202 20.033 6.8397C20.434 10.2682 20.434 13.7318 20.033 17.1603C19.8788 18.478 18.8134 19.5276 17.4832 19.6763C14.1274 20.0513 10.6558 20.0513 7.29998 19.6763C5.96987 19.5276 4.90439 18.478 4.75027 17.1603C4.34927 13.7318 4.34927 10.2682 4.75027 6.8397C4.90439 5.52202 5.96987 4.47241 7.29998 4.32375Z" fill="black"/>
</svg>
