<svg width="25" height="24" viewBox="0 0 25 24" fill="none" xmlns="http://www.w3.org/2000/svg">
<path fill-rule="evenodd" clip-rule="evenodd" d="M16.3158 4.41833C13.7227 3.9836 11.0606 3.9836 8.46746 4.41833C7.97946 4.50014 7.59187 4.87507 7.49459 5.35801C6.60951 9.75199 6.56122 14.2735 7.35225 18.6854L7.5158 19.5976L11.1863 16.1106C11.8618 15.4689 12.9215 15.4689 13.5969 16.1106L17.2675 19.5976L17.431 18.6854C18.222 14.2735 18.1738 9.75199 17.2887 5.35801C17.1914 4.87507 16.8038 4.50014 16.3158 4.41833ZM8.21945 2.93898C10.9768 2.47672 13.8065 2.47672 16.5638 2.93898C17.663 3.12326 18.5386 3.96707 18.7591 5.06181C19.6815 9.64072 19.7318 14.3525 18.9075 18.9501L18.686 20.1854C18.5001 21.2223 17.2361 21.6367 16.4724 20.9112L12.5638 17.1981C12.4673 17.1064 12.3159 17.1064 12.2194 17.1981L8.31092 20.9112C7.54722 21.6367 6.28318 21.2223 6.09727 20.1854L5.87579 18.9501C5.05147 14.3525 5.1018 9.64073 6.02412 5.06181C6.24464 3.96707 7.12023 3.12326 8.21945 2.93898Z" fill="black"/>
</svg>
