<svg width="25" height="24" viewBox="0 0 25 24" fill="none" xmlns="http://www.w3.org/2000/svg">
<path fill-rule="evenodd" clip-rule="evenodd" d="M10.8987 2.25167C10.9154 2.25056 10.932 2.25 10.9487 2.25H13.4945C13.9087 2.25 14.2445 2.58579 14.2445 3V6.71382H16.9818C17.3961 6.71382 17.7318 7.04961 17.7318 7.46382V10.0793C17.7318 10.4936 17.3961 10.8293 16.9818 10.8293H14.2445V15.5109C14.2445 15.5482 14.2417 15.5855 14.2361 15.6225C14.2185 15.7399 14.228 15.8597 14.264 15.9729C14.3 16.086 14.3614 16.1894 14.4436 16.275C14.5259 16.3607 14.6266 16.4263 14.7382 16.4669C14.8498 16.5074 14.9692 16.5218 15.0872 16.509C15.1058 16.507 15.1245 16.5056 15.1432 16.505C15.5387 16.4917 15.9286 16.4075 16.2943 16.2563C16.4871 16.1766 16.7043 16.1808 16.8939 16.2679C17.0835 16.355 17.2282 16.5171 17.2933 16.7153L18.1041 19.1826C18.1767 19.4036 18.1427 19.6457 18.012 19.8382C17.8411 20.0898 17.5804 20.2794 17.3487 20.4165C17.0998 20.5638 16.8055 20.6961 16.4923 20.807C15.8708 21.0271 15.1104 21.1859 14.3724 21.1868C12.2761 21.219 10.7575 20.4612 9.77056 19.362C8.80195 18.2833 8.38528 16.9206 8.38528 15.7812V10.8293H7.3916C6.97739 10.8293 6.6416 10.4936 6.6416 10.0793V7.82999C6.6416 7.51813 6.83459 7.2388 7.1263 7.12848C7.95691 6.81435 8.6782 6.26537 9.20225 5.54846C9.72415 4.83449 10.028 3.98469 10.0771 3.10183C10.084 2.88909 10.1678 2.68563 10.3135 2.52952C10.4662 2.36593 10.6754 2.26659 10.8987 2.25167ZM11.5168 3.75C11.3715 4.71769 10.9941 5.63904 10.4132 6.43365C9.82148 7.24316 9.04034 7.8914 8.1416 8.32373V9.32934H9.13528C9.54949 9.32934 9.88528 9.66512 9.88528 10.0793V15.7812C9.88528 16.586 10.1879 17.5816 10.8867 18.3599C11.5662 19.1167 12.6611 19.7141 14.3543 19.6869L14.3663 19.6867C14.908 19.6867 15.5009 19.5669 15.9915 19.3931C16.2006 19.319 16.3791 19.2394 16.5188 19.1631L16.0994 17.8868C15.811 17.9525 15.5167 17.9916 15.2201 18.0032C14.8835 18.0354 14.5438 17.9922 14.2257 17.8766C13.8984 17.7576 13.6028 17.5651 13.3616 17.3138C13.1203 17.0626 12.94 16.7593 12.8345 16.4274C12.7352 16.1151 12.7046 15.7852 12.7445 15.4604V10.0793C12.7445 9.66512 13.0803 9.32934 13.4945 9.32934H16.2318V8.21382H13.4945C13.0803 8.21382 12.7445 7.87803 12.7445 7.46382V3.75H11.5168Z" fill="black"/>
</svg>
